<svg width="500" height="500" viewBox="0 0 500 500" fill="none" xmlns="http://www.w3.org/2000/svg">
<path  d="M210.577 382.902C220.795 392.699 226.693 396.023 232.382 408.98C235.347 415.734 235.058 427.243 234.958 435.515C234.858 443.787 273.103 443.791 273.103 443.791C273.103 443.791 314.73 447.883 323.344 442.215C326.649 440.04 322.089 432.162 322.089 432.162C321.323 427.053 320.391 423.677 321.43 418.399C322.001 415.501 323.921 414.143 326.08 411.879C329.206 408.601 333.59 404.331 337.02 400.404C339.557 397.499 340.403 397.813 342.2 389.386L346.799 367.807C348.595 359.38 350.671 342.721 350.671 342.721C350.671 342.721 352.869 327.104 353.246 317.025C353.62 307.024 353.078 297.162 352.615 291.405C352.312 287.63 352.186 281.209 348.712 276.117C344.584 270.065 339.947 267.66 332.758 266.242C326.959 265.098 323.132 264.12 316.961 262.772C306.014 260.381 299.869 259.077 288.916 256.71C281.615 255.131 276.059 255.413 268.923 252.058C261.676 248.652 262.395 242.404 260.478 234.635C258.829 227.953 260.044 217.021 260.044 217.021C260.044 217.021 260.055 202.568 260.102 193.307C260.161 181.917 260.465 168.946 260.082 166.391C259.699 163.837 256.563 153.658 253.279 150.531C249.002 146.459 244.929 144.932 239.045 145.422C233.466 145.886 230.21 148.05 226.384 152.132C222.75 156.009 220.595 164.446 220.595 164.446C220.595 164.446 218.829 181.474 217.755 192.391C216.301 207.185 215.45 215.476 214.198 230.288C213.267 241.314 212.784 247.5 212.007 258.538C211.417 266.932 211.127 271.642 210.612 280.041C210.244 286.055 210.092 289.43 209.709 295.443C209.365 300.835 209.181 303.858 208.766 309.245C208.33 314.892 207.518 323.694 207.518 323.694C207.518 323.694 201.684 319.726 197.747 317.517C192.375 314.504 189.147 313.205 183.473 310.807C177.263 308.183 173.768 306.665 167.293 304.783C159.534 302.528 155.06 301.243 146.994 300.78C140.994 300.435 137.48 300.134 131.62 301.466C126.407 302.65 122.802 302.901 118.92 306.574C115.06 310.227 112.259 313.645 113.131 318.888C113.73 322.487 115.2 324.61 118.135 326.78C124.014 331.127 130.393 332.543 138.247 336.236C146.608 340.166 151.528 341.911 159.657 346.301C170.84 352.341 176.733 356.457 187.024 363.915C196.591 370.849 202.05 374.726 210.577 382.902Z" fill="#F0FFF1"/>
<path d="M309.416 233.86C312.375 236.819 317.193 236.849 319.944 233.696C332.033 219.837 340.219 202.972 343.598 184.805C347.44 164.152 344.89 142.788 336.285 123.529C327.68 104.271 313.425 88.024 295.399 76.9326C277.374 65.8411 256.426 60.4263 235.32 61.4026C214.213 62.3788 193.94 69.7003 177.176 82.4009C160.411 95.1015 147.942 112.584 141.415 132.543C134.888 152.501 134.61 173.997 140.616 194.194C145.908 211.989 155.86 228.039 169.388 240.725C172.423 243.571 177.188 243.067 179.822 239.847V239.847C182.471 236.608 181.958 231.856 178.943 228.955C167.808 218.243 159.604 204.825 155.192 189.986C150.059 172.727 150.297 154.358 155.875 137.303C161.453 120.248 172.108 105.308 186.434 94.4546C200.76 83.6014 218.084 77.3449 236.12 76.5107C254.157 75.6764 272.058 80.3036 287.461 89.7817C302.864 99.2598 315.046 113.143 322.399 129.6C329.753 146.058 331.932 164.315 328.649 181.963C325.833 197.099 319.113 211.177 309.205 222.848C306.476 226.062 306.435 230.879 309.416 233.86V233.86Z" fill="#F0FFF1"/>
<mask id="path-3-inside-1_2996_3012" fill="white">
<path d="M276.897 206.406C279.627 209.646 284.51 210.091 287.393 206.986C294.164 199.692 299.122 190.847 301.812 181.155C305.192 168.98 304.841 156.028 300.803 143.966C296.766 131.905 289.227 121.288 279.159 113.484C269.091 105.679 256.955 101.045 244.316 100.179C231.676 99.3126 219.112 102.254 208.243 108.623C197.374 114.992 188.699 124.498 183.334 135.915C177.97 147.331 176.163 160.136 178.146 172.678C179.734 182.721 183.694 192.226 189.649 200.42C192.112 203.81 196.957 203.976 200.033 201.131V201.131C203.104 198.29 203.234 193.527 200.902 190.054C196.954 184.178 194.313 177.496 193.202 170.467C191.696 160.942 193.068 151.217 197.142 142.546C201.216 133.876 207.805 126.657 216.059 121.819C224.314 116.982 233.856 114.749 243.455 115.407C253.054 116.064 262.271 119.584 269.917 125.511C277.564 131.438 283.289 139.501 286.355 148.661C289.422 157.822 289.689 167.659 287.122 176.905C285.245 183.666 281.915 189.885 277.4 195.146C274.64 198.361 274.167 203.165 276.897 206.406V206.406Z"/>
</mask>
<path d="M276.897 206.406C279.627 209.646 284.51 210.091 287.393 206.986C294.164 199.692 299.122 190.847 301.812 181.155C305.192 168.98 304.841 156.028 300.803 143.966C296.766 131.905 289.227 121.288 279.159 113.484C269.091 105.679 256.955 101.045 244.316 100.179C231.676 99.3126 219.112 102.254 208.243 108.623C197.374 114.992 188.699 124.498 183.334 135.915C177.97 147.331 176.163 160.136 178.146 172.678C179.734 182.721 183.694 192.226 189.649 200.42C192.112 203.81 196.957 203.976 200.033 201.131V201.131C203.104 198.29 203.234 193.527 200.902 190.054C196.954 184.178 194.313 177.496 193.202 170.467C191.696 160.942 193.068 151.217 197.142 142.546C201.216 133.876 207.805 126.657 216.059 121.819C224.314 116.982 233.856 114.749 243.455 115.407C253.054 116.064 262.271 119.584 269.917 125.511C277.564 131.438 283.289 139.501 286.355 148.661C289.422 157.822 289.689 167.659 287.122 176.905C285.245 183.666 281.915 189.885 277.4 195.146C274.64 198.361 274.167 203.165 276.897 206.406V206.406Z" fill="white" stroke="#F0FFF1" stroke-width="30.6076" mask="url(#path-3-inside-1_2996_3012)"/>
</svg>
