<svg width="500" height="500" viewBox="0 0 500 500" fill="none" xmlns="http://www.w3.org/2000/svg">
<rect x="51.5891" y="197.959" width="387" height="197" rx="9" transform="rotate(-15.185 51.5891 197.959)" fill="#231942" stroke="#F0FFF1" stroke-width="14"/>
<circle cx="272.784" cy="232.949" r="68.5" transform="rotate(-15.185 272.784 232.949)" stroke="#F0FFF1" stroke-width="11"/>
<path d="M94.6775 246.807C95.3441 249.263 97.8758 250.714 100.332 250.047C102.788 249.38 104.239 246.849 103.573 244.392L94.6775 246.807ZM95.449 214.462L94.2419 210.014L85.3468 212.428L86.5539 216.876L95.449 214.462ZM103.573 244.392L95.449 214.462L86.5539 216.876L94.6775 246.807L103.573 244.392Z" fill="#F0FFF1"/>
<path d="M89.7938 211.22L85.346 212.426L87.7584 221.322L92.2062 220.116L89.7938 211.22ZM122.532 211.892C124.988 211.226 126.44 208.694 125.774 206.238C125.107 203.781 122.576 202.33 120.12 202.996L122.532 211.892ZM92.2062 220.116L122.532 211.892L120.12 202.996L89.7938 211.22L92.2062 220.116Z" fill="#F0FFF1"/>
<path d="M115.623 323.998C114.956 321.542 116.407 319.01 118.863 318.343C121.32 317.677 123.851 319.128 124.518 321.584L115.623 323.998ZM132.641 351.515L133.849 355.962L124.953 358.376L123.746 353.929L132.641 351.515ZM124.518 321.584L132.641 351.515L123.746 353.929L115.623 323.998L124.518 321.584Z" fill="#F0FFF1"/>
<path d="M129.403 357.17L124.956 358.378L122.54 349.483L126.987 348.275L129.403 357.17ZM157.31 340.039C159.766 339.372 162.298 340.822 162.965 343.278C163.632 345.734 162.182 348.266 159.726 348.933L157.31 340.039ZM126.987 348.275L157.31 340.039L159.726 348.933L129.403 357.17L126.987 348.275Z" fill="#F0FFF1"/>
<path d="M411.838 160.725C412.505 163.181 411.054 165.713 408.598 166.379C406.141 167.046 403.61 165.595 402.943 163.139L411.838 160.725ZM394.82 133.208L393.612 128.761L402.507 126.346L403.715 130.794L394.82 133.208ZM402.943 163.139L394.82 133.208L403.715 130.794L411.838 160.725L402.943 163.139Z" fill="#F0FFF1"/>
<path d="M398.058 127.553L402.505 126.345L404.921 135.239L400.474 136.447L398.058 127.553ZM370.151 144.684C367.695 145.351 365.163 143.901 364.496 141.445C363.829 138.989 365.279 136.457 367.735 135.789L370.151 144.684ZM400.474 136.447L370.151 144.684L367.735 135.789L398.058 127.553L400.474 136.447Z" fill="#F0FFF1"/>
<path d="M432.791 237.916C432.125 235.46 429.593 234.009 427.137 234.676C424.68 235.342 423.23 237.874 423.896 240.33L432.791 237.916ZM432.02 270.261L433.227 274.708L442.122 272.294L440.915 267.847L432.02 270.261ZM423.896 240.33L432.02 270.261L440.915 267.847L432.791 237.916L423.896 240.33Z" fill="#F0FFF1"/>
<path d="M437.675 273.502L442.123 272.296L439.71 263.401L435.263 264.607L437.675 273.502ZM404.937 272.831C402.48 273.497 401.029 276.028 401.695 278.485C402.361 280.941 404.893 282.393 407.349 281.726L404.937 272.831ZM435.263 264.607L404.937 272.831L407.349 281.726L437.675 273.502L435.263 264.607Z" fill="#F0FFF1"/>
<path d="M241.945 207.125L287.304 194.814L288.79 200.289L271.675 204.935C271.675 204.935 278.663 209.153 279.673 212.877L291.297 209.722L292.664 214.759L281.534 217.78C281.534 217.78 283.922 235.381 262.317 240.116L295.862 260.784L285.475 263.603L251.945 243.966L250.423 238.359C250.423 238.359 263.428 235.205 268.6 229.804C272.776 225.425 271.633 223.76 271.603 221.886C271.573 221.189 270.862 220.724 270.12 220.925L247.367 227.101L246 222.063L269.298 215.739C269.792 215.605 269.97 215.086 269.616 214.759C268.162 213.32 264.507 210.22 260.706 210.499C255.768 210.899 243.788 213.915 243.788 213.915L241.945 207.125Z" fill="#F0FFF1"/>
<rect x="53.192" y="141.192" width="397.616" height="202.404" rx="9.24688" fill="#231942" stroke="#F0FFF1" stroke-width="14.384"/>
<circle cx="251.483" cy="242.909" r="67.5299" stroke="#F0FFF1" stroke-width="17"/>
<path d="M89.3984 203.568C89.3984 208.539 93.4279 212.568 98.3984 212.568C103.369 212.568 107.398 208.539 107.398 203.568H89.3984ZM107.398 173.043V164.043H89.3984V173.043H107.398ZM107.398 203.568V173.043H89.3984V203.568H107.398Z" fill="#F0FFF1"/>
<path d="M98.4003 164.043L89.4003 164.041L89.3966 182.041L98.3966 182.043L98.4003 164.043ZM129.323 182.049C134.294 182.05 138.324 178.022 138.325 173.051C138.326 168.081 134.297 164.05 129.327 164.049L129.323 182.049ZM98.3966 182.043L129.323 182.049L129.327 164.049L98.4003 164.043L98.3966 182.043Z" fill="#F0FFF1"/>
<path d="M89.3984 282.293C89.3984 277.322 93.4279 273.293 98.3984 273.293C103.369 273.293 107.398 277.322 107.398 282.293H89.3984ZM107.398 312.818V321.818H89.3984V312.818H107.398ZM107.398 282.293V312.818H89.3984V282.293H107.398Z" fill="#F0FFF1"/>
<path d="M98.4003 321.818L89.4003 321.82L89.3966 303.82L98.3966 303.818L98.4003 321.818ZM129.323 303.812C134.294 303.811 138.324 307.839 138.325 312.81C138.326 317.781 134.297 321.811 129.327 321.812L129.323 303.812ZM98.3966 303.818L129.323 303.812L129.327 321.812L98.4003 321.818L98.3966 303.818Z" fill="#F0FFF1"/>
<path d="M421.781 203.568C421.781 208.539 417.752 212.568 412.781 212.568C407.811 212.568 403.781 208.539 403.781 203.568H421.781ZM403.781 173.043V164.043H421.781V173.043H403.781ZM403.781 203.568V173.043H421.781V203.568H403.781Z" fill="#F0FFF1"/>
<path d="M412.779 164.043L421.779 164.041L421.783 182.041L412.783 182.043L412.779 164.043ZM381.857 182.049C376.886 182.05 372.856 178.022 372.855 173.051C372.854 168.081 376.882 164.05 381.853 164.049L381.857 182.049ZM412.783 182.043L381.857 182.049L381.853 164.049L412.779 164.043L412.783 182.043Z" fill="#F0FFF1"/>
<path d="M421.781 282.293C421.781 277.322 417.752 273.293 412.781 273.293C407.811 273.293 403.781 277.322 403.781 282.293H421.781ZM403.781 312.818V321.818H421.781V312.818H403.781ZM403.781 282.293V312.818H421.781V282.293H403.781Z" fill="#F0FFF1"/>
<path d="M412.779 321.818L421.779 321.82L421.783 303.82L412.783 303.818L412.779 321.818ZM381.857 303.812C376.886 303.811 372.856 307.839 372.855 312.81C372.854 317.781 376.882 321.811 381.853 321.812L381.857 303.812ZM412.783 303.818L381.857 303.812L381.853 321.812L412.779 321.818L412.783 303.818Z" fill="#F0FFF1"/>
<path d="M227.859 209.002H276.149V214.831H257.928C257.928 214.831 263.721 220.894 263.721 224.859H276.095V230.221H264.247C264.247 230.221 261.877 248.316 239.181 247.197L266.881 276.718H255.822L227.859 248.223V242.254C227.859 242.254 241.604 242.626 248.186 238.663C253.505 235.445 252.82 233.486 253.294 231.62C253.452 230.921 252.872 230.268 252.082 230.268H227.859V224.905H252.662C253.188 224.905 253.505 224.438 253.242 224.019C252.188 222.2 249.397 218.142 245.553 217.396C240.55 216.464 227.859 216.23 227.859 216.23V209.002Z" fill="#F0FFF1"/>
</svg>
