<svg width="500" height="500" viewBox="0 0 500 500" fill="none" xmlns="http://www.w3.org/2000/svg">
<path d="M334.563 64.2715L318.032 102.557H257.765L235.375 64.2715L250.423 66.7694C273.297 70.5994 296.641 70.5994 319.531 66.7694L334.563 64.2715Z" fill="#231942"/>
<path d="M318.048 102.555C327.192 102.555 334.579 109.957 334.579 119.086C334.579 128.215 327.176 135.617 318.048 135.617H257.781C248.652 135.617 241.234 128.215 241.234 119.086C241.234 109.957 248.652 102.555 257.781 102.555H318.048Z" fill="#F0FFF1"/>
<path d="M391.951 299.767C391.951 310.122 389.029 319.796 383.958 328.016L301.937 353.57H298.652C305.464 349.21 309.748 340.914 309.748 333.708C310.187 319.508 298.788 308.109 284.966 308.109H194.044L186.686 300.751C185.869 285.492 186.596 269.006 190.774 254.291C208.274 192.556 239.369 151.363 255.174 135.619C268.026 135.619 310.172 135.619 323.01 135.619C366.473 178.916 391.997 237.29 391.951 299.767Z" fill="#F0FFF1"/>
<path d="M119.657 415.562H45.2656V233.717H119.657C119.657 242.285 119.657 404.814 119.657 415.562Z" fill="#F0FFF1"/>
<path d="M284.985 308.108C298.867 308.108 310.206 319.553 309.767 333.707C309.767 339.036 307.33 345.349 303.137 349.784C300.396 352.691 297.157 354.871 293.387 356.233C467.149 302.113 344.934 340.171 419.749 316.873C435.721 313.709 450.314 325.941 450.314 341.927C450.314 352.933 443.275 362.698 432.844 366.18L251.923 436.226L144.453 399.03H119.656C119.656 379.396 119.656 278.375 119.656 266.779H152.719C157.654 271.714 189.566 303.612 194.063 308.108H284.985Z" fill="#231942"/>
<mask id="mask0_2996_3017" style="mask-type:luminance" maskUnits="userSpaceOnUse" x="37" y="222" width="92" height="202">
<path d="M37 222.473H128.74V423.998H37V222.473Z" fill="white"/>
</mask>
<g mask="url(#mask0_2996_3017)">
<path d="M119.657 423.828H45.2657C40.6938 423.828 37 420.119 37 415.562V233.717C37 229.145 40.6938 225.451 45.2657 225.451H119.657C124.229 225.451 127.923 229.145 127.923 233.717V415.562C127.923 420.119 124.229 423.828 119.657 423.828ZM53.5314 407.296H111.391V241.983H53.5314V407.296Z" fill="#F0FFF1"/>
</g>
<path d="M86.5938 382.5C82.0371 382.5 78.3281 378.791 78.3281 374.235V365.969C78.3281 361.397 82.0371 357.703 86.5938 357.703C91.1657 357.703 94.8595 361.397 94.8595 365.969V374.235C94.8595 378.791 91.1657 382.5 86.5938 382.5Z" fill="#231942"/>
<path d="M318.048 143.885C313.491 143.885 309.782 140.176 309.782 135.619C309.782 131.048 313.491 127.354 318.048 127.354C322.62 127.354 326.314 123.645 326.314 119.088C326.314 114.531 322.605 110.822 318.048 110.822H257.781C253.209 110.822 249.5 114.516 249.5 119.088C249.5 123.645 253.209 127.354 257.781 127.354C262.338 127.354 266.047 131.048 266.047 135.619C266.047 140.176 262.338 143.885 257.781 143.885C244.096 143.885 232.969 132.758 232.969 119.088C232.969 105.388 244.065 94.291 257.781 94.291H318.048C331.733 94.291 342.845 105.418 342.845 119.088C342.845 125.704 340.271 131.941 335.578 136.619C330.901 141.312 324.679 143.885 318.048 143.885Z" fill="#F0FFF1"/>
<path d="M379.635 335.056C375.744 332.664 374.533 327.562 376.94 323.686C381.36 316.511 383.692 308.23 383.707 299.752C383.737 242.165 361.271 186.667 319.564 143.885H258.662C239.723 163.838 213.564 204.212 198.728 256.547C195.307 268.612 194.035 283.342 194.943 300.312C195.185 304.869 191.688 308.76 187.132 309.002C182.59 309.244 178.684 305.747 178.427 301.19C177.428 282.403 178.911 265.872 182.832 252.035C199.152 194.433 228.869 150.167 249.351 129.761C250.896 128.216 253 127.354 255.18 127.354H323.016C325.211 127.354 327.3 128.216 328.844 129.761C375.078 175.812 400.269 236.533 400.238 299.767C400.223 311.303 397.029 322.566 391.019 332.346C388.612 336.252 383.51 337.432 379.635 335.056Z" fill="#F0FFF1"/>
<path d="M314.772 110.143C310.578 108.341 308.641 103.467 310.457 99.2884L320.979 74.9152L320.888 74.9304C297.847 78.7756 274.488 78.8967 251.417 75.3088L264.905 98.3801C267.206 102.331 265.874 107.388 261.938 109.689C258.002 112.005 252.93 110.673 250.629 106.737L228.239 68.451C226.635 65.6807 226.756 62.229 228.572 59.5798C230.389 56.9457 233.583 55.5832 236.732 56.113L251.78 58.626C273.807 62.3047 296.151 62.3047 318.178 58.626L333.226 56.113C336.208 55.6286 339.221 56.7943 341.083 59.171C342.945 61.5629 343.369 64.7723 342.173 67.5427L325.641 105.828C323.825 110.022 318.965 111.959 314.772 110.143Z" fill="#F0FFF1"/>
<mask id="mask1_2996_3017" style="mask-type:luminance" maskUnits="userSpaceOnUse" x="109" y="307" width="354" height="138">
<path d="M109.352 307.729H462.021V444.869H109.352V307.729Z" fill="white"/>
</mask>
<g mask="url(#mask1_2996_3017)">
<path d="M249.189 444.037L143.052 407.295H119.633C115.076 407.295 111.367 403.586 111.367 399.03C111.367 394.458 115.076 390.764 119.633 390.764H144.43C145.353 390.764 146.277 390.915 147.14 391.218L251.733 427.414C438.574 355.082 429.884 358.443 430.202 358.337C437.272 355.975 442.025 349.39 442.025 341.927C442.025 331.345 432.518 323.003 421.724 324.911L295.816 364.12C291.456 365.482 286.824 363.045 285.477 358.685C284.114 354.34 286.551 349.693 290.896 348.345C423.42 307.077 417.304 308.924 418.121 308.758C439.194 304.595 458.557 320.717 458.557 341.927C458.557 356.445 449.352 369.282 435.637 373.945L254.881 443.931C253.065 444.627 251.036 444.673 249.189 444.037Z" fill="#F0FFF1"/>
</g>
<path d="M284.985 365.97H194.063C189.491 365.97 185.797 362.261 185.797 357.704C185.797 353.132 189.491 349.438 194.063 349.438H284.985C286.984 349.438 288.8 349.075 290.572 348.469C296.612 346.289 301.335 340.401 301.502 333.467C301.804 323.945 294.19 316.375 284.985 316.375H194.063C191.868 316.375 189.763 315.497 188.219 313.953L149.298 275.047H119.656C115.1 275.047 111.391 271.338 111.391 266.781C111.391 262.209 115.1 258.516 119.656 258.516H152.719C154.914 258.516 157.018 259.379 158.578 260.938L197.484 299.844H284.985C303.258 299.844 318.048 314.635 318.048 332.907C318.048 351.119 303.273 365.97 284.985 365.97Z" fill="#F0FFF1"/>
<path d="M86.5938 399.032C82.0371 399.032 78.3281 395.323 78.3281 390.766V374.234C78.3281 369.663 82.0371 365.969 86.5938 365.969C91.1657 365.969 94.8595 369.663 94.8595 374.234V390.766C94.8595 395.323 91.1657 399.032 86.5938 399.032Z" fill="#231942"/>
<path d="M255.055 183.508H323.428V191.761H297.629C297.629 191.761 305.832 200.346 305.832 205.959H323.353V213.552H306.576C306.576 213.552 303.221 239.173 271.085 237.588L310.306 279.388H294.647L255.055 239.042V230.59C255.055 230.59 274.516 231.117 283.835 225.505C291.366 220.949 290.397 218.175 291.068 215.533C291.292 214.543 290.471 213.619 289.352 213.619H255.055V206.025H290.174C290.918 206.025 291.366 205.364 290.994 204.77C289.501 202.195 285.551 196.45 280.108 195.394C273.023 194.074 255.055 193.742 255.055 193.742V183.508Z" fill="#231942"/>
</svg>
