<svg width="500" height="500" viewBox="0 0 500 500" fill="none" xmlns="http://www.w3.org/2000/svg">
<g clip-path="url(#clip0_3003_3141)">
<path d="M157.781 127.698L157.784 127.7C189.944 144.463 222.159 161.168 254.368 177.87C254.322 177.847 254.344 177.863 254.454 177.945C254.608 178.059 254.936 178.301 255.49 178.741C256.337 179.415 257.447 180.333 258.756 181.435C260.867 183.211 263.413 185.395 266.084 187.686C266.726 188.237 267.375 188.793 268.027 189.352C270.984 191.887 273.997 194.459 276.602 196.625C274.268 197.546 271.95 198.46 269.646 199.368C256.96 204.371 244.681 209.213 232.452 214.096C231.964 213.765 231.369 213.336 230.67 212.809C228.396 211.093 225.463 208.668 222.475 206.111C216.555 201.045 210.748 195.745 209.984 195.012C186.839 171.913 163.641 148.867 140.391 125.875C141.973 125.119 143.226 124.55 144.314 124.127C145.987 123.476 146.884 123.331 147.557 123.34C148.227 123.348 149.114 123.514 150.756 124.205C152.466 124.925 154.586 126.029 157.781 127.698Z" fill="#F0FFF1" stroke="#F0FFF1" stroke-width="10"/>
<mask id="mask0_3003_3141" style="mask-type:luminance" maskUnits="userSpaceOnUse" x="-11" y="153" width="508" height="192">
<path d="M-6.93439 158.267L492.439 156.678L493.022 339.903L-6.35121 341.493L-6.93439 158.267Z" fill="white" stroke="white" stroke-width="6.87501"/>
</mask>
<g mask="url(#mask0_3003_3141)">
<path d="M489.736 178.622L489.728 178.621C487.296 178.232 484.828 177.858 482.342 177.48C477.43 176.735 472.448 175.98 467.536 175.08C467.212 175.02 466.916 174.965 466.643 174.914C465.766 174.75 465.113 174.628 464.433 174.557L464.353 174.549L464.273 174.537L431.046 169.501L430.883 169.477L430.723 169.437C430.546 169.392 430.289 169.358 429.732 169.296C408.809 167.084 388.564 169.98 368.952 177.729C350.151 185.194 331.348 192.656 312.546 200.119C242.585 227.886 172.624 255.653 102.766 283.561L102.765 283.562C98.9884 285.069 95.4381 285.676 91.9345 284.966C88.4468 284.26 85.4609 282.341 82.6348 279.673C68.7389 266.71 54.693 253.892 40.6363 241.064C34.2832 235.266 27.9279 229.466 21.5832 223.65C21.3465 223.44 21.137 223.233 20.9659 223.06C20.8764 222.969 20.79 222.88 20.7148 222.803L20.7023 222.79C20.6292 222.714 20.5669 222.65 20.5053 222.587C20.4885 222.57 20.4725 222.554 20.457 222.538C16.6381 224.147 12.7507 225.662 8.82059 227.186C10.6104 230.238 12.3972 233.286 14.1816 236.329C26.9428 258.095 39.5828 279.653 52.341 301.052L52.3412 301.053C54.8813 305.314 56.8832 308.998 56.6145 312.844C56.3418 316.748 53.8082 319.995 50.5514 323.667C50.162 324.143 49.7528 324.608 49.3933 325.016C49.3303 325.088 49.2688 325.158 49.2093 325.225C48.7715 325.724 48.4102 326.144 48.1004 326.553L48.0885 326.568L48.0765 326.584C47.1847 327.732 46.7915 328.754 46.7001 329.645C46.611 330.514 46.7819 331.508 47.4381 332.679L47.4434 332.688C48.1792 334.01 48.9851 334.696 49.7341 335.033C50.4731 335.366 51.4803 335.506 52.8954 335.161L52.9307 335.152L52.9661 335.144C59.2123 333.76 65.5205 332.262 71.7963 330.757C71.7976 330.757 71.7989 330.756 71.8002 330.756L71.8037 330.755C94.3905 325.258 116.973 319.761 139.554 314.208L139.566 314.205L199.099 299.792L199.132 299.784L199.164 299.777C200.263 299.534 209.103 297.373 217.723 294.944C222.036 293.729 226.219 292.467 229.325 291.361C230.848 290.819 232.016 290.347 232.787 289.969L233.098 288.114L236.24 288.365C242.952 288.9 247.389 287.739 250.156 286.103C252.883 284.491 254.157 282.331 254.542 280.356L254.544 280.346L254.546 280.335C254.983 278.168 255.717 276.239 256.788 274.565L256.107 274.606C252.134 274.846 248.005 275.086 245.43 275.097C244.782 275.099 244.165 275.088 243.642 275.05C243.383 275.031 243.09 275.002 242.799 274.951C242.588 274.913 242.05 274.814 241.494 274.52C241.217 274.374 240.634 274.026 240.172 273.335C239.611 272.493 239.419 271.416 239.728 270.381C239.982 269.53 240.486 269.004 240.733 268.775C241.011 268.516 241.281 268.345 241.454 268.244C242.048 267.898 242.781 267.666 243.33 267.506M489.736 178.622L244.293 270.806M489.736 178.622C489.821 178.636 489.902 178.648 489.98 178.66C490.446 178.733 490.81 178.79 491.168 178.867C491.57 178.952 491.821 179.035 491.981 179.108C492.074 179.15 492.116 179.18 492.13 179.192C492.141 179.21 492.164 179.256 492.191 179.347C492.199 179.375 492.203 179.395 492.205 179.407C492.197 179.429 492.177 179.479 492.13 179.561C492.042 179.716 491.892 179.927 491.629 180.236C491.435 180.464 491.247 180.67 491.016 180.923C490.909 181.04 490.794 181.166 490.664 181.31L490.657 181.318C473.022 200.961 451.685 215.478 428.183 227.481C406.085 238.762 383.701 248.965 360.252 256.385C347.833 260.27 335.347 263.924 322.511 267.682C317.076 269.273 311.579 270.882 305.997 272.535L305.926 272.556L305.856 272.58C294.69 276.417 286.536 278.956 280.628 280.533C275.59 281.879 272.367 282.473 270.378 282.63C270.392 282.601 270.407 282.572 270.422 282.543L270.425 282.535L270.429 282.528C271.955 279.494 272.85 275.902 271.81 272.356M489.736 178.622L271.81 272.356M243.33 267.506L244.293 270.806M243.33 267.506C243.329 267.507 243.328 267.507 243.327 267.507L244.293 270.806M243.33 267.506C248.236 266.07 250.515 265.438 251.283 265.3C251.306 265.295 251.737 265.207 252.227 265.235C252.331 265.241 252.551 265.258 252.83 265.324M244.293 270.806C244.736 270.677 245.156 270.554 245.554 270.438C245.482 269.961 245.524 269.526 245.612 269.157C245.247 268.745 244.872 268.53 244.703 268.44C244.451 268.307 244.247 268.245 244.164 268.221C244.067 268.193 244.003 268.182 243.989 268.179C243.985 268.179 243.983 268.178 243.983 268.178C243.983 268.178 244.03 268.185 244.141 268.193C244.407 268.212 244.823 268.224 245.403 268.222C245.586 268.221 245.779 268.219 245.981 268.216C246.008 268.168 246.033 268.127 246.055 268.091C246.348 267.629 246.681 267.351 246.788 267.262C247.049 267.049 247.287 266.919 247.348 266.885C247.449 266.829 247.539 266.786 247.598 266.758C247.719 266.701 247.839 266.65 247.934 266.611C248.274 266.47 248.782 266.281 249.216 266.119L249.3 266.087C249.809 265.897 250.214 265.744 250.431 265.654C250.458 265.642 250.47 265.637 250.47 265.637C250.47 265.637 250.461 265.641 250.447 265.648C250.431 265.655 250.377 265.682 250.301 265.725C250.266 265.745 250.041 265.87 249.787 266.09C249.752 266.12 249.694 266.171 249.623 266.241C249.821 266.187 250.043 266.125 250.293 266.054C250.952 265.868 251.787 265.628 252.83 265.324M252.83 265.324C253.657 265.082 254.616 264.801 255.723 264.473C258.217 263.712 260.79 263.471 263.282 264.1C265.359 264.624 267.187 265.704 268.734 267.266M252.83 265.324C252.929 265.347 253.035 265.377 253.147 265.415C253.479 265.528 254.599 265.963 255.183 267.269C255.259 267.437 255.318 267.602 255.363 267.764C255.473 267.757 255.583 267.75 255.693 267.744C256.009 267.725 256.326 267.706 256.642 267.687C256.657 267.686 256.673 267.685 256.688 267.684L268.734 267.266M246.36 272.185C246.346 272.239 246.332 272.293 246.316 272.347C246.075 273.155 245.603 273.634 245.41 273.813C245.344 273.875 245.28 273.929 245.221 273.975C245.22 273.976 245.219 273.977 245.218 273.978C245.078 274.087 244.966 274.155 244.913 274.186C244.83 274.234 244.778 274.257 244.779 274.259C244.779 274.261 244.91 274.207 245.255 274.106L245.259 274.105C246.354 273.785 247.305 273.508 248.127 273.271C248.487 273.362 248.778 273.373 248.895 273.376C249.345 273.387 249.74 273.301 249.767 273.296C250.511 273.152 252.762 272.518 257.664 271.069C258.525 271.017 259.375 270.966 260.199 270.918C259.68 271.303 259.185 271.724 258.718 272.184L246.36 272.185ZM246.36 272.185C246.226 272.03 246.099 271.854 245.983 271.653L246.36 272.185ZM271.81 272.356C271.832 272.311 271.854 272.264 271.874 272.216C272.364 271.09 272.231 269.781 271.497 268.772C270.955 268.026 270.273 267.707 270.04 267.604C269.506 267.369 268.999 267.3 268.816 267.276C268.789 267.273 268.761 267.269 268.734 267.266M271.81 272.356L268.734 267.266M268.734 267.266C268.494 267.237 268.251 267.221 268.03 267.211C267.533 267.189 266.936 267.189 266.299 267.201C265.177 267.222 263.748 267.284 262.158 267.367C260.6 267.033 258.896 267.148 257.069 267.661C256.942 267.668 256.816 267.676 256.689 267.684L268.734 267.266ZM257.916 281.014C258.51 278.062 259.708 275.885 261.499 274.288L53.7096 338.5C59.9885 337.109 66.323 335.604 72.6015 334.099L72.6066 334.098C95.1961 328.6 117.785 323.101 140.375 317.546L199.908 303.133C202.262 302.612 235.527 294.421 235.967 291.792C250.363 292.939 256.757 286.958 257.916 281.014ZM249.9 266.63C250.121 266.692 251.098 266.979 251.784 267.972C250.676 268.033 249.621 268.087 248.653 268.129C248.744 267.585 248.948 267.164 249.082 266.936C249.176 266.778 249.274 266.64 249.368 266.524C249.514 266.541 249.697 266.572 249.9 266.63Z" fill="#F0FFF1" stroke="#F0FFF1" stroke-width="6.87501"/>
</g>
<path d="M198.5 433.5H198.499H198.499H198.498H198.497H198.278L198.058 433.524L194.635 433.905C195.414 430.446 196.529 425.503 197.878 419.53C200.59 407.523 204.251 391.354 208.045 374.701C215.651 341.318 223.747 306.201 225.856 298.565C226.528 296.13 227.401 293.013 228.107 290.499C228.46 289.244 228.77 288.14 228.993 287.351L229.255 286.423L229.325 286.174L229.335 286.139L229.34 286.123L229.401 285.928C229.455 285.758 229.534 285.508 229.634 285.195C229.834 284.569 230.118 283.695 230.45 282.704C231.121 280.698 231.961 278.307 232.696 276.529C232.886 276.071 233.044 275.68 233.185 275.331C233.641 274.202 233.92 273.512 234.52 272.4C234.698 272.069 234.845 271.769 234.957 271.54L234.985 271.481C235.089 271.266 235.149 271.143 235.211 271.026C235.305 270.85 235.334 270.822 235.344 270.812C235.345 270.812 235.346 270.811 235.346 270.81C235.436 270.719 235.521 270.634 235.6 270.555L290.073 254.684L268.865 305.326L234.929 372.698L234.928 372.701L207.429 427.198L207.382 427.291L207.342 427.382L207.342 427.383L207.341 427.383L207.341 427.384L207.341 427.385L207.34 427.386L207.334 427.4C207.33 427.409 207.324 427.422 207.317 427.438C207.31 427.452 207.302 427.47 207.293 427.49C207.254 427.574 207.193 427.703 207.114 427.866C206.955 428.195 206.726 428.649 206.448 429.146C205.837 430.244 205.204 431.165 204.747 431.598C203.795 432.502 202.713 432.879 201.735 433.205C201.735 433.205 201.731 433.206 201.722 433.209C201.714 433.212 201.701 433.215 201.684 433.22C201.65 433.229 201.605 433.24 201.546 433.252C201.427 433.277 201.277 433.304 201.098 433.329C200.737 433.381 200.328 433.419 199.921 433.446C199.52 433.473 199.155 433.487 198.89 433.493C198.758 433.497 198.654 433.499 198.586 433.499L198.512 433.5L198.5 433.5Z" fill="#F0FFF1" stroke="#231942" stroke-width="8"/>
</g>
<defs>
<clipPath id="clip0_3003_3141">
<rect width="500" height="500" fill="white"/>
</clipPath>
</defs>
</svg>
