<svg width="500" height="500" viewBox="0 0 500 500" fill="none" xmlns="http://www.w3.org/2000/svg">
	<ellipse cx="337" cy="238" rx="158" ry="159" fill="#f0fff1" />
	<path d="M276.977 161.156H397.965V175.761H352.313C352.313 175.761 366.828 190.952 366.828 200.885H397.832V214.321H368.146C368.146 214.321 362.208 259.657 305.343 256.853L374.744 330.819H347.037L276.977 259.426V244.469C276.977 244.469 311.413 245.402 327.905 235.471C341.23 227.409 339.515 222.501 340.702 217.826C341.1 216.074 339.646 214.439 337.667 214.439H276.977V201.001H339.121C340.438 201.001 341.23 199.832 340.572 198.78C337.931 194.224 330.94 184.057 321.309 182.189C308.773 179.853 276.977 179.267 276.977 179.267V161.156Z" fill="#231942" />
	<path d="M107 122H238" stroke="#f0fff1" stroke-width="19.9406" stroke-linecap="round" />
	<path d="M70 309H201" stroke="#f0fff1" stroke-width="19.9406" stroke-linecap="round" />
	<path d="M54 180H188" stroke="#f0fff1" stroke-width="19.9406" stroke-linecap="round" />
	<path d="M112 362H246" stroke="#f0fff1" stroke-width="19.9406" stroke-linecap="round" />
	<path d="M83 243H187" stroke="#f0fff1" stroke-width="19.9406" stroke-linecap="round" />
	<path d="M10 243H48" stroke="#f0fff1" stroke-width="19.9406" stroke-linecap="round" />
	<path d="M33 122H70" stroke="#f0fff1" stroke-width="19.9406" stroke-linecap="round" />
	<path d="M14 362H76" stroke="#f0fff1" stroke-width="19.9406" stroke-linecap="round" />
</svg>
