<svg width="500" height="500" viewBox="0 0 500 500" fill="none" xmlns="http://www.w3.org/2000/svg">
<path d="M468 101.518H266M468 101.518L442.734 73M468 101.518L442.734 130" stroke="#F0FFF1" stroke-width="25" stroke-linecap="round"/>
<path d="M32 398.518H250M32 398.518L59.2671 370M32 398.518L59.2671 427" stroke="#F0FFF1" stroke-width="25" stroke-linecap="round"/>
<circle cx="246.688" cy="248.822" r="141.984" fill="#F0FFF1" stroke="#F0FFF1" stroke-width="30"/>
<path d="M191.75 175.041H307.918V189.397H264.085C264.085 189.397 278.022 204.33 278.022 214.093H307.79V227.3H279.287C279.287 227.3 273.586 271.865 218.986 269.109L285.623 341.814H259.019L191.75 271.637V256.935C191.75 256.935 224.815 257.852 240.649 248.091C253.444 240.166 251.797 235.341 252.937 230.746C253.318 229.023 251.923 227.416 250.022 227.416H191.75V214.207H251.418C252.683 214.207 253.444 213.058 252.811 212.024C250.276 207.545 243.564 197.552 234.316 195.715C222.279 193.419 191.75 192.843 191.75 192.843V175.041Z" fill="#231942"/>
</svg>
