<svg width="500" height="500" viewBox="0 0 500 500" fill="none" xmlns="http://www.w3.org/2000/svg">
<path d="M185.711 76.1835L180.836 472.704L203.987 470.705L202.722 76.1631L185.711 76.1835Z" fill="#F0FFF1"/>
<mask id="mask0_2996_3108" style="mask-type:luminance" maskUnits="userSpaceOnUse" x="173" y="69" width="37" height="404">
<path d="M173 69.3604H209.552V472.999H173V69.3604Z" fill="white"/>
</mask>
<g mask="url(#mask0_2996_3108)">
<path d="M184.641 74.6024L179.766 471.123L202.916 469.124L201.652 74.582L184.641 74.6024Z" stroke="#F0FFF1" stroke-width="5.64389" stroke-linecap="round" stroke-linejoin="round"/>
</g>
<mask id="mask1_2996_3108" style="mask-type:luminance" maskUnits="userSpaceOnUse" x="173" y="37" width="42" height="47">
<path d="M173 37H214.773V83.7298H173V37Z" fill="white"/>
</mask>
<g mask="url(#mask1_2996_3108)">
<path d="M210.801 60.1935C211.229 70.3716 201.765 80.2642 191.342 78.7344C181.409 77.5514 174.311 67.0673 176.085 57.3787C177.105 48.4243 185.447 40.6326 194.647 41.6117C204.009 42.2236 210.964 51.0555 210.801 60.1935Z" fill="#F0FFF1" stroke="#F0FFF1" stroke-width="5.64389" stroke-linecap="round" stroke-linejoin="round"/>
</g>
<mask id="mask2_2996_3108" style="mask-type:luminance" maskUnits="userSpaceOnUse" x="203" y="69" width="178" height="220">
<path d="M203.867 69.1436H380.098V288.454H203.867V69.1436Z" fill="white"/>
</mask>
<g mask="url(#mask2_2996_3108)">
<path d="M212.25 84.1966L350.869 170.028H244.05L355.336 280.091H212.25V84.1966ZM203.867 69.1436V288.454H375.591L264.324 178.329H380.098L203.867 69.1436Z" fill="#F0FFF1"/>
</g>
<path d="M208.062 76.6709V284.293H365.426L254.18 174.19H365.426L208.062 76.6709Z" fill="#F0FFF1"/>
<path d="M247.4 168.621C264.717 168.621 278.751 154.71 278.751 137.658C275.916 144.675 271.224 150.141 264.677 154.057L262.005 152.058L267.267 148.101L260.903 146.531L264.248 140.942L257.721 141.819L258.68 135.374L252.989 138.698L251.378 132.416L247.4 137.617L243.464 132.416L241.852 138.698L236.161 135.374L237.079 141.819L230.573 140.942L233.918 146.531L227.534 148.101L232.837 152.058L230.124 154.057C223.576 150.162 218.885 144.695 216.07 137.658C216.091 154.71 230.104 168.621 247.4 168.621Z" fill="#231942"/>
<path d="M268.075 234.687L281.089 229.221L268.075 223.754L276.601 212.556L262.527 214.29L264.261 200.379L252.961 208.824L247.413 195.933L241.906 208.824L230.585 200.379L232.299 214.29L218.266 212.556L226.792 223.754L213.758 229.221L226.792 234.687L218.266 245.885L232.299 244.172L230.585 258.083L241.906 249.597L247.413 262.55L252.961 249.597L264.261 258.083L262.527 244.172L276.601 245.885L268.075 234.687Z" fill="#231942"/>
</svg>
