<svg width="500" height="500" viewBox="0 0 500 500" fill="#5698ba" xmlns="http://www.w3.org/2000/svg">
	<path d="M58.998 65.0007C93.4979 32.9985 410.998 31.497 442.998 63.501C474.998 95.5049 469.527 400.708 442.998 434C417.498 466.001 94.6029 471.733 57.4981 434C27.9981 404.001 24.498 97.0028 58.998 65.0007Z" fill="#f0fff1" />
	<path d="M289.962 278.665C317.562 264.131 336.381 235.165 336.381 201.804C336.381 153.865 297.517 115 249.575 115C201.634 115 162.769 153.865 162.769 201.804C162.769 235.167 181.589 264.133 209.192 278.667C172.227 292.75 144.003 325.608 135.261 366.102C134.051 371.706 137.135 377.46 142.779 378.481C163.038 382.148 196.587 385.833 249.596 385.833C302.604 385.833 336.154 382.148 356.412 378.481C362.035 377.465 365.112 371.731 363.908 366.148C355.177 325.631 326.944 292.752 289.962 278.665Z" fill="#231942" />
</svg>
