<svg width="500" height="500" viewBox="0 0 500 500" fill="none" xmlns="http://www.w3.org/2000/svg">
<g clip-path="url(#clip0_2067_1523)">
<path d="M279.953 133.916C279.953 133.916 304.535 114.428 301.463 106.314C298.392 98.2008 289.991 99.82 289.991 99.82M279.953 133.916C279.953 133.916 308.342 158.64 321.539 179.377C331.207 194.568 337.83 203.365 341.615 221.591C343.66 231.434 344.814 240.198 344.409 248.5M279.953 133.916H267.047M231.196 133.916L221.158 195.613M231.196 133.916C231.196 133.916 218.96 147.77 211.12 156.646C203.28 165.523 198.028 169.626 191.044 179.377C180.456 194.16 173.569 203.115 169.534 221.591C166.038 237.595 166.663 249.192 169.534 263.805C169.748 264.898 170.075 265.963 170.5 267M231.196 133.916L205.384 182.624M231.196 133.916H267.047M231.196 133.916C225.315 125.671 218.289 119.299 215.421 114.428C212.553 109.557 213.623 107.551 213.987 106.314C215.421 101.439 220.625 100.523 224.026 103.067M224.026 103.067C223.085 100.082 223.085 97.9348 224.026 94.9492C224.705 92.7962 225.301 91.4819 226.894 90.0783C229.989 87.3534 234.063 90.0739 236.932 90.0783C238.516 90.0808 238.851 88.2663 239.8 86.8311C244.101 80.3322 264.766 83.9119 267.047 85.2042C268.479 86.0159 269.464 89.2493 271.347 90.0746C272.423 90.5461 278.518 88.4503 281.386 88.4503C281.386 88.4503 283.589 88.0741 287.122 90.0746C290.654 92.0751 291.39 97.8395 289.991 99.82M224.026 103.067C231.307 115.114 242.668 133.916 242.668 133.916M289.991 99.82C281.031 113.135 267.047 133.916 267.047 133.916" stroke="white" stroke-width="2.97132" stroke-linecap="round"/>
<path d="M279.812 133.863C279.812 133.863 304.394 114.375 301.322 106.262C298.251 98.1481 289.85 99.7673 289.85 99.7673M279.812 133.863C279.812 133.863 308.201 158.587 321.399 179.324C331.066 194.515 337.689 203.312 341.475 221.538C344.808 237.586 345.776 243.763 341.475 256.752M279.812 133.863H266.906M231.056 133.863L221.018 195.56M231.056 133.863C231.056 133.863 218.82 147.717 210.98 156.594C203.139 165.471 197.887 169.574 190.903 179.324C180.316 194.107 173.429 203.063 169.393 221.538C165.898 237.542 166.522 249.14 169.393 263.752M231.056 133.863L205.244 182.572M231.056 133.863H266.906M231.056 133.863C225.175 125.619 218.148 119.246 215.28 114.375C212.412 109.505 213.483 107.498 213.846 106.262C215.28 101.386 220.484 100.47 223.886 103.014M223.886 103.014C222.944 100.029 222.944 97.882 223.886 94.8964C224.565 92.7435 225.16 91.4291 226.754 90.0256C229.848 87.3006 233.922 90.0211 236.792 90.0256C238.376 90.028 238.71 88.2136 239.66 86.7783C243.961 80.2795 264.625 83.8592 266.906 85.1515C268.339 85.9632 269.324 89.1966 271.207 90.0219C272.282 90.4933 278.377 88.3975 281.245 88.3975C281.245 88.3975 283.449 88.0214 286.981 90.0219C290.513 92.0224 291.25 97.7868 289.85 99.7673M223.886 103.014C231.166 115.062 242.528 133.863 242.528 133.863M289.85 99.7673C280.89 113.083 266.906 133.863 266.906 133.863" stroke="white" stroke-width="10" stroke-linecap="round"/>
<path d="M142.488 263.606C147.181 263.606 153.021 269.64 155.393 276.197V358.607C150.698 368.908 142.488 368.908 142.488 368.908H128.41H99.0803C88.5238 368.908 89.6949 350.595 89.6949 350.595V272.763C89.6949 272.763 89.6949 263.606 99.0803 263.606H128.41H142.488Z" fill="white"/>
<path d="M155.393 276.197C156.566 276.197 180.029 268.185 196.454 268.185C212.878 268.185 235.169 279.631 235.169 279.631L264.498 288.787C264.498 288.787 293.828 292.221 299.694 295.655C305.559 299.089 306.733 313.968 302.04 318.546C297.347 323.125 288.162 325.058 278.576 326.559C271.537 327.66 260.979 326.559 256.286 325.414C251.593 324.269 231.649 313.968 231.649 313.968M155.393 276.197C153.021 269.64 147.181 263.606 142.488 263.606C137.795 263.606 128.41 263.606 128.41 263.606C128.41 263.606 108.466 263.606 99.0803 263.606C89.6949 263.606 89.6949 272.763 89.6949 272.763V350.595C89.6949 350.595 88.5238 368.908 99.0803 368.908C109.637 368.908 128.41 368.908 128.41 368.908H142.488C142.488 368.908 150.698 368.908 155.393 358.607M155.393 276.197C155.393 308.38 155.393 326.424 155.393 358.607M155.393 358.607C162.43 355.173 176.51 350.595 176.51 350.595H196.454L215.225 358.607L231.649 365.474C231.649 365.474 248.072 372.342 256.286 374.631C264.5 376.92 276.232 379.21 285.615 374.631C294.999 370.053 309.079 360.896 309.079 360.896L329.023 349.45L391.201 311.679C391.201 311.679 399.018 307.193 401.76 302.522C408.789 290.548 398.238 270.474 386.509 270.474C374.779 270.474 374.775 273.905 374.777 272.763M374.777 272.763C375.948 259.025 362.493 252.523 350.14 253.305C343.594 253.719 334.889 260.173 334.889 260.173L299.694 282.505M374.777 272.763C356.909 285.279 316.922 309.586 316.922 309.586" stroke="white" stroke-width="11.0596" stroke-linecap="round"/>
<path d="M234.75 180.445H294.129V188.489H271.724C271.724 188.489 278.848 196.856 278.848 202.327H294.064V209.727H279.494C279.494 209.727 276.58 234.697 248.672 233.153L282.733 273.892H269.135L234.75 234.57V226.332C234.75 226.332 251.651 226.846 259.745 221.376C266.285 216.936 265.443 214.233 266.026 211.658C266.221 210.692 265.507 209.792 264.536 209.792H234.75V202.391H265.249C265.896 202.391 266.285 201.747 265.961 201.168C264.665 198.658 261.234 193.059 256.508 192.029C250.355 190.743 234.75 190.42 234.75 190.42V180.445Z" fill="white"/>
</g>
<defs>
<clipPath id="clip0_2067_1523">
<rect width="500" height="500" rx="250" fill="white"/>
</clipPath>
</defs>
</svg>
