<svg xmlns="http://www.w3.org/2000/svg" width="13.254" height="12.577" viewBox="0 0 13.254 12.577">
  <g id="noun_finger_print_1156897_1_" data-name="noun_finger print_1156897 (1)" transform="translate(-5 -7.3)">
    <g id="Group_20" data-name="Group 20" transform="translate(5 7.3)">
      <g id="Group_18" data-name="Group 18" transform="translate(1.323 0.023)">
        <path id="Path_43" data-name="Path 43" d="M25.332,44.6a10.459,10.459,0,0,1-.265,2.135c-.044.177-.162.265-.295.236a.239.239,0,0,1-.177-.324,9.635,9.635,0,0,0,.25-2.15,3.631,3.631,0,0,0-7.216-.619c-.015.118-.029.25-.044.368-.015.177-.118.265-.265.25a.253.253,0,0,1-.221-.28,3.768,3.768,0,0,1,.913-2.327,3.929,3.929,0,0,1,4.168-1.4,4.006,4.006,0,0,1,3.063,3.166,3.473,3.473,0,0,1,.059.412C25.317,44.22,25.332,44.412,25.332,44.6Z" transform="translate(-16.641 -35.51)" fill="#fff"/>
        <path id="Path_44" data-name="Path 44" d="M23.648,38.893c-.015.177-.015.368-.029.545s-.118.28-.25.28a.257.257,0,0,1-.236-.309,6.244,6.244,0,0,0-.088-1.811,4.608,4.608,0,0,0-8.571-1.09c-.088.162-.191.206-.324.177a.241.241,0,0,1-.133-.353,4.777,4.777,0,0,1,.766-1.1,4.872,4.872,0,0,1,5.125-1.473A4.934,4.934,0,0,1,23.559,37.7a3.472,3.472,0,0,1,.059.412c.015.25.015.515.029.781Z" transform="translate(-13.985 -29.697)" fill="#fff"/>
        <path id="Path_45" data-name="Path 45" d="M28.657,50a10.493,10.493,0,0,1-.53,2.931c-.059.177-.177.25-.324.206s-.191-.177-.133-.368a9.982,9.982,0,0,0,.486-2.695,2.67,2.67,0,1,0-5.331-.236,4.24,4.24,0,0,1-.206,1.208c-.015.029-.015.074-.029.1a.234.234,0,0,1-.295.133.23.23,0,0,1-.162-.28,6.375,6.375,0,0,0,.236-1.576,3.137,3.137,0,0,1,6.2-.133A3.093,3.093,0,0,1,28.657,50Z" transform="translate(-20.923 -40.924)" fill="#fff"/>
        <path id="Path_46" data-name="Path 46" d="M24.7,31.64a.247.247,0,0,1-.191.265.24.24,0,0,1-.28-.177c-.044-.162-.088-.324-.147-.486a5.379,5.379,0,0,0-4.521-3.726,5.343,5.343,0,0,0-4.771,1.649.259.259,0,0,0-.059.074.247.247,0,1,1-.353-.339A6.059,6.059,0,0,1,24.7,31.522Z" transform="translate(-14.242 -24.079)" fill="#fff"/>
        <path id="Path_47" data-name="Path 47" d="M31.882,55.774a9.828,9.828,0,0,1-.707,3.122.25.25,0,0,1-.339.177.255.255,0,0,1-.118-.353,8.261,8.261,0,0,0,.6-2.371,6.457,6.457,0,0,0,.015-1.193,1.68,1.68,0,0,0-3.3-.015c-.059.324-.044.648-.088.972a5.344,5.344,0,0,1-.442,1.5.231.231,0,0,1-.324.133.243.243,0,0,1-.118-.324,5.427,5.427,0,0,0,.4-1.37c.029-.295.029-.589.074-.869a2.178,2.178,0,0,1,4.315-.015C31.867,55.376,31.867,55.568,31.882,55.774Z" transform="translate(-25.12 -46.549)" fill="#fff"/>
        <path id="Path_48" data-name="Path 48" d="M21.3,20.4a6.888,6.888,0,0,1,5.655,3.284c.029.044.044.074.074.118a.229.229,0,0,1-.088.295.248.248,0,0,1-.309-.044c-.015-.029-.044-.044-.059-.074a6.552,6.552,0,0,0-9.2-1.973.6.6,0,0,1-.133.074.253.253,0,0,1-.309-.074.228.228,0,0,1,.029-.309.817.817,0,0,1,.118-.088A7.4,7.4,0,0,1,21.3,20.4Z" transform="translate(-16.454 -18.494)" fill="#fff"/>
        <path id="Path_49" data-name="Path 49" d="M35.443,61.28a8.481,8.481,0,0,1-.781,3.122.4.4,0,0,1-.191.191.31.31,0,0,1-.221-.074c-.088-.074-.074-.177-.029-.28.162-.412.324-.825.457-1.252a6.689,6.689,0,0,0,.295-1.944.723.723,0,1,0-1.443,0,7.174,7.174,0,0,1-.707,2.724.249.249,0,0,1-.324.147.241.241,0,0,1-.1-.353,6.788,6.788,0,0,0,.574-1.856c.029-.265.029-.545.059-.825a1.194,1.194,0,0,1,1.266-1.09,1.231,1.231,0,0,1,1.149,1.193Z" transform="translate(-29.653 -52.084)" fill="#fff"/>
        <path id="Path_50" data-name="Path 50" d="M31.513,16.229a.2.2,0,0,1-.015.236c-.029.029-.059.074-.088.088-.1.059-.191.015-.28-.059-.25-.206-.486-.427-.736-.6a7.369,7.369,0,0,0-5.022-1.384,7.218,7.218,0,0,0-2.268.56c-.162.059-.265.044-.339-.059a.245.245,0,0,1,.147-.368,7.963,7.963,0,0,1,7.2.5,7.833,7.833,0,0,1,1.325,1A.151.151,0,0,1,31.513,16.229Z" transform="translate(-21.437 -13.042)" fill="#fff"/>
        <path id="Path_51" data-name="Path 51" d="M35.246,7.462a8.522,8.522,0,0,1,3.947.9c.029.015.044.029.074.029a.269.269,0,0,1,.147.353.241.241,0,0,1-.353.088A8.864,8.864,0,0,0,36.7,8.051a8.64,8.64,0,0,0-2.754-.029c-.044,0-.088.015-.118.015a.227.227,0,0,1-.265-.191.224.224,0,0,1,.206-.28,7.883,7.883,0,0,1,.825-.1C34.819,7.447,35.04,7.462,35.246,7.462Z" transform="translate(-30.679 -7.456)" fill="#fff"/>
        <path id="Path_52" data-name="Path 52" d="M39.5,67.757a7.758,7.758,0,0,1-.781,3,.235.235,0,0,1-.324.133.241.241,0,0,1-.1-.353,7.385,7.385,0,0,0,.6-1.826c.059-.368.088-.736.118-1.119.015-.177.1-.295.236-.295s.236.118.236.295A.793.793,0,0,1,39.5,67.757Z" transform="translate(-34.684 -58.487)" fill="#fff"/>
      </g>
      <g id="Group_19" data-name="Group 19" transform="translate(0 0)">
        <path id="Path_53" data-name="Path 53" d="M5,7.3H6.428v.471H5.486v.957H5Z" transform="translate(-5 -7.3)" fill="#fff"/>
        <path id="Path_54" data-name="Path 54" d="M85.2,7.786V7.3h1.443V8.728h-.471V7.771C85.848,7.786,85.524,7.786,85.2,7.786Z" transform="translate(-73.389 -7.3)" fill="#fff"/>
        <path id="Path_55" data-name="Path 55" d="M5.471,83.857h.957v.471H5V82.9h.471Z" transform="translate(-5 -71.767)" fill="#fff"/>
        <path id="Path_56" data-name="Path 56" d="M85.2,84.428v-.471h.957V83h.486v1.428Z" transform="translate(-73.389 -71.852)" fill="#fff"/>
      </g>
    </g>
  </g>
</svg>
