<svg xmlns="http://www.w3.org/2000/svg" width="21.009" height="21.72" viewBox="0 0 21.009 21.72">
  <g id="Air_Ticket" data-name="Air Ticket" transform="translate(-869.468 -7664.282)">
    <g id="noun-flight-2335320" transform="translate(869.468 7664.282)">
      <path id="Path_1559" data-name="Path 1559" d="M113.661,44.257l-3.178,1.378c-.149.065-.3.13-.447.193.233.135.468.268.7.4V44.658c-.047.109-.091.219-.137.328q.636-.6,1.274-1.208c.249-.235.5-.473.745-.708a.665.665,0,0,0,.293-.524c-.016-.524-.044-1.046-.065-1.569-.035-.813-.068-1.623-.1-2.436-.021-.487-.033-.976-.061-1.465v-.023a.471.471,0,0,0-.589-.449l-.831.279c-.664.221-1.325.445-1.989.666l-2.415.81q-1.044.349-2.089.7c-.335.112-.682.21-1.013.34l-.014,0,.589.449V37.989l-.231.4.536-.391c.449-.331.9-.659,1.351-.99q.908-.664,1.814-1.33l1.9-1.4,1.628-1.195.983-.719c.063-.047.126-.091.186-.137.221-.17.184-.435.184-.68V27.124c0-.061.007-.119.009-.177s-.007.044-.007.044a.319.319,0,0,0,.007-.047c.007-.037.014-.072.023-.107.016-.061.035-.119.056-.179.026-.079-.044.086.007-.016.016-.033.033-.065.049-.1.03-.054.065-.1.1-.156.047-.072-.054.063,0,0,.023-.028.047-.054.07-.079.044-.049.093-.093.142-.137l.035-.028c.04-.035-.033.03-.035.026a.451.451,0,0,1,.088-.061q.084-.052.175-.1l.042-.019c.047-.028-.042.021-.04.016s.088-.033.1-.037q.091-.028.182-.049c.019,0,.121-.019.047-.009s-.012,0,0,0,.054,0,.079,0c.054,0,.109,0,.163,0l.1.007c.054,0-.044-.007-.044-.007a.6.6,0,0,0,.063.012,1.9,1.9,0,0,1,.2.051c.03.009.058.023.088.03.051.016-.044-.016-.04-.019s.049.023.056.026a1.772,1.772,0,0,1,.161.088l.077.051c.075.049-.021-.019-.021-.019s.04.033.047.04a1.7,1.7,0,0,1,.133.126.835.835,0,0,1,.061.068l.028.035c.04.044-.044-.072-.016-.021s.075.109.107.168l.042.082c.007.014.012.028.019.042.028.054-.028-.084-.012-.026s.042.116.058.177c.009.035.019.072.026.107a.328.328,0,0,0,.009.047c.014.063-.007-.093,0-.03.026.438.009.878.009,1.316v3.209c0,.13-.007.265,0,.4a.534.534,0,0,0,.249.417c.03.021.061.042.088.063l.37.263,1.334.945q.912.646,1.826,1.292l1.93,1.369q.828.587,1.653,1.174l.994.706.137.1-.231-.4v2.028l.589-.449-.829-.272c-.666-.221-1.334-.44-2-.661l-2.41-.8c-.694-.231-1.39-.459-2.084-.689-.338-.112-.675-.238-1.015-.335l-.014,0a.469.469,0,0,0-.589.449c-.016.405-.035.808-.051,1.213-.035.806-.068,1.609-.1,2.415-.026.594-.049,1.185-.075,1.779a1.13,1.13,0,0,0,0,.126.544.544,0,0,0,.191.387l.629.6c.487.463.966.936,1.462,1.388l.03.028c-.047-.109-.091-.219-.137-.328v1.574c.233-.135.468-.268.7-.4l-3.178-1.378c-.149-.065-.3-.13-.447-.193a.479.479,0,0,0-.638.168.471.471,0,0,0,.168.638l3.178,1.378c.149.065.3.13.447.193a.5.5,0,0,0,.47,0,.469.469,0,0,0,.231-.4V44.746a.591.591,0,0,0-.158-.438c-.508-.512-1.048-.994-1.569-1.493-.2-.184-.389-.37-.584-.554.047.109.091.219.137.328.026-.624.054-1.25.079-1.874l.126-2.976.028-.685-.589.449.829.272c.666.221,1.334.44,2,.661l2.41.8c.694.231,1.39.459,2.084.689.338.112.675.238,1.015.335l.014,0a.469.469,0,0,0,.589-.449V37.793a.5.5,0,0,0-.231-.41l-.023-.016c-.475-.342-.957-.678-1.434-1.018q-1.369-.971-2.738-1.94t-2.722-1.93c-.47-.333-.934-.685-1.416-1l-.021-.014.231.4V27.8c0-.272.016-.554-.007-.827a2.149,2.149,0,0,0-3.19-1.73,2.115,2.115,0,0,0-.908.994,2.3,2.3,0,0,0-.193.917v4.711l.231-.4c-.38.279-.761.556-1.141.836l-2.587,1.9-2.773,2.033-1.725,1.264-.123.091A.5.5,0,0,0,103.4,38c0,.063,0,.126,0,.189v1.667a.47.47,0,0,0,.589.449l.831-.279c.664-.221,1.325-.445,1.989-.666l2.415-.81q1.044-.349,2.089-.7c.335-.112.682-.21,1.013-.34l.014,0-.589-.449c.026.624.054,1.25.079,1.874l.126,2.976.028.685c.047-.109.091-.219.137-.328L110.707,43.6l-.706.671a.568.568,0,0,0-.2.405c0,.142,0,.286,0,.428V46.23a.469.469,0,0,0,.231.4.5.5,0,0,0,.47,0l3.178-1.378c.149-.065.3-.13.447-.193a.47.47,0,0,0,.168-.638.48.48,0,0,0-.638-.165Z" transform="translate(-103.397 -24.977)" fill="#fff"/>
    </g>
    <path id="Path_1560" data-name="Path 1560" d="M872.737,7675.906l5.234-3" transform="translate(0.333 0.88)" fill="none" stroke="#fff" stroke-width="0.8"/>
    <path id="Path_1561" data-name="Path 1561" d="M877.971,7675.906l-5.234-3" transform="translate(9.149 0.88)" fill="none" stroke="#fff" stroke-width="0.8"/>
  </g>
</svg>
