<svg xmlns="http://www.w3.org/2000/svg" width="17.528" height="24.293" viewBox="0 0 17.528 24.293">
  <g id="Bike" transform="translate(-763.739 -7558.75)">
    <path id="noun-bike-1941556" d="M184.353,54.39V45.037a.85.85,0,1,0-1.7,0V54.39Z" transform="translate(589 7524.233)" fill="#fff" stroke="#fff" stroke-width="0.5"/>
    <path id="noun-bike-1941556-2" data-name="noun-bike-1941556" d="M191.156,37.385h-4.728a3.4,3.4,0,0,0-5.85,0h-4.728a.85.85,0,1,0,0,1.7H180.1a3.4,3.4,0,0,0,.833,2.211,6.8,6.8,0,0,0-4.234,6.292v7.653a.85.85,0,0,0,.85.85H181.8v1.7a1.7,1.7,0,1,0,3.4,0v-1.7h4.251a.85.85,0,0,0,.85-.85V47.588a6.8,6.8,0,0,0-4.234-6.292,3.4,3.4,0,0,0,.833-2.211h4.251a.85.85,0,1,0,0-1.7Zm-7.653,0a1.7,1.7,0,1,1-1.2.5A1.7,1.7,0,0,1,183.5,37.385Zm5.1,10.2v6.8h-4.251c.007-.026-1.657.027-1.7,0H178.4v-6.8a5.1,5.1,0,1,1,10.2,0Z" transform="translate(589 7523.281)" fill="#fff" stroke="#fff" stroke-width="0.5"/>
    <path id="noun-bike-1941556-3" data-name="noun-bike-1941556" d="M191.156,37.385h-4.728a3.4,3.4,0,0,0-5.85,0h-4.728a.85.85,0,1,0,0,1.7H180.1a3.4,3.4,0,0,0,.833,2.211,4.09,4.09,0,0,0,2.568,1.189,3.666,3.666,0,0,0,2.568-1.189,3.4,3.4,0,0,0,.833-2.211h4.251a.85.85,0,1,0,0-1.7Zm-7.653,0a1.7,1.7,0,1,1-1.2.5A1.7,1.7,0,0,1,183.5,37.385Z" transform="translate(589 7523.281)" fill="#fff" stroke="#fff" stroke-width="0.5"/>
  </g>
</svg>
