<svg xmlns="http://www.w3.org/2000/svg" width="21.4" height="21.4" viewBox="0 0 21.4 21.4">
  <g id="Bus" transform="translate(-17.8 -17.8)">
    <path id="Path_28" data-name="Path 28" d="M36.375,18H20.625A2.628,2.628,0,0,0,18,20.625v14a2.628,2.628,0,0,0,2.625,2.625H21.5V39h1.75V37.25h10.5V39H35.5V37.25h.875A2.628,2.628,0,0,0,39,34.625v-14A2.628,2.628,0,0,0,36.375,18ZM19.75,20.625a.876.876,0,0,1,.875-.875h7V25H19.75Zm17.5,14a.876.876,0,0,1-.875.875H20.625a.876.876,0,0,1-.875-.875V26.75h17.5ZM29.375,25V19.75h7a.876.876,0,0,1,.875.875V25Z" fill="#fff" stroke="#fff" stroke-width="0.4"/>
    <path id="Path_29" data-name="Path 29" d="M24.625,30a2.625,2.625,0,1,0,2.625,2.625A2.628,2.628,0,0,0,24.625,30Zm0,3.5a.875.875,0,1,1,.875-.875A.876.876,0,0,1,24.625,33.5Z" transform="translate(-0.5 -1.5)" fill="#fff" stroke="#fff" stroke-width="0.4"/>
    <path id="Path_30" data-name="Path 30" d="M34.625,35.25A2.625,2.625,0,1,0,32,32.625,2.628,2.628,0,0,0,34.625,35.25Zm0-3.5a.875.875,0,1,1-.875.875A.876.876,0,0,1,34.625,31.75Z" transform="translate(-1.75 -1.5)" fill="#fff" stroke="#fff" stroke-width="0.4"/>
  </g>
</svg>
