<svg xmlns="http://www.w3.org/2000/svg" width="17.497" height="24.007" viewBox="0 0 17.497 24.007">
  <g id="Group_514" data-name="Group 514" transform="translate(-251.25 -572.996)">
    <path id="Union_2" data-name="Union 2" d="M6.057,23.5a1.621,1.621,0,0,1-1.533-1.173,2.3,2.3,0,0,1-.059-.637V19.825a2.186,2.186,0,0,1-.472-.32,1.952,1.952,0,0,1-.608-1.07c-.061-.359-.053-.723-.089-1.084a3.987,3.987,0,0,0-.2-.755c-.048-.1-.1-.206-.155-.307-.441-.814-.91-1.61-1.368-2.414a14.105,14.105,0,0,1-.961-1.969,9.8,9.8,0,0,1-.543-2.24A8.59,8.59,0,0,1,.38,6.027,8.814,8.814,0,0,1,2.064,2.976a8.444,8.444,0,0,1,12.284-.618,8.67,8.67,0,0,1,2.646,6.192q0,.013,0,.026a9.574,9.574,0,0,1-.333,2.456,10.519,10.519,0,0,1-.817,2.08c-.282.543-.6,1.069-.908,1.6-.237.409-.48.815-.7,1.231-.116.215-.237.43-.339.653a4,4,0,0,0-.2.771q-.022.2-.031.4a2.651,2.651,0,0,1-.279,1.255,2.024,2.024,0,0,1-.857.8c0,.679,0,1.358,0,2.037a1.657,1.657,0,0,1-.724,1.378,1.606,1.606,0,0,1-.924.262H6.761l-.47,0Zm.216-2.488v.648c0,.008,0,.015,0,.023.122,0,.244-.007.362-.007h3.847c.079,0,.159,0,.239,0,0-.031,0-.062,0-.093v-1.54H6.273ZM7.6,1.878a7.622,7.622,0,0,0-1.7.47A7.7,7.7,0,0,0,4.4,3.226a7.812,7.812,0,0,0-1.21,1.22,7.806,7.806,0,0,0-.871,1.5,7.789,7.789,0,0,0-.465,1.718,8.148,8.148,0,0,0,0,1.871A9.2,9.2,0,0,0,2.427,11.6a17.354,17.354,0,0,0,.887,1.668c.4.694.8,1.385,1.183,2.088a5.093,5.093,0,0,1,.448,1.069,6.029,6.029,0,0,1,.159.913c.026.226.023.453.038.678q.009.038.02.074l.03.051.04.04.051.03.064.017h6.308l.059-.016.05-.03.04-.04.03-.051q.011-.038.02-.077c.019-.257.017-.516.05-.774a5.348,5.348,0,0,1,.188-.955A9.739,9.739,0,0,1,13,14.442c.259-.451.522-.9.78-1.351a15.862,15.862,0,0,0,.788-1.5,9.2,9.2,0,0,0,.563-2.059,8.486,8.486,0,0,0,.058-.961,8.155,8.155,0,0,0-.053-.91,7.8,7.8,0,0,0-.465-1.718,7.8,7.8,0,0,0-.87-1.5,7.81,7.81,0,0,0-1.21-1.221,7.7,7.7,0,0,0-1.49-.879,7.61,7.61,0,0,0-1.7-.469,7.73,7.73,0,0,0-1.8,0ZM15.153,7.8l0-.013ZM1.84,7.8l0-.013ZM7.719,1.86l.013,0Zm1.554,0-.013,0ZM6.573,13.8a.933.933,0,0,1-.265-.645.978.978,0,0,1,.265-.645l.389-.461L8.4,10.344H6.634a.912.912,0,0,1-.781-1.373l.317-.44L8.437,5.378a1.039,1.039,0,0,1,.54-.419.906.906,0,0,1,.7.092A.917.917,0,0,1,10,6.3l-.317.44L8.4,8.519h1.956a.906.906,0,0,1,.826.561.935.935,0,0,1-.187,1l-.389.461L8.914,12.545,7.851,13.8a.889.889,0,0,1-.639.267H7.181A.92.92,0,0,1,6.573,13.8Z" transform="translate(251.502 573.248)" fill="#fff"/>
    <path id="Union_18" data-name="Union 18" d="M6.573,13.8a.931.931,0,0,1-.265-.644.98.98,0,0,1,.265-.645l.39-.462L8.4,10.344H6.635a.912.912,0,0,1-.781-1.373l.317-.44Q7.3,6.954,8.438,5.378a1.034,1.034,0,0,1,.54-.419.9.9,0,0,1,.7.092A.918.918,0,0,1,10,6.3l-.317.44L8.4,8.519h1.956a.906.906,0,0,1,.827.561.935.935,0,0,1-.187,1l-.39.462L8.914,12.545,7.852,13.8a.886.886,0,0,1-.639.267H7.182A.922.922,0,0,1,6.573,13.8Z" transform="translate(251.508 573.248)" fill="#fff" stroke="#eff6ff" stroke-width="0.5"/>
  </g>
</svg>
