<?xml version="1.0" encoding="utf-8"?>
<!-- Generator: Adobe Illustrator 19.0.0, SVG Export Plug-In . SVG Version: 6.00 Build 0)  -->
<svg version="1.1" id="layer" xmlns="http://www.w3.org/2000/svg" xmlns:xlink="http://www.w3.org/1999/xlink" x="0px"
	y="0px" width="17.497" height="24.007" viewBox="-153 -46 652 652" style="enable-background:new -153 -46 652 652;"
	xml:space="preserve">
	<style type="text/css">
		.st0 {
			fill: #fff;
		}

		.st1 {
			fill: #fff;
		}

		.st2 {
			fill: #fff;
		}

		.st3 {
			fill: #fff;
		}

		.st4 {
			fill: #fff;
		}

		.st5 {
			fill: #fff;
		}

		.st6 {
			fill: #fff;
		}
	</style>
	<path d="M468.5,295.9l-16.7,13.7h-8.5l1.8-2.9h-182H159.9H-88.7l11-21.6h248.6h103.2h171l-1.8-2.9h8.5L468.5,295.9z M191.9,313.4
	l-25,49.1h33.9l25-49.1H191.9z M-92.1,313.4l-25,49.1h33l14.3-28.2h42.9l10.7-20.9H-92.1z M22.2,312.9c-10.3,0-19.7,5.8-24.4,14.9
	L-20.1,363H1.3l18.6-36.5h32.2l-2.4,4.7H23.2l-6.9,13.6h26.5L33.5,363h21.4l25.5-50.2H22.2z M73.6,349.9l-7.1,13.9h65.9
	c12,0,21.7-9.7,21.7-21.7c0-5.9-4.8-10.7-10.7-10.7h-38.3l2.8-5.5h50.8l7-13.7h-53.5c-10.6,0-22.6,5.6-29.1,19.2
	c-3,6,1.3,13.1,8,13.1h40.4l-2.8,5.5H73.6z M286.8,344.5l6.7-13.1h-31.7c-10.3,0-19.7,5.8-24.4,15l-2,3.9
	c-3.1,6.1,1.3,13.3,8.2,13.3h61.5l20.1-39.4c2.7-5.4-1.2-11.8-7.2-11.8h-60.4l-7.2,14.2H302l-2.5,4.8l-9.1,18h-32.8l2.3-4.8H286.8z
	 M408.9,311.8c5.8,0,9.6,6.1,6.9,11.3l-27.2,53.5c-4.3,8.5-13.1,13.9-22.7,13.9H78.1l3.5,4.2h-6.9l-13.6-11.2l13.6-11.2h6.9
	l-3.5,4.2h288.3l7.4-14.5h-40.5c-6,0-9.9-6.4-7.2-11.7l13.5-26.4c3.8-7.4,11.4-12.1,19.8-12.1H408.9 M392.7,324.9h-31.9L349,348.1
	h31.9L392.7,324.9z" />
	<polygon class="st0" points="169.2,283.4 158.2,305 261.4,305 272.4,283.4 " />
	<polygon class="st1" points="-79.4,283.4 -90.4,305 158.2,305 169.2,283.4 " />
	<polygon class="st1" points="450.1,280.5 441.6,280.5 443.4,283.4 272.4,283.4 261.4,305 443.4,305 441.6,308 450.1,308 
	466.9,294.2 " />
	<path class="st2" d="M206.5,301.5c8.4-4.3,12.4-0.3,13.3,0.9l-3,2c-3.2-2.9-8.6-1.3-10.1-0.7L206.5,301.5 M205.8,295.4l0.3,2.8
	c12.6-6.4,17.6,0.1,18.3,1.1l3.7-2.4C224.9,290.3,211.8,291.4,205.8,295.4 M205.1,289.2l0.3,2.7c15.8-7,23.8-3.6,27.3,1.9l3.8-2.5
	C229.7,280.4,213.3,284,205.1,289.2" />
	<path class="st1" d="M204.1,280.5c18.5-10.7,37.4-8.2,43.3,3.4l-5,3.3c-5.4-10-22.7-11.9-37.9-2.6L204.1,280.5 M202.9,269.6l0.6,5.7
	c20.1-10.8,41.8-9.5,49.8,4.7l7.2-4.8C254.3,258.2,220,257.9,202.9,269.6" />
	<path class="st1" d="M-28.6,332.7h-42.9l-14.3,28.2h-33l25-49.1h75.9L-28.6,332.7z M20.6,311.2c-10.3,0-19.7,5.8-24.4,14.9
	l-17.9,35.2h21.4l18.6-36.5h32.2l-2.4,4.7H21.5l-6.9,13.6h26.5l-9.2,18.2h21.4l25.5-50.2H20.6z M157.1,324.1l7-13.7h-53.5
	c-10.6,0-22.6,5.6-29.2,19.2c-3,6,1.3,13.1,8,13.1h40.4l-2.8,5.5H71.9l-7.1,13.9h65.9c12,0,21.7-9.7,21.7-21.7
	c0-5.9-4.8-10.8-10.7-10.8h-38.3l2.8-5.5H157.1z" />
	<path class="st0" d="M199.2,360.8h-33.9l25-49.1h33.9L199.2,360.8z M316.3,310.7h-60.4l-7.2,14.2h51.7l-2.5,4.8l-9.1,18h-32.8
	l2.3-4.8h27l6.7-13.1h-31.7c-10.3,0-19.7,5.8-24.4,15l-2,3.9c-3.1,6.1,1.3,13.3,8.2,13.3h61.5l20.1-39.4
	C326.3,317.1,322.3,310.7,316.3,310.7 M407.3,310.2c5.8,0,9.6,6.1,6.9,11.3L387,375c-4.3,8.5-13.1,13.9-22.6,13.9H76.4l3.6,4.2H73
	l-13.6-11.2L73,370.8H80l-3.6,4.2h288.3l7.4-14.5h-40.5c-6,0-9.9-6.4-7.2-11.7l13.5-26.4c3.8-7.4,11.4-12.1,19.8-12.1H407.3
	 M391,323.3h-31.9l-11.8,23.2h31.9L391,323.3z" />
	<path class="st3" d="M296.9,295.9h-19.8c-0.7,0-1.2-0.7-0.8-1.4l0.5-1c0.3-0.6,0.9-0.9,1.5-0.9h19.8c0.7,0,1.2,0.7,0.8,1.4l-0.5,1
	C298.2,295.5,297.6,295.9,296.9,295.9 M341.6,295.9c0.7,0,1.3-0.4,1.5-1l0.5-1c0.3-0.6-0.1-1.4-0.8-1.4h-19.8
	c-0.7,0-1.3,0.4-1.6,0.9l-0.5,1c-0.3,0.6,0.1,1.4,0.8,1.4H341.6 M386.3,295.9c0.7,0,1.3-0.4,1.6-1l0.5-1c0.3-0.6-0.1-1.4-0.8-1.4
	h-19.8c-0.7,0-1.3,0.4-1.6,0.9l-0.5,1c-0.3,0.6,0.1,1.4,0.8,1.4H386.3 M431,295.9c0.7,0,1.3-0.4,1.6-1l0.5-1
	c0.3-0.6-0.1-1.4-0.8-1.4h-19.8c-0.7,0-1.3,0.4-1.5,0.9l-0.5,1c-0.3,0.6,0.1,1.4,0.8,1.4H431 M143,383.1c0.5,0,0.9-0.3,1.1-0.7
	l0.3-0.7c0.2-0.4-0.1-1-0.6-1h-14c-0.5,0-0.9,0.3-1.1,0.7l-0.4,0.7c-0.2,0.4,0.1,1,0.6,1H143 M210.8,383.1c0.5,0,0.9-0.3,1.1-0.7
	l0.3-0.7c0.2-0.4-0.1-1-0.6-1h-14c-0.5,0-0.9,0.3-1.1,0.7l-0.4,0.7c-0.2,0.4,0.1,1,0.6,1H210.8 M278.7,383.1c0.5,0,0.9-0.3,1.1-0.7
	l0.3-0.7c0.2-0.4-0.1-1-0.6-1h-14c-0.5,0-0.9,0.3-1.1,0.7l-0.4,0.7c-0.2,0.4,0.1,1,0.6,1H278.7 M346.5,383.1c0.5,0,0.9-0.3,1.1-0.7
	l0.3-0.7c0.2-0.4-0.1-1-0.6-1h-14c-0.5,0-0.9,0.3-1.1,0.7l-0.4,0.7c-0.2,0.4,0.1,1,0.6,1H346.5" />
	<path d="M-131.5,387.3l5.7-11.2h10.1l-0.5,0.9h-8.7l-2.1,4h7.8l-0.5,0.9h-7.8l-2.3,4.4h8.9l-0.5,0.9H-131.5z M-111.9,382.7
	c-2.7,0.3-4.4,1.1-5.1,2.4c-0.2,0.4-0.3,0.7-0.2,1c0,0.3,0.2,0.5,0.4,0.7c0.2,0.2,0.6,0.3,1,0.4c0.4,0.1,0.8,0.1,1.3,0.1
	c0.8,0,1.6-0.1,2.4-0.3c0.8-0.2,1.6-0.6,2.4-1c-0.1,0.1-0.1,0.3-0.2,0.4c0,0.1,0,0.2,0,0.4c0,0.1,0.1,0.2,0.2,0.3
	c0.1,0.1,0.2,0.1,0.4,0.1c0.2,0,0.4,0,0.5,0c0.2,0,0.4,0,0.6-0.1c0.2,0,0.4-0.1,0.5-0.1l0.4-0.7c-0.6,0.1-1,0.2-1.1,0.1
	c-0.1-0.1-0.1-0.3,0.1-0.7l2.2-4.4c0.2-0.5,0.3-0.9,0.3-1.2c0-0.3-0.2-0.6-0.5-0.8c-0.3-0.2-0.6-0.3-1.1-0.4
	c-0.4-0.1-0.9-0.1-1.5-0.1c-0.6,0-1.2,0-1.8,0.1c-0.6,0.1-1.1,0.3-1.6,0.5c-0.5,0.2-1,0.5-1.4,0.8c-0.4,0.3-0.8,0.7-1.1,1.2h1.3
	c0.2-0.4,0.5-0.6,0.8-0.9c0.3-0.2,0.6-0.4,1-0.6c0.3-0.1,0.7-0.2,1.1-0.3c0.4-0.1,0.8-0.1,1.3-0.1c1,0,1.6,0.2,1.9,0.5
	c0.3,0.3,0.3,0.7,0,1.2c-0.1,0.1-0.2,0.3-0.3,0.5c-0.1,0.2-0.3,0.3-0.6,0.4c-0.2,0.1-0.6,0.1-0.9,0.2c-0.4,0-0.7,0.1-0.9,0.1
	L-111.9,382.7z M-108.8,384.3c-0.2,0.4-0.5,0.8-0.9,1c-0.4,0.3-0.8,0.5-1.3,0.7c-0.5,0.2-1,0.3-1.5,0.4c-0.5,0.1-1,0.1-1.6,0.1
	c-0.3,0-0.6,0-0.8-0.1c-0.3-0.1-0.5-0.1-0.6-0.3c-0.2-0.1-0.3-0.3-0.3-0.5c0-0.2,0-0.4,0.1-0.6c0.3-0.5,0.8-1,1.4-1.2
	c0.7-0.3,1.5-0.4,2.5-0.5c0.6,0,1.1-0.1,1.7-0.1c0.6,0,1.2-0.2,1.8-0.3L-108.8,384.3z M-102,384.7c-0.2,0.4-0.2,0.7-0.2,1.1
	c0,0.3,0.2,0.6,0.4,0.9c0.2,0.3,0.6,0.4,1,0.6c0.4,0.1,1,0.2,1.6,0.2c0.6,0,1.3,0,1.9-0.1c0.6-0.1,1.1-0.2,1.6-0.4
	c0.5-0.2,0.9-0.4,1.3-0.7c0.4-0.3,0.7-0.6,0.9-1c0.3-0.5,0.3-0.9,0.1-1.2c-0.2-0.3-0.5-0.5-1-0.7c-0.4-0.2-0.9-0.3-1.5-0.4
	c-0.6-0.1-1.1-0.2-1.5-0.3c-0.5-0.1-0.8-0.3-1.1-0.5c-0.2-0.2-0.3-0.5-0.1-0.8c0.2-0.4,0.6-0.7,1.2-1c0.6-0.3,1.2-0.4,2-0.4
	c0.8,0,1.4,0.1,1.8,0.4c0.4,0.3,0.5,0.7,0.3,1.3h1.3c0.3-0.9,0.2-1.6-0.3-2c-0.5-0.4-1.4-0.6-2.6-0.6c-1.2,0-2.3,0.2-3.2,0.6
	c-0.9,0.4-1.5,1-1.9,1.7c-0.3,0.5-0.3,0.9-0.1,1.2c0.2,0.3,0.5,0.5,1,0.7c0.4,0.2,0.9,0.3,1.5,0.4c0.6,0.1,1.1,0.2,1.6,0.3
	c0.5,0.1,0.8,0.3,1.1,0.4c0.2,0.2,0.3,0.5,0.1,0.9c-0.1,0.2-0.2,0.4-0.5,0.6c-0.2,0.2-0.4,0.3-0.7,0.5c-0.3,0.1-0.6,0.3-1,0.3
	c-0.4,0.1-0.8,0.1-1.3,0.1c-1,0-1.6-0.1-2-0.4c-0.4-0.3-0.5-0.8-0.3-1.5H-102z M-90.9,390.3c0.2,0,0.3,0.1,0.5,0.1
	c0.2,0,0.4,0,0.6,0c0.4,0,0.8-0.1,1.2-0.2c0.4-0.2,0.8-0.4,1.2-0.7c0.4-0.3,0.8-0.6,1.3-1c0.4-0.4,0.9-0.9,1.4-1.4l8.1-7.9h-1.4
	l-7,6.9l0-6.9h-1.4l0.1,8.1c-0.2,0.2-0.4,0.4-0.7,0.6c-0.2,0.3-0.5,0.5-0.7,0.7c-0.3,0.2-0.6,0.4-0.9,0.6c-0.3,0.2-0.6,0.3-1,0.3
	c-0.2,0-0.4,0-0.5,0c-0.2,0-0.3,0-0.5-0.1L-90.9,390.3z M-62.6,386.5c-0.2,0-0.4,0.1-0.6,0.1c-0.2,0-0.4,0-0.5,0
	c-0.3,0-0.5,0-0.6-0.1c-0.1,0-0.2-0.1-0.2-0.2c0-0.1,0-0.2,0.1-0.4c0.1-0.1,0.1-0.3,0.2-0.5l2.8-5.5h2.1l0.4-0.8h-2l1.1-2.2h-1.3
	l-1.1,2.2h-1.5l-0.4,0.8h1.5l-3,5.9c-0.3,0.6-0.4,1-0.1,1.3c0.2,0.2,0.6,0.3,1.3,0.3c0.3,0,0.6,0,0.9-0.1c0.3-0.1,0.5-0.1,0.7-0.1
	L-62.6,386.5z M-52.1,387.5c0.8,0,1.5-0.1,2.2-0.3c0.7-0.2,1.4-0.5,2-0.9c0.6-0.4,1.2-0.8,1.7-1.3c0.5-0.5,0.9-1.1,1.2-1.7
	c0.3-0.6,0.5-1.1,0.5-1.7c0.1-0.5,0-1-0.3-1.3c-0.2-0.4-0.6-0.7-1.1-0.9c-0.5-0.2-1.2-0.3-2.1-0.3c-0.9,0-1.6,0.1-2.4,0.3
	c-0.7,0.2-1.4,0.5-2.1,0.9c-0.6,0.4-1.2,0.8-1.6,1.3c-0.5,0.5-0.9,1.1-1.2,1.7c-0.4,0.7-0.5,1.3-0.5,1.8c0,0.5,0.1,1,0.4,1.3
	c0.3,0.4,0.7,0.6,1.2,0.8C-53.4,387.4-52.8,387.5-52.1,387.5 M-46.2,383.2c-0.2,0.4-0.5,0.9-0.9,1.3c-0.4,0.4-0.8,0.8-1.2,1.1
	c-0.5,0.3-1,0.6-1.5,0.8c-0.6,0.2-1.2,0.3-1.9,0.3c-0.6,0-1.1-0.1-1.5-0.2c-0.4-0.2-0.6-0.4-0.8-0.7c-0.2-0.3-0.2-0.7-0.2-1.1
	c0.1-0.4,0.2-0.9,0.5-1.4c0.2-0.4,0.5-0.9,0.9-1.3c0.3-0.4,0.8-0.8,1.2-1.1c0.5-0.3,1-0.6,1.5-0.8c0.6-0.2,1.2-0.3,1.8-0.3
	c0.7,0,1.2,0.1,1.6,0.3c0.4,0.2,0.6,0.4,0.8,0.7c0.1,0.3,0.2,0.7,0.1,1.1C-45.8,382.3-46,382.8-46.2,383.2 M-16.3,379.3
	c0.2-0.6,0.2-1.1,0.1-1.5c-0.1-0.4-0.3-0.8-0.7-1.1c-0.4-0.3-0.8-0.5-1.4-0.7c-0.6-0.2-1.3-0.2-2.1-0.2c-1,0-2,0.1-3,0.3
	c-1,0.2-1.9,0.6-2.8,1c-0.9,0.5-1.7,1.1-2.4,1.8c-0.7,0.7-1.4,1.6-1.9,2.7c-0.4,0.8-0.7,1.5-0.8,2.2c-0.1,0.7-0.1,1.3,0.2,1.9
	c0.3,0.5,0.7,1,1.4,1.3c0.7,0.3,1.6,0.5,2.8,0.5c1,0,2-0.1,2.8-0.3c0.9-0.2,1.7-0.5,2.4-0.9c0.7-0.4,1.4-0.8,1.9-1.3
	c0.6-0.5,1.1-1,1.5-1.5h-1.5c-0.4,0.4-0.8,0.9-1.3,1.2c-0.5,0.4-1,0.7-1.5,1c-0.5,0.3-1.1,0.5-1.7,0.6c-0.6,0.2-1.3,0.2-1.9,0.2
	c-1,0-1.8-0.1-2.4-0.4c-0.5-0.3-0.9-0.7-1.1-1.1c-0.2-0.5-0.2-1-0.1-1.6c0.1-0.6,0.4-1.2,0.7-1.8c0.3-0.7,0.8-1.3,1.3-1.9
	c0.5-0.6,1.1-1.1,1.8-1.6c0.7-0.5,1.4-0.8,2.2-1.1c0.8-0.3,1.7-0.4,2.6-0.4c1.3,0,2.2,0.2,2.8,0.6c0.6,0.4,0.8,1.1,0.6,2H-16.3z
	 M-12.1,383.3c0.2-0.4,0.5-0.9,0.8-1.3c0.3-0.4,0.7-0.8,1.1-1.1c0.4-0.3,0.9-0.5,1.5-0.7c0.6-0.2,1.2-0.3,1.9-0.2l0.5-1
	c-0.9,0-1.7,0.1-2.4,0.4c-0.7,0.3-1.4,0.7-2,1.3h0l0.8-1.5h-1.3l-3.3,8h0.4L-12.1,383.3z M4.7,383.6c-0.2,0.4-0.5,0.9-0.9,1.2
	c-0.3,0.4-0.7,0.7-1.2,1c-0.4,0.3-0.9,0.5-1.4,0.6c-0.5,0.1-1,0.2-1.5,0.2c-1,0-1.6-0.2-1.9-0.6c-0.2-0.4-0.2-0.9,0.2-1.6l2.7-5.3
	h-1.3l-2.7,5.3c-0.2,0.4-0.4,0.8-0.4,1.2c0,0.4,0,0.7,0.2,0.9c0.2,0.3,0.5,0.5,0.9,0.6c0.4,0.2,1,0.2,1.7,0.2c0.5,0,0.9,0,1.3-0.1
	c0.4-0.1,0.8-0.2,1.1-0.3c0.3-0.1,0.7-0.3,1-0.4c0.3-0.2,0.6-0.3,0.8-0.4l-0.6,1.1h1.3l4.1-8H6.9L4.7,383.6z M17.5,377.5l0.7-1.4
	h-1.4l-0.7,1.4H17.5z M12.4,387.3l4.1-8h-1.3l-4.1,8H12.4z M18.5,384.7c-0.2,0.4-0.2,0.7-0.2,1.1c0,0.3,0.1,0.6,0.4,0.9
	c0.2,0.3,0.6,0.4,1,0.6c0.4,0.1,1,0.2,1.6,0.2c0.7,0,1.3,0,1.9-0.1c0.6-0.1,1.1-0.2,1.6-0.4c0.5-0.2,0.9-0.4,1.3-0.7
	c0.4-0.3,0.7-0.6,0.9-1c0.3-0.5,0.3-0.9,0.1-1.2c-0.2-0.3-0.5-0.5-0.9-0.7c-0.4-0.2-0.9-0.3-1.5-0.4c-0.6-0.1-1.1-0.2-1.5-0.3
	c-0.5-0.1-0.8-0.3-1.1-0.5c-0.2-0.2-0.3-0.5-0.1-0.8c0.2-0.4,0.6-0.7,1.2-1c0.6-0.3,1.2-0.4,2-0.4c0.8,0,1.4,0.1,1.8,0.4
	c0.4,0.3,0.5,0.7,0.3,1.3h1.3c0.3-0.9,0.2-1.6-0.3-2c-0.5-0.4-1.4-0.6-2.6-0.6c-1.2,0-2.3,0.2-3.2,0.6c-0.9,0.4-1.5,1-1.9,1.7
	c-0.3,0.5-0.3,0.9-0.1,1.2c0.2,0.3,0.5,0.5,1,0.7c0.4,0.2,0.9,0.3,1.5,0.4c0.6,0.1,1.1,0.2,1.6,0.3c0.5,0.1,0.8,0.3,1.1,0.4
	c0.2,0.2,0.3,0.5,0.1,0.9c-0.1,0.2-0.3,0.4-0.5,0.6c-0.2,0.2-0.4,0.3-0.7,0.5c-0.3,0.1-0.6,0.3-1,0.3c-0.4,0.1-0.8,0.1-1.3,0.1
	c-1,0-1.6-0.1-2-0.4c-0.4-0.3-0.5-0.8-0.3-1.5H18.5z M42.5,383.5c0.8-1.4,0.9-2.5,0.4-3.3c-0.5-0.8-1.5-1.1-3-1.1
	c-0.8,0-1.6,0.1-2.3,0.3c-0.7,0.2-1.4,0.5-2,0.9c-0.6,0.4-1.2,0.8-1.7,1.4c-0.5,0.5-0.9,1.1-1.2,1.7c-0.3,0.6-0.5,1.1-0.6,1.7
	c-0.1,0.5,0,1,0.2,1.3c0.2,0.4,0.6,0.7,1.1,0.9c0.5,0.2,1.2,0.3,2.1,0.3c0.7,0,1.3-0.1,1.9-0.2c0.6-0.1,1.1-0.3,1.6-0.6
	c0.5-0.2,1-0.5,1.4-0.8c0.4-0.3,0.8-0.7,1.2-1.1h-1.4c-0.5,0.6-1.1,1-1.9,1.4c-0.8,0.3-1.6,0.5-2.4,0.5c-0.6,0-1.1-0.1-1.5-0.3
	c-0.4-0.2-0.6-0.4-0.8-0.7c-0.2-0.3-0.2-0.6-0.2-1c0-0.4,0.2-0.8,0.4-1.2H42.5z M34.4,382.7c0.3-0.4,0.6-0.7,0.9-1.1
	c0.4-0.3,0.8-0.6,1.2-0.9c0.4-0.3,0.9-0.5,1.4-0.6c0.5-0.2,1-0.2,1.6-0.2c0.6,0,1,0.1,1.4,0.2c0.4,0.1,0.6,0.4,0.8,0.6
	c0.2,0.3,0.2,0.6,0.2,0.9c0,0.3-0.2,0.7-0.4,1.1H34.4z" />
	<polygon class="st4" points="372.5,155.9 388.2,187.1 355.3,218.1 " />
	<polygon class="st5" points="361.6,155.9 377.2,187.1 344.3,218.1 " />
	<path class="st6" d="M77.8,218.8L27.9,178l-11.2,40.6H4.3l17.3-62.5l49.9,40.7L82.8,156h12.4L77.8,218.8z M335.1,206.2h-62.2
	l10.5-38h62.2l1.6-5.9c0.5-1.8,0.3-3.3-0.5-4.5c-0.9-1.2-2.2-1.8-4-1.8h-62.2c-1.7,0-3.4,0.6-4.9,1.8c-1.5,1.2-2.5,2.7-3,4.5
	l-13.8,49.9c-0.5,1.8-0.3,3.2,0.5,4.4c0.9,1.2,2.2,1.8,3.9,1.8h62.2c1.7,0,3.4-0.6,4.9-1.8c1.5-1.2,2.6-2.7,3-4.4L335.1,206.2z
	 M189.1,156l-3.4,12.1h31.4l-13.9,50.2l0,0h12.4v0l13.9-50.2h30.6h0.1l3.3-12.1H189.1z M172.8,156h-62.2c-0.4,0-0.7,0-1,0.1
	c-1.4,0.2-2.6,0.8-3.9,1.8c-1.5,1.2-2.5,2.7-3,4.5l-13.8,49.9c-0.5,1.8-0.3,3.2,0.5,4.4c0.9,1.2,2.2,1.8,3.9,1.8h6.2h49.9h0h6.1
	c1.7,0,3.4-0.6,4.9-1.8c1.5-1.2,2.6-2.7,3-4.4l1.7-6h-12.3h0H103l3.5-12.8h49.8l3.4-12.2h-49.8l3.6-13h49.8h0h12.3l1.7-5.9
	c0.5-1.8,0.3-3.3-0.5-4.5C175.9,156.6,174.6,156,172.8,156" />
	<path class="st6" d="M-0.7,237l3.2-11.3l5.5,8.1l2.1-7.4h1.6l-3.2,11.2l-5.5-8L0.9,237H-0.7z M21.1,237h1.8l-1.9-11.3L12.5,237h1.7
	l1.9-2.6h4.5L21.1,237z M17.2,232.9l2.7-3.6l0.5,3.6H17.2z M34,227.9l0.4-1.5h-6.5l-0.4,1.5h2.4l-2.5,9.1H29l2.5-9.1H34z
	 M38.3,226.4l-3,10.6H37l3-10.6H38.3z M43,231.6c-0.5,1.7-0.3,3.1,0.7,4.1c0.8,1,1.9,1.4,3.3,1.4c1.6,0,3-0.5,4.4-1.6
	c1.4-1.1,2.3-2.3,2.7-3.9c0.4-1.5,0.3-2.8-0.5-3.9c-0.8-1.1-1.9-1.6-3.4-1.6c-1.5,0-3,0.5-4.4,1.6C44.3,228.8,43.4,230.1,43,231.6
	 M44.6,231.6c0.3-1.1,1-2,1.9-2.8c1-0.8,2-1.2,3.1-1.2c1.1,0,1.9,0.4,2.5,1.2c0.5,0.8,0.7,1.7,0.3,2.8c-0.3,1.1-1,2.1-1.9,2.8
	c-1,0.8-2,1.1-3.1,1.1c-1,0-1.8-0.4-2.4-1.1C44.4,233.8,44.3,232.8,44.6,231.6 M58.7,237l2.1-7.4l5.5,8l3.1-11.2h-1.6l-2.1,7.4
	l-5.5-8.1L57.1,237H58.7z M78.9,237h1.8l-1.9-11.3L70.4,237h1.7l1.9-2.6h4.5L78.9,237z M75.1,232.9l2.7-3.6l0.6,3.6H75.1z
	 M87.5,226.4l-3,10.6h4.7l0.4-1.5h-3.1l2.5-9.1H87.5z M108.9,226.4h-5.8l-3,10.6h5.9l0.4-1.5h-4.2l1-3.5h4.1l0.4-1.5h-4.1l0.7-2.5
	h4.2L108.9,226.4z M113.5,226.4l-3,10.6h4.7l0.4-1.5h-3.1l2.6-9.1H113.5z M128.1,226.4h-5.8l-3,10.6h5.8l0.4-1.5h-4.2l1-3.5h4.1
	l0.4-1.5h-4.1l0.7-2.5h4.2L128.1,226.4z M140.4,226.9c-0.8-0.5-1.6-0.8-2.5-0.8c-1.7,0-3.3,0.6-4.8,1.9c-1.2,1.1-2,2.3-2.4,3.6
	c-0.4,1.5-0.2,2.8,0.5,3.9c0.8,1.1,1.9,1.6,3.4,1.6c1,0,2-0.3,3.1-0.8l0.6-1.9c-0.3,0.2-0.6,0.4-0.9,0.6c-0.3,0.2-0.5,0.3-0.8,0.4
	c-0.5,0.2-1,0.3-1.5,0.3c-1.1,0-1.9-0.4-2.4-1.1c-0.5-0.8-0.6-1.7-0.3-2.8c0.3-1.1,0.9-2.1,1.9-2.8c1-0.8,2-1.2,3.1-1.2
	c1,0,1.8,0.4,2.5,1.2L140.4,226.9 M150,227.9l0.4-1.5H144l-0.4,1.5h2.4l-2.5,9.1h1.6l2.5-9.1H150z M156.3,232.4c0.7-0.1,1.4-0.5,2-1
	c0.6-0.5,1-1.2,1.2-1.9c0.3-1,0.1-1.7-0.4-2.3c-0.5-0.5-1.4-0.8-2.8-0.8h-1.9l-3,10.6h1.6l1.2-4.3h0.3l1.8,4.3h2L156.3,232.4
	 M155.6,227.9h0.6c1.5,0,2.1,0.5,1.7,1.6c-0.3,1.2-1.2,1.7-2.8,1.7h-0.5L155.6,227.9z M163.1,231.6c-0.5,1.7-0.3,3.1,0.6,4.1
	c0.8,1,1.9,1.4,3.3,1.4c1.5,0,3-0.5,4.4-1.6c1.4-1.1,2.3-2.3,2.7-3.9c0.4-1.5,0.3-2.8-0.5-3.9c-0.8-1.1-1.9-1.6-3.4-1.6
	c-1.5,0-3,0.5-4.4,1.6C164.5,228.8,163.6,230.1,163.1,231.6 M164.7,231.6c0.3-1.1,1-2,1.9-2.8c1-0.8,2-1.2,3.1-1.2
	c1.1,0,1.9,0.4,2.5,1.2c0.5,0.8,0.6,1.7,0.3,2.8c-0.3,1.1-1,2.1-1.9,2.8c-1,0.8-2,1.1-3.1,1.1c-1,0-1.8-0.4-2.4-1.1
	C164.5,233.8,164.4,232.8,164.7,231.6 M178.8,237l2.1-7.4l5.5,8l3.1-11.2h-1.6l-2.1,7.4l-5.5-8.1l-3.2,11.3H178.8z M194.6,226.4
	l-3,10.6h1.6l3-10.6H194.6z M208.9,226.9c-0.7-0.5-1.6-0.8-2.6-0.8c-1.7,0-3.3,0.6-4.8,1.9c-1.2,1.1-2,2.3-2.3,3.6
	c-0.4,1.5-0.2,2.8,0.5,3.9c0.8,1.1,1.9,1.6,3.4,1.6c1,0,2-0.3,3.1-0.8l0.6-1.9c-0.3,0.2-0.6,0.4-0.9,0.6c-0.3,0.2-0.5,0.3-0.8,0.4
	c-0.4,0.2-0.9,0.3-1.5,0.3c-1.1,0-1.9-0.4-2.4-1.1c-0.5-0.8-0.6-1.7-0.3-2.8c0.3-1.1,1-2.1,1.9-2.8c1-0.8,2-1.2,3.1-1.2
	c1,0,1.8,0.4,2.5,1.2L208.9,226.9 M225.4,227.9l0.4-1.5h-6.4l-0.4,1.5h2.4l-2.5,9.1h1.6l2.5-9.1H225.4z M227.4,231.6
	c-0.5,1.7-0.3,3.1,0.6,4.1c0.8,1,1.9,1.4,3.3,1.4c1.5,0,3-0.5,4.4-1.6c1.4-1.1,2.3-2.3,2.7-3.9c0.4-1.5,0.2-2.8-0.5-3.9
	c-0.8-1.1-1.9-1.6-3.4-1.6c-1.5,0-3,0.5-4.4,1.6C228.8,228.8,227.9,230.1,227.4,231.6 M229,231.6c0.3-1.1,1-2,1.9-2.8
	c1-0.8,2-1.2,3.1-1.2c1.1,0,2,0.4,2.5,1.2c0.5,0.8,0.6,1.7,0.3,2.8c-0.3,1.1-1,2.1-1.9,2.8c-1,0.8-2,1.1-3.1,1.1
	c-1,0-1.8-0.4-2.4-1.1C228.8,233.8,228.7,232.8,229,231.6 M244.5,226.4l-3,10.6h4.7l0.4-1.5h-3.1l2.5-9.1H244.5z M253.2,226.4
	l-2.9,10.6h4.7l0.4-1.5h-3.1l2.5-9.1H253.2z M276.5,226.9c-0.8-0.5-1.6-0.8-2.5-0.8c-1.7,0-3.3,0.6-4.8,1.9c-1.2,1.1-2,2.3-2.3,3.6
	c-0.4,1.5-0.2,2.8,0.5,3.9c0.8,1.1,1.9,1.6,3.4,1.6c1,0,2-0.3,3.1-0.8l0.5-1.9c-0.3,0.2-0.6,0.4-0.9,0.6c-0.3,0.2-0.5,0.3-0.8,0.4
	c-0.4,0.2-0.9,0.3-1.5,0.3c-1.1,0-1.9-0.4-2.4-1.1c-0.5-0.8-0.7-1.7-0.3-2.8c0.3-1.1,1-2.1,1.9-2.8c1-0.8,2-1.2,3.1-1.2
	c1,0,1.8,0.4,2.5,1.2L276.5,226.9 M279.1,231.6c-0.5,1.7-0.3,3.1,0.6,4.1c0.8,1,1.9,1.4,3.3,1.4c1.6,0,3-0.5,4.4-1.6
	c1.4-1.1,2.3-2.3,2.7-3.9c0.4-1.5,0.3-2.8-0.5-3.9c-0.8-1.1-1.9-1.6-3.4-1.6c-1.5,0-3,0.5-4.4,1.6
	C280.5,228.8,279.6,230.1,279.1,231.6 M280.8,231.6c0.3-1.1,1-2,1.9-2.8c1-0.8,2-1.2,3.1-1.2c1.1,0,1.9,0.4,2.5,1.2
	c0.5,0.8,0.7,1.7,0.3,2.8c-0.3,1.1-1,2.1-2,2.8c-1,0.8-2,1.1-3.1,1.1c-1,0-1.8-0.4-2.4-1.1C280.6,233.8,280.4,232.8,280.8,231.6
	 M296.2,226.4l-3,10.6h4.7l0.4-1.5h-3.1l2.5-9.1H296.2z M305,226.4l-3,10.6h4.7l0.4-1.5H304l2.5-9.1H305z M319.6,226.4h-5.8l-3,10.6
	h5.9l0.4-1.5h-4.3l1-3.5h4.1l0.4-1.5h-4.1l0.7-2.5h4.2L319.6,226.4z M331.8,226.9c-0.8-0.5-1.6-0.8-2.5-0.8c-1.7,0-3.3,0.6-4.8,1.9
	c-1.2,1.1-2,2.3-2.3,3.6c-0.4,1.5-0.2,2.8,0.5,3.9c0.8,1.1,1.9,1.6,3.4,1.6c1,0,2-0.3,3.1-0.8l0.6-1.9c-0.3,0.2-0.6,0.4-0.9,0.6
	c-0.3,0.2-0.5,0.3-0.8,0.4c-0.5,0.2-1,0.3-1.5,0.3c-1.1,0-1.9-0.4-2.4-1.1c-0.5-0.8-0.7-1.7-0.3-2.8c0.3-1.1,1-2.1,1.9-2.8
	c1-0.8,2-1.2,3.1-1.2c1,0,1.8,0.4,2.5,1.2L331.8,226.9 M341.5,227.9l0.4-1.5h-6.4l-0.4,1.5h2.4l-2.5,9.1h1.6l2.5-9.1H341.5z
	 M345.8,226.4l-3,10.6h1.6l3-10.6H345.8z M350.5,231.6c-0.5,1.7-0.3,3.1,0.6,4.1c0.8,1,1.9,1.4,3.3,1.4c1.5,0,3-0.5,4.4-1.6
	c1.4-1.1,2.3-2.3,2.7-3.9c0.4-1.5,0.2-2.8-0.5-3.9c-0.8-1.1-1.9-1.6-3.4-1.6c-1.5,0-3,0.5-4.4,1.6
	C351.8,228.8,350.9,230.1,350.5,231.6 M352.1,231.6c0.3-1.1,0.9-2,1.9-2.8c1-0.8,2-1.2,3.1-1.2c1.1,0,1.9,0.4,2.5,1.2
	c0.5,0.8,0.7,1.7,0.3,2.8c-0.3,1.1-1,2.1-2,2.8c-1,0.8-2,1.1-3.1,1.1c-1,0-1.8-0.4-2.4-1.1C351.9,233.8,351.8,232.8,352.1,231.6
	 M366.2,237l2.1-7.4l5.5,8l3.2-11.2h-1.6l-2.1,7.4l-5.5-8.1l-3.2,11.3H366.2z" />
</svg>