<svg xmlns="http://www.w3.org/2000/svg" width="18.127" height="17.307" viewBox="0 0 18.127 17.307">
  <g id="noun_landline_2679292" transform="translate(-7.95 -9.88)">
    <g id="Group_159" data-name="Group 159" transform="translate(8.1 10.03)">
      <g id="Group_152" data-name="Group 152" transform="translate(0.036 6.9)">
        <g id="Group_151" data-name="Group 151">
          <g id="Group_150" data-name="Group 150">
            <path id="Path_106" data-name="Path 106" d="M24.692,52.568H9.64A1.372,1.372,0,0,1,8.27,51.2V47.943a1.368,1.368,0,0,1,.468-1.032L13.446,42.8a1.374,1.374,0,0,1,.9-.338h5.493a1.37,1.37,0,0,1,.887.326L25.577,46.9a1.37,1.37,0,0,1,.483,1.045V51.2A1.369,1.369,0,0,1,24.692,52.568ZM14.348,43.315a.512.512,0,0,0-.34.128L9.3,47.553a.517.517,0,0,0-.177.391V51.2a.52.52,0,0,0,.519.519H24.694a.52.52,0,0,0,.519-.519V47.953a.517.517,0,0,0-.183-.4L20.18,43.439a.524.524,0,0,0-.336-.123h-5.5Z" transform="translate(-8.27 -42.46)" fill="#fff" stroke="#fff" stroke-width="0.3"/>
          </g>
        </g>
      </g>
      <g id="Group_155" data-name="Group 155" transform="translate(6.444 9.504)">
        <g id="Group_154" data-name="Group 154">
          <g id="Group_153" data-name="Group 153">
            <path id="Path_107" data-name="Path 107" d="M40.841,59.6a2.452,2.452,0,1,1,2.451-2.453A2.454,2.454,0,0,1,40.841,59.6Zm0-4.478a2.025,2.025,0,1,0,2.025,2.025A2.028,2.028,0,0,0,40.841,55.126Z" transform="translate(-38.39 -54.7)" fill="#fff" stroke="#fff" stroke-width="0.5"/>
          </g>
        </g>
      </g>
      <g id="Group_158" data-name="Group 158" transform="translate(0 0)">
        <g id="Group_157" data-name="Group 157">
          <g id="Group_156" data-name="Group 156">
            <path id="Path_108" data-name="Path 108" d="M24.631,15.657H21.274a.973.973,0,0,1-.972-.972V13.411a.18.18,0,0,0-.179-.179H13.868a.18.18,0,0,0-.179.179v1.274a.973.973,0,0,1-.972.972H9.362A1.263,1.263,0,0,1,8.1,14.4V12.809a2.782,2.782,0,0,1,2.779-2.779H23.112a2.782,2.782,0,0,1,2.779,2.779V14.4A1.261,1.261,0,0,1,24.631,15.657ZM13.868,12.381h6.255a1.031,1.031,0,0,1,1.03,1.03v1.274a.121.121,0,0,0,.121.121h3.357a.411.411,0,0,0,.411-.411V12.809a1.93,1.93,0,0,0-1.928-1.928H10.881a1.93,1.93,0,0,0-1.928,1.928V14.4a.411.411,0,0,0,.411.411h3.353a.121.121,0,0,0,.121-.121V13.411A1.031,1.031,0,0,1,13.868,12.381Z" transform="translate(-8.1 -10.03)" fill="#fff" stroke="#fff" stroke-width="0.3"/>
          </g>
        </g>
      </g>
    </g>
  </g>
</svg>
