<svg id="noun_chat_notification_792690" data-name="noun_chat notification_792690" xmlns="http://www.w3.org/2000/svg" width="28.244" height="28.887" viewBox="0 0 28.244 28.887">
  <g id="Layer_2" data-name="Layer 2">
    <g id="Layer_1" data-name="Layer 1">
      <path id="Path_11" data-name="Path 11" d="M16.661,13.948H4.974a.974.974,0,1,1,0-1.948H16.661a.974.974,0,1,1,0,1.948Z" transform="translate(-0.104 -0.313)" fill="#fff"/>
      <path id="Path_12" data-name="Path 12" d="M16.661,18.948H4.974a.974.974,0,0,1,0-1.948H16.661a.974.974,0,1,1,0,1.948Z" transform="translate(-0.104 -0.443)" fill="#fff"/>
      <path id="Path_13" data-name="Path 13" d="M20.974,3.9A.974.974,0,0,1,20,2.922V.974a.974.974,0,1,1,1.948,0V2.922A.974.974,0,0,1,20.974,3.9Z" transform="translate(-0.521)" fill="#fff"/>
      <path id="Path_14" data-name="Path 14" d="M27.922,8.948H25.974a.974.974,0,1,1,0-1.948h1.948a.974.974,0,0,1,0,1.948Z" transform="translate(-0.652 -0.182)" fill="#fff"/>
      <path id="Path_15" data-name="Path 15" d="M24.564,5.16a.974.974,0,0,1-.691-1.665l1.85-1.85A.974.974,0,0,1,27.1,3.017L25.255,4.906A.974.974,0,0,1,24.564,5.16Z" transform="translate(-0.615 -0.037)" fill="#fff"/>
      <path id="Path_16" data-name="Path 16" d="M4.87,29.069A.974.974,0,0,1,3.9,28.1V23.46H.974A.974.974,0,0,1,0,22.486V7.974A.974.974,0,0,1,.974,7H20.453a.974.974,0,0,1,.974.974V22.486a.974.974,0,0,1-.974.974H13.547L5.415,28.9a.974.974,0,0,1-.545.166Zm-2.922-7.46H4.87a.974.974,0,0,1,.974.974v3.681l6.818-4.655h6.818V8.948H1.948Z" transform="translate(0 -0.182)" fill="#fff"/>
    </g>
  </g>
</svg>
