<svg xmlns="http://www.w3.org/2000/svg" width="7.58" height="10.639" viewBox="0 0 7.58 10.639">
  <path id="Union_31" data-name="Union 31" d="M-512.62,10.454h0l-.708-.724-1.48-1.514-1.433-1.466-.442-.453-.108-.11-.02-.021A.657.657,0,0,1-517,5.7v-.1a.645.645,0,0,1,.636-.642h.9c.267,0,.537.011.8-.016a2.808,2.808,0,0,0,.545-.15,2.823,2.823,0,0,0,.478-.282,2.858,2.858,0,0,0,.39-.393,2.918,2.918,0,0,0,.234-.388h-3.346A.645.645,0,0,1-517,3.1a.645.645,0,0,1,.636-.642h3.557q0-.049,0-.1V1.285h-3.557A.645.645,0,0,1-517,.642.645.645,0,0,1-516.363,0h6.307a.645.645,0,0,1,.636.642.645.645,0,0,1-.636.642h-1.477v1.17h1.477a.645.645,0,0,1,.636.642.645.645,0,0,1-.636.642h-1.607a3.882,3.882,0,0,1-.212.561,3.444,3.444,0,0,1-1.152,1.349,3.384,3.384,0,0,1-1.7.593c-.069.005-.138.009-.207.011l1.079,1.1,1.469,1.5.672.687a.654.654,0,0,1,0,.908.635.635,0,0,1-.452.186A.624.624,0,0,1-512.62,10.454Z" transform="translate(517)" fill="#fff"/>
</svg>
