<svg xmlns="http://www.w3.org/2000/svg" width="18.759" height="18.758" viewBox="0 0 18.759 18.758">
  <g id="Group_9838" data-name="Group 9838" transform="translate(552 -20239)">
    <g id="Icons" transform="translate(-551 20241)">
      <g id="Rounded" transform="translate(-1 -2)">
        <g id="Notification" transform="translate(0 0)">
          <g id="_-Round-_-Notification-_-live_tv" data-name="-Round-/-Notification-/-live_tv">
            <g id="Group_9837" data-name="Group 9837">
              <path id="Path" d="M0,0H18.759V18.759H0Z" fill="none" fill-rule="evenodd" />
              <path id="_-Icon-Color" data-name="🔹-Icon-Color"
                d="M8.425,13.885,11.536,12.1a.785.785,0,0,0,0-1.36L8.425,8.961a.786.786,0,0,0-1.172.68V13.2A.787.787,0,0,0,8.425,13.885ZM16.632,5.17H10.7l2.3-2.3a.392.392,0,0,0-.555-.555L9.6,5.162,6.753,2.317a.392.392,0,0,0-.555.555l2.3,2.3H2.563A1.563,1.563,0,0,0,1,6.733v9.379a1.568,1.568,0,0,0,1.563,1.563H16.632A1.568,1.568,0,0,0,18.2,16.113V6.733A1.563,1.563,0,0,0,16.632,5.17Zm-.782,10.943H3.345a.784.784,0,0,1-.782-.782V7.515a.784.784,0,0,1,.782-.782H15.851a.784.784,0,0,1,.782.782v7.816A.784.784,0,0,1,15.851,16.113Z"
                transform="translate(-0.218 -0.48)" fill="#fff" fill-rule="evenodd" />
            </g>
          </g>
        </g>
      </g>
    </g>
    <g id="Icons-2" data-name="Icons" transform="translate(-569 20241)">
      <g id="Rounded-2" data-name="Rounded" transform="translate(-1 -2)">
        <g id="Notification-2" data-name="Notification" transform="translate(0 0)">
          <g id="_-Round-_-Notification-_-live_tv-2" data-name="-Round-/-Notification-/-live_tv">
            <g id="Group_9837-2" data-name="Group 9837" transform="translate(18)">
              <path id="Path-2" data-name="Path" d="M0,0H18.759V18.759H0Z" fill="none" fill-rule="evenodd" />
              <path id="_-Icon-Color-2" data-name="🔹-Icon-Color"
                d="M8.425,13.885,11.536,12.1a.785.785,0,0,0,0-1.36L8.425,8.961a.786.786,0,0,0-1.172.68V13.2A.787.787,0,0,0,8.425,13.885Z"
                transform="translate(-0.218 -0.48)" fill="#fff" fill-rule="evenodd" />
            </g>
          </g>
        </g>
      </g>
    </g>
  </g>
</svg>