<svg xmlns="http://www.w3.org/2000/svg" width="18" height="26.272" viewBox="0 0 18 26.272">
  <g id="Train" transform="translate(-158.67 -0.297)">
    <path id="Path_1556" data-name="Path 1556" d="M174.31,3.85h-4.116l1.976-2.689a.59.59,0,0,0-.11-.768.6.6,0,0,0-.768.11l-2.47,3.348h-2.36L163.993.5a.52.52,0,0,0-.713-.11.59.59,0,0,0-.11.768l1.976,2.689H161.03a2.342,2.342,0,0,0-2.36,2.36V22.454a.519.519,0,0,0,.549.549h3.018l-2.744,2.634a.543.543,0,0,0,.768.768l3.567-3.457h7.683l3.567,3.457a.543.543,0,0,0,.768-.768L173.1,23h3.018a.519.519,0,0,0,.549-.549V6.21a2.377,2.377,0,0,0-2.36-2.36ZM159.767,9.119h15.8v5.213h-15.8Zm1.262-4.171h13.28a1.242,1.242,0,0,1,1.262,1.262V7.966h-15.8V6.21a1.276,1.276,0,0,1,1.262-1.262Zm-1.262,16.957V15.375h15.8v6.53Z" fill="#fff"/>
    <path id="Path_1557" data-name="Path 1557" d="M404.748,350a2.26,2.26,0,0,0-2.25,2.25,2.225,2.225,0,0,0,2.25,2.25,2.26,2.26,0,0,0,2.25-2.25A2.225,2.225,0,0,0,404.748,350Zm0,3.348a1.152,1.152,0,1,1,0-2.3,1.152,1.152,0,1,1,0,2.3Z" transform="translate(-232.359 -333.253)" fill="#fff"/>
    <path id="Path_1558" data-name="Path 1558" d="M204.088,350a2.26,2.26,0,0,0-2.25,2.25,2.225,2.225,0,0,0,2.25,2.25,2.25,2.25,0,1,0,0-4.5Zm0,3.348a1.152,1.152,0,1,1,0-2.3,1.125,1.125,0,0,1,1.152,1.152A1.2,1.2,0,0,1,204.088,353.348Z" transform="translate(-41.137 -333.253)" fill="#fff"/>
  </g>
</svg>
