<svg xmlns="http://www.w3.org/2000/svg" width="15.219" height="9.532" viewBox="0 0 15.219 9.532">
  <g id="noun_transaction_3324055_1_" data-name="noun_transaction_3324055 (1)" transform="translate(-6.186 -15.835)">
    <g id="Group_505" data-name="Group 505" transform="translate(6.186 15.835)">
      <path id="Path_229" data-name="Path 229" d="M9.811,21.245a.59.59,0,1,1-.834.834L6.359,19.46a.588.588,0,0,1-.074-.09c-.009-.014-.016-.029-.024-.045a.567.567,0,0,1-.029-.056.555.555,0,0,1-.019-.059c-.005-.017-.011-.033-.015-.051a.6.6,0,0,1,0-.231c0-.017.01-.034.015-.05a.535.535,0,0,1,.019-.059.607.607,0,0,1,.029-.057c.008-.015.015-.029.024-.045a.6.6,0,0,1,.074-.09l2.619-2.619a.59.59,0,1,1,.834.834L8.2,18.455H14.92a.59.59,0,0,1,0,1.179H8.2Zm11.5,1.238c.009-.014.016-.029.024-.045a.607.607,0,0,0,.029-.057.534.534,0,0,0,.019-.059c.005-.017.011-.033.015-.05a.6.6,0,0,0,0-.231c0-.018-.01-.034-.015-.051a.554.554,0,0,0-.019-.059.568.568,0,0,0-.029-.056c-.008-.015-.015-.029-.024-.045a.588.588,0,0,0-.074-.09l-2.619-2.619a.59.59,0,1,0-.834.834l1.613,1.613H12.671a.59.59,0,1,0,0,1.179h6.721L17.78,24.36a.59.59,0,1,0,.834.834l2.619-2.619a.6.6,0,0,0,.074-.091Z" transform="translate(-6.186 -15.835)" fill="#fff"/>
    </g>
  </g>
</svg>
