<svg xmlns="http://www.w3.org/2000/svg" width="25.25" height="26.25" viewBox="0 0 25.25 26.25">
  <g id="Group_3792" data-name="Group 3792" transform="translate(-453 -16)">
    <g id="noun_Wallet_4369607" transform="translate(455 19)">
      <path id="Path_17" data-name="Path 17" d="M22.735,18.7a1.4,1.4,0,1,0,1.4-1.4A1.4,1.4,0,0,0,22.735,18.7Z" transform="translate(-5.796 -4.347)" fill="#fff" stroke="#fff" stroke-width="0.5"/>
      <path id="Path_18" data-name="Path 18" d="M20.516,5.712h-.355V2.065A1.064,1.064,0,0,0,19.1,1H4.421A3.414,3.414,0,0,0,1,4.42v16.1A2.487,2.487,0,0,0,3.484,23H20.516A2.487,2.487,0,0,0,23,20.516V8.2A2.487,2.487,0,0,0,20.516,5.712ZM3.5,3.512a1.3,1.3,0,0,1,.922-.383H18.032V5.712H4.421a1.295,1.295,0,0,1-.922-2.2ZM20.871,17.12H18.577a2.763,2.763,0,1,1,0-5.525h2.294V17.12Zm0-7.654H18.577a4.892,4.892,0,1,0,0,9.783h2.294v1.267a.355.355,0,0,1-.355.355H3.484a.355.355,0,0,1-.355-.355V7.588a3.4,3.4,0,0,0,1.292.253h16.1a.355.355,0,0,1,.355.355V9.466Z" transform="translate(0 0)" fill="#fff" stroke="#fff" stroke-width="0.5"/>
    </g>
    <circle id="Ellipse_30" data-name="Ellipse 30" cx="7" cy="6" r="6.5" transform="translate(453 17)" fill="#373737"/>
    <text id="_2" data-name="2" transform="translate(457 27)" fill="#fff" font-size="12" font-family="Poppins-Regular, Poppins"><tspan x="0" y="0">2</tspan></text>
  </g>
</svg>