<svg fill="#000000" xmlns="http://www.w3.org/2000/svg"  viewBox="0 0 32 32" width="32px" height="32px"><path d="M27.872,8.211c-0.012,0.093-0.035,0.175-0.07,0.257c-1.12,2.87-2.24,5.716-3.371,8.574 c-0.128,0.303-0.268,0.595-0.443,0.875c-0.42,0.712-1.062,1.038-1.878,1.027c-0.28-0.012-0.548-0.047-0.805-0.093 c-0.268-0.047-0.35-0.163-0.362-0.432v-0.467c0.012-0.175,0.093-0.245,0.257-0.233c0.117,0.012,0.233,0.035,0.35,0.047 c0.245,0.035,0.502,0.012,0.735-0.047c0.35-0.093,0.583-0.327,0.723-0.642c0.163-0.35,0.292-0.712,0.443-1.061 c0.093-0.198,0.082-0.362,0-0.56c-0.945-2.321-1.89-4.631-2.823-6.941c-0.035-0.093-0.07-0.198-0.093-0.292 c-0.023-0.117,0.035-0.222,0.152-0.222c0.373,0,0.735,0,1.097,0.012c0.152,0,0.257,0.093,0.303,0.222 c0.105,0.268,0.21,0.537,0.303,0.817c0.618,1.703,1.225,3.406,1.843,5.109c0.012,0.035,0.023,0.058,0.047,0.117 c0.117-0.373,0.245-0.723,0.362-1.061l1.668-4.771c0.023-0.07,0.047-0.128,0.07-0.198c0.058-0.152,0.21-0.257,0.373-0.245h0.945 C27.825,8.001,27.895,8.071,27.872,8.211z"/><path d="M19.676,9.855c-0.093-0.618-0.35-1.131-0.91-1.458c-0.315-0.187-0.665-0.28-1.038-0.338C17.553,8.035,17.39,8.023,17.215,8 h-0.572c-0.047,0.012-0.093,0.023-0.14,0.023c-0.467,0.023-0.922,0.082-1.376,0.198c-0.292,0.07-0.572,0.175-0.852,0.268 c-0.175,0.058-0.257,0.187-0.257,0.373c0.012,0.152,0,0.315,0,0.467c0.012,0.233,0.105,0.292,0.327,0.233 c0.373-0.093,0.747-0.198,1.12-0.268c0.583-0.105,1.178-0.152,1.773-0.07c0.315,0.058,0.607,0.14,0.805,0.408 c0.175,0.222,0.245,0.502,0.257,0.782c0.012,0.397,0.012,0.711,0.012,1.107c0,0.023,0,0.047-0.012,0.058h-0.058 c-0.502-0.128-1.015-0.198-1.528-0.233c-0.537-0.023-1.073,0-1.586,0.187c-0.618,0.21-1.12,0.583-1.411,1.19 c-0.222,0.467-0.257,0.957-0.187,1.458c0.105,0.677,0.432,1.19,1.027,1.516c0.572,0.315,1.178,0.35,1.808,0.257 c0.723-0.105,1.365-0.408,1.925-0.875c0.023-0.023,0.047-0.035,0.07-0.058c0.035,0.187,0.058,0.362,0.093,0.525 c0.023,0.152,0.117,0.245,0.257,0.257h0.782c0.117,0,0.222-0.105,0.222-0.233c0.012-0.035,0.012-0.082,0.012-0.128v-4.98 C19.723,10.263,19.711,10.053,19.676,9.855z M18.323,13.342c0,0.233-0.012,0.443-0.012,0.677c0.012,0.058-0.023,0.105-0.07,0.14 c-0.537,0.385-1.12,0.642-1.785,0.712c-0.268,0.023-0.537,0.023-0.793-0.082c-0.292-0.105-0.513-0.35-0.595-0.642 c-0.093-0.303-0.093-0.618-0.012-0.922c0.128-0.397,0.408-0.618,0.782-0.747c0.385-0.117,0.793-0.152,1.19-0.105 c0.397,0.035,0.793,0.105,1.19,0.163c0.082,0.012,0.105,0.047,0.105,0.117C18.311,12.887,18.323,13.108,18.323,13.342z"/><path d="M11.823,9.843C11.426,8.91,10.75,8.292,9.735,8.082C9.583,8.047,9.42,8.035,9.268,8.012C9.128,8,9,8,8.872,8l-0.21,0.035 C8.008,8.117,7.378,8.362,6.854,8.758c-0.117,0.07-0.222,0.163-0.338,0.257c-0.012-0.023-0.023-0.047-0.023-0.07 C6.469,8.816,6.457,8.677,6.434,8.548c-0.035-0.21-0.152-0.315-0.362-0.315H5.524c-0.338,0-0.397,0.07-0.397,0.397v10.125 C5.139,18.907,5.232,18.988,5.36,19h1.015c0.14,0,0.222-0.093,0.233-0.245c0.012-0.047,0.012-0.093,0.012-0.14v-3.517 c0.047,0.047,0.082,0.07,0.105,0.093c0.852,0.712,1.831,0.945,2.905,0.735c0.98-0.198,1.656-0.793,2.088-1.668 c0.338-0.665,0.478-1.342,0.49-2.077C12.231,11.376,12.161,10.601,11.823,9.843z M10.505,13.418 c-0.327,1.015-1.073,1.411-2.03,1.365c-0.677-0.035-1.248-0.292-1.785-0.665c-0.058-0.035-0.093-0.093-0.082-0.152v-3.96 C6.597,9.936,6.632,9.878,6.69,9.843c0.653-0.455,1.376-0.688,2.17-0.63c0.712,0.058,1.295,0.408,1.598,1.236 c0.187,0.513,0.233,1.008,0.233,1.545C10.691,12.496,10.656,12.94,10.505,13.418z"/><path fill-rule="evenodd" d="M28.116,23.142C24.831,25.662,20.071,27,15.972,27 c-5.747,0-10.923-1.798-14.84-5.472c-0.304-0.292-0.033-0.686,0.337-0.462c4.226,2.559,9.449,3.686,14.845,3.686 c3.641,0,7.642-0.783,11.325-2.408C28.196,22.096,28.659,22.723,28.116,23.142z" clip-rule="evenodd"/><path fill-rule="evenodd" d="M29.651,21.317c-0.374-0.478-2.467-0.225-3.407-0.112 c-0.287,0.033-0.333-0.216-0.075-0.395c1.672-1.173,4.409-0.836,4.73-0.441c0.32,0.395-0.087,3.141-1.651,4.451 c-0.241,0.2-0.47,0.092-0.362-0.171C29.235,23.767,30.026,21.795,29.651,21.317z" clip-rule="evenodd"/></svg>