<svg xmlns="http://www.w3.org/2000/svg" width="20.213" height="20.001" viewBox="0 0 20.213 20.001">
  <g id="noun_Barcode_860830_1_" data-name="noun_Barcode_860830 (1)" transform="translate(0 0)">
    <g id="Group_6" data-name="Group 6" transform="translate(0 0)">
      <path id="Path_20" data-name="Path 20" d="M-484.215,506.815a.326.326,0,0,0-.329.329v5.8a.328.328,0,0,0,.329.329h5.8a.328.328,0,0,0,.329-.329v-5.8a.328.328,0,0,0-.329-.329Zm13.752,0a.328.328,0,0,0-.329.329v5.8a.328.328,0,0,0,.329.329h5.8a.332.332,0,0,0,.333-.329v-5.8a.332.332,0,0,0-.333-.329Zm-6.572.329V509.1h1.943v1.938h-1.943v3.909h-1.947v1.29h-3.281V514.3h-1.952v1.952h1.938v3.6h1.957v-1.657h1.812V516.9h1.479v-1.957h1.952v.981h3.885v4.856h-1.933v-1.923h-1.943v-1.947h-1.957v1.952h1.947v1.928h-1.933v5.692h1.952v-1.87h1.933v-1.88h1.957V520.8h1.928V517.9h1.947v1.947h2.629v-1.957h-2.619v-1.947h-1.952v-.01h-1.933v-1.957h-3.909v-2.933h3.358v-1.957h-3.358v-1.938h-1.957Zm-6.852.333h5.141v5.142h-5.141Zm13.752,0h5.142v5.142h-5.142Zm-13.013.739v3.658h3.663v-3.658Zm13.757,0v3.658h3.658v-3.658Zm2.1,5.755v1.957h1.952v-1.957Zm-16.927,6.388a.326.326,0,0,0-.329.328v5.8a.33.33,0,0,0,.329.328h5.8a.33.33,0,0,0,.329-.328v-5.8a.33.33,0,0,0-.329-.328Zm9.162.454h1.933v1.851h-1.933Zm-8.833.2h5.141v5.142h-5.141Zm13.516.667v1.957h1.831v2.933h3.875v-1.957h-1.918v-2.924h-1.831v-.01h-1.957Zm-12.776.073v3.663h3.663v-3.663Zm10.027,2.861v1.957h1.952v-1.957Z" transform="translate(484.543 -506.815)" fill="#373737"/>
    </g>
  </g>
</svg>
