<svg width="500" height="500" viewBox="0 0 500 500" fill="none" xmlns="http://www.w3.org/2000/svg">
	<rect width="500" height="500" fill="white" />
	<mask id="mask0_556_14" style="mask-type:luminance" maskUnits="userSpaceOnUse" x="77" y="172" width="345" height="250">
		<path d="M77 172.82H422V421.781H77V172.82Z" fill="white" />
	</mask>
	<g mask="url(#mask0_556_14)">
		<path fill-rule="evenodd" clip-rule="evenodd" d="M421.764 213.4C421.764 202.673 417.493 192.386 409.89 184.799C402.292 177.217 391.981 172.955 381.234 172.955C317.279 172.955 181.702 172.955 117.747 172.955C106.996 172.955 96.687 177.217 89.0865 184.799C81.4838 192.386 77.2173 202.673 77.2173 213.4C77.2173 258.389 77.2173 336.393 77.2173 381.38C77.2173 392.107 81.4838 402.396 89.0865 409.978C96.687 417.565 106.996 421.825 117.747 421.825C181.702 421.825 317.279 421.825 381.234 421.825C391.981 421.825 402.292 417.565 409.89 409.978C417.493 402.396 421.764 392.107 421.764 381.38C421.764 336.393 421.764 258.389 421.764 213.4ZM410.252 213.4C410.252 258.389 410.252 336.393 410.252 381.38C410.252 389.06 407.195 396.428 401.755 401.86C396.312 407.289 388.928 410.339 381.234 410.339C317.279 410.339 181.702 410.339 117.747 410.339C110.046 410.339 102.665 407.289 97.2235 401.86C91.7796 396.428 88.7224 389.06 88.7224 381.38C88.7224 336.393 88.7224 258.389 88.7224 213.4C88.7224 205.72 91.7796 198.354 97.2235 192.921C102.665 187.489 110.046 184.438 117.747 184.438C181.702 184.438 317.279 184.438 381.234 184.438C388.928 184.438 396.312 187.489 401.755 192.921C407.195 198.354 410.252 205.72 410.252 213.4Z" fill="#0077b6" />
	</g>
	<path fill-rule="evenodd" clip-rule="evenodd" d="M350.398 226.362C350.398 216.528 342.41 208.557 332.557 208.557C293.345 208.557 169.949 208.557 130.739 208.557C120.888 208.557 112.9 216.528 112.9 226.362C112.9 257.032 112.9 337.737 112.9 368.408C112.9 378.239 120.888 386.212 130.739 386.212C169.949 386.212 293.345 386.212 332.557 386.212C342.41 386.212 350.398 378.239 350.398 368.408V226.362ZM338.889 226.362V368.408C338.889 371.897 336.053 374.727 332.557 374.727C293.345 374.727 169.949 374.727 130.739 374.727C127.241 374.727 124.407 371.897 124.407 368.408C124.407 337.737 124.407 257.032 124.407 226.362C124.407 222.872 127.241 220.04 130.739 220.04C169.949 220.04 293.345 220.04 332.557 220.04C336.053 220.04 338.889 222.872 338.889 226.362Z" fill="#0077b6" />
	<path fill-rule="evenodd" clip-rule="evenodd" d="M302.819 178.697C302.819 155.861 284.267 137.348 261.382 137.348C253.598 137.348 245.357 137.348 237.571 137.348C226.588 137.348 216.053 141.701 208.287 149.451C200.522 157.201 196.156 167.714 196.156 178.672C196.156 178.689 196.156 178.697 196.156 178.697C196.156 181.869 198.734 184.438 201.913 184.438H297.064V178.697H302.819ZM290.756 172.955C288.075 159.207 275.944 148.831 261.382 148.831C253.598 148.831 245.357 148.831 237.571 148.831C229.639 148.831 222.034 151.975 216.424 157.573C212.185 161.799 209.351 167.17 208.221 172.955H290.756Z" fill="#0077b6" />
	<path fill-rule="evenodd" clip-rule="evenodd" d="M249.49 133.441L329.508 78.9981C332.131 77.2114 335.714 77.8891 337.503 80.5065C339.291 83.1261 338.614 86.6995 335.991 88.4863L252.73 145.135C250.776 146.465 248.202 146.465 246.247 145.135L162.986 88.4863C160.363 86.6995 159.686 83.1261 161.477 80.5065C163.263 77.8891 166.846 77.2114 169.471 78.9981L249.49 133.441Z" fill="#FF6800" />
	<path fill-rule="evenodd" clip-rule="evenodd" d="M397.971 261.78C397.971 258.608 395.397 256.039 392.219 256.039H368.429C365.253 256.039 362.677 258.608 362.677 261.78V285.519C362.677 288.691 365.253 291.26 368.429 291.26H392.219C395.397 291.26 397.971 288.691 397.971 285.519V261.78ZM374.184 267.522V279.776H386.464V267.522H374.184Z" fill="#FF6800" />
	<path fill-rule="evenodd" clip-rule="evenodd" d="M397.971 309.254C397.971 306.085 395.397 303.512 392.219 303.512H368.429C365.253 303.512 362.677 306.085 362.677 309.254V332.992C362.677 336.166 365.253 338.736 368.429 338.736H392.219C395.397 338.736 397.971 336.166 397.971 332.992V309.254ZM374.184 314.997V327.253H386.464V314.997H374.184Z" fill="#0077b6" />
</svg>
