<svg version="1.2" xmlns="http://www.w3.org/2000/svg" viewBox="0 0 500 500" width="500" height="500">
	<title>
		Cabletv-svg
	</title>
	<defs>
		<clipPath clipPathUnits="userSpaceOnUse" id="cp1">
			<path d="m77 172.82h345v248.96h-345z" />
		</clipPath>
	</defs>
	<style>
		.s0 { fill: #0077b6 }
		.s1 { fill: #ff6800 }
	</style>
	<g id="Clip-Path" clip-path="url(#cp1)">
		<g id="Layer">
			<path id="Layer" fill-rule="evenodd" class="s0" d="m421.8 381.4c0 10.7-4.3 21-11.9 28.6-7.6 7.6-17.9 11.8-28.7 11.8-63.9 0-199.5 0-263.5 0-10.7 0-21-4.2-28.6-11.8-7.6-7.6-11.9-17.9-11.9-28.6 0-45 0-123 0-168 0-10.7 4.3-21 11.9-28.6 7.6-7.6 17.9-11.8 28.6-11.8 64 0 199.6 0 263.5 0 10.8 0 21.1 4.2 28.7 11.8 7.6 7.6 11.9 17.9 11.9 28.6 0 45 0 123 0 168zm-20-188.5c-5.5-5.4-12.9-8.5-20.6-8.5-63.9 0-199.5 0-263.5 0-7.7 0-15 3.1-20.5 8.5-5.4 5.5-8.5 12.8-8.5 20.5 0 45 0 123 0 168 0 7.7 3.1 15 8.5 20.5 5.5 5.4 12.8 8.4 20.5 8.4 64 0 199.6 0 263.5 0 7.7 0 15.1-3 20.6-8.4 5.4-5.5 8.5-12.8 8.5-20.5 0-45 0-123 0-168 0-7.7-3.1-15-8.5-20.5z" />
		</g>
	</g>
	<path id="Layer" fill-rule="evenodd" class="s0" d="m350.4 368.4c0 9.8-8 17.8-17.8 17.8-39.3 0-162.7 0-201.9 0-9.8 0-17.8-8-17.8-17.8 0-30.7 0-111.4 0-142 0-9.9 8-17.8 17.8-17.8 39.2 0 162.6 0 201.9 0 9.8 0 17.8 7.9 17.8 17.8zm-17.8-148.4c-39.3 0-162.7 0-201.9 0-3.5 0-6.3 2.8-6.3 6.3 0 30.7 0 111.4 0 142.1 0 3.5 2.8 6.3 6.3 6.3 39.2 0 162.6 0 201.9 0 3.5 0 6.3-2.8 6.3-6.3v-142.1c0-3.5-2.8-6.3-6.3-6.3z" />
	<path id="Layer" fill-rule="evenodd" class="s0" d="m297.1 178.7v5.7h-95.2c-3.2 0-5.7-2.5-5.7-5.7q0 0 0 0c0-11 4.3-21.5 12.1-29.2 7.8-7.8 18.3-12.2 29.3-12.2 7.8 0 16 0 23.8 0 22.9 0 41.4 18.6 41.4 41.4zm-6.3-5.7c-2.7-13.8-14.8-24.2-29.4-24.2-7.7 0-16 0-23.8 0-7.9 0-15.5 3.2-21.1 8.8-4.3 4.2-7.1 9.6-8.2 15.4z" />
	<path id="Layer" fill-rule="evenodd" class="s1" d="m249.5 133.4l80-54.4c2.6-1.8 6.2-1.1 8 1.5 1.8 2.6 1.1 6.2-1.5 8l-83.3 56.6c-1.9 1.4-4.5 1.4-6.5 0l-83.2-56.6c-2.6-1.8-3.3-5.4-1.5-8 1.8-2.6 5.3-3.3 8-1.5z" />
	<path id="Layer" fill-rule="evenodd" class="s1" d="m398 285.5c0 3.2-2.6 5.8-5.8 5.8h-23.8c-3.1 0-5.7-2.6-5.7-5.8v-23.7c0-3.2 2.6-5.8 5.7-5.8h23.8c3.2 0 5.8 2.6 5.8 5.8zm-23.8-18v12.2h12.3v-12.2z" />
	<path id="Layer" fill-rule="evenodd" class="s0" d="m398 333c0 3.2-2.6 5.7-5.8 5.7h-23.8c-3.1 0-5.7-2.5-5.7-5.7v-23.7c0-3.2 2.6-5.8 5.7-5.8h23.8c3.2 0 5.8 2.6 5.8 5.8zm-23.8-18v12.2h12.3v-12.2z" />
</svg>
