<svg xmlns="http://www.w3.org/2000/svg" width="12.752" height="12.752" viewBox="0 0 12.752 12.752">
  <g id="noun_help_1829242" transform="translate(0.1 0.1)">
    <path id="Path_151" data-name="Path 151" d="M6.276.879a5.4,5.4,0,1,1-5.4,5.4,5.4,5.4,0,0,1,5.4-5.4m0-.879a6.276,6.276,0,1,0,6.276,6.276A6.276,6.276,0,0,0,6.276,0Z" fill="#8a8a8a" stroke="#898a89" stroke-width="0.2"/>
    <path id="Path_152" data-name="Path 152" d="M36.988,25a5.712,5.712,0,0,1,.664.109,1.515,1.515,0,0,1,1.117,1.435,1.305,1.305,0,0,1-.528,1.192c-.178.138-.365.264-.545.4a.886.886,0,0,0-.4.791.5.5,0,0,1-.361.5.555.555,0,0,1-.65-.195.526.526,0,0,1-.074-.26,1.743,1.743,0,0,1,.715-1.464,5.215,5.215,0,0,0,.569-.5.628.628,0,0,0,.147-.353.543.543,0,0,0-.567-.608A1.1,1.1,0,0,0,36,26.528a.526.526,0,0,1-.546.251.482.482,0,0,1-.384-.722,1.612,1.612,0,0,1,.785-.778A2.725,2.725,0,0,1,36.988,25Z" transform="translate(-30.613 -21.862)" fill="#8a8a8a" stroke="#898a89" stroke-width="0.2"/>
    <path id="Path_153" data-name="Path 153" d="M44.869,65.418a.575.575,0,0,1-.619.643.588.588,0,0,1-.66-.569c0-.468.21-.7.628-.714A.581.581,0,0,1,44.869,65.418Z" transform="translate(-38.119 -56.646)" fill="#8a8a8a" stroke="#898a89" stroke-width="0.2"/>
  </g>
</svg>
