<svg id="noun_payment_4125889" xmlns="http://www.w3.org/2000/svg" width="42.251" height="42.251" viewBox="0 0 42.251 42.251">
  <g id="Group_4" data-name="Group 4" transform="translate(0)">
    <g id="Group_3" data-name="Group 3">
      <path id="Path_5" data-name="Path 5" d="M21.511,42.3A21.125,21.125,0,1,0,.386,21.17,21.154,21.154,0,0,0,21.511,42.3Zm0-35.9A14.786,14.786,0,1,1,6.726,21.179,14.8,14.8,0,0,1,21.511,6.393Z" transform="translate(-0.386 -0.045)" fill="#83d89f"/>
      <path id="Path_7" data-name="Path 7" d="M13.227,25.562A12.675,12.675,0,1,0,.552,12.887,12.69,12.69,0,0,0,13.227,25.562Zm-.733-11.875C9.97,12.694,8.412,11.555,8.412,9.4a4.062,4.062,0,0,1,3.739-3.986v-2.5h1.537v2.4a6.7,6.7,0,0,1,3.22.863l-.62,1.633a6,6,0,0,0-3.124-.842c-1.91,0-2.621,1.139-2.621,2.131,0,1.29.917,1.931,3.069,2.822,2.55,1.043,3.836,2.324,3.836,4.531a4.3,4.3,0,0,1-3.911,4.208v2.579H11.98v-2.5a7.2,7.2,0,0,1-3.794-1.089l.594-1.662a6.607,6.607,0,0,0,3.568,1.064c1.759,0,2.952-1.013,2.952-2.429,0-1.352-.971-2.194-2.806-2.931Z" transform="translate(7.898 8.243)" fill="#83d89f"/>
    </g>
  </g>
</svg>
