<svg xmlns="http://www.w3.org/2000/svg" width="62.721" height="59.516" viewBox="0 0 62.721 59.516">
  <g id="Group_3779" data-name="Group 3779" opacity="0.1">
    <g id="Group_18" data-name="Group 18" transform="translate(6.261 0.108)">
      <path id="Path_43" data-name="Path 43" d="M56.057,60.457A49.492,49.492,0,0,1,54.8,70.562c-.209.836-.767,1.254-1.394,1.115a1.132,1.132,0,0,1-.836-1.533,45.6,45.6,0,0,0,1.185-10.175,17.184,17.184,0,0,0-34.148-2.927c-.07.557-.139,1.185-.209,1.742-.07.836-.558,1.254-1.254,1.185A1.2,1.2,0,0,1,17.1,58.645a17.83,17.83,0,0,1,4.321-11.011c5.227-6.133,11.917-8.572,19.722-6.621S53.757,48.192,55.639,56a16.434,16.434,0,0,1,.279,1.951C55.987,58.645,56.057,59.551,56.057,60.457Z" transform="translate(-14.929 -17.427)" fill="#000"/>
      <path id="Path_44" data-name="Path 44" d="M59.712,58.879c-.07.836-.07,1.742-.139,2.579s-.558,1.324-1.185,1.324a1.215,1.215,0,0,1-1.115-1.464,29.549,29.549,0,0,0-.418-8.572A21.8,21.8,0,0,0,16.3,47.589c-.418.767-.906.976-1.533.836a1.14,1.14,0,0,1-.627-1.673,22.607,22.607,0,0,1,3.624-5.227c6.76-7.039,14.914-9.617,24.252-6.969,9.478,2.648,15.123,9.129,17.283,18.677a16.43,16.43,0,0,1,.279,1.951c.07,1.185.07,2.439.139,3.694Z" transform="translate(-13.985 -15.361)" fill="#000"/>
      <path id="Path_45" data-name="Path 45" d="M53.049,62.312A49.654,49.654,0,0,1,50.54,76.18c-.279.836-.836,1.185-1.533.976-.7-.279-.906-.836-.627-1.742a47.237,47.237,0,0,0,2.3-12.753c.209-6.551-3.833-12.056-9.9-13.311a12.609,12.609,0,0,0-15.332,12.2,20.064,20.064,0,0,1-.976,5.715c-.07.139-.07.348-.139.488a1.109,1.109,0,0,1-1.394.627,1.087,1.087,0,0,1-.767-1.324c.906-2.439.836-4.948,1.115-7.457a14.844,14.844,0,0,1,29.34-.627A14.635,14.635,0,0,1,53.049,62.312Z" transform="translate(-16.451 -19.351)" fill="#000"/>
      <path id="Path_46" data-name="Path 46" d="M63.567,49.146a1.168,1.168,0,0,1-.906,1.254,1.134,1.134,0,0,1-1.324-.836c-.209-.767-.418-1.533-.7-2.3-3.694-10.035-10.8-16.1-21.395-17.632-8.781-1.324-16.308,1.533-22.58,7.805a1.223,1.223,0,0,0-.279.348,1.167,1.167,0,1,1-1.673-1.6,28.675,28.675,0,0,1,48.853,12.4Z" transform="translate(-14.076 -13.364)" fill="#000"/>
      <path id="Path_47" data-name="Path 47" d="M49.941,65.008A46.51,46.51,0,0,1,46.6,79.782a1.181,1.181,0,0,1-1.6.836,1.208,1.208,0,0,1-.558-1.673,39.094,39.094,0,0,0,2.857-11.22,30.555,30.555,0,0,0,.07-5.645,7.949,7.949,0,0,0-15.611-.07c-.279,1.533-.209,3.066-.418,4.6a25.289,25.289,0,0,1-2.091,7.108,1.1,1.1,0,0,1-1.533.627,1.15,1.15,0,0,1-.558-1.533,25.683,25.683,0,0,0,1.882-6.481c.139-1.394.139-2.788.348-4.112a10.308,10.308,0,0,1,20.419-.07C49.871,63.126,49.871,64.032,49.941,65.008Z" transform="translate(-17.943 -21.351)" fill="#000"/>
      <path id="Path_48" data-name="Path 48" d="M37.8,20.4c10.663.418,20.141,5.436,26.761,15.541.139.209.209.348.348.558a1.083,1.083,0,0,1-.418,1.394,1.172,1.172,0,0,1-1.463-.209c-.07-.139-.209-.209-.279-.348A30.431,30.431,0,0,0,41.216,23.118,30.486,30.486,0,0,0,19.194,28a2.824,2.824,0,0,1-.627.348A1.2,1.2,0,0,1,17.1,28a1.08,1.08,0,0,1,.139-1.463,3.865,3.865,0,0,1,.558-.418C23.514,22.351,29.717,20.47,37.8,20.4Z" transform="translate(-14.862 -11.379)" fill="#000"/>
      <path id="Path_49" data-name="Path 49" d="M46.953,66.836A40.136,40.136,0,0,1,43.259,81.61a1.906,1.906,0,0,1-.906.906,1.466,1.466,0,0,1-1.045-.348c-.418-.348-.348-.836-.139-1.324.767-1.951,1.533-3.9,2.16-5.924a31.652,31.652,0,0,0,1.394-9.2,3.421,3.421,0,1,0-6.83,0,33.949,33.949,0,0,1-3.345,12.893,1.18,1.18,0,0,1-1.533.7,1.14,1.14,0,0,1-.488-1.673,32.124,32.124,0,0,0,2.718-8.781c.139-1.254.139-2.579.279-3.9A5.651,5.651,0,0,1,41.517,59.8a5.825,5.825,0,0,1,5.436,5.645Z" transform="translate(-19.554 -23.318)" fill="#000"/>
      <path id="Path_50" data-name="Path 50" d="M64.312,24.525a.939.939,0,0,1-.07,1.115c-.139.139-.279.348-.418.418-.488.279-.906.07-1.324-.279-1.185-.976-2.3-2.021-3.485-2.857a34.872,34.872,0,0,0-23.764-6.551A34.158,34.158,0,0,0,24.519,19.02c-.767.279-1.254.209-1.6-.279a1.16,1.16,0,0,1,.7-1.742,37.683,37.683,0,0,1,34.079,2.369,37.067,37.067,0,0,1,6.272,4.739A.714.714,0,0,1,64.312,24.525Z" transform="translate(-16.634 -9.441)" fill="#000"/>
      <path id="Path_51" data-name="Path 51" d="M41.533,7.487A40.329,40.329,0,0,1,60.21,11.738c.139.07.209.139.348.139a1.273,1.273,0,0,1,.7,1.673,1.139,1.139,0,0,1-1.673.418,41.945,41.945,0,0,0-11.15-3.694A40.885,40.885,0,0,0,35.4,10.135c-.209,0-.418.07-.558.07A1.073,1.073,0,0,1,33.588,9.3a1.059,1.059,0,0,1,.976-1.324,37.305,37.305,0,0,1,3.9-.488C39.512,7.417,40.557,7.487,41.533,7.487Z" transform="translate(-19.918 -7.456)" fill="#000"/>
      <path id="Path_52" data-name="Path 52" d="M44.142,69.46a36.713,36.713,0,0,1-3.694,14.217,1.111,1.111,0,0,1-1.533.627,1.14,1.14,0,0,1-.488-1.673,34.949,34.949,0,0,0,2.857-8.642c.279-1.742.418-3.485.558-5.3.07-.836.488-1.394,1.115-1.394.7,0,1.115.557,1.115,1.394A3.752,3.752,0,0,1,44.142,69.46Z" transform="translate(-21.342 -25.594)" fill="#000"/>
    </g>
    <g id="Group_19" data-name="Group 19" transform="translate(0 0)">
      <path id="Path_53" data-name="Path 53" d="M5,7.3h6.76V9.53H7.3v4.53H5Z" transform="translate(-5 -7.3)" fill="#000"/>
      <path id="Path_54" data-name="Path 54" d="M85.2,9.6V7.3h6.83v6.76H89.8V9.53C88.266,9.6,86.733,9.6,85.2,9.6Z" transform="translate(-29.308 -7.3)" fill="#000"/>
      <path id="Path_55" data-name="Path 55" d="M7.23,87.43h4.53v2.23H5V82.9H7.23Z" transform="translate(-5 -30.214)" fill="#000"/>
      <path id="Path_56" data-name="Path 56" d="M85.2,89.76V87.53h4.53V83h2.3v6.76Z" transform="translate(-29.308 -30.244)" fill="#000"/>
    </g>
  </g>
</svg>
