<svg xmlns="http://www.w3.org/2000/svg" width="312.465" height="312.63" viewBox="0 0 312.465 312.63">
	<g id="Get_in_touch-bro" data-name="Get in touch-bro" transform="translate(-26.557 -15.339)">
		<g id="freepik--background-simple--inject-12" transform="translate(26.557 15.339)">
			<path id="Path_1471" data-name="Path 1471" d="M232.683,20.894S182.312,2.977,132.862,31.5s-74.4,85.131-95.825,130.474S27.944,253.447,65.69,274.48,129.1,264.507,182.042,263s67.18,6.06,111.137-23.852S345.067,138.583,310.4,86.308,232.683,20.894,232.683,20.894Z" transform="translate(-26.557 -15.339)" fill="#0077b6" />
			<path id="Path_1472" data-name="Path 1472" d="M232.683,20.894S182.312,2.977,132.862,31.5s-74.4,85.131-95.825,130.474S27.944,253.447,65.69,274.48,129.1,264.507,182.042,263s67.18,6.06,111.137-23.852S345.067,138.583,310.4,86.308,232.683,20.894,232.683,20.894Z" transform="translate(-26.557 -15.339)" fill="#fff" opacity="0.7" />
		</g>
		<g id="freepik--Plants--inject-12" transform="translate(33.961 228.729)">
			<path id="Path_1473" data-name="Path 1473" d="M450.788,394.145c-2.77-.395-8.041-3.83-8.048-3.83s3.317-2.77,3.546-2.937c2.694-1.724,8.906-3.463,11.67-1.2a4.239,4.239,0,0,1,.09,6.309C456.252,394.263,453.149,394.485,450.788,394.145Z" transform="translate(-161.906 -342.404)" fill="#0077b6" />
			<path id="Path_1474" data-name="Path 1474" d="M379.769,354.507c-.069,0,1.226-4.155,1.337-4.4,1.3-2.923,5.541-7.805,9.073-7.431a4.232,4.232,0,0,1,3.553,5.2c-.513,2.479-2.978,4.377-5.139,5.4C386.057,354.466,379.769,354.507,379.769,354.507Z" transform="translate(-142.546 -329.353)" fill="#0077b6" />
			<path id="Path_1475" data-name="Path 1475" d="M363.287,417.9c-1.226,1.524-2.341,2.957-3.338,4.273h-2.521c1.267-1.628,2.77-3.463,4.419-5.457.97-1.164,2.029-2.383,3.13-3.629a41.318,41.318,0,0,1-2.77-3.844c-2.251.755-6.85.554-7.445.526-.173,1.475-.326,2.923-.45,4.28-.291,3.082-.464,5.818-.582,8.124h-2.078c.166-2.355.409-5.153.769-8.311.173-1.51.381-3.11.616-4.758-.582-.173-5.3-1.648-7.03-3.179-1.572-1.385-3.186-3.6-3.013-5.818a3.726,3.726,0,0,1,4.28-3.518c3.1.561,5.451,5.721,5.825,8.5,0,.166.062,1.974.069,3.117.1-.693.187-1.323.291-2.015.208-1.385.457-2.722.693-4.155.152-.693.3-1.385.457-2.126s.374-1.448.561-2.182c.464-1.683,1.018-3.373,1.614-5.063-1.2-.18-5.437-.9-7.21-2.043s-3.691-3.075-3.858-5.291a3.733,3.733,0,0,1,3.7-4.155c3.144.083,6.233,4.848,7.05,7.528.048.166.395,2.161.568,3.262.367-1.011.727-2.022,1.129-3.033,1.164-2.916,2.431-5.838,3.685-8.754.381-.893.755-1.794,1.129-2.687-.422-.062-5.478-.8-7.466-2.078-1.759-1.136-3.691-3.075-3.858-5.291a3.733,3.733,0,0,1,3.7-4.155c3.144.083,6.233,4.848,7.043,7.528.062.2.561,3.075.651,3.816.831-1.974,1.634-3.948,2.348-5.921a65.912,65.912,0,0,0,2.417-8.152c-.2,0-5.478-.783-7.514-2.078-1.759-1.136-3.691-3.075-3.858-5.291a3.726,3.726,0,0,1,3.7-4.155c3.144.083,6.233,4.848,7.043,7.521.055.18.436,2.369.6,3.414h.18a47.853,47.853,0,0,0,.907-8.5c.049-1.572,0-3.075-.069-4.536-1-.042-5.541-.27-7.514-1.254s-4.01-2.646-4.419-4.848a3.733,3.733,0,0,1,3.227-4.509c3.13-.263,6.746,4.114,7.826,6.7.062.145.5,1.641.8,2.77-.042-.693-.076-1.344-.132-1.974-.2-2.376-.526-4.529-.831-6.441-.18-1.087-.367-2.078-.554-2.971-.956-.554-4.793-2.812-6.06-4.55s-2.334-4.2-1.69-6.33a3.726,3.726,0,0,1,4.938-2.514c2.9,1.212,4.093,6.76,3.858,9.558,0,.242-.776,3.989-.824,3.962l-.055-.035c.194.873.395,1.815.589,2.846.346,1.9.693,4.065.977,6.441a66.529,66.529,0,0,1,.443,7.7,49.068,49.068,0,0,1-.693,8.6c0,.035,0,.069,0,.1.429-.81,1.711-3.054,1.828-3.214,1.655-2.265,6.2-5.672,9.184-4.682a3.719,3.719,0,0,1,2.078,5.132c-.907,2.029-3.387,3.2-5.43,3.671-2.306.533-7.334-.492-7.736-.575a66.289,66.289,0,0,1-2.3,8.484c-.547,1.621-1.15,3.234-1.773,4.848.395-.693.748-1.309.81-1.385,1.655-2.265,6.192-5.672,9.184-4.682A3.719,3.719,0,0,1,376.6,375.6c-.907,2.029-3.38,3.2-5.423,3.671s-6.379-.312-7.514-.533c-.249.616-.485,1.233-.734,1.849-1.191,2.95-2.389,5.887-3.463,8.8-.381,1.025-.693,2.078-1.067,3.082.353-.616.651-1.136.693-1.205,1.655-2.272,6.192-5.672,9.183-4.689a3.726,3.726,0,0,1,2.078,5.139c-.907,2.029-3.38,3.2-5.423,3.664s-5.963-.229-7.314-.492c-.319,1.067-.644,2.126-.907,3.172-.159.693-.367,1.385-.492,2.119s-.277,1.427-.416,2.133c-.208,1.385-.436,2.77-.609,4.114-.132.928-.236,1.815-.339,2.708.367-1.025,1.136-3.02,1.219-3.179a14.462,14.462,0,0,1,5.09-5.229,4.1,4.1,0,0,1,.443-.693,3.719,3.719,0,0,1,5.506-.575c2.279,2.175,1.385,7.778.166,10.305-.069.152-1.032,1.683-1.662,2.639.457-.506.886-1,1.385-1.517.928-1.025,1.877-2.022,2.9-3.1l1.558-1.517c.506-.519,1.108-1,1.662-1.51,1.323-1.157,2.715-2.258,4.155-3.338-.893-.81-4.031-3.747-4.848-5.679s-1.385-4.6-.3-6.538a3.726,3.726,0,0,1,5.361-1.385c2.576,1.808,2.556,7.48,1.725,10.167-.049.166-.859,2.022-1.323,3.033.859-.637,1.718-1.281,2.611-1.9,2.583-1.794,5.25-3.532,7.909-5.271l2.424-1.614c-.326-.291-4.155-3.7-5.077-5.859-.845-1.918-1.385-4.606-.3-6.545a3.719,3.719,0,0,1,5.361-1.385c2.576,1.8,2.556,7.48,1.724,10.16-.062.2-1.233,2.881-1.565,3.546,1.78-1.191,3.539-2.389,5.222-3.643a64.938,64.938,0,0,0,6.517-5.471c-.152-.132-4.155-3.671-5.111-5.887-.845-1.918-1.385-4.606-.3-6.538a3.719,3.719,0,0,1,5.361-1.385c2.583,1.808,2.556,7.48,1.731,10.16-.055.18-.949,2.216-1.385,3.179a1.1,1.1,0,0,1,.145.1,47.42,47.42,0,0,0,5.451-6.593c.907-1.288,1.7-2.563,2.445-3.823-.81-.589-4.481-3.29-5.575-5.187s-1.884-4.426-1.018-6.469a3.719,3.719,0,0,1,5.173-1.988c2.77,1.51,3.359,7.154,2.833,9.911,0,.152-.492,1.648-.838,2.729.326-.575.693-1.164.977-1.718,1.143-2.078,2.078-4.065,2.86-5.831.443-1,.831-1.918,1.177-2.77-.5-.983-2.445-4.993-2.542-7.14s.367-4.793,2.078-6.233a3.719,3.719,0,0,1,5.506.623c1.752,2.611-.312,7.9-2.078,10.1-.145.194-2.84,2.9-2.867,2.853l-.035-.062c-.319.838-.693,1.731-1.074,2.7-.762,1.78-1.641,3.788-2.77,5.908a64.711,64.711,0,0,1-3.878,6.669,48.1,48.1,0,0,1-5.354,6.773.654.654,0,0,1-.069.069c.8-.443,3.11-1.6,3.3-1.669,2.632-.977,8.311-1.316,10.243,1.157a3.719,3.719,0,0,1-1.108,5.43c-1.87,1.191-4.578.8-6.545.062-2.216-.831-5.845-4.453-6.136-4.744a65.341,65.341,0,0,1-6.6,5.8q-2.078,1.579-4.155,3.068a11.345,11.345,0,0,1,1.448-.693c2.632-.977,8.311-1.316,10.243,1.157a3.719,3.719,0,0,1-1.108,5.43c-1.87,1.191-4.578.8-6.545.069s-5.153-3.781-5.977-4.592c-.54.374-1.08.762-1.628,1.136-2.618,1.8-5.243,3.588-7.764,5.423-.887.644-1.731,1.316-2.59,1.981.637-.326,1.17-.589,1.254-.616,2.632-.977,8.311-1.316,10.243,1.157a3.719,3.719,0,0,1-1.1,5.43c-1.877,1.191-4.585.8-6.552.062s-4.848-3.463-5.825-4.439c-.852.693-1.711,1.385-2.5,2.14-.533.506-1.08.956-1.586,1.5l-1.524,1.551c-.928,1.025-1.891,2.078-2.77,3.089-.616.693-1.2,1.385-1.78,2.078.88-.651,2.618-1.891,2.77-1.981,2.459-1.385,8-2.556,10.3-.409a3.726,3.726,0,0,1-.263,5.541c-1.745,1.406-4.453,1.406-6.531,1-2.258-.471-6.233-3.373-6.746-3.733C365.067,415.715,364.139,416.83,363.287,417.9Z" transform="translate(-131.238 -323.451)" fill="#0077b6" />
			<path id="Path_1476" data-name="Path 1476" d="M324.788,394.145c-2.77-.395-8.041-3.83-8.048-3.83s3.317-2.77,3.546-2.937c2.694-1.724,8.906-3.463,11.67-1.2a4.239,4.239,0,0,1,.09,6.309C330.252,394.263,327.149,394.485,324.788,394.145Z" transform="translate(-123.17 -342.404)" fill="#0077b6" />
			<path id="Path_1477" data-name="Path 1477" d="M253.769,354.507c-.069,0,1.226-4.155,1.337-4.4,1.3-2.923,5.541-7.805,9.073-7.431a4.232,4.232,0,0,1,3.553,5.2c-.512,2.479-2.978,4.377-5.139,5.4C260.057,354.466,253.769,354.507,253.769,354.507Z" transform="translate(-103.81 -329.353)" fill="#0077b6" />
			<path id="Path_1478" data-name="Path 1478" d="M237.3,417.9c-1.226,1.524-2.341,2.957-3.338,4.273h-2.521c1.267-1.628,2.77-3.463,4.419-5.457.97-1.164,2.029-2.383,3.13-3.629a41.324,41.324,0,0,1-2.77-3.844c-2.251.755-6.85.554-7.445.526-.173,1.475-.326,2.923-.45,4.28-.291,3.082-.464,5.818-.582,8.124H225.7c.166-2.355.409-5.153.769-8.311.173-1.51.381-3.11.616-4.758-.582-.173-5.3-1.648-7.03-3.179-1.572-1.385-3.186-3.6-3.013-5.818a3.726,3.726,0,0,1,4.28-3.518c3.1.561,5.451,5.721,5.825,8.5,0,.166.062,1.974.069,3.117.1-.693.187-1.323.291-2.015.208-1.385.457-2.722.693-4.155.152-.693.3-1.385.457-2.126s.374-1.448.561-2.182c.464-1.683,1.018-3.373,1.614-5.063-1.2-.18-5.437-.9-7.21-2.043s-3.691-3.075-3.858-5.291a3.733,3.733,0,0,1,3.7-4.155c3.144.083,6.233,4.848,7.05,7.528.048.166.395,2.161.568,3.262.367-1.011.693-2.022,1.129-3.033,1.164-2.916,2.431-5.838,3.685-8.754.381-.893.755-1.794,1.129-2.687-.422-.062-5.478-.8-7.466-2.078-1.759-1.136-3.691-3.075-3.858-5.291a3.733,3.733,0,0,1,3.7-4.155c3.144.083,6.233,4.848,7.043,7.528.062.2.561,3.075.651,3.816.831-1.974,1.634-3.948,2.348-5.921a65.918,65.918,0,0,0,2.417-8.152c-.2,0-5.478-.783-7.514-2.078-1.759-1.136-3.691-3.075-3.858-5.291a3.726,3.726,0,0,1,3.7-4.155c3.144.083,6.233,4.848,7.043,7.521.055.18.436,2.369.6,3.414H242a47.853,47.853,0,0,0,.907-8.5c.048-1.572,0-3.075-.069-4.536-1-.042-5.541-.27-7.514-1.254s-4.01-2.646-4.419-4.848a3.733,3.733,0,0,1,3.22-4.509c3.137-.263,6.753,4.114,7.833,6.7.062.145.5,1.641.8,2.77-.042-.693-.076-1.344-.132-1.974-.2-2.376-.526-4.529-.831-6.441-.18-1.087-.367-2.078-.554-2.971-.956-.554-4.793-2.812-6.06-4.55s-2.334-4.2-1.69-6.33a3.726,3.726,0,0,1,4.938-2.514c2.9,1.212,4.093,6.76,3.858,9.558,0,.242-.776,3.989-.824,3.962l-.055-.035c.194.873.395,1.815.589,2.846.346,1.9.727,4.065.977,6.441a66.523,66.523,0,0,1,.443,7.7,49.069,49.069,0,0,1-.727,8.6v.1c.429-.81,1.711-3.054,1.828-3.214,1.655-2.265,6.2-5.672,9.184-4.682a3.719,3.719,0,0,1,2.078,5.132c-.907,2.029-3.387,3.2-5.43,3.671-2.306.533-7.334-.492-7.736-.575a66.284,66.284,0,0,1-2.3,8.484c-.547,1.621-1.15,3.234-1.773,4.848.395-.693.748-1.309.81-1.385,1.655-2.265,6.192-5.672,9.184-4.682a3.719,3.719,0,0,1,2.078,5.132c-.907,2.029-3.38,3.2-5.423,3.671s-6.379-.312-7.514-.533c-.249.616-.485,1.233-.734,1.849-1.191,2.95-2.389,5.887-3.463,8.8-.381,1.025-.693,2.078-1.067,3.082.353-.616.651-1.136.693-1.205,1.655-2.272,6.192-5.672,9.184-4.689a3.726,3.726,0,0,1,2.078,5.139c-.907,2.029-3.38,3.2-5.423,3.664s-5.963-.229-7.314-.492c-.319,1.067-.644,2.126-.907,3.172-.159.693-.367,1.385-.492,2.119s-.277,1.427-.416,2.133c-.208,1.385-.436,2.77-.609,4.114-.132.928-.235,1.815-.339,2.708.367-1.025,1.136-3.02,1.219-3.179a14.461,14.461,0,0,1,5.09-5.229,4.108,4.108,0,0,1,.443-.693,3.719,3.719,0,0,1,5.541-.575c2.279,2.175,1.385,7.778.166,10.305-.069.152-1.032,1.683-1.662,2.639.457-.506.887-1,1.385-1.517.928-1.025,1.877-2.022,2.9-3.1l1.558-1.517c.506-.519,1.108-1,1.662-1.51,1.323-1.157,2.715-2.258,4.155-3.338-.893-.81-4.031-3.747-4.848-5.679s-1.385-4.6-.3-6.538a3.726,3.726,0,0,1,5.361-1.385c2.576,1.808,2.556,7.48,1.725,10.167-.048.166-.859,2.022-1.323,3.033.859-.637,1.718-1.281,2.611-1.9,2.583-1.794,5.25-3.532,7.909-5.271l2.424-1.614c-.326-.291-4.155-3.7-5.077-5.859-.845-1.918-1.385-4.606-.3-6.545a3.719,3.719,0,0,1,5.361-1.385c2.576,1.8,2.556,7.48,1.724,10.16-.062.2-1.233,2.881-1.565,3.546,1.78-1.191,3.539-2.389,5.222-3.643a64.924,64.924,0,0,0,6.517-5.471c-.152-.132-4.155-3.671-5.111-5.887-.845-1.918-1.385-4.606-.3-6.538a3.719,3.719,0,0,1,5.36-1.385c2.583,1.808,2.556,7.48,1.731,10.16-.055.18-.949,2.216-1.385,3.179a1.1,1.1,0,0,1,.145.1,47.416,47.416,0,0,0,5.451-6.593c.907-1.288,1.7-2.563,2.445-3.823-.81-.589-4.481-3.29-5.575-5.187s-1.884-4.426-1.018-6.469a3.719,3.719,0,0,1,5.173-1.988c2.77,1.51,3.359,7.154,2.833,9.911,0,.152-.492,1.648-.838,2.729.326-.575.693-1.164.977-1.718,1.143-2.078,2.078-4.065,2.86-5.831.443-1,.831-1.918,1.177-2.77-.5-.983-2.445-4.993-2.542-7.14s.367-4.793,2.078-6.233a3.719,3.719,0,0,1,5.506.623c1.752,2.611-.312,7.9-2.078,10.1-.145.194-2.84,2.9-2.867,2.853l-.035-.062c-.319.838-.693,1.731-1.073,2.7-.762,1.78-1.641,3.788-2.77,5.908a64.7,64.7,0,0,1-3.878,6.669,48.088,48.088,0,0,1-5.354,6.773.649.649,0,0,1-.069.069c.8-.443,3.11-1.6,3.3-1.669,2.632-.977,8.311-1.316,10.243,1.157a3.719,3.719,0,0,1-1.108,5.43c-1.87,1.191-4.578.8-6.545.062-2.216-.831-5.845-4.453-6.136-4.744a65.368,65.368,0,0,1-6.6,5.8q-2.078,1.579-4.155,3.068a11.346,11.346,0,0,1,1.447-.693c2.632-.977,8.311-1.316,10.243,1.157a3.719,3.719,0,0,1-1.108,5.43c-1.87,1.191-4.578.8-6.545.069s-5.153-3.781-5.977-4.592c-.54.374-1.08.762-1.628,1.136-2.618,1.8-5.243,3.588-7.764,5.423-.887.644-1.731,1.316-2.59,1.981.637-.326,1.17-.589,1.254-.616,2.632-.977,8.311-1.316,10.243,1.157a3.719,3.719,0,0,1-1.1,5.43c-1.877,1.191-4.585.8-6.552.062s-4.848-3.463-5.825-4.439c-.852.693-1.711,1.385-2.5,2.14-.533.506-1.08.956-1.586,1.5L245.1,408.99c-.928,1.025-1.891,2.078-2.77,3.089-.616.693-1.2,1.385-1.78,2.078.88-.651,2.618-1.891,2.77-1.981,2.459-1.385,8-2.556,10.3-.409a3.726,3.726,0,0,1-.263,5.541c-1.78,1.406-4.488,1.406-6.566,1-2.258-.471-6.233-3.373-6.746-3.733C239.082,415.715,238.154,416.83,237.3,417.9Z" transform="translate(-92.517 -323.451)" fill="#0077b6" />
			<path id="Path_1479" data-name="Path 1479" d="M44.923,402.161c2.466-.353,7.147-3.407,7.147-3.407s-2.943-2.472-3.151-2.6c-2.389-1.531-7.909-3.089-10.389-1.067a3.768,3.768,0,0,0-.069,5.6C40.068,402.265,42.824,402.465,44.923,402.161Z" transform="translate(-37.247 -345.176)" fill="#0077b6" />
			<path id="Path_1480" data-name="Path 1480" d="M109.053,366.943c.055,0-1.094-3.691-1.191-3.913-1.15-2.6-4.9-6.926-8.062-6.607a3.761,3.761,0,0,0-3.158,4.626c.457,2.2,2.653,3.885,4.571,4.793C103.464,366.9,109.046,366.943,109.053,366.943Z" transform="translate(-55.473 -333.582)" fill="#0077b6" />
			<path id="Path_1481" data-name="Path 1481" d="M98.049,423.279c1.087,1.385,2.078,2.625,2.964,3.8h2.244c-1.129-1.447-2.445-3.082-3.927-4.848-.866-1.032-1.808-2.119-2.77-3.221a36.83,36.83,0,0,0,2.486-3.421c1.995.693,6.081.492,6.614.464.152,1.316.284,2.6.395,3.809.256,2.736.416,5.167.519,7.217h1.815c-.145-2.078-.36-4.578-.693-7.383-.152-1.337-.339-2.77-.54-4.225.513-.159,4.7-1.468,6.233-2.826,1.385-1.24,2.833-3.2,2.68-5.167a3.317,3.317,0,0,0-3.8-3.13c-2.77.5-4.848,5.083-5.18,7.556,0,.145-.055,1.752-.055,2.77-.09-.6-.166-1.177-.263-1.794-.187-1.212-.409-2.417-.637-3.712-.139-.623-.27-1.254-.409-1.891s-.332-1.288-.5-1.939c-.409-1.5-.9-3-1.434-4.495,1.067-.166,4.848-.8,6.4-1.821s3.283-2.729,3.463-4.7a3.317,3.317,0,0,0-3.29-3.671c-2.77.076-5.541,4.294-6.233,6.683-.042.152-.353,1.925-.506,2.909-.326-.9-.644-1.8-1-2.7-1.032-2.59-2.161-5.187-3.269-7.778-.346-.8-.693-1.593-1.011-2.382.381-.055,4.848-.693,6.635-1.856,1.565-1.011,3.283-2.729,3.463-4.7a3.3,3.3,0,0,0-3.283-3.664c-2.77.076-5.541,4.287-6.233,6.683-.055.18-.5,2.736-.575,3.394-.741-1.752-1.454-3.5-2.078-5.257a58.706,58.706,0,0,1-2.14-7.244c.173,0,4.848-.693,6.67-1.863,1.565-1.011,3.283-2.729,3.463-4.7a3.3,3.3,0,0,0-3.283-3.664c-2.77.076-5.541,4.287-6.233,6.683-.048.159-.388,2.078-.526,3.033H94.06a42.856,42.856,0,0,1-1.025-7.549c-.042-1.385,0-2.77.062-4.038.887,0,4.938-.235,6.676-1.108s3.567-2.355,3.927-4.294a3.311,3.311,0,0,0-2.86-4c-2.77-.236-6,3.65-6.926,5.956-.048.125-.443,1.454-.693,2.431.042-.589.069-1.191.118-1.752.173-2.078.464-4.024.741-5.721.159-.963.326-1.835.492-2.646.852-.485,4.259-2.493,5.381-4.038s2.078-3.733,1.5-5.624a3.311,3.311,0,0,0-4.384-2.237c-2.583,1.08-3.643,6-3.463,8.491,0,.215.693,3.546.693,3.525l.118-.035c-.173.776-.353,1.614-.526,2.528-.312,1.7-.644,3.615-.866,5.721a58.6,58.6,0,0,0-.395,6.85,43.307,43.307,0,0,0,.644,7.618v.09c-.381-.693-1.517-2.715-1.621-2.86-1.475-2.008-5.541-5.035-8.159-4.155a3.311,3.311,0,0,0-1.842,4.564c.8,1.808,3,2.84,4.848,3.262,2.078.471,6.517-.436,6.87-.512a58.177,58.177,0,0,0,2.078,7.542c.485,1.441,1.018,2.874,1.572,4.3a13.6,13.6,0,0,1-.693-1.233c-1.475-2.015-5.506-5.042-8.159-4.155a3.311,3.311,0,0,0-1.842,4.564c.8,1.8,3,2.84,4.848,3.255s5.665-.27,6.676-.471c.215.547.429,1.1.651,1.641,1.06,2.625,2.126,5.229,3.089,7.826.346.907.644,1.821.956,2.736-.312-.547-.582-1-.63-1.073-1.475-2.015-5.541-5.042-8.159-4.155a3.311,3.311,0,0,0-1.842,4.564c.8,1.8,3.006,2.84,4.848,3.262s5.291-.208,6.5-.436c.284.942.575,1.884.8,2.812.145.63.332,1.233.443,1.884s.242,1.267.367,1.9c.187,1.212.388,2.459.54,3.65.118.824.208,1.614.3,2.41-.332-.914-1.011-2.687-1.087-2.826a12.737,12.737,0,0,0-4.522-4.647,3.606,3.606,0,0,0-.388-.623,3.31,3.31,0,0,0-4.9-.506c-2.022,1.932-1.24,6.926-.152,9.156.069.132.921,1.489,1.482,2.341l-1.212-1.385c-.824-.907-1.669-1.794-2.583-2.77L90.978,412.9c-.45-.464-.983-.893-1.482-1.344-1.17-1.025-2.41-2-3.678-2.964.8-.693,3.581-3.331,4.336-5.042s1.233-4.093.27-5.818a3.317,3.317,0,0,0-4.765-1.247c-2.292,1.607-2.272,6.649-1.538,9,.048.152.769,1.8,1.184,2.7-.769-.568-1.531-1.143-2.327-1.7-2.292-1.593-4.661-3.13-7.023-4.682-.693-.471-1.434-.956-2.154-1.434.284-.256,3.671-3.283,4.509-5.2.748-1.711,1.233-4.093.27-5.818a3.317,3.317,0,0,0-4.765-1.247c-2.285,1.607-2.272,6.649-1.531,9,.055.18,1.094,2.556,1.385,3.144-1.579-1.053-3.137-2.119-4.64-3.234a57.9,57.9,0,0,1-5.783-4.848c.132-.118,3.678-3.262,4.536-5.236.755-1.7,1.233-4.086.27-5.811a3.31,3.31,0,0,0-4.765-1.247c-2.285,1.607-2.272,6.649-1.531,9,.048.159.838,1.967,1.233,2.819a1.474,1.474,0,0,1-.132.09,42.513,42.513,0,0,1-4.848-5.852c-.8-1.143-1.51-2.279-2.175-3.4.693-.519,3.982-2.923,4.959-4.606s1.669-3.934.9-5.748a3.3,3.3,0,0,0-4.592-1.759c-2.452,1.337-2.992,6.351-2.521,8.8,0,.132.436,1.461.748,2.424-.291-.512-.6-1.032-.873-1.531-1.011-1.849-1.828-3.608-2.535-5.174-.4-.893-.741-1.711-1.053-2.479.443-.873,2.175-4.433,2.265-6.344s-.332-4.252-1.849-5.541a3.3,3.3,0,0,0-4.89.554c-1.558,2.32.277,7.016,1.821,9,.139.166,2.528,2.576,2.556,2.528v-.048c.284.741.6,1.538.963,2.4.693,1.586,1.454,3.366,2.431,5.25a59.016,59.016,0,0,0,3.463,5.928,42.608,42.608,0,0,0,4.751,6.012l.069.069c-.693-.395-2.77-1.427-2.93-1.489-2.341-.873-7.369-1.17-9.1,1.025a3.311,3.311,0,0,0,.977,4.848c1.669,1.06,4.072.693,5.818.055,1.974-.734,5.194-3.955,5.451-4.218a57.3,57.3,0,0,0,5.873,5.16c1.2.935,2.431,1.835,3.684,2.722-.63-.319-1.2-.6-1.281-.63-2.341-.866-7.376-1.17-9.1,1.032a3.3,3.3,0,0,0,.977,4.848c1.669,1.06,4.072.693,5.818.055s4.578-3.352,5.312-4.072l1.447,1.011c2.327,1.6,4.654,3.186,6.926,4.813.79.575,1.544,1.17,2.306,1.759-.561-.284-1.039-.519-1.115-.547-2.341-.866-7.369-1.17-9.1,1.032a3.3,3.3,0,0,0,.983,4.848c1.662,1.06,4.072.693,5.818.055s4.3-3.089,5.174-3.948c.762.63,1.517,1.26,2.223,1.9.478.45.963.852,1.385,1.33l1.385,1.385c.824.907,1.683,1.842,2.466,2.77.554.623,1.067,1.233,1.579,1.842-.776-.582-2.327-1.683-2.466-1.759-2.182-1.212-7.106-2.272-9.149-.36a3.311,3.311,0,0,0,.235,4.917c1.489,1.3,3.92,1.316,5.741.935,2.008-.422,5.541-2.992,6-3.317C96.5,421.333,97.294,422.324,98.049,423.279Z" transform="translate(-39.878 -328.349)" fill="#0077b6" />
		</g>
		<g id="freepik--Device--inject-12" transform="translate(116.808 39.372)">
			<rect id="Rectangle_1423" data-name="Rectangle 1423" width="138.695" height="261.98" rx="7.67" fill="#263238" stroke="#263238" stroke-linecap="round" stroke-linejoin="round" stroke-width="1" />
			<rect id="Rectangle_1424" data-name="Rectangle 1424" width="126.367" height="204.448" transform="translate(6.171 28.763)" fill="#fff" stroke="#263238" stroke-linecap="round" stroke-linejoin="round" stroke-width="1" />
			<path id="Path_1482" data-name="Path 1482" d="M263.814,69.247H236.34a1.87,1.87,0,0,1-1.87-1.87h0a1.87,1.87,0,0,1,1.87-1.877h27.474a1.87,1.87,0,0,1,1.87,1.877h0A1.87,1.87,0,0,1,263.814,69.247Z" transform="translate(-180.726 -54.793)" fill="#fff" />
			<path id="Path_1483" data-name="Path 1483" d="M261.167,400.114a7.487,7.487,0,1,0-2.193,5.3A7.494,7.494,0,0,0,261.167,400.114Z" transform="translate(-184.326 -155.358)" fill="#fff" stroke="#263238" stroke-linecap="round" stroke-linejoin="round" stroke-width="0.704" />
			<rect id="Rectangle_1425" data-name="Rectangle 1425" width="7.598" height="7.598" transform="translate(65.552 240.954)" fill="#263238" />
		</g>
		<g id="freepik--character-2--inject-12" transform="translate(251.812 78.387)">
			<path id="Path_1484" data-name="Path 1484" d="M360.59,273.21l-.817,6.233s-3.38,23.153-1.039,35.12,6.76,24.192,7.023,27.052-1.3,14.045.519,23.153,5.2,27.052,5.2,27.052l-2.86,6.766s-5.984,3.9-6.759,5.2a1.17,1.17,0,0,0,.519,1.821h18.7a10.637,10.637,0,0,0,.783-4.426V382.976c0-1.821,1.039-32.773,2.078-38.237s2.078-46.825,2.078-46.825h1.046s4.945,41.1,6.233,45.523,6.766,23.409,8.311,27.315,3.387,17.425,4.426,20.812a70.025,70.025,0,0,1,2.341,9.364,22.854,22.854,0,0,0,1.3,4.682h14.094a6.718,6.718,0,0,0-.783-3.9c-1.046-1.558-7.8-8.311-8.844-13.27s1.565-27.848,1.316-35.9-2.6-9.107-2.6-16.13,2.6-28.354,2.6-38.5-1.385-19.5-3.927-24.836l-3.615-3.518H363.152Z" transform="translate(-353.678 -156.541)" fill="#d9d9d9" stroke="#263238" stroke-linecap="round" stroke-linejoin="round" stroke-width="1" />
			<path id="Path_1485" data-name="Path 1485" d="M438.147,447.4v.035s-3.643-2.341-4.945-.519a5.687,5.687,0,0,0-1.3,2.86h-2.77a46.518,46.518,0,0,1,1.212,5.464,22.856,22.856,0,0,0,1.3,4.682h14.018a6.718,6.718,0,0,0-.783-3.9C444.145,454.911,440.564,451.213,438.147,447.4Z" transform="translate(-375.573 -210.85)" fill="#0077b6" stroke="#263238" stroke-linecap="round" stroke-linejoin="round" stroke-width="1" />
			<path id="Path_1486" data-name="Path 1486" d="M432.44,465.2h14.045a8.121,8.121,0,0,0-.048-1.808H431.81C432.129,464.429,432.44,465.2,432.44,465.2Z" transform="translate(-376.397 -216.129)" fill="#fff" stroke="#263238" stroke-linecap="round" stroke-linejoin="round" stroke-width="1" />
			<path id="Path_1487" data-name="Path 1487" d="M383.529,455.858v-4.419h-4.945a4.062,4.062,0,0,0-2.078-3.643c-2.341-1.565-4.689,2.078-4.689,2.078h-.125l-1.434,3.38s-5.984,3.9-6.76,5.2a1.17,1.17,0,0,0,.519,1.821h18.7A10.637,10.637,0,0,0,383.529,455.858Z" transform="translate(-355.32 -211.215)" fill="#0077b6" stroke="#263238" stroke-linecap="round" stroke-linejoin="round" stroke-width="1" />
			<path id="Path_1488" data-name="Path 1488" d="M363.484,463.39a1.17,1.17,0,0,0,.533,1.807h18.7a7.668,7.668,0,0,0,.54-1.808Z" transform="translate(-355.319 -216.129)" fill="#fff" stroke="#263238" stroke-linecap="round" stroke-linejoin="round" stroke-width="1" />
			<path id="Path_1489" data-name="Path 1489" d="M414.07,378.848c.436-8.858,1.544-20.9,1.385-26.318-.256-8.068-2.6-9.107-2.6-16.13s2.6-28.34,2.6-38.486-1.385-19.5-3.927-24.836l-3.615-3.518H363.152l-2.563,3.65-.817,6.233s-3.38,23.153-1.039,35.12,6.76,24.192,7.023,27.052-1.3,14.045.519,23.153c.8,4,1.9,9.7,2.881,14.835a48.48,48.48,0,0,0,12.785,1.157c.222-7.528,1.122-31.3,2.022-36.014,1.039-5.464,2.078-46.825,2.078-46.825h1.018s4.945,41.1,6.233,45.523,6.766,23.409,8.311,27.315a56.943,56.943,0,0,1,2.078,8.7A22.487,22.487,0,0,0,414.07,378.848Z" transform="translate(-353.678 -156.541)" fill="#fff" stroke="#263238" stroke-linecap="round" stroke-linejoin="round" stroke-width="1" />
			<line id="Line_2" data-name="Line 2" y1="11.185" x2="14.045" transform="translate(36.533 127.847)" fill="none" stroke="#263238" stroke-linecap="round" stroke-linejoin="round" stroke-width="1" />
			<line id="Line_3" data-name="Line 3" x2="7.286" y2="5.984" transform="translate(15.977 128.886)" fill="none" stroke="#263238" stroke-linecap="round" stroke-linejoin="round" stroke-width="1" />
			<path id="Path_1490" data-name="Path 1490" d="M405.165,109.2s-5.977-3.532-5.838-1.628,2.715,3.255,2.715,3.255-8.56-1.219-9.918-.693.956,1.226.956,1.226-10.6,8.145-14.26,13.713-6.926,13.72-3.124,19.967,9.371,11.137,18.741,13.851,18.6-.138,24.85-2.715,12.466-9.918,11.407-19.15-9.26-18.866-15.375-25.376-9.911-5.541-9.911-4.619A12.286,12.286,0,0,1,405.165,109.2Z" transform="translate(-358.624 -106.373)" fill="#263238" stroke="#263238" stroke-linecap="round" stroke-linejoin="round" stroke-width="1" />
			<path id="Path_1491" data-name="Path 1491" d="M383.7,165.982l-1.385,10.451s-9.918,3.255-13.581,4.751-5.3,3.394-5.977,5.021-10.389,24.24-10.8,26.387.27,3.124,3.255,4.481,11.289-3.664,11.289-3.664l1.087,3.8s-5.437,9.232-6.385,12.217-2.445,11.815-2.445,11.815,10.319,5.16,26.616,4.758,24.309-4.89,24.309-4.89a121.372,121.372,0,0,0-3.664-13.99c-1.9-5.16-3.532-7.2-3.532-9.232s5.977-12.633,5.977-12.633l12.619,5.949a136.682,136.682,0,0,1-3.8-17.217c-.817-6.926-2.223-8.055-4.945-10.5s-14.662-5.97-15.07-6.233.54-11.677.54-11.677S387.5,168.295,383.7,165.982Z" transform="translate(-351.813 -124.575)" fill="#d9d9d9" stroke="#263238" stroke-linecap="round" stroke-linejoin="round" stroke-width="1" />
			<path id="Path_1492" data-name="Path 1492" d="M405.306,173.136a21.133,21.133,0,0,0,5.928-4.093c.145-1.946.27-3.463.27-3.463s-10.278,2.729-14.08.416l-.935,6.926C398.6,174.805,402.031,174.369,405.306,173.136Z" transform="translate(-365.539 -124.575)" fill="#263238" stroke="#263238" stroke-linecap="round" stroke-linejoin="round" stroke-width="1" />
			<path id="Path_1493" data-name="Path 1493" d="M405.959,234.712c-1.9-5.16-3.532-7.2-3.532-9.232s5.977-12.633,5.977-12.633l12.619,5.949a136.687,136.687,0,0,1-3.8-17.217c-.436-3.747-1.06-5.79-1.96-7.272-19.351,2.459-40.862-1.953-49.443-4.038a8.1,8.1,0,0,0-3.11,3.525c-.693,1.635-10.389,24.24-10.8,26.387s.27,3.124,3.255,4.481S366.483,221,366.483,221l1.087,3.8s-5.437,9.232-6.386,12.217-2.445,11.815-2.445,11.815,10.319,5.16,26.616,4.758,24.309-4.89,24.309-4.89A121.971,121.971,0,0,0,405.959,234.712Z" transform="translate(-351.8 -132.165)" fill="#0077b6" stroke="#263238" stroke-linecap="round" stroke-linejoin="round" stroke-width="1" />
			<path id="Path_1494" data-name="Path 1494" d="M374.551,223.78s-2.7-5.658-1.967-8.609a14.053,14.053,0,0,1,1.233-3.691" transform="translate(-358.151 -138.686)" fill="none" stroke="#263238" stroke-linecap="round" stroke-linejoin="round" stroke-width="1" />
			<path id="Path_1495" data-name="Path 1495" d="M420.638,201.58c-.436-3.747-1.06-5.79-1.96-7.272-19.351,2.459-40.862-1.953-49.443-4.038a8.1,8.1,0,0,0-3.11,3.525c-.235.575-1.6,3.754-3.276,7.715,7.618,2.078,36.8,9.3,58.779,5.915C421.213,205.41,420.853,203.38,420.638,201.58Z" transform="translate(-355.197 -132.165)" fill="#0077b6" stroke="#263238" stroke-linecap="round" stroke-linejoin="round" stroke-width="1" />
			<path id="Path_1496" data-name="Path 1496" d="M397.937,129.7l17.314,11.157-.478,4.509s3.089-3.082,3.567.242-.693,4.987-2.853,5.935a5.981,5.981,0,0,1-3.324.693s-5.222,5.693-9,7.12-7.826,1.8-9.7-1.288-4.529-8.685-3.816-12.009,7.133-16.359,7.133-16.359Z" transform="translate(-363.399 -113.545)" fill="#d9d9d9" stroke="#263238" stroke-linecap="round" stroke-linejoin="round" stroke-width="1" />
			<path id="Path_1497" data-name="Path 1497" d="M402.562,144.93a3.7,3.7,0,0,1-.817,2.306c-.81.817-2.715,1.9-2.715,2.715s1.766,2.445,3.394,2.313" transform="translate(-366.32 -118.227)" fill="none" stroke="#263238" stroke-linecap="round" stroke-linejoin="round" stroke-width="1" />
			<path id="Path_1498" data-name="Path 1498" d="M399.81,158.009a4.654,4.654,0,0,0,5.437-.139" transform="translate(-366.56 -122.205)" fill="none" stroke="#263238" stroke-linecap="round" stroke-linejoin="round" stroke-width="1" />
			<path id="Path_1499" data-name="Path 1499" d="M409.23,147.756s2.985-1.087,4.613,1.219" transform="translate(-369.456 -119.017)" fill="none" stroke="#263238" stroke-linecap="round" stroke-linejoin="round" stroke-width="1" />
			<path id="Path_1500" data-name="Path 1500" d="M395.89,145.727s2.445-1.087,3.671.27" transform="translate(-365.355 -118.345)" fill="none" stroke="#263238" stroke-linecap="round" stroke-linejoin="round" stroke-width="1" />
			<path id="Path_1501" data-name="Path 1501" d="M398.05,138.675a3.463,3.463,0,0,1,3.8-1.087" transform="translate(-366.019 -115.912)" fill="none" stroke="#263238" stroke-linecap="round" stroke-linejoin="round" stroke-width="1" />
			<path id="Path_1502" data-name="Path 1502" d="M411.19,139.63s3.8.139,4.613,3.671" transform="translate(-370.058 -116.597)" fill="none" stroke="#263238" stroke-linecap="round" stroke-linejoin="round" stroke-width="1" />
			<path id="Path_1503" data-name="Path 1503" d="M358.239,226.987s-4.211,1.628-5.541,4.211-1.087,8.553,4.2,10.049,44.408-6.386,44.408-6.386a44.926,44.926,0,0,0,3.124,4.211c.956.949,3.4,2.853,3.532,3.664s.409,5.977,1.5,6.233.693-2.445.693-2.445,1.766-2.576,1.766-3.8.27-5.16,0-6.108-6.656-6.517-8.013-6.926-36.125-1.385-39.38-1.9S359.319,226.842,358.239,226.987Z" transform="translate(-351.867 -143.444)" fill="#d9d9d9" stroke="#263238" stroke-linecap="round" stroke-linejoin="round" stroke-width="1" />
			<rect id="Rectangle_1426" data-name="Rectangle 1426" width="8.193" height="18.346" rx="2.31" transform="translate(46.468 49.819) rotate(-146.39)" fill="#0077b6" stroke="#263238" stroke-width="1" />
			<path id="Path_1504" data-name="Path 1504" d="M428.538,170.635s.859-2.2,1.711-3.788.859-2.327.249-2.327a3.38,3.38,0,0,0-2.694,2.569,12.7,12.7,0,0,0-.242,4.038Z" transform="translate(-375.072 -124.249)" fill="#d9d9d9" stroke="#263238" stroke-width="1" />
			<path id="Path_1505" data-name="Path 1505" d="M415.625,176.36s6.974-6.974,7.217-7.584,0-8.553-.1-10.8a.693.693,0,0,0-.589-.693h0a.693.693,0,0,0-.838.644l-.547,6.434-1.6-8.1a.693.693,0,0,0-.693-.582h0a.693.693,0,0,0-.693.755l.45,9-2.008-7.708a.748.748,0,0,0-.921-.533h0a.748.748,0,0,0-.547.8l.907,8.311-1.711,1.468v-2.937l-2.078-3.463a.582.582,0,0,0-.755-.222h0a.575.575,0,0,0-.27.755l1.385,3.04s-2.694,11.012-2.819,11.379a8.953,8.953,0,0,0,.859,3.061c.367.734,16.76,35.474,17.737,36.817s7.584,3.428,10.52.242,1.96-6.358.367-10.028S415.625,176.36,415.625,176.36Z" transform="translate(-369.507 -121.531)" fill="#d9d9d9" stroke="#263238" stroke-width="1" />
		</g>
		<g id="freepik--Icons--inject-12" transform="translate(154.99 78.821)">
			<circle id="Ellipse_34" data-name="Ellipse 34" cx="29.088" cy="29.088" r="29.088" fill="#0077b6" />
			<path id="Path_1506" data-name="Path 1506" d="M264.336,129.99H229.86l17,16.386Z" transform="translate(-217.491 -114.068)" fill="#fff" />
			<path id="Path_1507" data-name="Path 1507" d="M264.37,143.417l12,10.61V132.17Z" transform="translate(-228.1 -114.738)" fill="#fff" />
			<path id="Path_1508" data-name="Path 1508" d="M239.222,143.178,227.06,131.46v21.851Z" transform="translate(-216.63 -114.52)" fill="#fff" />
			<path id="Path_1509" data-name="Path 1509" d="M251.825,150.47l-5.4,5.063-5.25-5.056L228.52,161.018h35.238Z" transform="translate(-217.079 -120.364)" fill="#fff" />
			<circle id="Ellipse_35" data-name="Ellipse 35" cx="29.088" cy="29.088" r="29.088" transform="translate(0 63.717)" fill="#0077b6" />
			<path id="Path_1510" data-name="Path 1510" d="M245.894,221.977a1.288,1.288,0,0,0,1.849.492,31.351,31.351,0,0,0,2.77-1.641,3.7,3.7,0,0,0,.762-1.032c-.173-.409-.263-.693-.4-.942-.374-.693-.776-1.385-1.17-2.078l-4.01-6.926a1.385,1.385,0,0,0-2.154-.575c-.859.485-1.711.97-2.549,1.482a1.267,1.267,0,0,0-.519,1.828Q243.172,217.3,245.894,221.977Z" transform="translate(-220.691 -138.349)" fill="#fff" />
			<path id="Path_1511" data-name="Path 1511" d="M272.5,256.246q-2.632-4.571-5.277-9.128a1.309,1.309,0,0,0-1.988-.561q-1.323.741-2.618,1.517a1.3,1.3,0,0,0-.575,1.828l5.735,9.786a1.281,1.281,0,0,0,1.517.118c.928-.506,1.863-1.011,2.77-1.6a4.319,4.319,0,0,0,.817-1A6.7,6.7,0,0,0,272.5,256.246Z" transform="translate(-227.331 -149.825)" fill="#fff" />
			<path id="Path_1512" data-name="Path 1512" d="M251.594,240.909a4.155,4.155,0,0,1-3.463-.3,8.739,8.739,0,0,1-1.648-1.094,16.324,16.324,0,0,1-5.118-8.581c-.506-2.078-.644-4.155.949-5.818L236.413,215c-.464.3-.914.582-1.337.88a5.5,5.5,0,0,0-2.583,5.083,32.836,32.836,0,0,0,.893,6.1,48.314,48.314,0,0,0,10.188,18.755,25.46,25.46,0,0,0,6.233,5.478,6.766,6.766,0,0,0,7.674-.353Z" transform="translate(-218.295 -140.202)" fill="#fff" />
			<circle id="Ellipse_36" data-name="Ellipse 36" cx="29.088" cy="29.088" r="29.088" transform="translate(0 127.434)" fill="#0077b6" />
			<path id="Path_1513" data-name="Path 1513" d="M244.942,340.87H238.48v3.276a4.031,4.031,0,0,0,3.747,4.024Z" transform="translate(-220.141 -178.898)" fill="#fff" />
			<path id="Path_1514" data-name="Path 1514" d="M265.7,324.67h-2.77v5.7a5.541,5.541,0,0,1-5.541,5.541h-.1L247.4,343.2h10.735l-2.653,7.133,9.648-7.133h.582a4.045,4.045,0,0,0,4.045-4.038V328.708a4.045,4.045,0,0,0-4.059-4.038Z" transform="translate(-222.883 -173.917)" fill="#fff" />
			<path id="Path_1515" data-name="Path 1515" d="M250.946,312H230.508a4.038,4.038,0,0,0-4.038,4.038V326.5a4.045,4.045,0,0,0,4.038,4.045h12.875l-2.653,7.085,9.655-7.106h.582a4.052,4.052,0,0,0,4.045-4.045V316.017A4.045,4.045,0,0,0,250.946,312Z" transform="translate(-216.448 -170.022)" fill="#fff" />
			<circle id="Ellipse_37" data-name="Ellipse 37" cx="1.447" cy="1.447" r="1.447" transform="translate(17.231 149.513)" fill="#0077b6" />
			<path id="Path_1516" data-name="Path 1516" d="M248.285,324.357a1.447,1.447,0,1,1-1.447-1.447A1.447,1.447,0,0,1,248.285,324.357Z" transform="translate(-222.265 -173.376)" fill="#0077b6" />
			<path id="Path_1517" data-name="Path 1517" d="M256.785,324.357a1.447,1.447,0,1,1-1.441-1.448A1.447,1.447,0,0,1,256.785,324.357Z" transform="translate(-224.878 -173.376)" fill="#0077b6" />
		</g>
		<g id="freepik--character-1--inject-12" transform="translate(38.949 76)">
			<path id="Path_1518" data-name="Path 1518" d="M148.685,197.144l.526-.693,8.581-11.691s1.163-6.974,1.745-8.719,1.745-5.423,2.133-6.78.776-2.909,1.551-2.327.776,2.909.388,4.072a6.6,6.6,0,0,0-.194,3.29c.194.582,10.465-8.138,11.427-7.362s-.381,4.46-2.32,6.974-9.883,11.628-9.883,11.628-9.107,24.413-11.822,28.292-3.29,2.133-6,0-6.233-6.974-6.233-6.974Z" transform="translate(-73.388 -122.565)" fill="#fff" stroke="#263238" stroke-linecap="round" stroke-linejoin="round" stroke-width="1" />
			<path id="Path_1519" data-name="Path 1519" d="M173.6,180.358s.97-3.463,1.939-4.266,4.647-3.1,4.647-3.1l2.521-7.757s.776-.582.582,1.164a48.275,48.275,0,0,1-1.164,7.362,23.47,23.47,0,0,1-3.1,4.848" transform="translate(-84.154 -122.054)" fill="#fff" stroke="#263238" stroke-linecap="round" stroke-linejoin="round" stroke-width="1" />
			<path id="Path_1520" data-name="Path 1520" d="M133.03,167.8l14.918,29.261L136.521,208.69l-3.3-11.047Z" transform="translate(-71.681 -122.87)" fill="#0077b6" stroke="#263238" stroke-linecap="round" stroke-linejoin="round" stroke-width="1" />
			<path id="Path_1521" data-name="Path 1521" d="M136.09,215.3l1.371,4.585,11.427-11.628-2.057-4.031Z" transform="translate(-72.622 -134.07)" fill="#263238" stroke="#263238" stroke-width="1" />
			<path id="Path_1522" data-name="Path 1522" d="M76.693,446l-1.385,5.492s-8.124,4.5-8.747,5.125-.381,3.248-.381,3.248H89.436a21.324,21.324,0,0,0-.5-6,65.937,65.937,0,0,1-.644-7.348Z" transform="translate(-51.116 -208.396)" fill="#263238" stroke="#263238" stroke-linecap="round" stroke-linejoin="round" stroke-width="1" />
			<path id="Path_1523" data-name="Path 1523" d="M66.19,465.333h23.25a13.943,13.943,0,0,0,0-1.5H66.148A14.617,14.617,0,0,0,66.19,465.333Z" transform="translate(-51.119 -213.877)" fill="#fff" stroke="#263238" stroke-linecap="round" stroke-linejoin="round" stroke-width="1" />
			<path id="Path_1524" data-name="Path 1524" d="M66.981,459.819a10.818,10.818,0,0,1,5.624-2.5c3.747-.63,7.127.748,7.875,1.5a8.034,8.034,0,0,1,1.247,2.874l-15.666.125a1.309,1.309,0,0,1,.921-1.995Z" transform="translate(-51.031 -211.826)" fill="#fff" stroke="#263238" stroke-linecap="round" stroke-linejoin="round" stroke-width="1" />
			<path id="Path_1525" data-name="Path 1525" d="M95.406,451.288c0,1.351-.471,2.438-1.06,2.438s-1.067-1.087-1.067-2.438.478-2.438,1.067-2.438S95.406,449.944,95.406,451.288Z" transform="translate(-59.461 -209.272)" fill="#fff" stroke="#263238" stroke-linecap="round" stroke-linejoin="round" stroke-width="1" />
			<path id="Path_1526" data-name="Path 1526" d="M159.506,446l1.385,5.492s8.124,4.5,8.747,5.125.374,3.248.374,3.248h-23.25a21.012,21.012,0,0,1,.5-6,67.173,67.173,0,0,0,.637-7.348Z" transform="translate(-75.891 -208.396)" fill="#263238" stroke="#263238" stroke-linecap="round" stroke-linejoin="round" stroke-width="1" />
			<path id="Path_1527" data-name="Path 1527" d="M170,465.333H146.76a14.877,14.877,0,0,1-.042-1.5h23.333A13.908,13.908,0,0,1,170,465.333Z" transform="translate(-75.888 -213.877)" fill="#fff" stroke="#263238" stroke-linecap="round" stroke-linejoin="round" stroke-width="1" />
			<path id="Path_1528" data-name="Path 1528" d="M172.532,459.819a10.86,10.86,0,0,0-5.624-2.5c-3.747-.63-7.127.748-7.875,1.5a8.089,8.089,0,0,0-1.254,2.874l15.673.125a1.309,1.309,0,0,0-.921-1.995Z" transform="translate(-79.29 -211.826)" fill="#fff" stroke="#263238" stroke-linecap="round" stroke-linejoin="round" stroke-width="1" />
			<path id="Path_1529" data-name="Path 1529" d="M150.2,451.288c0,1.351.478,2.438,1.067,2.438s1.06-1.087,1.06-2.438-.471-2.438-1.06-2.438S150.2,449.944,150.2,451.288Z" transform="translate(-76.96 -209.272)" fill="#fff" stroke="#263238" stroke-linecap="round" stroke-linejoin="round" stroke-width="1" />
			<path id="Path_1530" data-name="Path 1530" d="M80.659,275.8l-.769,12.12,1.032,104.454,11.6.519,11.608-96.462,1.551-.519,21.671,96.981,11.608-.519-5.167-64.991-7.8-55.78Z" transform="translate(-55.345 -154.781)" fill="#fff" stroke="#263238" stroke-linecap="round" stroke-linejoin="round" stroke-width="1" />
			<path id="Path_1531" data-name="Path 1531" d="M116.36,281.875v8.844l2.41-4.017.409-6.032" transform="translate(-66.557 -157.569)" fill="none" stroke="gray" stroke-linecap="round" stroke-linejoin="round" stroke-width="1" />
			<path id="Path_1532" data-name="Path 1532" d="M77.855,165.705S51.7,177.14,51.308,178.283s-7.362,30.037-6.233,32.745a6.621,6.621,0,0,0,8.311,3.463c3.678-1.385,7.168-15.5,7.168-15.5s8.138,24.8,8.138,27.322.776,18.007.776,18.007,14.918,2.126,27.322-.776S115.2,238.89,115.2,238.89l-5.811-35.46s-3.1-35.072-3.463-36.429-22.481-1.745-24.24-1.551S77.855,165.705,77.855,165.705Z" transform="translate(-44.604 -122.133)" fill="#0077b6" stroke="#263238" stroke-linecap="round" stroke-linejoin="round" stroke-width="1" />
			<path id="Path_1533" data-name="Path 1533" d="M58.024,222.188a18.007,18.007,0,0,0-4.619-7.542c-2.161-1.918-5.035-.831-7,.36-1.039,5.381-1.711,9.9-1.281,10.894a6.621,6.621,0,0,0,8.311,3.463C55.115,228.74,56.771,225.513,58.024,222.188Z" transform="translate(-44.616 -136.951)" fill="#263238" stroke="#263238" stroke-width="1" />
			<path id="Path_1534" data-name="Path 1534" d="M74.32,231.048l44.124-9.274-.353-2.189s-.069-.693-.173-1.946L73.08,227.059C73.5,228.347,73.911,229.663,74.32,231.048Z" transform="translate(-53.251 -138.192)" fill="#263238" />
			<path id="Path_1535" data-name="Path 1535" d="M125.3,259.813l-4.356-26.553-43.321,9a31.5,31.5,0,0,1,1.17,4.987c0,2.514.776,18.007.776,18.007s14.918,2.126,27.322-.776S125.3,259.813,125.3,259.813Z" transform="translate(-54.647 -142.994)" fill="#263238" stroke="#263238" stroke-width="1" />
			<path id="Path_1536" data-name="Path 1536" d="M91.678,165.54c-1.745.194-3.878.194-3.878.194s-4.9,2.147-10.5,4.675L99.947,193.79s4.848-23.319,4.419-25.327a20.991,20.991,0,0,0-.8-2.77C98,165.491,92.509,165.45,91.678,165.54Z" transform="translate(-54.549 -122.162)" fill="#263238" stroke="#263238" stroke-width="1" />
			<path id="Path_1537" data-name="Path 1537" d="M100.433,155.189s1.164,10.077,1.745,12.016-3.3,15.5-3.3,15.5-11.24-11.434-12.6-14.724S81.83,153.25,81.83,153.25,91.713,158.292,100.433,155.189Z" transform="translate(-55.941 -118.397)" fill="#fff" stroke="#263238" stroke-linecap="round" stroke-linejoin="round" stroke-width="1" />
			<path id="Path_1538" data-name="Path 1538" d="M81.83,153.25s.693,2.611,1.593,5.693c.471.263,1.039.561,1.731.907A19.863,19.863,0,0,0,96.928,162a5.478,5.478,0,0,0,3.989-2.909c-.277-2.168-.478-3.906-.478-3.906C91.713,158.292,81.83,153.25,81.83,153.25Z" transform="translate(-55.941 -118.397)" fill="#263238" stroke="#263238" stroke-linecap="round" stroke-linejoin="round" stroke-width="1" />
			<path id="Path_1539" data-name="Path 1539" d="M91.323,117.845a71.253,71.253,0,0,0,4.9,8.429c1.967,2.549,5.1,8.242,3.726,11.573s-2.272,9-6.669,9.613A19.918,19.918,0,0,1,81.51,145.3c-3.532-1.766-3.92-2.355-3.92-2.355a8.88,8.88,0,0,1-4.71-1.385c-1.766-1.385-5.291-5.686-4.315-9.412s3.338-4.121,3.338-4.121-4.9-1.96-1.766-6.863,9.8-6.663,12.944-6.663S91.323,117.845,91.323,117.845Z" transform="translate(-51.812 -106.484)" fill="#fff" stroke="#263238" stroke-linecap="round" stroke-linejoin="round" stroke-width="1" />
			<path id="Path_1540" data-name="Path 1540" d="M100.08,128.67a5.686,5.686,0,0,0,1.766,1.766c1.385.983,3.331.395,2.77,2.161a2.8,2.8,0,0,1-3.137,2.154" transform="translate(-61.552 -110.841)" fill="none" stroke="#263238" stroke-linecap="round" stroke-linejoin="round" stroke-width="1" />
			<path id="Path_1541" data-name="Path 1541" d="M102.441,140.57s-3.726,2.154-6.275,1.96a6.981,6.981,0,0,1-3.726-1.177" transform="translate(-59.203 -114.499)" fill="none" stroke="#263238" stroke-linecap="round" stroke-linejoin="round" stroke-width="1" />
			<path id="Path_1542" data-name="Path 1542" d="M95,143.034s1.385,4.9,3.331,3.331a7.237,7.237,0,0,0,2.355-4.155A12.861,12.861,0,0,1,95,143.034Z" transform="translate(-59.99 -115.003)" fill="#263238" stroke="#263238" stroke-linecap="round" stroke-linejoin="round" stroke-width="1" />
			<path id="Path_1543" data-name="Path 1543" d="M93.878,130.754c.429.693.443,1.447,0,1.711s-1.108-.069-1.544-.748-.443-1.447,0-1.718S93.442,130.068,93.878,130.754Z" transform="translate(-59.069 -111.221)" fill="#263238" />
			<path id="Path_1544" data-name="Path 1544" d="M102.918,126.478c.429.693.443,1.454,0,1.718s-1.108-.069-1.544-.755-.443-1.447,0-1.711S102.482,125.8,102.918,126.478Z" transform="translate(-61.848 -109.909)" fill="#263238" />
			<path id="Path_1545" data-name="Path 1545" d="M88.77,128.964s.568-2.618,2.618-2.964" transform="translate(-58.075 -110.02)" fill="none" stroke="#263238" stroke-linecap="round" stroke-linejoin="round" stroke-width="1" />
			<path id="Path_1546" data-name="Path 1546" d="M98.47,123.7s1.143-2.161,2.964-1.254" transform="translate(-61.057 -108.86)" fill="none" stroke="#263238" stroke-linecap="round" stroke-linejoin="round" stroke-width="1" />
			<path id="Path_1547" data-name="Path 1547" d="M69.339,120.368s12.75,0,13.734-2.161-1.967-3.726-1.967-3.726,10.984.395,12.162-2.943-3.92-4.7-5.492-4.7H85.42s-.589-4.9-6.275-3.726-16.67,8.629-18.007,12.944-4.509,5.686-2.154,10.783,8.823,9.218,8.823,9.218-.983-3.726.983-3.92,5.291,1.17,5.88,1.17,2.355-1.565,1.385-2.549S74.1,129.191,73.9,128.6s.977-2.549.194-4.315S69.339,120.368,69.339,120.368Z" transform="translate(-48.658 -102.926)" fill="#263238" stroke="#263238" stroke-linecap="round" stroke-linejoin="round" stroke-width="1" />
			<rect id="Rectangle_1427" data-name="Rectangle 1427" width="8.657" height="19.378" rx="2.31" transform="translate(14.983 28.476) rotate(-33.61)" fill="#0077b6" stroke="#263238" stroke-width="1" />
			<path id="Path_1548" data-name="Path 1548" d="M69.8,159.245s-.907-2.32-1.808-4-.907-2.452-.263-2.452a3.567,3.567,0,0,1,2.819,2.708,13.665,13.665,0,0,1,.256,4.266Z" transform="translate(-51.467 -118.256)" fill="#fff" stroke="#263238" stroke-width="1" />
			<path id="Path_1549" data-name="Path 1549" d="M70.532,165.325s-7.362-7.362-7.618-8.006.035-9,.111-11.407a.769.769,0,0,1,.623-.693h0a.762.762,0,0,1,.886.693l.582,6.787,1.683-8.56a.755.755,0,0,1,.748-.609h0a.762.762,0,0,1,.755.8l-.478,9.537,2.126-8.138a.783.783,0,0,1,.97-.561h0a.79.79,0,0,1,.575.769l-.963,8.761,1.808,1.551v-3.1l2.168-3.643a.6.6,0,0,1,.8-.235h0a.616.616,0,0,1,.284.8l-1.441,3.214s2.846,11.621,2.971,12.009a9.59,9.59,0,0,1-.9,3.234c-.388.776-17.7,37.461-18.7,38.881s-8.006,3.615-11.081.256-2.078-6.718-.388-10.589S70.532,165.325,70.532,165.325Z" transform="translate(-44.45 -115.409)" fill="#fff" stroke="#263238" stroke-width="1" />
			<line id="Line_4" data-name="Line 4" x2="9.807" y2="5.672" transform="translate(28.666 128.496)" fill="none" stroke="gray" stroke-linecap="round" stroke-linejoin="round" stroke-width="1" />
			<line id="Line_5" data-name="Line 5" x1="5.928" y2="7.736" transform="translate(62.457 124.624)" fill="none" stroke="gray" stroke-linecap="round" stroke-linejoin="round" stroke-width="1" />
		</g>
		<g id="freepik--Floor--inject-12" transform="translate(28.942 327.455)">
			<line id="Line_6" data-name="Line 6" x2="309.581" fill="none" stroke="#263238" stroke-linecap="round" stroke-linejoin="round" stroke-width="1" />
		</g>
	</g>
</svg>
