<svg xmlns="http://www.w3.org/2000/svg" xmlns:xlink="http://www.w3.org/1999/xlink" width="422.046" height="263.977" viewBox="0 0 422.046 263.977">
  <defs>
    <clipPath id="clip-path">
      <rect id="Rectangle_1426" data-name="Rectangle 1426" width="422.046" height="263.977" fill="none"/>
    </clipPath>
  </defs>
  <g id="Group_3791" data-name="Group 3791" transform="translate(0 -0.003)">
    <g id="Group_3790" data-name="Group 3790" transform="translate(0 0.003)" clip-path="url(#clip-path)">
      <path id="Path_1472" data-name="Path 1472" d="M270.3,1331.747s1.409-9.233,19.388-11.716,34.7-22.4,64.346-19.509,54.252,21.027,88,15.47,54.883,1.526,62.453,7.113,38.9-1.311,41.214,8.925Z" transform="translate(-222.029 -1068.052)" fill="#a8d29f"/>
      <path id="Path_1473" data-name="Path 1473" d="M625.858,244.7s-20.292-.992-9.528,60.852c0,0,7.242,20.993-1.9,34.523H749V244.7Z" transform="translate(-503.686 -201.002)" fill="#afcdfb"/>
      <path id="Path_1474" data-name="Path 1474" d="M741.531,1040.5s-9.4-10.968-.58-17.935c0,0,6.444-3.9,11.7-3.584,0,0-7.445,12.484-5.036,13.726s7.293-14.509,7.293-14.509,14.664-1.422,19.381.846c0,0-12.536,10.258-9.9,10.869s16.18-9.458,16.18-9.458,13.648,2.323,12.92,10.648-5.43,10.9-7.5,10.675-14.157-4.837-14.421-3.143,7.015,7.228,12.111,7.487c0,0-9.622,10.611-16.017,7.549s-6.941-7.917-10.927-9.738-7.389-1.816-5.743.041,8.86,3.662,11.14,7.694,4.325,6.752-2.291,5.756-17.371-5.836-17.843-11.38Z" transform="translate(-605.538 -836.017)" fill="#599dad"/>
      <path id="Path_1475" data-name="Path 1475" d="M768.872,1093.452s-37.068-1.428-45.254,9.173a26.81,26.81,0,0,1-7.381,10.359l-.868,2.367s6.424-6.773,8.722-7.183c0,0-3.594-13.134,44.782-14.716" transform="translate(-587.624 -898.141)" fill="#599dad"/>
      <path id="Path_1476" data-name="Path 1476" d="M681.09,1198.837a23.276,23.276,0,0,0-8.509,16.4l1.444.129s2.541-10.871,7.134-15.122-.069-1.4-.069-1.4" transform="translate(-552.478 -983.994)" fill="#599dad"/>
      <path id="Path_1477" data-name="Path 1477" d="M325.153,889.721s14.955-8.375,7.976-19.741c0,0-5.583-6.979-11.565-8.774,0,0,3.19,16.949,0,17.348s-2.193-19.143-2.193-19.143-15.753-7.577-21.934-6.979c0,0,9.771,16.55,6.58,16.152s-14.158-17.149-14.158-17.149-16.152-2.991-18.744,6.581,1.6,14.357,3.988,14.955,17.747.4,17.348,2.393-10.768,5.184-16.55,3.39c0,0,6.381,15.753,14.756,14.955s10.967-5.982,16.152-6.381,8.973,1,6.381,2.393-11.366.458-15.554,4.017-7.577,5.754.2,7.349,21.735.6,24.526-5.384Z" transform="translate(-222.03 -699.032)" fill="#6bb7bf"/>
      <path id="Path_1478" data-name="Path 1478" d="M316.193,907.072s41.875,13.559,46.66,28.714a31.811,31.811,0,0,0,3.988,14.557v2.991s-4.387-10.17-6.78-11.565c0,0,9.372-13.161-43.868-34.7" transform="translate(-259.73 -745.096)" fill="#6bb7bf"/>
      <path id="Path_1479" data-name="Path 1479" d="M590.622,1140.824s6.458,9.806,2.776,21.744l-1.661-.446s1.613-13.148-1.766-19.761.651-1.537.651-1.537" transform="translate(-483.511 -935.578)" fill="#6bb7bf"/>
      <path id="Path_1480" data-name="Path 1480" d="M651.114,768.356S631.4,757.316,640.6,742.334c0,0,7.36-9.2,15.245-11.565,0,0-4.206,22.342,0,22.868s2.891-25.233,2.891-25.233,20.765-9.988,28.914-9.2c0,0-12.88,21.816-8.674,21.291s18.662-22.605,18.662-22.605,21.291-3.943,24.708,8.674-2.1,18.925-5.257,19.714-23.394.526-22.868,3.154,14.194,6.834,21.816,4.468c0,0-8.411,20.765-19.451,19.714S682.13,765.727,675.3,765.2s-11.828,1.314-8.411,3.154,14.983.6,20.5,5.3,9.988,7.584-.263,9.687-28.651.789-32.331-7.1Z" transform="translate(-524.198 -589.217)" fill="#86d1cd"/>
      <path id="Path_1481" data-name="Path 1481" d="M748.055,791.227s-55.2,17.874-61.507,37.85a41.936,41.936,0,0,1-5.257,19.188v3.943s5.783-13.406,8.937-15.246c0,0-12.354-17.348,57.827-45.736" transform="translate(-559.633 -649.938)" fill="#6bb7bf"/>
      <path id="Path_1482" data-name="Path 1482" d="M657.578,1099.355s-8.513,12.927-3.66,28.662l2.19-.588s-2.126-17.332,2.328-26.048-.858-2.026-.858-2.026" transform="translate(-535.919 -901.028)" fill="#6bb7bf"/>
      <path id="Path_1483" data-name="Path 1483" d="M529.375,1284.6a38.616,38.616,0,0,0,38.616-38.616H490.759a38.616,38.616,0,0,0,38.616,38.616" transform="translate(-403.124 -1023.493)" fill="#efcbab"/>
      <path id="Path_1484" data-name="Path 1484" d="M560.527,1284.309a38.643,38.643,0,0,1-43.412-38.321h9.593a38.622,38.622,0,0,0,33.818,38.321" transform="translate(-424.773 -1023.492)" fill="#ffebdc"/>
      <path id="Path_1485" data-name="Path 1485" d="M566.071,1451.328h-78.3a4.764,4.764,0,0,1,4.764-4.764h68.77a4.764,4.764,0,0,1,4.764,4.764" transform="translate(-400.67 -1188.251)" fill="#efcbab"/>
      <rect id="Rectangle_1422" data-name="Rectangle 1422" width="79.38" height="1.185" transform="translate(86.365 222.496)" fill="#efcdaf"/>
      <path id="Path_1486" data-name="Path 1486" d="M1479.359,336.224s-6.765-12.764,3.371-17.625c0,0,7.143-2.392,12.2-.929,0,0-10,10.546-7.926,12.286s10.3-12.554,10.3-12.554,14.618,1.831,18.723,5.079c0,0-14.482,7.257-12.04,8.432s17.862-5.676,17.862-5.676,12.806,5.262,10.268,13.224-7.689,9.439-9.657,8.769-12.751-7.826-13.379-6.232,5.257,8.592,10.172,9.963c0,0-11.716,8.241-17.283,3.849s-5.034-9.247-8.523-11.9-6.81-3.394-5.612-1.221,7.84,5.517,9.179,9.952,2.738,7.537-3.5,5.113-15.666-9.507-14.91-15.019Z" transform="translate(-1213.373 -260.555)" fill="#599dad"/>
      <path id="Path_1487" data-name="Path 1487" d="M1485.821,408.364s-35.851-9.53-46.164-.984a26.808,26.808,0,0,1-9.475,8.487l-1.367,2.118s7.753-5.2,10.086-5.093c0,0-.624-13.6,46.92-4.528" transform="translate(-1173.671 -331.711)" fill="#599dad"/>
      <path id="Path_1488" data-name="Path 1488" d="M1381.724,469.029a23.277,23.277,0,0,0-11.9,14.13l1.381.443s4.865-10.048,10.279-13.188.241-1.386.241-1.386" transform="translate(-1125.213 -384.874)" fill="#599dad"/>
      <path id="Path_1489" data-name="Path 1489" d="M1178.015,52.649s-20.033-10.448-11.284-25.7c0,0,7.083-9.415,14.895-12.014,0,0-3.539,22.458.681,22.858s2.139-25.308,2.139-25.308,20.458-10.6,28.627-10.056c0,0-12.225,22.19-8.036,21.54S1223.017.82,1223.017.82s21.164-4.575,24.955,7.935-1.538,18.979-4.668,19.861-23.367,1.222-22.763,3.834,14.391,6.409,21.94,3.817c0,0-7.789,21.006-18.856,20.284s-14.685-7.452-21.531-7.774-11.784,1.666-8.314,3.4,14.994.157,20.651,4.683,10.21,7.283.026,9.69-28.615,1.641-32.527-6.131Z" transform="translate(-956.571 -0.003)" fill="#86d1cd"/>
      <path id="Path_1490" data-name="Path 1490" d="M1278.906,72.7s-54.642,19.509-60.353,39.665a41.931,41.931,0,0,1-4.683,19.336l.117,3.941s5.381-13.571,8.479-15.5c0,0-12.865-16.973,56.44-47.437" transform="translate(-997.109 -59.718)" fill="#6bb7bf"/>
      <path id="Path_1491" data-name="Path 1491" d="M1192.66,391.481s-8.124,13.174-2.8,28.758l2.171-.653s-2.641-17.261,1.551-26.106-.918-2-.918-2" transform="translate(-975.899 -319.499)" fill="#6bb7bf"/>
      <rect id="Rectangle_1423" data-name="Rectangle 1423" width="140.496" height="183.226" transform="translate(130.705 80.301)" fill="#9abcef"/>
      <rect id="Rectangle_1424" data-name="Rectangle 1424" width="138.134" height="183.226" transform="translate(135.298 80.301)" fill="#e9f3fe"/>
      <path id="Path_1492" data-name="Path 1492" d="M1946.59,1331.132h-27.835c-1.491-1.265,1.032-4.139,3.669-4.332a16.256,16.256,0,0,1,4.249.5c.383-5.088,2.57-27.959,10.814-27.04,9.27,1.029,0,10.072-2.621,15.426a127.344,127.344,0,0,0-4.924,12.337c.752.163,1.532.323,2.328.469,1.229-3.772,5.8-16.461,11.613-15.722,6.826.865,4.083,5.953-.755,8.973-3.55,2.221-7.908,5.377-9.979,6.9a29.6,29.6,0,0,0,5.444.436c4.768-.113,7.1,1.292,8,2.048" transform="translate(-1575.756 -1068.053)" fill="#a8d29f"/>
      <path id="Path_1493" data-name="Path 1493" d="M841.16,281.3l0,0H703.024c.764-10.446-.387-18.031-2.232-23.486-3.542-10.488-9.648-13.12-9.648-13.12H821.418c11.119,0,19.74,6.7,22.087,15.589.087.335.169.668.24,1,2.228,10.172-2.493,19.828-2.585,20.013" transform="translate(-567.726 -201.004)" fill="#e9f3fe"/>
      <path id="Path_1494" data-name="Path 1494" d="M885.541,341.654l0,0H747.4c.764-10.446-.387-18.031-2.232-23.486,14.117,2.585,49.08,8.093,86.5,7.165,24.211-.6,43.343-2.22,56.45-3.7,2.228,10.172-2.494,19.828-2.585,20.013" transform="translate(-612.107 -261.356)" fill="#d8e8fd"/>
      <path id="Path_1495" data-name="Path 1495" d="M983.625,670.487H910.37A1.372,1.372,0,0,1,909,669.12v-.7a1.371,1.371,0,0,1,1.367-1.367h73.255a1.371,1.371,0,0,1,1.367,1.367v.7a1.372,1.372,0,0,1-1.367,1.368" transform="translate(-746.682 -547.936)" fill="#bbd5fc"/>
      <path id="Path_1496" data-name="Path 1496" d="M955.273,702.861h-45.19a1.083,1.083,0,0,1-1.079-1.08V700.5a1.083,1.083,0,0,1,1.079-1.079h45.19a1.083,1.083,0,0,1,1.08,1.079v1.277a1.083,1.083,0,0,1-1.08,1.08" transform="translate(-746.683 -574.529)" fill="#bbd5fc"/>
      <path id="Path_1497" data-name="Path 1497" d="M860.129,675.712v-7.019H859.2q-.842,0-.843-.7,0-.505.66-.716a4.9,4.9,0,0,1,1.074-.169q.737-.056,1.186-.056t.548.176a2.093,2.093,0,0,1,.112.891v7.594h.955q.927,0,.926.8,0,.842-.926.842h-3.847a1.059,1.059,0,0,1-.681-.218.735.735,0,0,1-.274-.61q0-.814.94-.814Z" transform="translate(-704.864 -547.936)" fill="#bbd5fc"/>
      <path id="Path_1498" data-name="Path 1498" d="M983.625,873.134H910.37A1.371,1.371,0,0,1,909,871.767v-.7a1.372,1.372,0,0,1,1.367-1.367h73.255a1.371,1.371,0,0,1,1.367,1.367v.7a1.371,1.371,0,0,1-1.367,1.367" transform="translate(-746.682 -714.396)" fill="#d2e4fd"/>
      <path id="Path_1499" data-name="Path 1499" d="M955.273,905.508h-45.19A1.082,1.082,0,0,1,909,904.429v-1.277a1.083,1.083,0,0,1,1.079-1.079h45.19a1.083,1.083,0,0,1,1.08,1.079v1.277a1.083,1.083,0,0,1-1.08,1.079" transform="translate(-746.683 -740.989)" fill="#d2e4fd"/>
      <path id="Path_1500" data-name="Path 1500" d="M863.7,878.214q0,.7-.98.7h-4.069q-.881,0-.881-.707a.893.893,0,0,1,.236-.521q.347-.4,1.017-1.191,1.017-1.278,1.7-2.208.235-.31.67-.943a2.279,2.279,0,0,0,.36-1.067,1.1,1.1,0,0,0-.31-.8,1.064,1.064,0,0,0-.794-.316,1.216,1.216,0,0,0-.819.3,1.413,1.413,0,0,0-.372.744,8.36,8.36,0,0,1-.223.819.629.629,0,0,1-.608.4.7.7,0,0,1-.583-.273.931.931,0,0,1-.2-.62,2.989,2.989,0,0,1,.137-.881,2.645,2.645,0,0,1,1.054-1.464,3.061,3.061,0,0,1,1.749-.484,2.709,2.709,0,0,1,1.885.683,2.39,2.39,0,0,1,.782,1.839,3.205,3.205,0,0,1-.558,1.715q-.31.485-1.278,1.715-.5.634-1.563,1.839h2.679q.968,0,.968.725" transform="translate(-704.598 -714.396)" fill="#d2e4fd"/>
      <path id="Path_1501" data-name="Path 1501" d="M983.625,1042.178H910.37a1.371,1.371,0,0,1-1.367-1.367v-.7a1.372,1.372,0,0,1,1.367-1.367h73.255a1.371,1.371,0,0,1,1.367,1.367v.7a1.371,1.371,0,0,1-1.367,1.367" transform="translate(-746.682 -853.254)" fill="#d2e4fd"/>
      <path id="Path_1502" data-name="Path 1502" d="M955.273,1074.553h-45.19a1.082,1.082,0,0,1-1.079-1.08V1072.2a1.082,1.082,0,0,1,1.079-1.079h45.19a1.083,1.083,0,0,1,1.08,1.079v1.277a1.083,1.083,0,0,1-1.08,1.08" transform="translate(-746.683 -879.848)" fill="#d2e4fd"/>
      <path id="Path_1503" data-name="Path 1503" d="M862.979,1043.325a2.66,2.66,0,0,1-.926,2.118,3.26,3.26,0,0,1-2.219.761,3.107,3.107,0,0,1-1.775-.494,2.26,2.26,0,0,1-1.167-1.889.792.792,0,0,1,.2-.545.664.664,0,0,1,.52-.228.8.8,0,0,1,.621.444,9.726,9.726,0,0,0,.545.812,1.415,1.415,0,0,0,1.078.444,1.346,1.346,0,0,0,1.268-.659,1.753,1.753,0,0,0,.178-.837q0-1.242-1.458-1.382-.824-.076-.824-.7a.663.663,0,0,1,.479-.647q.894-.33.907-.343a1.224,1.224,0,0,0,.479-1.1.992.992,0,0,0-.278-.742,1.02,1.02,0,0,0-.746-.273,1.363,1.363,0,0,0-.91.279,1.823,1.823,0,0,0-.468.824.578.578,0,0,1-.581.444.6.6,0,0,1-.5-.266.965.965,0,0,1-.2-.583,1.623,1.623,0,0,1,.216-.786,2.435,2.435,0,0,1,1.091-1.027,3.193,3.193,0,0,1,1.471-.342,2.563,2.563,0,0,1,1.794.653,2.216,2.216,0,0,1,.717,1.718,2.354,2.354,0,0,1-1.065,2.029,2.3,2.3,0,0,1,1.547,2.32" transform="translate(-703.876 -851.498)" fill="#d2e4fd"/>
      <path id="Path_1504" data-name="Path 1504" d="M1062.654,499.482h-45.635a1.424,1.424,0,0,1-1.42-1.421V496.91a1.425,1.425,0,0,1,1.42-1.42h45.635a1.425,1.425,0,0,1,1.42,1.42v1.151a1.425,1.425,0,0,1-1.42,1.421" transform="translate(-834.243 -407.011)" fill="#bbd5fc"/>
      <path id="Path_1505" data-name="Path 1505" d="M1018.334,533.948H948.9a1.747,1.747,0,0,1-1.742-1.742V531.7a1.747,1.747,0,0,1,1.742-1.742h69.434a1.747,1.747,0,0,1,1.742,1.742v.508a1.747,1.747,0,0,1-1.742,1.742" transform="translate(-778.024 -435.322)" fill="#bbd5fc"/>
      <path id="Path_1506" data-name="Path 1506" d="M861.355,626.983a169.16,169.16,0,0,1-39.974-4.587c-10.755-2.727-16.548-7.184-16.548-11.137,0-3.583,4.721-6.878,13.654-9.529-8.56,2.541-13.138,6.272-13.138,9.529,0,3.615,5.934,7.192,16.281,9.815,10.608,2.69,24.716,4.171,39.726,4.171s29.118-1.481,39.726-4.171c10.346-2.623,16.281-6.2,16.281-9.815,0-3.828-6.249-8.585-16.307-12.415-11.437-4.355-25.536-5.971-39.7-5.971-26.59,0-37.536,3.1-47.033,6.994,9.538-3.907,20.349-8.334,47.032-8.334,14.22,0,28.38,2.41,39.87,6.785,10.271,3.911,16.651,8.87,16.651,12.941,0,3.953-5.923,7.632-16.678,10.359a164.848,164.848,0,0,1-39.843,5.365" transform="translate(-661.114 -485.903)" fill="#c65447"/>
      <path id="Path_1507" data-name="Path 1507" d="M1605.165,983.057s-.5,4.817-1.039,5.728a20.518,20.518,0,0,1-3.845,4.395c-.986.571.6-3.837.4-4.695s-.812,1.565-1.246,1.622-.323-2.124-.338-2.917,2.115-2.753,2.865-4.443,3.2.31,3.2.31" transform="translate(-1313.545 -806.701)" fill="#ffb27d"/>
      <path id="Path_1508" data-name="Path 1508" d="M1264.5,700.426l-1.107-2.089s.549-3.723-4.115-6.077a2.276,2.276,0,0,0-2.667.7c-.886,1.281,1.689,1.049,1.551,3.24a4.029,4.029,0,0,0,2.349,4.19l1.2,1.386Z" transform="translate(-1032.065 -568.501)" fill="#ffb27d"/>
      <path id="Path_1509" data-name="Path 1509" d="M1325.114,707.5s-4.006,19.659-26.048,26.083c-6.881,2.006-22.512-20.647-22.512-20.647s.55-2.088,3.992-1.609c0,0,15.22,10.076,17.136,11.171,1.7.971,12.882-12.486,17.979-14.656a13.012,13.012,0,0,1,9.452-.341" transform="translate(-1048.599 -580.574)" fill="#e58638"/>
      <rect id="Rectangle_1425" data-name="Rectangle 1425" width="4.117" height="20.709" transform="matrix(0.152, -0.988, 0.988, 0.152, 217.236, 127.134)" fill="#c65447"/>
      <path id="Path_1510" data-name="Path 1510" d="M1191.63,690.473l4.446,2.766.625-4.069Z" transform="translate(-978.84 -566.105)" fill="#ffb27d"/>
      <path id="Path_1511" data-name="Path 1511" d="M1333.956,708.491l-.2,1.287a1.45,1.45,0,0,1-1.653,1.213l-.947-.145.625-4.069,1.03.158a1.365,1.365,0,0,1,1.142,1.557" transform="translate(-1093.453 -580.567)" fill="#ffb27d"/>
      <path id="Path_1512" data-name="Path 1512" d="M1650.289,1397.467s2.735,2.5,2.2,4.269-3,2.955-3.335,5.122-1.667,3.349-2.868,3.349h-5.724s-.884-1.525,1.251-1.985,2.939-3.006,2.806-5.37a41.648,41.648,0,0,1,.2-5.516l4.535-1.051Z" transform="translate(-1347.459 -1146.95)" fill="#233862"/>
      <path id="Path_1513" data-name="Path 1513" d="M1434.056,1428.938s.491,5.679-.71,6.27l-15.363-.031s0-1.773,2.468-2.167,6.8-1.839,7.536-5.057,6.069.985,6.069.985" transform="translate(-1164.773 -1171.967)" fill="#233862"/>
      <path id="Path_1514" data-name="Path 1514" d="M1435.355,983.448s.811,9.955,1.763,21.922c1.294,16.255,2.851,36.223,3,40.005.266,6.568,1.335,17.075,1.335,17.075s2.533,2.5,7.6,1.444a169.544,169.544,0,0,0,5.808-30.868c.02-.26.04-.522.06-.784,1.2-16.155,3.067-50.173,3.067-50.173Z" transform="translate(-1179.043 -806.701)" fill="#2b478b"/>
      <path id="Path_1515" data-name="Path 1515" d="M1435.355,983.448s.811,9.955,1.763,21.922l17.751,27.657c.02-.26.04-.522.06-.784,1.2-16.155,3.067-50.173,3.067-50.173Z" transform="translate(-1179.043 -806.701)" fill="#233862"/>
      <path id="Path_1516" data-name="Path 1516" d="M1456.079,966.505s14.606,36.053,24.21,53,12.605,21.671,12.605,21.671,5.5-2.167,6-3.645c0,0-3.673-32.709-10.1-40.683-3.634-4.506-7.9-18.027-8.1-22.755s-1.3-14.086-1.3-14.086Z" transform="translate(-1196.067 -788.576)" fill="#2b478b"/>
      <path id="Path_1517" data-name="Path 1517" d="M1492.028,630.184s-9.883,4.768-15.58,3a13.444,13.444,0,0,1,3.857-3.085c-.2-1.144-.351-2.136-.439-2.977a27.515,27.515,0,0,1-.241-3.042l3.813-3,3.616-2.87a14.569,14.569,0,0,0,4.974,11.975" transform="translate(-1212.798 -507.816)" fill="#ffb27d"/>
      <path id="Path_1518" data-name="Path 1518" d="M1459.7,725.865c.022.6-1.271,1.294-1.841,1.553A40.355,40.355,0,0,1,1445.219,731c-5.281.539-11.526-.647-13.674-.6a.893.893,0,0,1-.592-.237c-.153-.108-.263-6.473-.153-14.478,0-.324,0-.647.022-.971V714.6c.044-3.129.153-6.408.307-9.688.307-7.207.876-14.155,1.841-18a19.51,19.51,0,0,1,6.18-9.709l1.972-1.726a9.476,9.476,0,0,0,6.135-.733c2.279-1.1,4.733-2.287,5.128-1.985,2.98,2.179,5,7.077,6.07,13.334a69.322,69.322,0,0,1,.9,11.867c0,1.553-.044,3.15-.131,4.725a148.949,148.949,0,0,0,.307,20.26c.088,1.251.153,2.222.175,2.913" transform="translate(-1175.265 -552.591)" fill="#ee9849"/>
      <path id="Path_1519" data-name="Path 1519" d="M1512.622,787.031c-34.606-.069-6.383-37.552-6.383-37.552l5.606-1.821a108.883,108.883,0,0,1,.65,12.678c0,1.66-.032,3.365-.1,5.048-.38,9.128,0,17.058.222,21.646" transform="translate(-1228.359 -614.149)" fill="#e58638"/>
      <path id="Path_1520" data-name="Path 1520" d="M1501.735,634.5s-2.5,4.552-7.253,5.826a27.514,27.514,0,0,1-.241-3.042l3.813-3Z" transform="translate(-1227.414 -521.017)" fill="#ed985f"/>
      <path id="Path_1521" data-name="Path 1521" d="M1476.043,579.693s9.427,1.542,10.313-4.253,2.7-9.5-3.284-10.73-7.492.808-8.265,2.672-1.193,11.761,1.237,12.311" transform="translate(-1210.954 -463.562)" fill="#ffb27d"/>
      <path id="Path_1522" data-name="Path 1522" d="M1475.767,547.82c.085-.1.283-.177.722-.2a1.781,1.781,0,0,0-.821-.231,2.21,2.21,0,0,0-1.468-1.955,1.318,1.318,0,0,1,.639.951c-1.218-1.251-3.827-2.161-11.052-1.591-9.522.751-6.384,6.848-5.151,7.575s4.336-1.266,6.632-1.083,2.734,3.5,3.513,3.957.473-.35,1.527-.826,1.155,1.27.85,2.406,1.144,2.634,1.144,2.634l1.464-1.577c1.464-1.576,2.844-8.254,2.178-9.677-.059-.126-.117-.253-.177-.381" transform="translate(-1196.939 -447.366)" fill="#2c3a64"/>
      <path id="Path_1523" data-name="Path 1523" d="M1531.082,672.717s5.965,2.825,8.825,7.167c4.436,6.735,9.579,31.284,9.674,33.557s-3.753,18.322-3.753,18.322-3.9-.257-4.91-2.227c0,0,.78-16.49.286-17.55s-16.272-22.12-14.5-26.613,4.376-12.657,4.376-12.657" transform="translate(-1253.967 -552.59)" fill="#ee9849"/>
      <path id="Path_1524" data-name="Path 1524" d="M1281.946,709.022s.324-1.281-.564-1.857-1.707-2.142-2.081-1.93c-.776.439.425,1.806.205,3.511-.077.6,1.313,2.161,2.441.276" transform="translate(-1050.638 -579.285)" fill="#ffb27d"/>
      <path id="Path_1525" data-name="Path 1525" d="M365.722,1264.461s-14.012-35.878-23.838-30.165,23.838,30.165,23.838,30.165" transform="translate(-279.357 -1013.381)" fill="#a8d29f"/>
      <path id="Path_1526" data-name="Path 1526" d="M314.81,1344.446s-18.51-16-26.966-13.026,26.966,13.026,26.966,13.026" transform="translate(-235.372 -1093.366)" fill="#a8d29f"/>
      <path id="Path_1527" data-name="Path 1527" d="M1542.432,1374.16s4.265-14.832,9.27-13.082-9.27,13.082-9.27,13.082" transform="translate(-1266.999 -1117.912)" fill="#a8d29f"/>
      <path id="Path_1528" data-name="Path 1528" d="M1564.231,1405.8s10.889-7.148,13.282-4.938-13.282,4.938-13.282,4.938" transform="translate(-1284.906 -1150.362)" fill="#a8d29f"/>
      <path id="Path_1529" data-name="Path 1529" d="M960.349,1243.112H875.408a1.034,1.034,0,0,1,0-2.067h84.941a1.034,1.034,0,0,1,0,2.067" transform="translate(-718.237 -1019.432)" fill="#d2e4fd"/>
      <path id="Path_1530" data-name="Path 1530" d="M960.349,1266.282H875.408a1.034,1.034,0,0,1,0-2.067h84.941a1.034,1.034,0,0,1,0,2.067" transform="translate(-718.237 -1038.464)" fill="#d2e4fd"/>
      <path id="Path_1531" data-name="Path 1531" d="M960.349,1291.959H875.408a1.034,1.034,0,0,1,0-2.067h84.941a1.034,1.034,0,0,1,0,2.067" transform="translate(-718.237 -1059.556)" fill="#d2e4fd"/>
      <path id="Path_1532" data-name="Path 1532" d="M949.2,1317.635H875.339a.968.968,0,0,1-.965-.965v-.138a.968.968,0,0,1,.965-.965H949.2a.968.968,0,0,1,.965.965v.138a.968.968,0,0,1-.965.965" transform="translate(-718.237 -1080.647)" fill="#d2e4fd"/>
      <path id="Path_1533" data-name="Path 1533" d="M421.635,1474.151H.411A.412.412,0,0,1,0,1473.74v-.076a.412.412,0,0,1,.411-.411H421.635a.412.412,0,0,1,.411.411v.076a.412.412,0,0,1-.411.411" transform="translate(0 -1210.174)" fill="#1c468a"/>
    </g>
  </g>
</svg>
