<svg xmlns="http://www.w3.org/2000/svg" width="14.886" height="15.2" viewBox="0 0 14.886 15.2">
  <g id="noun_Home_4406635" transform="translate(-4.75 -4.321)">
    <g id="Group_504" data-name="Group 504" transform="translate(5 4.668)">
      <path id="Path_228" data-name="Path 228" d="M18.586,9.418l-4.9-4.2a2.289,2.289,0,0,0-2.977,0l-4.9,4.2A2.288,2.288,0,0,0,5,11.157v5.825a2.289,2.289,0,0,0,2.289,2.289H17.1a2.289,2.289,0,0,0,2.289-2.289V11.157A2.29,2.29,0,0,0,18.586,9.418Zm-8.355,9.2V15.384a2.071,2.071,0,0,1,1.607-2.072,2,2,0,0,1,2.317,2.041v3.263Zm8.5-1.635A1.634,1.634,0,0,1,17.1,18.617H14.808V15.388a2.727,2.727,0,0,0-2.081-2.708,2.653,2.653,0,0,0-3.15,2.673v3.263H7.289a1.634,1.634,0,0,1-1.635-1.635V11.159a1.636,1.636,0,0,1,.57-1.24l4.932-4.231a1.585,1.585,0,0,1,2.074,0l4.932,4.23a1.636,1.636,0,0,1,.57,1.241Z" transform="translate(-5 -4.667)" fill="#8a8a8a" stroke="#8a8a8a" stroke-width="0.5"/>
    </g>
  </g>
</svg>
