<svg xmlns="http://www.w3.org/2000/svg" xmlns:xlink="http://www.w3.org/1999/xlink" width="50" zoomAndPan="magnify" viewBox="0 0 37.5 37.499999" height="50" preserveAspectRatio="xMidYMid meet" version="1.0"><defs><clipPath id="9780468724"><path d="M 16.125 1.113281 L 33.375 1.113281 L 33.375 36.363281 L 16.125 36.363281 Z M 16.125 1.113281 " clip-rule="nonzero"/></clipPath><clipPath id="d36b611d9c"><path d="M 10.347656 1.113281 L 27.597656 1.113281 L 27.597656 36.363281 L 10.347656 36.363281 Z M 10.347656 1.113281 " clip-rule="nonzero"/></clipPath></defs><g clip-path="url(#9780468724)"><path fill="#118e47" d="M 16.160156 1.109375 L 16.160156 36.363281 L 29.199219 23.890625 C 30.496094 22.601562 32.03125 20.796875 33.328125 19.714844 L 24.773438 10.4375 C 24.359375 9.921875 24.125 9.820312 23.710938 9.304688 L 16.160156 1.109375 " fill-opacity="1" fill-rule="evenodd"/></g><g clip-path="url(#d36b611d9c)"><path fill="#f5791f" d="M 10.382812 1.109375 L 10.382812 36.363281 L 23.421875 23.890625 C 24.722656 22.601562 26.253906 20.796875 27.554688 19.714844 L 18.996094 10.4375 C 18.585938 9.921875 18.347656 9.820312 17.9375 9.304688 L 10.382812 1.109375 " fill-opacity="1" fill-rule="evenodd"/></g></svg>