<svg xmlns="http://www.w3.org/2000/svg" xmlns:xlink="http://www.w3.org/1999/xlink" width="900" zoomAndPan="magnify" viewBox="0 0 675 449.999984" height="600" preserveAspectRatio="xMidYMid meet" version="1.0"><defs><filter x="0%" y="0%" width="100%" height="100%" id="d6de0aead5"><feColorMatrix values="0 0 0 0 1 0 0 0 0 1 0 0 0 0 1 0 0 0 1 0" color-interpolation-filters="sRGB"/></filter><clipPath id="47a4e72520"><path d="M 0 84 L 675 84 L 675 450 L 0 450 Z M 0 84 " clip-rule="nonzero"/></clipPath><clipPath id="184d942883"><path d="M -43.378906 -21.183594 L 851.160156 271.652344 L 689.226562 766.320312 L -205.3125 473.488281 Z M -43.378906 -21.183594 " clip-rule="nonzero"/></clipPath><clipPath id="1a08468ef6"><path d="M -43.378906 -21.183594 L 851.160156 271.652344 L 689.226562 766.320312 L -205.3125 473.488281 Z M -43.378906 -21.183594 " clip-rule="nonzero"/></clipPath><clipPath id="600e1759c9"><path d="M 333 280.265625 L 348.667969 280.265625 L 348.667969 296 L 333 296 Z M 333 280.265625 " clip-rule="nonzero"/></clipPath><clipPath id="1ef3e8b618"><path d="M 348.316406 286.164062 C 348.324219 290.878906 347.78125 292.101562 347.0625 293.015625 C 346.351562 293.933594 345.292969 294.75 344.234375 295.230469 C 343.175781 295.710938 341.863281 295.941406 340.703125 295.875 C 339.539062 295.808594 338.265625 295.410156 337.273438 294.808594 C 336.277344 294.210938 335.339844 293.265625 334.738281 292.265625 C 334.140625 291.269531 333.734375 290.003906 333.667969 288.839844 C 333.601562 287.683594 333.839844 286.371094 334.320312 285.316406 C 334.800781 284.257812 335.617188 283.207031 336.53125 282.488281 C 337.449219 281.773438 338.664062 281.226562 339.800781 281.015625 C 340.941406 280.808594 342.277344 280.882812 343.386719 281.226562 C 344.496094 281.574219 346.460938 283.085938 346.460938 283.085938 " clip-rule="nonzero"/></clipPath><mask id="fe29ba7b20"><g filter="url(#d6de0aead5)"><rect x="-67.5" width="810" fill="#000000" y="-44.999998" height="539.99998" fill-opacity="0.1686"/></g></mask><clipPath id="67ea6cfe3d"><path d="M 0.601562 0.800781 L 15.480469 0.800781 L 15.480469 16 L 0.601562 16 Z M 0.601562 0.800781 " clip-rule="nonzero"/></clipPath><clipPath id="9f64aae5e6"><path d="M 15.316406 6.164062 C 15.324219 10.878906 14.78125 12.101562 14.0625 13.015625 C 13.351562 13.933594 12.292969 14.75 11.234375 15.230469 C 10.175781 15.710938 8.863281 15.941406 7.703125 15.875 C 6.539062 15.808594 5.265625 15.410156 4.273438 14.808594 C 3.277344 14.210938 2.339844 13.265625 1.738281 12.265625 C 1.140625 11.269531 0.734375 10.003906 0.667969 8.839844 C 0.601562 7.683594 0.839844 6.371094 1.320312 5.316406 C 1.800781 4.257812 2.617188 3.207031 3.53125 2.488281 C 4.449219 1.773438 5.664062 1.226562 6.800781 1.015625 C 7.941406 0.808594 9.277344 0.882812 10.386719 1.226562 C 11.496094 1.574219 13.460938 3.085938 13.460938 3.085938 " clip-rule="nonzero"/></clipPath><clipPath id="69dbbc1c17"><rect x="0" width="16" y="0" height="16"/></clipPath><clipPath id="24bd5e9722"><path d="M 346 220.140625 L 362 220.140625 L 362 236 L 346 236 Z M 346 220.140625 " clip-rule="nonzero"/></clipPath><clipPath id="c291668222"><path d="M 353.894531 235.964844 C 350.730469 235.320312 349.972656 234.914062 349.335938 234.425781 C 348.699219 233.941406 348.105469 233.324219 347.65625 232.65625 C 347.203125 231.996094 346.851562 231.21875 346.636719 230.445312 C 346.417969 229.671875 346.328125 228.824219 346.371094 228.023438 C 346.417969 227.21875 346.597656 226.378906 346.890625 225.636719 C 347.191406 224.886719 347.632812 224.160156 348.148438 223.546875 C 348.667969 222.929688 349.320312 222.375 350.011719 221.960938 C 350.699219 221.550781 351.496094 221.234375 352.273438 221.0625 C 353.0625 220.890625 353.917969 220.84375 354.710938 220.933594 C 355.515625 221.023438 356.339844 221.25 357.066406 221.585938 C 357.796875 221.925781 358.5 222.40625 359.085938 222.953125 C 359.671875 223.507812 360.1875 224.183594 360.5625 224.894531 C 360.9375 225.609375 361.214844 226.417969 361.34375 227.210938 C 361.46875 228.007812 361.46875 228.863281 361.34375 229.648438 C 361.214844 230.445312 360.9375 231.253906 360.5625 231.960938 C 360.1875 232.671875 359.671875 233.347656 359.085938 233.902344 C 358.5 234.457031 357.789062 234.9375 357.058594 235.273438 C 356.332031 235.613281 355.507812 235.835938 354.710938 235.925781 C 353.917969 236.015625 353.0625 235.964844 352.273438 235.792969 C 351.496094 235.621094 350.699219 235.296875 350.011719 234.886719 C 349.320312 234.472656 348.667969 233.917969 348.148438 233.308594 C 347.632812 232.695312 347.191406 231.96875 346.890625 231.21875 C 346.589844 230.476562 346.410156 229.636719 346.363281 228.832031 C 346.320312 228.03125 346.417969 227.183594 346.636719 226.410156 C 346.851562 225.636719 347.203125 224.863281 347.65625 224.199219 C 348.105469 223.53125 348.699219 222.90625 349.335938 222.421875 C 349.972656 221.933594 350.730469 221.535156 351.496094 221.28125 C 352.253906 221.023438 353.902344 220.898438 353.902344 220.890625 C 353.902344 220.890625 353.894531 220.890625 353.894531 220.890625 C 353.894531 220.890625 355.125 220.890625 355.71875 221.003906 C 356.308594 221.113281 356.902344 221.308594 357.449219 221.558594 C 357.996094 221.804688 358.53125 222.128906 359.003906 222.503906 C 359.476562 222.878906 359.917969 223.320312 360.285156 223.800781 C 360.652344 224.273438 360.976562 224.8125 361.222656 225.359375 C 361.46875 225.90625 361.648438 226.507812 361.753906 227.101562 C 361.859375 227.691406 361.890625 228.324219 361.851562 228.921875 C 361.816406 229.523438 361.703125 230.136719 361.523438 230.707031 C 361.34375 231.285156 361.078125 231.847656 360.765625 232.363281 C 360.449219 232.882812 360.058594 233.371094 359.632812 233.796875 C 359.203125 234.21875 358.710938 234.601562 358.191406 234.90625 C 357.675781 235.214844 357.105469 235.46875 356.527344 235.648438 C 355.949219 235.824219 354.734375 235.964844 354.734375 235.964844 " clip-rule="nonzero"/></clipPath><mask id="33eddd5bd9"><g filter="url(#d6de0aead5)"><rect x="-67.5" width="810" fill="#000000" y="-44.999998" height="539.99998" fill-opacity="0.1686"/></g></mask><clipPath id="44f3f141f6"><path d="M 0.320312 0.800781 L 15.921875 0.800781 L 15.921875 16 L 0.320312 16 Z M 0.320312 0.800781 " clip-rule="nonzero"/></clipPath><clipPath id="b7e2c65d21"><path d="M 7.894531 15.964844 C 4.730469 15.320312 3.972656 14.914062 3.335938 14.425781 C 2.699219 13.941406 2.105469 13.324219 1.65625 12.65625 C 1.203125 11.996094 0.851562 11.21875 0.636719 10.445312 C 0.417969 9.671875 0.328125 8.824219 0.371094 8.023438 C 0.417969 7.21875 0.597656 6.378906 0.890625 5.636719 C 1.191406 4.886719 1.632812 4.160156 2.148438 3.546875 C 2.667969 2.929688 3.320312 2.375 4.011719 1.960938 C 4.699219 1.550781 5.496094 1.234375 6.273438 1.0625 C 7.0625 0.890625 7.917969 0.84375 8.710938 0.933594 C 9.515625 1.023438 10.339844 1.25 11.066406 1.585938 C 11.796875 1.925781 12.5 2.40625 13.085938 2.953125 C 13.671875 3.507812 14.1875 4.183594 14.5625 4.894531 C 14.9375 5.609375 15.214844 6.417969 15.34375 7.210938 C 15.46875 8.007812 15.46875 8.863281 15.34375 9.648438 C 15.214844 10.445312 14.9375 11.253906 14.5625 11.960938 C 14.1875 12.671875 13.671875 13.347656 13.085938 13.902344 C 12.5 14.457031 11.789062 14.9375 11.058594 15.273438 C 10.332031 15.613281 9.507812 15.835938 8.710938 15.925781 C 7.917969 16.015625 7.0625 15.964844 6.273438 15.792969 C 5.496094 15.621094 4.699219 15.296875 4.011719 14.886719 C 3.320312 14.472656 2.667969 13.917969 2.148438 13.308594 C 1.632812 12.695312 1.191406 11.96875 0.890625 11.21875 C 0.589844 10.476562 0.410156 9.636719 0.363281 8.832031 C 0.320312 8.03125 0.417969 7.183594 0.636719 6.410156 C 0.851562 5.636719 1.203125 4.863281 1.65625 4.199219 C 2.105469 3.53125 2.699219 2.90625 3.335938 2.421875 C 3.972656 1.933594 4.730469 1.535156 5.496094 1.28125 C 6.253906 1.023438 7.902344 0.898438 7.902344 0.890625 C 7.902344 0.890625 7.894531 0.890625 7.894531 0.890625 C 7.894531 0.890625 9.125 0.890625 9.71875 1.003906 C 10.308594 1.113281 10.902344 1.308594 11.449219 1.558594 C 11.996094 1.804688 12.53125 2.128906 13.003906 2.503906 C 13.476562 2.878906 13.917969 3.320312 14.285156 3.800781 C 14.652344 4.273438 14.976562 4.8125 15.222656 5.359375 C 15.46875 5.90625 15.648438 6.507812 15.753906 7.101562 C 15.859375 7.691406 15.890625 8.324219 15.851562 8.921875 C 15.816406 9.523438 15.703125 10.136719 15.523438 10.707031 C 15.34375 11.285156 15.078125 11.847656 14.765625 12.363281 C 14.449219 12.882812 14.058594 13.371094 13.632812 13.796875 C 13.203125 14.21875 12.710938 14.601562 12.191406 14.90625 C 11.675781 15.214844 11.105469 15.46875 10.527344 15.648438 C 9.949219 15.824219 8.734375 15.964844 8.734375 15.964844 " clip-rule="nonzero"/></clipPath><clipPath id="a0bc84d229"><rect x="0" width="16" y="0" height="16"/></clipPath><clipPath id="e3260d848e"><path d="M 346 220.296875 L 361 220.296875 L 361 236 L 346 236 Z M 346 220.296875 " clip-rule="nonzero"/></clipPath><clipPath id="2d255353a1"><path d="M 360.75 226.199219 C 360.757812 230.917969 360.210938 232.140625 359.488281 233.054688 C 358.769531 233.96875 357.71875 234.796875 356.664062 235.265625 C 355.605469 235.738281 354.292969 235.980469 353.136719 235.914062 C 351.976562 235.84375 350.707031 235.449219 349.710938 234.847656 C 348.710938 234.246094 347.765625 233.300781 347.167969 232.304688 C 346.566406 231.308594 346.171875 230.039062 346.101562 228.878906 C 346.035156 227.722656 346.273438 226.410156 346.746094 225.351562 C 347.21875 224.296875 348.046875 223.246094 348.960938 222.523438 C 349.875 221.804688 351.089844 221.257812 352.238281 221.046875 C 353.378906 220.835938 354.710938 220.921875 355.824219 221.265625 C 356.933594 221.609375 358.890625 223.125 358.890625 223.125 " clip-rule="nonzero"/></clipPath><mask id="09d5e46e88"><g filter="url(#d6de0aead5)"><rect x="-67.5" width="810" fill="#000000" y="-44.999998" height="539.99998" fill-opacity="0.1686"/></g></mask><clipPath id="56b5b89a40"><path d="M 0 0.800781 L 14.960938 0.800781 L 14.960938 16 L 0 16 Z M 0 0.800781 " clip-rule="nonzero"/></clipPath><clipPath id="7e04500801"><path d="M 14.75 6.199219 C 14.757812 10.917969 14.210938 12.140625 13.488281 13.054688 C 12.769531 13.96875 11.71875 14.796875 10.664062 15.265625 C 9.605469 15.738281 8.292969 15.980469 7.136719 15.914062 C 5.976562 15.84375 4.707031 15.449219 3.710938 14.847656 C 2.710938 14.246094 1.765625 13.300781 1.167969 12.304688 C 0.566406 11.308594 0.171875 10.039062 0.101562 8.878906 C 0.0351562 7.722656 0.273438 6.410156 0.746094 5.351562 C 1.21875 4.296875 2.046875 3.246094 2.960938 2.523438 C 3.875 1.804688 5.089844 1.257812 6.238281 1.046875 C 7.378906 0.835938 8.710938 0.921875 9.824219 1.265625 C 10.933594 1.609375 12.890625 3.125 12.890625 3.125 " clip-rule="nonzero"/></clipPath><clipPath id="342571ca89"><rect x="0" width="15" y="0" height="16"/></clipPath><clipPath id="ce9f274f24"><path d="M 160 406 L 170 406 L 170 416 L 160 416 Z M 160 406 " clip-rule="nonzero"/></clipPath><clipPath id="f7b362e0fa"><path d="M 162.121094 407.601562 C 163.753906 406.53125 164.25 406.378906 164.730469 406.3125 C 165.210938 406.246094 165.726562 406.261719 166.199219 406.351562 C 166.671875 406.441406 167.160156 406.621094 167.578125 406.859375 C 168 407.101562 168.414062 407.421875 168.734375 407.78125 C 169.058594 408.140625 169.335938 408.578125 169.523438 409.019531 C 169.71875 409.460938 169.84375 409.964844 169.882812 410.453125 C 169.921875 410.933594 169.882812 411.449219 169.761719 411.921875 C 169.640625 412.394531 169.441406 412.867188 169.175781 413.273438 C 168.914062 413.683594 168.570312 414.066406 168.195312 414.375 C 167.820312 414.675781 167.371094 414.929688 166.914062 415.09375 C 166.453125 415.261719 165.953125 415.359375 165.464844 415.371094 C 164.976562 415.386719 164.46875 415.320312 164.003906 415.175781 C 163.539062 415.035156 163.074219 414.800781 162.683594 414.515625 C 162.292969 414.234375 161.933594 413.863281 161.648438 413.476562 C 161.363281 413.078125 161.128906 412.621094 160.988281 412.15625 C 160.84375 411.691406 160.777344 411.179688 160.792969 410.699219 C 160.808594 410.210938 160.90625 409.710938 161.070312 409.253906 C 161.234375 408.796875 161.488281 408.34375 161.796875 407.96875 C 162.097656 407.59375 162.488281 407.25 162.890625 406.988281 C 163.296875 406.726562 163.769531 406.523438 164.242188 406.402344 C 164.714844 406.28125 165.234375 406.246094 165.710938 406.28125 C 166.199219 406.320312 166.703125 406.449219 167.144531 406.640625 C 167.585938 406.835938 168.023438 407.113281 168.382812 407.4375 C 168.742188 407.761719 169.066406 408.164062 169.304688 408.585938 C 169.546875 409.003906 169.726562 409.492188 169.816406 409.964844 C 169.90625 410.4375 169.921875 410.953125 169.851562 411.433594 C 169.785156 411.914062 169.636719 412.410156 169.417969 412.84375 C 169.199219 413.28125 168.5625 414.046875 168.5625 414.046875 C 168.5625 414.046875 168.074219 414.609375 167.789062 414.832031 C 167.503906 415.058594 167.175781 415.261719 166.84375 415.410156 C 166.507812 415.566406 166.148438 415.6875 165.789062 415.753906 C 165.425781 415.824219 165.050781 415.851562 164.683594 415.828125 C 164.316406 415.808594 163.949219 415.746094 163.597656 415.640625 C 163.246094 415.539062 162.898438 415.378906 162.585938 415.191406 C 162.269531 415.003906 161.96875 414.773438 161.707031 414.515625 C 161.445312 414.261719 161.210938 413.960938 161.015625 413.65625 C 160.824219 413.339844 160.664062 412.996094 160.550781 412.648438 C 160.441406 412.296875 160.371094 411.929688 160.34375 411.5625 C 160.3125 411.195312 160.335938 410.8125 160.394531 410.453125 C 160.453125 410.09375 160.566406 409.734375 160.71875 409.394531 C 160.867188 409.058594 161.28125 408.441406 161.28125 408.441406 " clip-rule="nonzero"/></clipPath><clipPath id="47d6aaec4e"><path d="M 128 369.105469 L 145.777344 369.105469 L 145.777344 387 L 128 387 Z M 128 369.105469 " clip-rule="nonzero"/></clipPath><clipPath id="2c79b9f29f"><path d="M 145.371094 375.773438 C 145.378906 381.203125 144.75 382.605469 143.925781 383.65625 C 143.101562 384.703125 141.890625 385.65625 140.671875 386.203125 C 139.453125 386.753906 137.949219 387.03125 136.613281 386.949219 C 135.277344 386.863281 133.816406 386.40625 132.675781 385.71875 C 131.527344 385.027344 130.441406 383.949219 129.75 382.800781 C 129.058594 381.660156 128.609375 380.191406 128.527344 378.855469 C 128.445312 377.519531 128.722656 376.011719 129.269531 374.796875 C 129.816406 373.574219 130.761719 372.367188 131.8125 371.542969 C 132.863281 370.71875 134.265625 370.09375 135.578125 369.855469 C 136.890625 369.613281 138.425781 369.703125 139.703125 370.101562 C 140.976562 370.5 143.234375 372.238281 143.234375 372.238281 " clip-rule="nonzero"/></clipPath><mask id="3fd3ff5e9f"><g filter="url(#d6de0aead5)"><rect x="-67.5" width="810" fill="#000000" y="-44.999998" height="539.99998" fill-opacity="0.498"/></g></mask><clipPath id="44af00112f"><path d="M 0.398438 0.601562 L 17.441406 0.601562 L 17.441406 18 L 0.398438 18 Z M 0.398438 0.601562 " clip-rule="nonzero"/></clipPath><clipPath id="07111329f8"><path d="M 17.371094 6.773438 C 17.378906 12.203125 16.75 13.605469 15.925781 14.65625 C 15.101562 15.703125 13.890625 16.65625 12.671875 17.203125 C 11.453125 17.753906 9.949219 18.03125 8.613281 17.949219 C 7.277344 17.863281 5.816406 17.40625 4.675781 16.71875 C 3.527344 16.027344 2.441406 14.949219 1.75 13.800781 C 1.058594 12.660156 0.609375 11.191406 0.527344 9.855469 C 0.445312 8.519531 0.722656 7.011719 1.269531 5.796875 C 1.816406 4.574219 2.761719 3.367188 3.8125 2.542969 C 4.863281 1.71875 6.265625 1.09375 7.578125 0.855469 C 8.890625 0.613281 10.425781 0.703125 11.703125 1.101562 C 12.976562 1.5 15.234375 3.238281 15.234375 3.238281 " clip-rule="nonzero"/></clipPath><clipPath id="1964ce5326"><rect x="0" width="18" y="0" height="18"/></clipPath><clipPath id="ad37c30492"><path d="M 53.191406 300.367188 L 71 300.367188 L 71 318.367188 L 53.191406 318.367188 Z M 53.191406 300.367188 " clip-rule="nonzero"/></clipPath><clipPath id="ace41b83fa"><path d="M 70.777344 307.035156 C 70.792969 312.464844 70.164062 313.867188 69.335938 314.917969 C 68.511719 315.96875 67.304688 316.914062 66.082031 317.460938 C 64.867188 318.007812 63.359375 318.292969 62.023438 318.210938 C 60.691406 318.128906 59.226562 317.671875 58.078125 316.980469 C 56.941406 316.289062 55.851562 315.203125 55.164062 314.0625 C 54.472656 312.914062 54.023438 311.453125 53.941406 310.117188 C 53.859375 308.78125 54.136719 307.273438 54.683594 306.058594 C 55.230469 304.835938 56.175781 303.628906 57.226562 302.804688 C 58.273438 301.980469 59.675781 301.359375 60.988281 301.117188 C 62.300781 300.878906 63.839844 300.96875 65.113281 301.363281 C 66.390625 301.761719 68.648438 303.503906 68.648438 303.503906 " clip-rule="nonzero"/></clipPath><mask id="c73de8118f"><g filter="url(#d6de0aead5)"><rect x="-67.5" width="810" fill="#000000" y="-44.999998" height="539.99998" fill-opacity="0.498"/></g></mask><clipPath id="56b425a0c3"><path d="M 0.761719 0.71875 L 17.800781 0.71875 L 17.800781 18.367188 L 0.761719 18.367188 Z M 0.761719 0.71875 " clip-rule="nonzero"/></clipPath><clipPath id="a07348f978"><path d="M 17.777344 7.035156 C 17.792969 12.464844 17.164062 13.867188 16.335938 14.917969 C 15.511719 15.96875 14.304688 16.914062 13.082031 17.460938 C 11.867188 18.007812 10.359375 18.292969 9.023438 18.210938 C 7.691406 18.128906 6.226562 17.671875 5.078125 16.980469 C 3.941406 16.289062 2.851562 15.203125 2.164062 14.0625 C 1.472656 12.914062 1.023438 11.453125 0.941406 10.117188 C 0.859375 8.78125 1.136719 7.273438 1.683594 6.058594 C 2.230469 4.835938 3.175781 3.628906 4.226562 2.804688 C 5.273438 1.980469 6.675781 1.359375 7.988281 1.117188 C 9.300781 0.878906 10.839844 0.96875 12.113281 1.363281 C 13.390625 1.761719 15.648438 3.503906 15.648438 3.503906 " clip-rule="nonzero"/></clipPath><clipPath id="d240ffbd6b"><rect x="0" width="18" y="0" height="19"/></clipPath><clipPath id="af3a4e3d5a"><path d="M 54 240 L 153.699219 240 L 153.699219 336 L 54 336 Z M 54 240 " clip-rule="nonzero"/></clipPath><clipPath id="9f878c7797"><path d="M 76.605469 303.789062 C 87.457031 310.828125 93.414062 304.980469 97.695312 302.039062 C 101.625 299.347656 105.179688 297.074219 108.523438 293.59375 C 112.34375 289.628906 116.003906 283.988281 118.964844 279.082031 C 121.71875 274.515625 124.199219 269.941406 125.878906 265.207031 C 127.492188 260.675781 126.890625 251.902344 129.007812 251.332031 C 131.078125 250.769531 137.347656 257.152344 138.316406 261.328125 C 139.460938 266.300781 133.71875 273.988281 132.691406 279.839844 C 131.804688 284.910156 131.863281 289.191406 131.933594 294.324219 C 132.007812 300.15625 133.515625 308.871094 133.394531 313.019531 C 133.335938 315.097656 133.207031 316.207031 132.75 317.691406 C 132.292969 319.175781 131.558594 320.664062 130.648438 321.921875 C 129.742188 323.183594 128.566406 324.351562 127.304688 325.253906 C 126.046875 326.152344 124.558594 326.886719 123.074219 327.335938 C 121.589844 327.789062 119.953125 328.011719 118.402344 327.96875 C 116.851562 327.921875 115.222656 327.613281 113.765625 327.074219 C 112.3125 326.535156 110.871094 325.71875 109.664062 324.742188 C 108.457031 323.765625 107.347656 322.539062 106.515625 321.226562 C 105.683594 319.921875 105.039062 318.398438 104.664062 316.890625 C 104.289062 315.382812 104.160156 313.734375 104.289062 312.1875 C 104.414062 310.640625 104.820312 309.03125 105.433594 307.605469 C 106.050781 306.179688 106.949219 304.792969 107.984375 303.636719 C 109.027344 302.484375 110.316406 301.449219 111.667969 300.683594 C 113.015625 299.917969 114.578125 299.347656 116.101562 299.0625 C 117.621094 298.777344 119.273438 298.738281 120.808594 298.949219 C 122.347656 299.160156 123.9375 299.648438 125.324219 300.335938 C 126.710938 301.027344 128.054688 301.996094 129.148438 303.097656 C 130.246094 304.199219 131.203125 305.542969 131.894531 306.9375 C 132.585938 308.332031 133.074219 309.914062 133.273438 311.453125 C 133.476562 312.988281 133.433594 314.648438 133.132812 316.171875 C 132.832031 317.691406 132.261719 319.246094 131.496094 320.59375 C 130.734375 321.945312 129.691406 323.226562 128.535156 324.261719 C 127.378906 325.296875 125.984375 326.191406 124.558594 326.796875 C 123.136719 327.414062 121.523438 327.808594 119.976562 327.929688 C 118.433594 328.050781 116.78125 327.914062 115.273438 327.539062 C 113.765625 327.164062 112.246094 326.503906 110.941406 325.664062 C 109.636719 324.824219 108.40625 323.714844 107.4375 322.507812 C 106.46875 321.292969 105.652344 319.851562 105.121094 318.398438 C 104.585938 316.941406 104.242188 313.761719 104.242188 313.761719 C 104.242188 313.761719 104.109375 306.726562 104.136719 302.476562 C 104.175781 296.941406 103.582031 289.972656 104.558594 283.359375 C 105.652344 275.933594 107.347656 267.097656 110.976562 260.167969 C 114.59375 253.273438 119.789062 244.546875 126.238281 241.859375 C 132.578125 239.21875 144.839844 240.390625 149.203125 243.863281 C 152.574219 246.539062 153.441406 252.164062 153.421875 256.921875 C 153.398438 262.65625 149.648438 269.820312 147.121094 275.871094 C 144.652344 281.78125 141.960938 287.046875 138.480469 292.84375 C 134.496094 299.484375 129.34375 307.914062 124.175781 313.320312 C 119.871094 317.828125 115.875 320.503906 110.414062 323.878906 C 103.515625 328.140625 93.367188 335.300781 85.539062 335.941406 C 78.953125 336.480469 71.488281 333.113281 66.773438 330.382812 C 63.21875 328.328125 60.480469 324.601562 58.726562 322.726562 C 57.796875 321.726562 57.277344 321.1875 56.714844 320.308594 C 56.152344 319.441406 55.6875 318.464844 55.351562 317.484375 C 55.011719 316.5 54.789062 315.441406 54.699219 314.40625 C 54.609375 313.371094 54.636719 312.300781 54.796875 311.273438 C 54.953125 310.246094 55.246094 309.210938 55.640625 308.25 C 56.039062 307.289062 56.574219 306.351562 57.1875 305.519531 C 57.800781 304.6875 58.546875 303.898438 59.347656 303.238281 C 60.148438 302.574219 61.050781 301.996094 61.988281 301.539062 C 62.917969 301.085938 63.9375 300.734375 64.949219 300.515625 C 65.960938 300.300781 67.042969 300.210938 68.078125 300.238281 C 69.121094 300.269531 70.183594 300.433594 71.183594 300.710938 C 72.1875 300.988281 73.175781 301.410156 74.085938 301.921875 C 74.984375 302.429688 76.605469 303.789062 76.605469 303.789062 " clip-rule="nonzero"/></clipPath><clipPath id="98fcc38d4f"><path d="M 212.21875 398 L 216.71875 398 L 216.71875 403.695312 L 212.21875 403.695312 Z M 212.21875 398 " clip-rule="nonzero"/></clipPath><clipPath id="99e85bbacd"><path d="M 213 401.429688 C 213.449219 399.40625 213.480469 399.300781 213.554688 399.164062 C 213.628906 399.03125 213.742188 398.910156 213.855469 398.804688 C 213.976562 398.699219 214.109375 398.609375 214.253906 398.550781 C 214.394531 398.488281 214.550781 398.460938 214.710938 398.445312 C 214.867188 398.429688 215.03125 398.445312 215.183594 398.484375 C 215.332031 398.519531 215.488281 398.585938 215.617188 398.671875 C 215.746094 398.753906 215.863281 398.871094 215.960938 398.992188 C 216.058594 399.113281 216.140625 399.253906 216.195312 399.40625 C 216.246094 399.546875 216.277344 399.710938 216.277344 399.871094 C 216.277344 400.027344 216.253906 400.183594 216.210938 400.335938 C 216.164062 400.484375 216.089844 400.628906 216 400.753906 C 215.910156 400.882812 215.789062 400.996094 215.664062 401.085938 C 215.535156 401.175781 215.386719 401.242188 215.234375 401.289062 C 215.085938 401.332031 214.925781 401.355469 214.769531 401.347656 C 214.613281 401.339844 214.449219 401.308594 214.304688 401.257812 C 214.164062 401.203125 214.019531 401.121094 213.898438 401.023438 C 213.78125 400.925781 213.667969 400.808594 213.585938 400.671875 C 213.503906 400.546875 213.441406 400.386719 213.40625 400.238281 C 213.367188 400.085938 213.351562 399.921875 213.367188 399.765625 C 213.382812 399.609375 213.425781 399.449219 213.488281 399.308594 C 213.546875 399.164062 213.636719 399.023438 213.742188 398.910156 C 213.847656 398.796875 213.976562 398.691406 214.109375 398.617188 C 214.246094 398.542969 214.410156 398.488281 214.558594 398.460938 C 214.710938 398.429688 214.875 398.429688 215.023438 398.453125 C 215.175781 398.476562 215.339844 398.527344 215.476562 398.59375 C 215.617188 398.664062 215.746094 398.761719 215.859375 398.871094 C 215.960938 398.984375 216.058594 399.113281 216.128906 399.253906 C 216.195312 399.398438 216.238281 399.554688 216.261719 399.710938 C 216.285156 399.863281 216.246094 400.175781 216.246094 400.175781 C 216.246094 400.175781 216 401.640625 215.910156 402.007812 C 215.871094 402.171875 215.851562 402.246094 215.796875 402.351562 C 215.746094 402.457031 215.683594 402.5625 215.609375 402.652344 C 215.535156 402.742188 215.453125 402.832031 215.355469 402.898438 C 215.257812 402.976562 215.152344 403.035156 215.039062 403.078125 C 214.933594 403.125 214.816406 403.164062 214.703125 403.183594 C 214.582031 403.207031 214.460938 403.207031 214.34375 403.199219 C 214.222656 403.191406 214.101562 403.164062 213.988281 403.125 C 213.878906 403.085938 213.765625 403.035156 213.667969 402.976562 C 213.570312 402.914062 213.472656 402.832031 213.390625 402.75 C 213.308594 402.667969 213.234375 402.570312 213.171875 402.464844 C 213.113281 402.359375 213.066406 402.246094 213.03125 402.136719 C 213 402.023438 212.976562 401.902344 212.96875 401.78125 C 212.960938 401.664062 213 401.429688 213 401.429688 " clip-rule="nonzero"/></clipPath></defs><g clip-path="url(#47a4e72520)"><g clip-path="url(#184d942883)"><g clip-path="url(#1a08468ef6)"><path fill="#00a5df" d="M 688.871094 765.285156 L -205.296875 473.4375 L -74.308594 84.566406 C -74.308594 84.566406 -49.632812 94.855469 -22.871094 121.324219 C 1.859375 145.785156 105.042969 237.03125 378.597656 207.003906 C 584.519531 184.398438 696.042969 339.695312 818.902344 370.191406 Z M 688.871094 765.285156 " fill-opacity="1" fill-rule="nonzero"/></g></g></g><g clip-path="url(#600e1759c9)"><g clip-path="url(#1ef3e8b618)"><g mask="url(#fe29ba7b20)"><g transform="matrix(1, 0, 0, 1, 333, 280)"><g clip-path="url(#69dbbc1c17)"><g clip-path="url(#67ea6cfe3d)"><g clip-path="url(#9f64aae5e6)"><rect x="-481.5" width="972" fill="#00a5df" height="647.999977" y="-378.999996" fill-opacity="1"/></g></g></g></g></g></g></g><g clip-path="url(#24bd5e9722)"><g clip-path="url(#c291668222)"><g mask="url(#33eddd5bd9)"><g transform="matrix(1, 0, 0, 1, 346, 220)"><g clip-path="url(#a0bc84d229)"><g clip-path="url(#44f3f141f6)"><g clip-path="url(#b7e2c65d21)"><rect x="-494.5" width="972" fill="#00a5df" height="647.999977" y="-318.999996" fill-opacity="1"/></g></g></g></g></g></g></g><g clip-path="url(#e3260d848e)"><g clip-path="url(#2d255353a1)"><g mask="url(#09d5e46e88)"><g transform="matrix(1, 0, 0, 1, 346, 220)"><g clip-path="url(#342571ca89)"><g clip-path="url(#56b5b89a40)"><g clip-path="url(#7e04500801)"><rect x="-494.5" width="972" fill="#00a5df" height="647.999977" y="-318.999996" fill-opacity="1"/></g></g></g></g></g></g></g><g clip-path="url(#ce9f274f24)"><g clip-path="url(#f7b362e0fa)"><path fill="#00a5df" d="M 157.34375 403.28125 L 173.09375 403.28125 L 173.09375 419.03125 L 157.34375 419.03125 Z M 157.34375 403.28125 " fill-opacity="1" fill-rule="nonzero"/></g></g><g clip-path="url(#47d6aaec4e)"><g clip-path="url(#2c79b9f29f)"><g mask="url(#3fd3ff5e9f)"><g transform="matrix(1, 0, 0, 1, 128, 369)"><g clip-path="url(#1964ce5326)"><g clip-path="url(#44af00112f)"><g clip-path="url(#07111329f8)"><rect x="-276.5" width="972" fill="#00a5df" height="647.999977" y="-467.999996" fill-opacity="1"/></g></g></g></g></g></g></g><g clip-path="url(#ad37c30492)"><g clip-path="url(#ace41b83fa)"><g mask="url(#c73de8118f)"><g transform="matrix(1, 0, 0, 1, 53, 300)"><g clip-path="url(#d240ffbd6b)"><g clip-path="url(#56b425a0c3)"><g clip-path="url(#a07348f978)"><rect x="-201.5" width="972" fill="#00a5df" height="647.999977" y="-398.999996" fill-opacity="1"/></g></g></g></g></g></g></g><g clip-path="url(#af3a4e3d5a)"><g clip-path="url(#9f878c7797)"><path fill="#00a5df" d="M 51.699219 238.859375 L 156.699219 238.859375 L 156.699219 338.609375 L 51.699219 338.609375 Z M 51.699219 238.859375 " fill-opacity="1" fill-rule="nonzero"/></g></g><g clip-path="url(#98fcc38d4f)"><g clip-path="url(#99e85bbacd)"><path fill="#00a5df" d="M 209.96875 395.445312 L 218.96875 395.445312 L 218.96875 405.945312 L 209.96875 405.945312 Z M 209.96875 395.445312 " fill-opacity="1" fill-rule="nonzero"/></g></g></svg>