<svg id="visual" viewBox="0 0 900 600" width="900" height="600" xmlns="http://www.w3.org/2000/svg" xmlns:xlink="http://www.w3.org/1999/xlink" version="1.1"><rect x="0" y="0" width="900" height="600" fill="#FFFFFF"></rect><path d="M0 313L10 336.7C20 360.3 40 407.7 60 439.8C80 472 100 489 120 463.5C140 438 160 370 180 340.2C200 310.3 220 318.7 240 347.7C260 376.7 280 426.3 300 426.2C320 426 340 376 360 353C380 330 400 334 420 333.5C440 333 460 328 480 340.7C500 353.3 520 383.7 540 395.7C560 407.7 580 401.3 600 391.8C620 382.3 640 369.7 660 376.5C680 383.3 700 409.7 720 386.8C740 364 760 292 780 299C800 306 820 392 840 398.8C860 405.7 880 333.3 890 297.2L900 261L900 601L890 601C880 601 860 601 840 601C820 601 800 601 780 601C760 601 740 601 720 601C700 601 680 601 660 601C640 601 620 601 600 601C580 601 560 601 540 601C520 601 500 601 480 601C460 601 440 601 420 601C400 601 380 601 360 601C340 601 320 601 300 601C280 601 260 601 240 601C220 601 200 601 180 601C160 601 140 601 120 601C100 601 80 601 60 601C40 601 20 601 10 601L0 601Z" fill="#1E2B4F" stroke-linecap="round" stroke-linejoin="miter"></path></svg>