<svg xmlns="http://www.w3.org/2000/svg" width="11.726" height="11.718" viewBox="0 0 11.726 11.718">
  <g id="noun_links_3638944" transform="translate(0.15 0.365)">
    <g id="Layer_59" data-name="Layer 59">
      <path id="Path_158" data-name="Path 158" d="M33.212,7.729a3.486,3.486,0,0,0-4.907,0l-.512.512a.443.443,0,0,0,.627.627l.512-.512a2.584,2.584,0,1,1,3.654,3.654l-.512.511a.443.443,0,0,0,.627.627l.512-.512a3.475,3.475,0,0,0,0-4.907Z" transform="translate(-23.019 -6.719)" fill="#8a8a8a" stroke="#8a8a8a" stroke-width="0.3"/>
      <path id="Path_159" data-name="Path 159" d="M12.5,32.074l-.512.512a2.584,2.584,0,0,1-3.654-3.654l.512-.512a.443.443,0,1,0-.627-.627l-.512.512a3.47,3.47,0,1,0,4.907,4.907l.511-.512a.443.443,0,0,0-.627-.627Z" transform="translate(-6.69 -23.026)" fill="#8a8a8a" stroke="#8a8a8a" stroke-width="0.3"/>
      <path id="Path_160" data-name="Path 160" d="M26.042,22.794l-3.249,3.249a.443.443,0,1,0,.627.627l3.249-3.249a.443.443,0,1,0-.627-.627Z" transform="translate(-19.127 -19.133)" fill="#8a8a8a" stroke="#8a8a8a" stroke-width="0.3"/>
    </g>
  </g>
</svg>
