<svg xmlns="http://www.w3.org/2000/svg" xmlns:xlink="http://www.w3.org/1999/xlink" width="11" height="14" viewBox="0 0 11 14">
  <defs>
    <clipPath id="clip">
      <use xlink:href="#fill"/>
    </clipPath>
    <clipPath id="clip-2">
      <use xlink:href="#fill-2"/>
    </clipPath>
  </defs>
  <g id="Group_512" data-name="Group 512" transform="translate(-205.537 -428.091)">
    <g id="Rectangle_67" data-name="Rectangle 67" transform="translate(205.537 428.091)" fill="none" stroke="#8a8a8a" stroke-width="1">
      <rect width="11" height="14" rx="2" stroke="none"/>
      <rect x="0.5" y="0.5" width="10" height="13" rx="1.5" fill="none"/>
    </g>
    <g id="Rectangle_68" data-name="Rectangle 68" transform="translate(208.537 431.091)" fill="#fff" stroke="#8a8a8a" stroke-width="1">
      <rect width="5" height="1" rx="0.5" stroke="none"/>
      <rect x="0.5" y="0.5" width="4" fill="none"/>
    </g>
    <g id="Rectangle_69" data-name="Rectangle 69" transform="translate(208.537 434.091)" fill="#fff" stroke="#8a8a8a" stroke-width="1">
      <rect id="fill" width="3" stroke="none"/>
      <path d="M0,-0.49998999999479565h3M2.5,0v0.000010000005204346962M3,0.5h-3M0.5,0.000010000005204346962v-0.000010000005204346962" fill="none" clip-path="url(#clip)"/>
    </g>
    <g id="Rectangle_71" data-name="Rectangle 71" transform="translate(208.537 437.091)" fill="#fff" stroke="#8a8a8a" stroke-width="1">
      <rect width="5" height="1" rx="0.5" stroke="none"/>
      <rect x="0.5" y="0.5" width="4" fill="none"/>
    </g>
    <g id="Rectangle_70" data-name="Rectangle 70" transform="translate(212.537 434.091)" fill="#fff" stroke="#8a8a8a" stroke-width="1">
      <rect id="fill-2" width="1" stroke="none"/>
      <path d="M0,-0.49998999999479565h1M0.5,0v0.000010000005204346962M1,0.5h-1M0.5,0.000010000005204346962v-0.000010000005204346962" fill="none" clip-path="url(#clip-2)"/>
    </g>
  </g>
</svg>
