<svg xmlns="http://www.w3.org/2000/svg" xmlns:xlink="http://www.w3.org/1999/xlink" width="900" zoomAndPan="magnify" viewBox="0 0 675 449.999984" height="600" preserveAspectRatio="xMidYMid meet" version="1.0"><defs><clipPath id="f707479f7c"><path d="M 0 169 L 674.75 169 L 674.75 449.804688 L 0 449.804688 Z M 0 169 " clip-rule="nonzero"/></clipPath></defs><g clip-path="url(#f707479f7c)"><path fill="#00a5df" d="M 674.996094 198.214844 L 665.355469 188.769531 C 655.710938 179.230469 636.429688 160.339844 617.144531 175.757812 C 597.863281 191.179688 578.578125 240.914062 559.296875 241.585938 C 540.011719 242.261719 520.730469 193.6875 501.445312 199.949219 C 482.164062 206.214844 462.878906 267.320312 443.597656 271.273438 C 424.3125 275.320312 405.03125 222.3125 385.746094 207.179688 C 366.460938 192.144531 347.179688 214.890625 327.894531 212.671875 C 308.613281 210.457031 289.328125 183.085938 270.046875 180.867188 C 250.761719 178.652344 231.480469 201.398438 212.195312 219.710938 C 192.914062 238.023438 173.628906 251.902344 154.347656 247.660156 C 135.0625 243.515625 115.78125 221.347656 96.496094 228.289062 C 77.210938 235.128906 57.929688 271.175781 38.644531 262.984375 C 19.363281 254.792969 0.078125 202.359375 -19.203125 206.410156 C -38.488281 210.457031 -57.769531 270.792969 -77.054688 282.839844 C -96.335938 294.886719 -115.621094 258.648438 -134.902344 253.152344 C -154.1875 247.660156 -173.46875 273.105469 -183.113281 285.730469 L -192.753906 298.453125 L -192.753906 449.773438 L -183.113281 449.773438 C -173.46875 449.773438 -154.1875 449.773438 -134.902344 449.773438 C -115.621094 449.773438 -96.335938 449.773438 -77.054688 449.773438 C -57.769531 449.773438 -38.488281 449.773438 -19.203125 449.773438 C 0.078125 449.773438 19.363281 449.773438 38.644531 449.773438 C 57.929688 449.773438 77.210938 449.773438 96.496094 449.773438 C 115.78125 449.773438 135.0625 449.773438 154.347656 449.773438 C 173.628906 449.773438 192.914062 449.773438 212.195312 449.773438 C 231.480469 449.773438 250.761719 449.773438 270.046875 449.773438 C 289.328125 449.773438 308.613281 449.773438 327.894531 449.773438 C 347.179688 449.773438 366.460938 449.773438 385.746094 449.773438 C 405.03125 449.773438 424.3125 449.773438 443.597656 449.773438 C 462.878906 449.773438 482.164062 449.773438 501.445312 449.773438 C 520.730469 449.773438 540.011719 449.773438 559.296875 449.773438 C 578.578125 449.773438 597.863281 449.773438 617.144531 449.773438 C 636.429688 449.773438 655.710938 449.773438 665.355469 449.773438 L 674.996094 449.773438 Z M 674.996094 198.214844 " fill-opacity="1" fill-rule="nonzero"/></g></svg>