<svg id="visual" viewBox="0 0 900 600" width="900" height="600" xmlns="http://www.w3.org/2000/svg" xmlns:xlink="http://www.w3.org/1999/xlink" version="1.1"><rect x="0" y="0" width="900" height="600" fill="#fff"></rect><path d="M0 299L12.5 299C25 299 50 299 75 299C100 299 125 299 150 299C175 299 200 299 225 299C250 299 275 299 300 299C325 299 350 299 375 299C400 299 425 299 450 299C475 299 500 299 525 299C550 299 575 299 600 299C625 299 650 299 675 299C700 299 725 299 750 299C775 299 800 299 825 299C850 299 875 299 887.5 299L900 299L900 601L887.5 601C875 601 850 601 825 601C800 601 775 601 750 601C725 601 700 601 675 601C650 601 625 601 600 601C575 601 550 601 525 601C500 601 475 601 450 601C425 601 400 601 375 601C350 601 325 601 300 601C275 601 250 601 225 601C200 601 175 601 150 601C125 601 100 601 75 601C50 601 25 601 12.5 601L0 601Z" fill="#cdc9ff" stroke-linecap="round" stroke-linejoin="miter"></path></svg>