<svg xmlns="http://www.w3.org/2000/svg" width="77" height="77" viewBox="0 0 77 77">
	<g id="Group_3772" data-name="Group 3772" transform="translate(-381.508 -68.508)">
		<circle id="Ellipse_3" data-name="Ellipse 3" cx="38.5" cy="38.5" r="38.5" transform="translate(381.508 68.508)" fill="#fff" />
		<g id="noun_profile_2391979" transform="translate(402.505 87.557)">
			<g id="Group_27" data-name="Group 27" transform="translate(0)">
				<path id="Path_61" data-name="Path 61" d="M3.693,34.858a1.847,1.847,0,1,1-3.693,0A17.643,17.643,0,0,1,10.93,18.611,10.5,10.5,0,0,1,17.577,0,10.4,10.4,0,0,1,27.916,10.487a10.456,10.456,0,0,1-3.84,8.124,17.643,17.643,0,0,1,10.93,16.247,1.847,1.847,0,1,1-3.693,0,13.811,13.811,0,0,0-27.621,0ZM17.577,3.693a6.776,6.776,0,0,0-6.794,6.794,6.721,6.721,0,0,0,13.441,0A6.746,6.746,0,0,0,17.577,3.693Z" fill="#0077b6" stroke="#0077b6" stroke-width="0.3" />
			</g>
		</g>
	</g>
</svg>
