<svg xmlns="http://www.w3.org/2000/svg" width="34" height="34" viewBox="0 0 34 34">
	<g id="Group_352" data-name="Group 352" transform="translate(-381.589 -68.589)">
		<circle id="Ellipse_3" data-name="Ellipse 3" cx="17" cy="17" r="17" transform="translate(381.589 68.589)" fill="#0077b6" />
		<g id="noun_profile_2391979" transform="translate(390.925 77.076)">
			<g id="Group_27" data-name="Group 27" transform="translate(0)">
				<path id="Path_61" data-name="Path 61" d="M1.61,15.194a.8.8,0,1,1-1.61,0A7.69,7.69,0,0,1,4.764,8.112,4.575,4.575,0,0,1,7.661,0a4.534,4.534,0,0,1,4.507,4.571,4.557,4.557,0,0,1-1.674,3.541,7.69,7.69,0,0,1,4.764,7.082.8.8,0,1,1-1.61,0,6.02,6.02,0,0,0-12.039,0ZM7.661,1.61A2.954,2.954,0,0,0,4.7,4.571a2.93,2.93,0,0,0,5.859,0A2.94,2.94,0,0,0,7.661,1.61Z" fill="#fff" stroke="#fff" stroke-width="0.3" />
			</g>
		</g>
	</g>
</svg>
