<svg id="visual" viewBox="0 0 900 600" width="900" height="600" xmlns="http://www.w3.org/2000/svg" xmlns:xlink="http://www.w3.org/1999/xlink" version="1.1"><rect x="0" y="0" width="900" height="600" fill="#fff"></rect><path d="M0 309L5.2 305.8C10.3 302.7 20.7 296.3 31 295.7C41.3 295 51.7 300 62 301C72.3 302 82.7 299 93 294C103.3 289 113.7 282 124 275.7C134.3 269.3 144.7 263.7 155 261C165.3 258.3 175.7 258.7 186 255.8C196.3 253 206.7 247 217 249.3C227.3 251.7 237.7 262.3 248 271.3C258.3 280.3 268.7 287.7 279 284.8C289.3 282 299.7 269 310 267C320.3 265 330.7 274 341 283.5C351.3 293 361.7 303 372 314C382.3 325 392.7 337 403 337C413.3 337 423.7 325 434.2 312C444.7 299 455.3 285 465.8 289.7C476.3 294.3 486.7 317.7 497 324.2C507.3 330.7 517.7 320.3 528 309.7C538.3 299 548.7 288 559 293.2C569.3 298.3 579.7 319.7 590 323.5C600.3 327.3 610.7 313.7 621 302C631.3 290.3 641.7 280.7 652 277.8C662.3 275 672.7 279 683 293.2C693.3 307.3 703.7 331.7 714 325.8C724.3 320 734.7 284 745 268.5C755.3 253 765.7 258 776 262.5C786.3 267 796.7 271 807 277.8C817.3 284.7 827.7 294.3 838 305.8C848.3 317.3 858.7 330.7 869 335.3C879.3 340 889.7 336 894.8 334L900 332L900 601L894.8 601C889.7 601 879.3 601 869 601C858.7 601 848.3 601 838 601C827.7 601 817.3 601 807 601C796.7 601 786.3 601 776 601C765.7 601 755.3 601 745 601C734.7 601 724.3 601 714 601C703.7 601 693.3 601 683 601C672.7 601 662.3 601 652 601C641.7 601 631.3 601 621 601C610.7 601 600.3 601 590 601C579.7 601 569.3 601 559 601C548.7 601 538.3 601 528 601C517.7 601 507.3 601 497 601C486.7 601 476.3 601 465.8 601C455.3 601 444.7 601 434.2 601C423.7 601 413.3 601 403 601C392.7 601 382.3 601 372 601C361.7 601 351.3 601 341 601C330.7 601 320.3 601 310 601C299.7 601 289.3 601 279 601C268.7 601 258.3 601 248 601C237.7 601 227.3 601 217 601C206.7 601 196.3 601 186 601C175.7 601 165.3 601 155 601C144.7 601 134.3 601 124 601C113.7 601 103.3 601 93 601C82.7 601 72.3 601 62 601C51.7 601 41.3 601 31 601C20.7 601 10.3 601 5.2 601L0 601Z" fill="#cdc9ff" stroke-linecap="round" stroke-linejoin="miter"></path></svg>