<svg width="500" height="500" viewBox="0 0 500 500" fill="none" xmlns="http://www.w3.org/2000/svg">
	<g clip-path="url(#clip0_1580_725)">
		<circle cx="250" cy="250" r="235.5" fill="white" stroke="white" stroke-width="29" />
		<path d="M255.681 367.081C267.067 372.708 273.011 373.961 281.373 383.515C285.732 388.495 288.59 398.421 290.736 405.526C292.881 412.632 325.609 402.318 325.609 402.318C325.609 402.318 362.334 394.592 368.176 387.418C370.417 384.665 364.391 379.154 364.391 379.154C362.357 374.989 360.648 372.352 360.114 367.554C359.821 364.921 361.098 363.24 362.334 360.721C364.125 357.073 366.724 352.236 368.6 347.951C369.988 344.78 370.797 344.821 370.061 337.125L368.176 317.419C367.44 309.724 364.722 294.908 364.722 294.908C364.722 294.908 362.39 280.951 359.994 272.225C357.616 263.567 354.493 255.273 352.544 250.472C351.266 247.323 349.426 241.863 345.08 238.442C339.915 234.377 335.298 233.57 328.764 234.296C323.493 234.881 319.954 235.077 314.311 235.588C304.298 236.495 298.688 237.037 288.677 237.965C282.003 238.584 277.325 240.324 270.313 239.378C263.194 238.417 262.123 232.878 258.387 226.746C255.174 221.474 253.265 211.791 253.265 211.791C253.265 211.791 249.376 199.42 246.918 191.483C243.895 181.721 240.657 170.539 239.64 168.456C238.624 166.373 233.194 158.509 229.54 156.719C224.782 154.388 220.885 154.181 215.982 156.187C211.333 158.089 209.13 160.819 206.958 165.344C204.894 169.642 205.326 177.443 205.326 177.443C205.326 177.443 208.408 192.491 210.434 202.122C213.18 215.173 214.688 222.498 217.612 235.51C219.789 245.197 221.045 250.62 223.358 260.275C225.117 267.618 226.139 271.726 227.965 279.052C229.272 284.298 230.052 287.227 231.346 292.476C232.506 297.182 233.164 299.819 234.262 304.54C235.412 309.49 237.092 317.241 237.092 317.241C237.092 317.241 231.029 315.419 227.064 314.592C221.655 313.462 218.542 313.221 213.04 312.7C207.018 312.129 203.618 311.773 197.57 311.909C190.322 312.072 186.147 312.18 179.12 313.959C173.892 315.282 170.804 315.973 166.149 318.693C162.007 321.113 158.99 322.3 156.659 326.49C154.342 330.657 152.866 334.337 155.027 338.589C156.51 341.507 158.341 342.927 161.438 343.993C167.641 346.126 173.482 345.617 181.199 346.659C189.414 347.767 194.094 347.932 202.235 349.497C213.433 351.648 219.586 353.581 230.404 357.187C240.461 360.539 246.178 362.385 255.681 367.081Z" fill="#FEF4E8" stroke="black" stroke-width="14" />
		<path d="M300.054 212.883C303.384 214.616 307.515 213.343 309.018 209.902C315.624 194.782 318.08 178.143 316.071 161.685C313.788 142.976 305.843 125.382 293.285 111.223C280.727 97.0645 264.145 87.0072 245.729 82.3784C227.313 77.7495 207.927 78.7665 190.129 85.2952C172.331 91.8239 156.958 103.558 146.038 118.948C135.118 134.338 129.165 152.662 128.963 171.501C128.762 190.34 134.321 208.81 144.909 224.472C154.237 238.273 167.083 249.323 182.081 256.528C185.446 258.145 189.388 256.429 190.773 252.962V252.962C192.166 249.477 190.445 245.548 187.083 243.88C174.665 237.717 164.025 228.447 156.247 216.94C147.199 203.556 142.448 187.773 142.621 171.674C142.793 155.575 147.88 139.917 157.212 126.765C166.543 113.613 179.68 103.587 194.889 98.0075C210.098 92.4284 226.664 91.5593 242.402 95.5149C258.139 99.4705 272.309 108.065 283.04 120.164C293.772 132.263 300.561 147.298 302.512 163.286C304.186 176.997 302.233 190.857 296.902 203.517C295.434 207.002 296.699 211.136 300.054 212.883V212.883Z" fill="#4045A1" />
		<mask id="path-5-inside-1_1580_725" fill="white">
			<path d="M264.821 198.162C268.032 200.198 272.33 199.262 273.96 195.827C277.787 187.759 279.643 178.853 279.331 169.833C278.939 158.504 275.144 147.515 268.436 138.283C261.727 129.051 252.413 121.999 241.692 118.037C230.972 114.074 219.337 113.382 208.287 116.05C197.238 118.719 187.28 124.624 179.697 133.006C172.115 141.388 167.255 151.863 165.744 163.079C164.233 174.296 166.141 185.74 171.221 195.938C175.289 204.103 181.241 211.169 188.548 216.575C191.57 218.811 195.76 217.646 197.625 214.382V214.382C199.487 211.122 198.313 207.011 195.38 204.668C190.418 200.705 186.355 195.699 183.508 189.985C179.65 182.24 178.201 173.548 179.348 165.03C180.496 156.511 184.187 148.556 189.945 142.19C195.704 135.825 203.267 131.339 211.658 129.313C220.05 127.287 228.886 127.812 237.028 130.822C245.17 133.831 252.244 139.186 257.339 146.198C262.434 153.209 265.316 161.555 265.614 170.159C265.831 176.451 264.659 182.671 262.214 188.391C260.72 191.887 261.611 196.125 264.821 198.162V198.162Z" />
		</mask>
		<path d="M264.821 198.162C268.032 200.198 272.33 199.262 273.96 195.827C277.787 187.759 279.643 178.853 279.331 169.833C278.939 158.504 275.144 147.515 268.436 138.283C261.727 129.051 252.413 121.999 241.692 118.037C230.972 114.074 219.337 113.382 208.287 116.05C197.238 118.719 187.28 124.624 179.697 133.006C172.115 141.388 167.255 151.863 165.744 163.079C164.233 174.296 166.141 185.74 171.221 195.938C175.289 204.103 181.241 211.169 188.548 216.575C191.57 218.811 195.76 217.646 197.625 214.382V214.382C199.487 211.122 198.313 207.011 195.38 204.668C190.418 200.705 186.355 195.699 183.508 189.985C179.65 182.24 178.201 173.548 179.348 165.03C180.496 156.511 184.187 148.556 189.945 142.19C195.704 135.825 203.267 131.339 211.658 129.313C220.05 127.287 228.886 127.812 237.028 130.822C245.17 133.831 252.244 139.186 257.339 146.198C262.434 153.209 265.316 161.555 265.614 170.159C265.831 176.451 264.659 182.671 262.214 188.391C260.72 191.887 261.611 196.125 264.821 198.162V198.162Z" fill="white" stroke="#4045A1" stroke-width="27.4618" mask="url(#path-5-inside-1_1580_725)" />
	</g>
	<defs>
		<clipPath id="clip0_1580_725">
			<rect width="500" height="500" rx="250" fill="white" />
		</clipPath>
	</defs>
</svg>
