<svg width="500" height="500" viewBox="0 0 500 500" fill="none" xmlns="http://www.w3.org/2000/svg">
<g clip-path="url(#clip0_1580_1023)">
<circle cx="249.5" cy="249.5" r="234.464" fill="white" stroke="white" stroke-width="32.0728"/>
<path d="M213.987 106.314C215.421 101.439 220.625 100.523 224.026 103.067C223.085 100.082 223.085 97.9348 224.026 94.9492C224.705 92.7962 225.301 91.4819 226.894 90.0783C229.989 87.3534 234.063 90.0739 236.932 90.0783C238.516 90.0808 238.851 88.2663 239.8 86.8311C244.101 80.3322 264.766 83.9119 267.047 85.2042C268.479 86.0159 269.464 89.2493 271.347 90.0746C272.423 90.5461 278.518 88.4503 281.386 88.4503C281.386 88.4503 283.589 88.0741 287.122 90.0746C290.654 92.0751 291.39 97.8395 289.991 99.82C289.991 99.82 298.392 98.2008 301.463 106.314C304.535 114.428 279.953 133.916 279.953 133.916C279.953 133.916 308.342 158.64 321.539 179.377C331.207 194.568 337.83 203.365 341.615 221.591C344.948 237.639 345.916 250.816 341.615 263.805C337.315 276.794 328.878 282.419 317.237 288.159C308.374 292.53 302.498 292.193 292.859 293.03C274.215 294.649 235.497 294.649 221.158 293.03C214.265 292.252 209.685 290.857 203.949 289.778C195.345 288.159 172.405 278.418 169.534 263.805C166.663 249.192 166.038 237.595 169.534 221.591C173.569 203.115 180.456 194.16 191.044 179.377C198.028 169.626 203.28 165.523 211.12 156.646L231.196 133.916C225.315 125.671 218.289 119.299 215.421 114.428C212.553 109.557 213.623 107.551 213.987 106.314Z" fill="#FEF4E8"/>
<path d="M279.953 133.916C279.953 133.916 304.535 114.428 301.463 106.314C298.392 98.2008 289.991 99.82 289.991 99.82M279.953 133.916C279.953 133.916 308.342 158.64 321.539 179.377C331.207 194.568 337.83 203.365 341.615 221.591C344.948 237.639 345.916 250.816 341.615 263.805C337.315 276.794 328.878 282.419 317.237 288.159C308.374 292.53 302.498 292.193 292.859 293.03C274.215 294.649 235.497 294.649 221.158 293.03C214.265 292.252 209.685 290.857 203.949 289.778C195.345 288.159 172.405 278.418 169.534 263.805C166.663 249.192 166.038 237.595 169.534 221.591C173.569 203.115 180.456 194.16 191.044 179.377C198.028 169.626 203.28 165.523 211.12 156.646C218.96 147.77 231.196 133.916 231.196 133.916M279.953 133.916H267.047M231.196 133.916L221.158 195.613M231.196 133.916L205.384 182.624M231.196 133.916H267.047M231.196 133.916C225.315 125.671 218.289 119.299 215.421 114.428C212.553 109.557 213.623 107.551 213.987 106.314C215.421 101.439 220.625 100.523 224.026 103.067M224.026 103.067C223.085 100.082 223.085 97.9348 224.026 94.9492C224.705 92.7962 225.301 91.4819 226.894 90.0783C229.989 87.3534 234.063 90.0739 236.932 90.0783C238.516 90.0808 238.851 88.2663 239.8 86.8311C244.101 80.3322 264.766 83.9119 267.047 85.2042C268.479 86.0159 269.464 89.2493 271.347 90.0746C272.423 90.5461 278.518 88.4503 281.386 88.4503C281.386 88.4503 283.589 88.0741 287.122 90.0746C290.654 92.0751 291.39 97.8395 289.991 99.82M224.026 103.067C231.307 115.114 242.668 133.916 242.668 133.916M289.991 99.82C281.031 113.135 267.047 133.916 267.047 133.916" stroke="#FEF4E8" stroke-width="2.97132" stroke-linecap="round"/>
<path d="M280.047 133.916C280.047 133.916 304.628 114.428 301.557 106.314C298.485 98.2008 290.085 99.82 290.085 99.82M280.047 133.916C280.047 133.916 308.435 158.64 321.633 179.377C331.301 194.568 337.924 203.365 341.709 221.591C345.042 237.639 346.01 250.816 341.709 263.805C337.408 276.794 328.971 282.419 317.331 288.159C308.468 292.53 302.592 292.193 292.953 293.03C274.309 294.649 235.591 294.649 221.252 293.03C214.359 292.252 209.779 290.857 204.043 289.778C195.439 288.159 172.499 278.418 169.628 263.805C166.757 249.192 166.132 237.595 169.628 221.591C173.663 203.115 180.55 194.16 191.138 179.377C198.121 169.626 203.374 165.523 211.214 156.646C219.054 147.77 231.29 133.916 231.29 133.916M280.047 133.916H267.14M231.29 133.916L221.252 195.613M231.29 133.916L205.478 182.624M231.29 133.916H267.14M231.29 133.916C225.409 125.671 218.383 119.299 215.515 114.428C212.647 109.557 213.717 107.551 214.081 106.314C215.515 101.439 220.718 100.523 224.12 103.067M224.12 103.067C223.178 100.082 223.178 97.9348 224.12 94.9492C224.799 92.7962 225.394 91.4819 226.988 90.0783C230.082 87.3534 234.157 90.0739 237.026 90.0783C238.61 90.0808 238.944 88.2663 239.894 86.8311C244.195 80.3322 264.86 83.9119 267.14 85.2042C268.573 86.0159 269.558 89.2493 271.441 90.0746C272.517 90.5461 278.611 88.4503 281.479 88.4503C281.479 88.4503 283.683 88.0741 287.215 90.0746C290.748 92.0751 291.484 97.8395 290.085 99.82M224.12 103.067C231.4 115.114 242.762 133.916 242.762 133.916M290.085 99.82C281.124 113.135 267.14 133.916 267.14 133.916" stroke="black" stroke-width="11.0596" stroke-linecap="round"/>
<path d="M154.485 276.224C155.658 276.224 179.107 268.217 195.522 268.217C211.936 268.217 234.213 279.656 234.213 279.656L263.524 288.807C263.524 288.807 275.008 290.151 285.038 291.999L333.872 260.209C333.872 260.209 342.572 253.76 349.114 253.346C361.459 252.565 374.906 259.063 373.736 272.792C373.734 273.933 373.738 270.504 385.46 270.504C397.183 270.504 407.727 290.567 400.702 302.533C397.962 307.201 390.15 311.684 390.15 311.684L328.01 349.433L308.078 360.871C308.078 360.871 294.006 370.023 284.629 374.598C275.251 379.174 263.526 376.886 255.317 374.598C247.108 372.31 230.695 365.447 230.695 365.447L214.281 358.584L195.522 350.576H175.59C175.59 350.576 161.518 355.152 154.485 358.584C149.794 368.879 141.588 368.879 141.588 368.879H127.519H98.2073C87.6573 368.879 88.8276 350.576 88.8276 350.576V272.792C88.8276 272.792 88.8276 263.641 98.2073 263.641H127.519H141.588C146.278 263.641 152.115 269.671 154.485 276.224Z" fill="#FEF4E8"/>
<path d="M154.485 276.224C155.658 276.224 179.107 268.217 195.522 268.217C211.936 268.217 234.213 279.656 234.213 279.656L263.524 288.807C263.524 288.807 292.836 292.238 298.698 295.67C304.56 299.102 305.733 313.972 301.043 318.548C296.353 323.123 287.174 325.055 277.594 326.555C270.559 327.656 260.007 326.555 255.317 325.411C250.627 324.267 230.695 313.972 230.695 313.972M154.485 276.224C152.115 269.671 146.278 263.641 141.588 263.641C136.899 263.641 127.519 263.641 127.519 263.641C127.519 263.641 107.587 263.641 98.2073 263.641C88.8276 263.641 88.8276 272.792 88.8276 272.792V350.576C88.8276 350.576 87.6573 368.879 98.2073 368.879C108.757 368.879 127.519 368.879 127.519 368.879H141.588C141.588 368.879 149.794 368.879 154.485 358.584M154.485 276.224C154.485 308.387 154.485 326.42 154.485 358.584M154.485 358.584C161.518 355.152 175.59 350.576 175.59 350.576H195.522L214.281 358.584L230.695 365.447C230.695 365.447 247.108 372.31 255.317 374.598C263.526 376.886 275.251 379.174 284.629 374.598C294.006 370.023 308.078 360.871 308.078 360.871L328.01 349.433L390.15 311.684C390.15 311.684 397.962 307.201 400.702 302.533C407.727 290.567 397.183 270.504 385.46 270.504C373.738 270.504 373.734 273.933 373.736 272.792M373.736 272.792C374.906 259.063 361.459 252.565 349.114 253.346C342.572 253.76 333.872 260.209 333.872 260.209L285.038 291.999M373.736 272.792C355.879 285.3 315.916 309.593 315.916 309.593" stroke="#FEF4E8" stroke-width="2.96951" stroke-linecap="round"/>
<path d="M155.393 275.959C156.566 275.959 180.03 267.947 196.454 267.947C212.878 267.947 235.169 279.393 235.169 279.393L264.498 288.549C264.498 288.549 275.989 289.895 286.025 291.743L334.889 259.935C334.889 259.935 343.594 253.482 350.14 253.067C362.493 252.285 375.948 258.788 374.777 272.525C374.775 273.667 374.779 270.236 386.509 270.236C398.238 270.236 408.789 290.311 401.76 302.285C399.018 306.955 391.201 311.441 391.201 311.441L329.023 349.212L309.079 360.658C309.079 360.658 294.999 369.815 285.615 374.393C276.232 378.972 264.5 376.683 256.286 374.393C248.072 372.104 231.649 365.237 231.649 365.237L215.225 358.369L196.454 350.357H176.51C176.51 350.357 162.43 354.935 155.393 358.369C150.698 368.67 142.488 368.67 142.488 368.67H128.41H99.0803C88.5238 368.67 89.6949 350.357 89.6949 350.357V272.525C89.6949 272.525 89.6949 263.369 99.0803 263.369H128.41H142.488C147.181 263.369 153.021 269.402 155.393 275.959Z" fill="#FEF4E8"/>
<path d="M155.393 275.959C156.566 275.959 180.03 267.947 196.454 267.947C212.878 267.947 235.169 279.393 235.169 279.393L264.498 288.549C264.498 288.549 293.828 291.983 299.694 295.417C305.559 298.851 306.733 313.73 302.04 318.309C297.347 322.887 288.162 324.82 278.576 326.321C271.537 327.423 260.979 326.321 256.286 325.176C251.593 324.032 231.649 313.73 231.649 313.73M155.393 275.959C153.021 269.402 147.181 263.369 142.488 263.369C137.795 263.369 128.41 263.369 128.41 263.369C128.41 263.369 108.466 263.369 99.0803 263.369C89.6949 263.369 89.6949 272.525 89.6949 272.525V350.357C89.6949 350.357 88.5238 368.67 99.0803 368.67C109.637 368.67 128.41 368.67 128.41 368.67H142.488C142.488 368.67 150.698 368.67 155.393 358.369M155.393 275.959C155.393 308.142 155.393 326.186 155.393 358.369M155.393 358.369C162.43 354.935 176.51 350.357 176.51 350.357H196.454L215.225 358.369L231.649 365.237C231.649 365.237 248.072 372.104 256.286 374.393C264.5 376.683 276.232 378.972 285.615 374.393C294.999 369.815 309.079 360.658 309.079 360.658L329.023 349.212L391.201 311.441C391.201 311.441 399.018 306.955 401.76 302.285C408.789 290.311 398.238 270.236 386.509 270.236C374.779 270.236 374.775 273.667 374.777 272.525M374.777 272.525C375.948 258.788 362.493 252.285 350.14 253.067C343.594 253.482 334.889 259.935 334.889 259.935L286.025 291.743M374.777 272.525C356.909 285.041 316.922 309.348 316.922 309.348" stroke="#FEF4E8" stroke-width="1.10596" stroke-linecap="round"/>
<path d="M142.488 263.606C147.181 263.606 153.021 269.64 155.393 276.197V358.607C150.698 368.908 142.488 368.908 142.488 368.908H128.41H99.0803C88.5238 368.908 89.6949 350.595 89.6949 350.595V272.763C89.6949 272.763 89.6949 263.606 99.0803 263.606H128.41H142.488Z" fill="black"/>
<path d="M155.393 276.197C156.566 276.197 180.029 268.185 196.454 268.185C212.878 268.185 235.169 279.631 235.169 279.631L264.498 288.787C264.498 288.787 293.828 292.221 299.694 295.655C305.559 299.089 306.733 313.968 302.04 318.546C297.347 323.125 288.162 325.058 278.576 326.559C271.537 327.66 260.979 326.559 256.286 325.414C251.593 324.269 231.649 313.968 231.649 313.968M155.393 276.197C153.021 269.64 147.181 263.606 142.488 263.606C137.795 263.606 128.41 263.606 128.41 263.606C128.41 263.606 108.466 263.606 99.0803 263.606C89.6949 263.606 89.6949 272.763 89.6949 272.763V350.595C89.6949 350.595 88.5238 368.908 99.0803 368.908C109.637 368.908 128.41 368.908 128.41 368.908H142.488C142.488 368.908 150.698 368.908 155.393 358.607M155.393 276.197C155.393 308.38 155.393 326.424 155.393 358.607M155.393 358.607C162.43 355.173 176.51 350.595 176.51 350.595H196.454L215.225 358.607L231.649 365.474C231.649 365.474 248.072 372.342 256.286 374.631C264.5 376.92 276.232 379.21 285.615 374.631C294.999 370.053 309.079 360.896 309.079 360.896L329.023 349.45L391.201 311.679C391.201 311.679 399.018 307.193 401.76 302.522C408.789 290.548 398.238 270.474 386.509 270.474C374.779 270.474 374.775 273.905 374.777 272.763M374.777 272.763C375.948 259.025 362.493 252.523 350.14 253.305C343.594 253.719 334.889 260.173 334.889 260.173L299.694 282.505M374.777 272.763C356.909 285.279 316.922 309.586 316.922 309.586" stroke="black" stroke-width="11.0596" stroke-linecap="round"/>
<path d="M234.75 180.446H294.129V188.49H271.724C271.724 188.49 278.848 196.857 278.848 202.327H294.064V209.728H279.494C279.494 209.728 276.58 234.698 248.672 233.154L282.733 273.892H269.135L234.75 234.57V226.332C234.75 226.332 251.651 226.846 259.745 221.377C266.285 216.937 265.443 214.233 266.026 211.658C266.221 210.693 265.507 209.793 264.536 209.793H234.75V202.391H265.249C265.896 202.391 266.285 201.747 265.961 201.168C264.665 198.659 261.234 193.059 256.508 192.03C250.355 190.743 234.75 190.421 234.75 190.421V180.446Z" fill="#4045A1"/>
</g>
<defs>
<clipPath id="clip0_1580_1023">
<rect width="500" height="500" rx="250" fill="white"/>
</clipPath>
</defs>
</svg>
