<svg width="500" height="500" viewBox="0 0 500 500" fill="none" xmlns="http://www.w3.org/2000/svg">
	<g clip-path="url(#clip0_1580_750)">
		<circle cx="250" cy="250" r="235.5" fill="white" stroke="white" stroke-width="29" />
		<mask id="mask0_1580_750" style="mask-type:luminance" maskUnits="userSpaceOnUse" x="98" y="149" width="294" height="199">
			<path d="M98.5078 186.913C98.5078 166.269 115.244 149.533 135.889 149.533H354.066C374.711 149.533 391.447 166.269 391.447 186.913V310.195C391.447 330.84 374.711 347.576 354.066 347.576H135.888C115.244 347.576 98.5078 330.84 98.5078 310.195V186.913Z" fill="white" />
		</mask>
		<g mask="url(#mask0_1580_750)">
			<path d="M391.454 331.882V187.066C391.454 166.421 374.718 149.685 354.073 149.685H135.724C115.08 149.685 98.3438 166.421 98.3438 187.066V331.882C98.3453 332.391 98.3619 332.895 98.3951 333.402C98.4299 333.907 98.4798 334.409 98.5463 334.907C98.6144 335.405 98.6975 335.896 98.7973 336.382C98.897 336.867 99.0119 337.344 99.1419 337.813C99.2735 338.284 99.4201 338.741 99.5819 339.19C99.7421 339.636 99.919 340.071 100.108 340.492C100.298 340.916 100.503 341.322 100.719 341.715C100.936 342.107 101.166 342.484 101.408 342.842C101.65 343.201 101.902 343.542 102.167 343.865C102.431 344.186 102.705 344.488 102.989 344.771C103.274 345.053 103.567 345.313 103.869 345.553C104.17 345.793 104.478 346.009 104.794 346.204C105.11 346.399 105.432 346.569 105.76 346.717C106.087 346.865 106.418 346.988 106.754 347.087C107.089 347.188 107.426 347.262 107.768 347.314C108.108 347.363 108.448 347.388 108.791 347.39H381.074C381.416 347.388 381.756 347.361 382.095 347.307C382.433 347.255 382.77 347.179 383.104 347.078C383.439 346.977 383.768 346.854 384.095 346.704C384.42 346.556 384.74 346.383 385.055 346.188C385.369 345.993 385.676 345.775 385.977 345.535C386.276 345.296 386.568 345.033 386.851 344.751C387.133 344.468 387.407 344.165 387.67 343.842C387.931 343.52 388.184 343.179 388.424 342.82C388.665 342.461 388.891 342.087 389.108 341.694C389.324 341.302 389.525 340.896 389.714 340.475C389.903 340.053 390.077 339.618 390.237 339.172C390.396 338.723 390.541 338.266 390.671 337.797C390.801 337.331 390.914 336.853 391.012 336.369C391.111 335.884 391.192 335.393 391.259 334.898C391.324 334.4 391.374 333.9 391.407 333.398C391.439 332.893 391.455 332.389 391.454 331.882Z" fill="#FEF4E8" />
			<path d="M391.454 331.882V187.066C391.454 166.421 374.718 149.685 354.073 149.685H135.724C115.08 149.685 98.3438 166.421 98.3438 187.066V331.882C98.3453 332.391 98.3619 332.895 98.3951 333.402C98.4299 333.907 98.4798 334.409 98.5463 334.907C98.6144 335.405 98.6975 335.896 98.7973 336.382C98.897 336.867 99.0119 337.344 99.1419 337.813C99.2735 338.284 99.4201 338.741 99.5819 339.19C99.7421 339.636 99.919 340.071 100.108 340.492C100.298 340.916 100.503 341.322 100.719 341.715C100.936 342.107 101.166 342.484 101.408 342.842C101.65 343.201 101.902 343.542 102.167 343.865C102.431 344.186 102.705 344.488 102.989 344.771C103.274 345.053 103.567 345.313 103.869 345.553C104.17 345.793 104.478 346.009 104.794 346.204C105.11 346.399 105.432 346.569 105.76 346.717C106.087 346.865 106.418 346.988 106.754 347.087C107.089 347.188 107.426 347.262 107.768 347.314C108.108 347.363 108.448 347.388 108.791 347.39H381.074C381.416 347.388 381.756 347.361 382.095 347.307C382.433 347.255 382.77 347.179 383.104 347.078C383.439 346.977 383.768 346.854 384.095 346.704C384.42 346.556 384.74 346.383 385.055 346.188C385.369 345.993 385.676 345.775 385.977 345.535C386.276 345.296 386.568 345.033 386.851 344.751C387.133 344.468 387.407 344.165 387.67 343.842C387.931 343.52 388.184 343.179 388.424 342.82C388.665 342.461 388.891 342.087 389.108 341.694C389.324 341.302 389.525 340.896 389.714 340.475C389.903 340.053 390.077 339.618 390.237 339.172C390.396 338.723 390.541 338.266 390.671 337.797C390.801 337.331 390.914 336.853 391.012 336.369C391.111 335.884 391.192 335.393 391.259 334.898C391.324 334.4 391.374 333.9 391.407 333.398C391.439 332.893 391.455 332.389 391.454 331.882Z" stroke="black" />
		</g>
		<path d="M359.296 141.28H138.348C132.531 141.28 127.841 145.714 127.841 151.196C127.841 156.671 132.52 156.671 138.326 156.671H138.348H359.296C374.029 156.671 390.435 172.413 390.435 186.299V187.261H138.348C132.531 187.261 124.53 191.669 124.53 197.151C124.53 202.621 132.531 203.743 138.348 203.743H390.435V314.289C390.435 328.163 374.029 343.904 359.296 343.904H139.368C124.635 343.904 109.333 328.163 109.333 314.289V185.313C109.333 179.831 107.94 175.397 102.137 175.397C96.3207 175.397 91.6172 179.831 91.6172 185.313V314.289C91.6172 339.115 113.042 359.295 139.368 359.295H359.296C385.622 359.295 407.06 339.115 407.06 314.289V186.299C407.06 161.473 385.622 141.28 359.296 141.28ZM353.161 282.744C358.964 282.744 363.681 278.311 363.681 272.841C363.681 267.346 358.964 262.938 353.161 262.938H248.822C243.005 262.938 238.302 267.346 238.302 272.841C238.302 278.311 243.005 282.744 248.822 282.744H353.161ZM150.698 254.17H189.914V291.5H150.698V254.17ZM197.109 308.02C202.926 308.02 207.629 303.586 207.629 298.092V247.565C207.629 242.096 202.926 237.65 197.109 237.65H143.502C137.685 237.65 132.995 242.096 132.995 247.565V298.092C132.995 303.586 137.685 308.02 143.502 308.02H197.109Z" fill="black" />
		<path d="M359.296 141.28H138.348C132.531 141.28 127.841 145.714 127.841 151.196C127.841 156.671 132.52 156.671 138.326 156.671H138.348H359.296C374.029 156.671 390.435 172.413 390.435 186.299V187.261H138.348C132.531 187.261 124.53 191.669 124.53 197.151C124.53 202.621 132.531 203.743 138.348 203.743H390.435V314.289C390.435 328.163 374.029 343.904 359.296 343.904H139.368C124.635 343.904 109.333 328.163 109.333 314.289V185.313C109.333 179.831 107.94 175.397 102.137 175.397C96.3207 175.397 91.6172 179.831 91.6172 185.313V314.289C91.6172 339.115 113.042 359.295 139.368 359.295H359.296C385.622 359.295 407.06 339.115 407.06 314.289V186.299C407.06 161.473 385.622 141.28 359.296 141.28ZM353.161 282.744C358.964 282.744 363.681 278.311 363.681 272.841C363.681 267.346 358.964 262.938 353.161 262.938H248.822C243.005 262.938 238.302 267.346 238.302 272.841C238.302 278.311 243.005 282.744 248.822 282.744H353.161ZM150.698 254.17H189.914V291.5H150.698V254.17ZM197.109 308.02C202.926 308.02 207.629 303.586 207.629 298.092V247.565C207.629 242.096 202.926 237.65 197.109 237.65H143.502C137.685 237.65 132.995 242.096 132.995 247.565V298.092C132.995 303.586 137.685 308.02 143.502 308.02H197.109Z" stroke="black" />
		<path d="M243.93 273.179H358.725" stroke="#4045A1" stroke-width="18" stroke-linecap="round" />
	</g>
	<defs>
		<clipPath id="clip0_1580_750">
			<rect width="500" height="500" rx="250" fill="white" />
		</clipPath>
	</defs>
</svg>
