<svg width="500" height="500" viewBox="0 0 500 500" fill="none" xmlns="http://www.w3.org/2000/svg">
	<circle cx="250" cy="250" r="234" fill="white" stroke="white" stroke-width="32" />
	<rect x="130.234" y="136.088" width="238.278" height="221.606" rx="25.0088" fill="#FEF4E8" />
	<path d="M111.194 339.245C110.802 337.508 112.123 335.855 113.904 335.855H384.824C386.896 335.855 388.239 338.042 387.303 339.89L376.924 360.374C376.448 361.313 375.483 361.903 374.431 361.897L118.197 360.529C116.904 360.522 115.786 359.623 115.501 358.361L111.194 339.245Z" fill="#FEF4E8" />
	<path d="M130.531 309.674C130.531 309.674 130.533 176.339 130.531 159.823C130.53 143.308 136.67 135.762 154.593 135.762C172.516 135.762 316.414 135.762 337.65 135.762C358.886 135.762 368.317 143.782 368.317 159.823C368.317 175.865 368.317 309.674 368.317 309.674" stroke="black" stroke-width="15.9811" stroke-linecap="round" />
	<path d="M186.678 334.261C186.678 334.261 131.951 334.262 114.965 334.261C97.9785 334.259 116.856 364.927 127.703 364.928C138.551 364.928 348.5 364.928 360.771 364.928C373.041 364.928 401.341 334.26 388.607 334.261C375.872 334.261 309.345 334.261 309.345 334.261" stroke="black" stroke-width="16.9799" stroke-linecap="round" />
	<path d="M208.102 334.191L287.649 334.191" stroke="black" stroke-width="16.9799" />
	<path d="M187.891 294.954V251.883" stroke="#4045A1" stroke-width="33.345" stroke-linecap="square" />
	<path d="M251.109 294.954V207.423" stroke="#4045A1" stroke-width="33.345" stroke-linecap="square" />
	<path d="M313.648 294.954V233.127" stroke="#4045A1" stroke-width="33.345" stroke-linecap="square" />
</svg>
