<svg width="500" height="500" viewBox="0 0 500 500" fill="none" xmlns="http://www.w3.org/2000/svg">
	<g clip-path="url(#clip0_1580_732)">
		<circle cx="250" cy="250" r="235.5" fill="white" stroke="white" stroke-width="29" />
		<path d="M333.023 251.087C333.023 307.204 261.014 354.021 249.528 395.547C241.134 353.137 169.125 307.204 169.125 251.087C169.125 194.971 201.463 160.966 249.528 160.966C297.593 160.966 333.023 194.971 333.023 251.087Z" fill="#FEF4E8" />
		<path d="M224.36 309.618C223.932 309.615 223.516 309.537 223.112 309.383C222.707 309.228 222.335 309.005 221.997 308.715C221.813 308.563 221.641 308.395 221.484 308.21C221.327 308.025 221.187 307.825 221.062 307.611C220.938 307.398 220.831 307.174 220.743 306.939C220.656 306.704 220.588 306.463 220.54 306.213C220.491 305.965 220.464 305.714 220.456 305.461C220.45 305.206 220.463 304.953 220.497 304.703C220.531 304.452 220.585 304.205 220.66 303.964C220.734 303.725 220.827 303.494 220.939 303.272L220.957 303.236L244.144 257.862H222.037C221.656 257.862 221.283 257.8 220.919 257.678C220.554 257.555 220.214 257.378 219.896 257.146C219.579 256.912 219.299 256.634 219.056 256.309C218.813 255.986 218.618 255.63 218.469 255.242C218.321 254.854 218.227 254.451 218.186 254.033C218.146 253.614 218.16 253.198 218.231 252.785C218.301 252.372 218.423 251.977 218.598 251.603C218.774 251.23 218.994 250.892 219.259 250.59L266.361 193.222L266.428 193.143C266.587 192.967 266.758 192.809 266.941 192.667C267.125 192.524 267.318 192.402 267.522 192.296C267.724 192.191 267.934 192.105 268.151 192.041C268.367 191.975 268.587 191.931 268.81 191.908C269.033 191.886 269.257 191.884 269.48 191.904C269.704 191.924 269.925 191.965 270.141 192.028C270.359 192.089 270.569 192.172 270.774 192.275C270.977 192.377 271.172 192.498 271.357 192.638C271.542 192.778 271.716 192.935 271.875 193.108C272.036 193.281 272.182 193.468 272.313 193.669C272.445 193.869 272.56 194.082 272.657 194.304C272.755 194.528 272.835 194.759 272.897 194.997C272.959 195.235 273.001 195.477 273.025 195.724C273.049 195.97 273.053 196.217 273.039 196.465C273.023 196.711 272.989 196.955 272.936 197.196C272.883 197.437 272.811 197.671 272.721 197.899L272.694 197.964L254.379 240.294H273.831C274.098 240.294 274.363 240.317 274.627 240.36C274.89 240.403 275.15 240.467 275.406 240.552C275.661 240.638 275.908 240.742 276.15 240.867C276.391 240.993 276.623 241.137 276.845 241.299C277.068 241.463 277.278 241.643 277.476 241.839C277.674 242.036 277.859 242.248 278.029 242.475C278.199 242.702 278.353 242.94 278.493 243.192C278.63 243.443 278.751 243.705 278.856 243.976C278.96 244.246 279.045 244.526 279.112 244.811C279.18 245.096 279.228 245.384 279.257 245.677C279.286 245.97 279.295 246.263 279.285 246.558C279.275 246.853 279.246 247.144 279.197 247.435C279.148 247.724 279.081 248.008 278.995 248.287C278.909 248.565 278.804 248.836 278.682 249.098C278.559 249.359 278.42 249.61 278.266 249.849C278.11 250.088 277.94 250.314 277.754 250.526L227.082 308.334L227.024 308.398C226.669 308.784 226.26 309.082 225.799 309.293C225.339 309.504 224.859 309.612 224.36 309.618ZM223.073 253.15L244.345 253.442C244.513 253.442 244.679 253.455 244.845 253.478C245.01 253.502 245.174 253.537 245.336 253.584C245.497 253.631 245.656 253.69 245.81 253.76C245.965 253.83 245.665 252.171 245.81 252.262C245.956 252.353 246.545 254.194 246.679 254.306C246.679 252.785 274.836 243.022 274.956 243.152C275.076 243.282 275.187 243.418 275.29 243.564C275.394 243.709 275.488 243.86 275.573 244.018C275.659 244.178 275.735 244.342 275.801 244.512C275.868 244.681 275.925 244.855 275.97 245.032C276.016 245.21 276.052 245.389 276.077 245.572C276.103 245.754 276.117 245.938 276.121 246.123C276.123 246.307 276.117 246.491 276.099 246.675C276.081 246.859 276.052 247.041 276.012 247.221C275.974 247.399 275.923 247.576 275.864 247.748C275.805 247.921 275.735 248.089 275.655 248.251L275.637 248.287L224.904 304.487L274.88 247.456C274.98 247.342 275.064 247.215 275.13 247.073C275.197 246.932 275.243 246.783 275.269 246.627C275.296 246.47 275.301 246.313 275.286 246.155C275.27 245.997 275.234 245.844 275.178 245.697C275.122 245.551 275.047 245.417 274.956 245.294C274.863 245.171 274.757 245.066 274.638 244.978C274.517 244.891 274.388 244.824 274.25 244.778C274.112 244.732 245.48 254.666 245.336 254.666H225.7C225.539 254.666 225.379 254.655 225.221 254.633C225.061 254.611 224.904 254.578 224.748 254.535C224.592 254.491 224.44 254.437 224.29 254.373C224.141 254.308 223.995 254.234 223.854 254.149C223.713 254.065 223.577 253.971 223.446 253.868C223.315 253.765 223.191 253.653 223.073 253.533C222.954 253.413 222.844 253.285 222.74 253.15C222.74 253.15 222.541 252.873 222.453 252.724C222.364 252.575 222.286 252.421 222.215 252.262C222.144 252.102 222.083 251.94 222.031 251.772C221.979 251.603 221.937 251.432 221.903 251.26C221.871 251.086 221.848 250.911 221.833 250.734C221.821 250.557 221.818 250.379 221.824 250.202C221.831 250.026 221.848 249.849 221.873 249.674C221.9 249.498 221.937 249.326 221.982 249.156C222.028 248.987 222.083 248.82 222.148 248.658L222.175 248.591L268.719 196.924L223.073 253.15Z" fill="#4045A1" />
		<path d="M211.977 348.278H289.729V380.085L274.708 391.13H251.294H228.764L211.977 380.085V348.278Z" fill="#FEF4E8" />
		<path d="M249.444 150.278C225.265 150.583 202.574 160.81 185.553 179.067C168.52 197.338 159.144 221.555 159.144 247.249C159.144 276.33 171.288 303.622 192.47 322.13C199.153 327.973 202.987 336.631 202.987 345.898V370.108C202.987 388.689 217.24 403.81 234.755 403.81H266.358C283.871 403.81 298.126 388.689 298.126 370.108V345.898C298.126 336.655 302.012 327.949 308.786 322.002C330.289 303.136 342.382 275.338 341.958 245.742C341.196 192.462 299.702 149.628 249.444 150.278ZM266.358 390.427H234.755C225.218 390.427 217.292 382.999 215.836 373.313H285.276C283.821 383.004 275.893 390.427 266.358 390.427ZM285.517 359.936H215.596V352.58H285.517V359.936ZM300.75 311.691C292.721 318.738 287.534 328.52 285.998 339.204H215.115C213.59 328.503 208.455 318.762 200.488 311.801C182.229 295.846 171.758 272.317 171.758 247.242C171.758 201.692 206.678 164.196 249.6 163.648C249.92 163.643 250.235 163.643 250.556 163.643C293.443 163.643 328.707 200.354 329.36 245.942C329.716 271.46 319.291 295.422 300.75 311.691ZM244.252 129.874V104.921C244.252 101.226 247.072 98.2339 250.556 98.2339C254.041 98.2339 256.861 101.226 256.861 104.921V129.874C256.861 133.571 254.041 136.562 250.556 136.562C247.072 136.562 244.252 133.571 244.252 129.874ZM297.41 141.992L309.169 120.383C310.912 117.184 314.769 116.091 317.784 117.933C320.797 119.781 321.829 123.873 320.092 127.072L308.333 148.679C307.163 150.826 305.043 152.023 302.865 152.023C301.793 152.023 300.711 151.731 299.718 151.124C296.705 149.281 295.673 145.189 297.41 141.992ZM364.413 179.791L344.044 192.267C343.053 192.876 341.969 193.167 340.897 193.167C338.72 193.167 336.599 191.969 335.429 189.823C333.688 186.625 334.726 182.533 337.739 180.685L358.108 168.209C361.128 166.36 364.98 167.461 366.723 170.659C368.459 173.851 367.426 177.943 364.413 179.791ZM384.254 242.269C384.254 245.966 381.434 248.958 377.95 248.958H354.429C350.944 248.958 348.124 245.966 348.124 242.269C348.124 238.572 350.944 235.582 354.429 235.582H377.95C381.428 235.582 384.254 238.572 384.254 242.269ZM180.745 125.965C179.001 122.766 180.039 118.674 183.055 116.826C186.068 114.977 189.926 116.079 191.668 119.276L203.429 140.885C205.17 144.082 204.134 148.174 201.119 150.022C200.128 150.631 199.044 150.923 197.972 150.923C195.795 150.923 193.674 149.726 192.504 147.579L180.745 125.965ZM159.183 191.251C158.112 191.251 157.029 190.96 156.038 190.351L135.668 177.876C132.653 176.027 131.622 171.935 133.358 168.737C135.102 165.54 138.958 164.445 141.973 166.286L162.341 178.764C165.356 180.612 166.387 184.704 164.651 187.901C163.481 190.055 161.361 191.251 159.183 191.251ZM150.919 240.062C150.919 243.759 148.099 246.751 144.614 246.751H121.094C117.609 246.751 114.789 243.759 114.789 240.062C114.789 236.365 117.609 233.375 121.094 233.375H144.614C148.094 233.375 150.919 236.372 150.919 240.062Z" fill="black" />
	</g>
	<defs>
		<clipPath id="clip0_1580_732">
			<rect width="500" height="500" rx="250" fill="white" />
		</clipPath>
	</defs>
</svg>
