<svg width="500" height="500" viewBox="0 0 500 500" fill="none" xmlns="http://www.w3.org/2000/svg">
	<g clip-path="url(#clip0_1580_874)">
		<circle cx="250" cy="250" r="235.5" fill="white" stroke="white" stroke-width="29" />
		<path d="M302.438 277.155C303.999 274.912 306.504 273.513 309.232 273.359L338.999 271.685L373.675 273.602L378.83 279.208C379.31 279.73 379.726 280.308 380.069 280.93L387.742 294.838C388.158 295.592 388.681 296.281 389.295 296.884L404.138 311.466C405.715 313.015 406.658 315.095 406.783 317.302L408.94 355.422L403.547 360.384C402.09 361.725 400.227 362.54 398.253 362.701L378.512 364.312C378.031 364.351 377.548 364.351 377.067 364.312L354.28 362.453L307.261 361.814L276.111 362.453L271.047 325.133C270.897 324.028 270.957 322.905 271.222 321.822L272.628 316.09C272.984 314.635 273.703 313.295 274.716 312.192L288.452 297.253L302.438 277.155Z" fill="#FEF4E8" />
		<rect x="124.477" y="158.543" width="81.1075" height="210.941" rx="8.88462" fill="#FEF4E8" />
		<mask id="mask0_1580_874" style="mask-type:luminance" maskUnits="userSpaceOnUse" x="115" y="157" width="97" height="215">
			<path d="M117.97 160.745H208.417V368.634H117.97V160.745Z" fill="white" stroke="white" stroke-width="5.70575" />
		</mask>
		<g mask="url(#mask0_1580_874)">
			<path d="M205.889 368.571H121.611V164.312H205.889V368.571ZM145.642 340.796H181.872C184.958 340.796 187.094 338.154 187.094 335.367C187.094 332.58 184.958 329.937 181.872 329.937H145.642C142.556 329.937 140.42 332.58 140.42 335.367C140.42 338.154 142.556 340.796 145.642 340.796ZM145.642 318.408H181.872C184.958 318.408 187.094 315.765 187.094 312.978C187.094 310.191 184.958 307.549 181.872 307.549H145.642C142.556 307.549 140.42 310.191 140.42 312.978C140.42 315.765 142.556 318.408 145.642 318.408ZM145.642 296.004H181.872C184.958 296.004 187.094 293.361 187.094 290.574C187.094 287.815 184.969 285.144 181.872 285.144H145.642C142.545 285.144 140.42 287.815 140.42 290.574C140.42 293.361 142.556 296.004 145.642 296.004ZM142.319 177.837C139.194 177.837 137.097 180.475 137.097 183.266V237.407C137.097 240.116 139.162 242.837 142.319 242.837H185.224C188.306 242.837 190.446 240.151 190.446 237.407V210.337V183.266C190.446 180.44 188.273 177.837 185.224 177.837H142.319Z" fill="#020202" stroke="black" stroke-width="5.70575" />
		</g>
		<mask id="mask1_1580_874" style="mask-type:luminance" maskUnits="userSpaceOnUse" x="110" y="129" width="109" height="29">
			<path d="M110.375 129.139H218.647V157.891H110.375V129.139Z" fill="white" />
		</mask>
		<g mask="url(#mask1_1580_874)">
			<path d="M210.009 129.201H117.482C113.568 129.201 110.375 132.673 110.375 136.947V148.557C110.375 152.831 113.568 156.287 117.482 156.287H210.009C213.938 156.287 217.131 152.831 217.131 148.557V136.947C217.131 132.673 213.938 129.201 210.009 129.201Z" fill="black" />
		</g>
		<mask id="mask2_1580_874" style="mask-type:luminance" maskUnits="userSpaceOnUse" x="218" y="262" width="31" height="110">
			<path d="M218.664 262.465H248.249V371.486H218.664V262.465Z" fill="white" />
		</mask>
		<g mask="url(#mask2_1580_874)">
			<path d="M228.881 264.713C224.735 266.771 222.062 271.327 222.062 276.339V368.831C222.062 370.261 223.117 371.423 224.432 371.423H242.764C244.078 371.423 245.133 370.261 245.133 368.831V276.339C245.133 272.977 243.905 269.693 241.796 267.336C238.516 263.597 232.825 262.592 228.881 264.713Z" fill="black" />
		</g>
		<path d="M234.18 258.49C238.412 258.647 242.443 260.611 245.188 263.8C248.12 267.052 249.839 271.64 249.839 276.338V277.312L267.507 257.673L263.635 225.763L234.18 258.49Z" fill="black" />
		<mask id="mask3_1580_874" style="mask-type:luminance" maskUnits="userSpaceOnUse" x="296" y="165" width="38" height="58">
			<path d="M296.305 165.937H333.185V222.246H296.305V165.937Z" fill="white" />
		</mask>
		<g mask="url(#mask3_1580_874)">
			<path d="M332.696 180.012C332.696 176.571 331.468 173.319 329.33 170.994C327.105 168.574 324.216 167.176 321.124 167.176H321.081C318.004 167.239 315.115 168.574 312.934 170.994L296.422 189.329L300.293 221.254L329.33 188.983C331.511 186.563 332.696 183.374 332.696 180.012Z" fill="black" />
		</g>
		<path d="M267.867 221.083L271.739 253.008L296.095 225.938L292.223 194.013L267.867 221.083Z" fill="black" />
		<mask id="mask4_1580_874" style="mask-type:luminance" maskUnits="userSpaceOnUse" x="268" y="270" width="143" height="98">
			<path d="M268.812 270.29H410.6V367.857H268.812V270.29Z" fill="white" />
		</mask>
		<g mask="url(#mask4_1580_874)">
			<path fill-rule="evenodd" clip-rule="evenodd" d="M339.628 270.322C328.49 270.353 317.366 270.824 306.575 271.657C295.885 281.32 293.704 286.819 289.659 294.674C287.81 294.768 289.5 290.244 288.186 289.882C284.213 288.751 280.5 290.228 279.402 291.202C278.651 291.799 278.651 292.71 278.622 293.512C278.492 296.025 280.313 297.911 284.877 297.691C285.556 295.79 286.885 295.538 288.272 295.444C287.059 295.853 285.571 296.01 285.643 297.644C287.275 297.502 287.969 297.848 288.662 298.021C287.304 299.78 285.311 301.964 284.054 304.274C283.982 303.048 285.629 301.006 286.582 299.859C279.07 304.447 274.881 310.307 271.226 314.47C269.796 319.435 268.828 324.4 268.929 329.365C269.796 330.637 270.822 331.486 272.656 331.941C271.154 331.8 269.767 331.658 268.929 330.386L269.868 350.528C271.139 350.748 272.743 351.47 273.581 352.68C272.801 352.492 270.966 350.952 269.955 351.172C269.478 355.005 269.911 358.383 270.374 361.745C270.533 364.888 273.378 367.747 274.953 367.81L293.198 367.527C294.513 367.606 294.542 365.988 294.484 365.39C291.884 365.689 290.049 365.123 288.72 364.636C296.261 365.171 305.102 364.856 313.134 364.856C323.217 362.374 330.83 363.882 339.729 363.411C348.627 363.882 356.226 362.374 366.309 364.856C374.341 364.856 383.182 365.171 390.723 364.636C389.394 365.123 387.574 365.689 384.959 365.39C384.916 365.988 384.93 367.606 386.245 367.527L404.49 367.81C406.065 367.747 408.911 364.888 409.069 361.745C409.546 358.383 409.965 355.005 409.503 351.172C408.477 350.952 406.657 352.492 405.877 352.68C406.7 351.47 408.304 350.748 409.589 350.528L410.514 330.386C409.676 331.658 408.289 331.8 406.787 331.941C408.636 331.486 409.647 330.637 410.514 329.365C410.615 324.4 409.647 319.435 408.232 314.47C404.562 310.307 400.373 304.447 392.875 299.859C393.814 301.006 395.476 303.048 395.389 304.274C394.147 301.964 392.139 299.78 390.795 298.021C391.489 297.848 392.168 297.502 393.8 297.644C393.887 296.01 392.384 295.853 391.171 295.444C392.572 295.538 393.901 295.79 394.566 297.691C399.131 297.911 400.965 296.025 400.835 293.512C400.792 292.71 400.792 291.799 400.041 291.202C398.957 290.228 395.23 288.751 391.258 289.882C389.943 290.244 391.633 294.768 389.784 294.674C385.739 286.819 383.572 281.32 372.868 271.657C361.947 270.715 350.78 270.306 339.628 270.322ZM308.265 271.846C307.355 272.286 306.229 273.15 306.156 274.03C327.493 271.736 351.82 271.186 373.287 274.03C373.215 273.15 372.088 272.286 371.192 271.846C375.526 272.726 384.858 289.474 387.328 294.548C354.68 292.286 321.498 292.475 292.115 294.548C294.585 289.474 303.917 272.726 308.265 271.846ZM295.553 304.619C296.492 306.756 298.067 310.762 299.526 314.376C302.848 314.439 305.333 314.753 308.005 315.02L307.847 315.696C305.058 315.413 302.473 315.02 299.309 314.926C298.067 311.501 296.81 308.154 295.553 304.619ZM383.89 304.619C382.633 308.154 381.391 311.501 380.134 314.926C376.985 315.02 374.399 315.413 371.611 315.696L371.452 315.02C374.11 314.753 376.595 314.439 379.917 314.376C381.377 310.762 382.951 306.756 383.89 304.619ZM281.887 311.674C282.581 311.689 283.288 311.784 284.025 311.972C287.492 313.166 289.977 314.565 298.182 314.832L304.177 327.699C308.858 337.11 309.436 347.794 318.219 355.917C324.951 357.692 331.986 357.299 338.934 357.598C339.064 357.598 339.209 357.598 339.353 357.598L339.223 357.613C339.122 357.613 339.021 357.613 338.934 357.598C331.798 357.598 324.806 358.32 317.381 356.639C308.005 346.301 308.179 337.692 303.585 328.218C274.491 327.086 274.043 324.086 273.465 323.284C272.887 322.483 272.382 321.556 273.508 313.842C276.268 312.962 278.897 311.611 281.887 311.674ZM397.556 311.674C400.546 311.611 403.19 312.962 405.935 313.842C407.076 321.556 406.556 322.483 405.978 323.284C405.4 324.086 404.952 327.086 375.858 328.218C371.264 337.692 371.438 346.301 362.077 356.639C354.637 358.32 347.645 357.598 340.523 357.598C340.422 357.613 340.321 357.613 340.234 357.613L340.104 357.598C340.234 357.598 340.379 357.598 340.523 357.598C347.457 357.299 354.493 357.692 361.224 355.917C370.022 347.794 370.585 337.11 375.266 327.699L381.261 314.832C389.481 314.565 391.951 313.166 395.418 311.972C396.155 311.784 396.863 311.689 397.556 311.674ZM320.805 312.208C326.265 312.271 332.318 312.946 336.161 313.433C336.984 313.528 337.013 315.036 337.822 315.052C338.183 315.052 338.14 315.759 338.198 316.073C338.27 318.43 339.989 331.03 335.612 331.8C331.206 331.957 323.939 332.193 319.302 331.737C306.257 330.637 308.208 316.261 309.089 314.69C310.519 312.711 315.358 312.161 320.805 312.208ZM358.624 312.208C364.085 312.161 368.924 312.711 370.354 314.69C371.221 316.261 373.186 330.637 360.141 331.737C355.504 332.193 348.237 331.957 343.831 331.8C339.454 331.03 341.173 318.43 341.246 316.073C341.303 315.759 341.26 315.052 341.621 315.052C342.43 315.036 342.445 313.528 343.282 313.433C347.125 312.946 353.178 312.271 358.624 312.208ZM277.669 314.722C276.773 315.884 276.325 317.251 276.325 318.791C276.325 319.624 276.455 320.425 276.744 321.195C277.033 321.965 277.438 322.64 277.958 323.237C278.492 323.819 279.099 324.274 279.778 324.588C280.471 324.903 281.179 325.075 281.93 325.075C283.086 325.06 284.155 324.698 285.109 323.96C286.062 323.222 286.741 322.232 287.16 321.022C286.048 322.483 284.617 323.222 282.898 323.222C282.162 323.222 281.439 323.064 280.76 322.734C280.067 322.42 279.46 321.965 278.94 321.383C278.406 320.786 278.001 320.111 277.727 319.341C277.438 318.571 277.293 317.77 277.293 316.937C277.293 316.167 277.423 315.429 277.669 314.722ZM401.774 314.722C402.02 315.429 402.15 316.167 402.15 316.937C402.15 317.77 402.005 318.571 401.716 319.341C401.442 320.111 401.023 320.786 400.503 321.383C399.983 321.965 399.376 322.42 398.683 322.734C398.004 323.064 397.282 323.222 396.545 323.222C394.811 323.222 393.396 322.483 392.283 321.022C392.688 322.232 393.381 323.222 394.335 323.96C395.288 324.698 396.357 325.06 397.513 325.075C398.264 325.075 398.972 324.903 399.665 324.588C400.344 324.274 400.951 323.819 401.485 323.237C402.005 322.64 402.41 321.965 402.699 321.195C402.973 320.425 403.118 319.624 403.118 318.791C403.118 317.251 402.67 315.884 401.774 314.722ZM309.97 315.633C309.566 317.251 310.216 322.734 311.675 324.494C311.761 324.573 311.848 324.636 311.935 324.714L311.429 315.712C310.952 315.68 310.461 315.664 309.97 315.633ZM369.473 315.633C368.982 315.664 368.491 315.68 368.014 315.712L367.508 324.714C367.595 324.636 367.682 324.573 367.768 324.494C369.227 322.734 369.878 317.251 369.473 315.633ZM311.92 315.743L312.44 325.138C312.946 325.515 313.495 325.861 314.087 326.175L313.524 315.837C312.989 315.806 312.455 315.774 311.92 315.743ZM367.523 315.743C366.988 315.774 366.454 315.806 365.919 315.837L365.356 326.175C365.948 325.861 366.497 325.515 367.003 325.138L367.523 315.743ZM314.015 315.869L314.593 326.427C315.098 326.678 315.647 326.898 316.211 327.086L315.647 315.963C315.113 315.931 314.564 315.9 314.015 315.869ZM365.428 315.869C364.879 315.9 364.33 315.931 363.796 315.963L363.232 327.086C363.796 326.898 364.345 326.678 364.85 326.427L365.428 315.869ZM316.139 315.994L316.702 327.259C317.222 327.432 317.771 327.574 318.32 327.715L317.771 316.073C317.236 316.057 316.687 316.026 316.139 315.994ZM363.305 315.994C362.756 316.026 362.207 316.057 361.672 316.073L361.123 327.715C361.672 327.574 362.221 327.432 362.741 327.259L363.305 315.994ZM318.262 316.104L318.811 327.825C319.346 327.951 319.909 328.045 320.472 328.139L319.894 316.183C319.36 316.151 318.811 316.136 318.262 316.104ZM361.181 316.104C360.632 316.136 360.083 316.151 359.549 316.183L358.971 328.139C359.534 328.045 360.098 327.951 360.632 327.825L361.181 316.104ZM336.984 316.151C336.522 316.183 336.045 316.214 335.568 316.246L336.132 328.123C337.865 326.819 337.779 318.021 336.984 316.151ZM342.459 316.151C341.665 318.021 341.578 326.819 343.311 328.123L343.875 316.246C343.398 316.214 342.921 316.183 342.459 316.151ZM320.4 316.199L320.963 328.218C321.527 328.296 322.076 328.375 322.654 328.438L322.076 316.277C321.512 316.246 320.963 316.23 320.4 316.199ZM359.043 316.199C358.48 316.23 357.931 316.246 357.367 316.277L356.789 328.438C357.367 328.375 357.916 328.296 358.48 328.218L359.043 316.199ZM335.077 316.293C334.528 316.324 333.979 316.34 333.416 316.356L333.979 328.438C334.543 328.406 335.106 328.343 335.641 328.296L335.077 316.293ZM344.366 316.293L343.803 328.296C344.337 328.359 344.9 328.406 345.464 328.438L346.027 316.356C345.464 316.34 344.915 316.324 344.366 316.293ZM322.567 316.293L323.145 328.485C323.708 328.532 324.257 328.579 324.821 328.61L324.243 316.34C323.694 316.324 323.13 316.309 322.567 316.293ZM356.876 316.293C356.313 316.309 355.749 316.324 355.2 316.34L354.623 328.61C355.186 328.579 355.735 328.532 356.298 328.485L356.876 316.293ZM324.748 316.356L325.326 328.626C325.875 328.658 326.438 328.673 327.002 328.673L326.41 316.403C325.861 316.387 325.297 316.371 324.748 316.356ZM354.695 316.356C354.146 316.371 353.582 316.387 353.034 316.403L352.441 328.673C353.005 328.673 353.568 328.658 354.117 328.626L354.695 316.356ZM332.91 316.387C332.376 316.403 331.812 316.403 331.249 316.419L331.827 328.579C332.39 328.548 332.939 328.516 333.488 328.485L332.91 316.387ZM346.533 316.387L345.955 328.485C346.504 328.516 347.053 328.548 347.616 328.579L348.194 316.419C347.631 316.403 347.067 316.403 346.533 316.387ZM326.915 316.403L327.493 328.689C328.056 328.689 328.605 328.673 329.169 328.673L328.576 316.434C328.028 316.434 327.479 316.419 326.915 316.403ZM352.528 316.403C351.965 316.419 351.416 316.434 350.867 316.434L350.274 328.673C350.838 328.673 351.387 328.689 351.95 328.689L352.528 316.403ZM330.743 316.419C330.209 316.434 329.645 316.434 329.082 316.434L329.66 328.673C330.223 328.658 330.772 328.642 331.321 328.61L330.743 316.419ZM348.7 316.419L348.122 328.61C348.671 328.642 349.22 328.658 349.783 328.673L350.361 316.434C349.798 316.434 349.234 316.434 348.7 316.419ZM293.415 321.1C292.924 321.745 292.678 322.483 292.678 323.331C292.678 324.274 292.982 325.091 293.574 325.751C294.166 326.427 294.889 326.757 295.741 326.757C296.376 326.757 296.954 326.552 297.474 326.16C298.009 325.751 298.37 325.217 298.601 324.557C297.994 325.358 297.214 325.751 296.275 325.751C295.423 325.751 294.701 325.421 294.108 324.745C293.502 324.086 293.213 323.269 293.213 322.326C293.213 321.902 293.285 321.493 293.415 321.1ZM386.028 321.1C386.173 321.493 386.23 321.902 386.23 322.326C386.23 323.269 385.941 324.086 385.335 324.745C384.742 325.421 384.02 325.751 383.168 325.751C382.229 325.751 381.449 325.358 380.842 324.557C381.073 325.217 381.449 325.751 381.969 326.16C382.489 326.552 383.067 326.757 383.702 326.757C384.555 326.757 385.277 326.427 385.869 325.751C386.476 325.091 386.765 324.274 386.765 323.331C386.765 322.483 386.519 321.745 386.028 321.1ZM286.293 345.846C290.945 345.83 297.373 346.223 306.344 346.945L306.041 347.401C304.163 347.495 289.688 345.39 280.876 346.977C282.176 347.543 282.855 348.909 282.855 350.496C282.855 352.586 281.035 354.298 278.796 354.298C278.088 354.298 277.394 354.126 276.788 353.78C277.264 354.016 277.784 354.141 278.305 354.141C280.313 354.141 281.945 352.476 281.945 350.418C281.945 349.004 281.179 347.778 280.038 347.15C277.221 347.762 275.098 348.799 274.361 350.496C274.274 350.732 274.202 350.983 274.13 351.25C274.173 350.983 274.26 350.732 274.361 350.496C275.473 347.26 278.059 345.893 286.293 345.846ZM393.15 345.846C401.399 345.893 403.984 347.26 405.097 350.496C405.198 350.732 405.27 350.983 405.328 351.25C405.256 350.983 405.183 350.732 405.097 350.496C404.36 348.799 402.236 347.762 399.42 347.15C398.278 347.778 397.513 349.004 397.513 350.418C397.513 352.476 399.131 354.141 401.139 354.141C401.673 354.141 402.193 354.016 402.67 353.796C402.063 354.126 401.355 354.298 400.647 354.298C398.408 354.298 396.603 352.586 396.603 350.496C396.603 348.909 397.282 347.543 398.582 346.977C389.77 345.39 375.295 347.495 373.402 347.401L373.113 346.945C382.084 346.223 388.513 345.83 393.15 345.846ZM314.896 347.825C330.902 349.302 347.905 349.585 363.868 347.825C362.842 349.931 361.383 352.931 359.202 354.063C354.666 356.042 324.459 356.089 319.562 354.063C317.381 352.931 315.922 349.931 314.896 347.825ZM283.678 349.978L308.381 351.078L309.017 351.942C301.664 350.873 292.563 350.465 283.678 349.978ZM395.779 349.978C386.895 350.465 377.794 350.873 370.426 351.942L371.062 351.078L395.779 349.978ZM308.135 358.383C318.623 359.216 329.125 359.609 339.729 359.373C350.318 359.609 360.834 359.216 371.322 358.383L371.235 358.886C360.863 359.546 350.491 360.033 340.119 359.829C339.989 359.829 339.859 359.829 339.729 359.829C339.599 359.829 339.469 359.829 339.324 359.829C328.952 360.033 318.58 359.546 308.208 358.886L308.121 358.383H308.135ZM276.354 360.677C287.102 361.384 302.646 363.961 308.8 361.557C305.896 365.076 284.213 361.62 276.354 360.677ZM403.103 360.677C395.245 361.62 373.561 365.076 370.643 361.557C376.812 363.961 392.341 361.384 403.103 360.677Z" fill="black" />
		</g>
		<mask id="mask5_1580_874" style="mask-type:luminance" maskUnits="userSpaceOnUse" x="307" y="218" width="64" height="52">
			<path d="M307.148 218.223H370.812V269.897H307.148V218.223Z" fill="white" />
		</mask>
		<g mask="url(#mask5_1580_874)">
			<path d="M307.367 235.489L313.117 241.742C327.404 226.188 350.575 226.188 364.862 241.742L370.612 235.489C353.161 216.494 324.847 216.494 307.367 235.489ZM330.365 260.517L338.989 269.896L347.614 260.517C342.861 255.316 335.132 255.316 330.365 260.517ZM318.866 247.995L324.616 254.264C332.546 245.623 345.432 245.623 353.363 254.264L359.113 247.995C348.018 235.929 329.99 235.929 318.866 247.995Z" fill="#4045A1" />
		</g>
	</g>
	<defs>
		<clipPath id="clip0_1580_874">
			<rect width="500" height="500" rx="250" fill="white" />
		</clipPath>
	</defs>
</svg>
