<svg width="500" height="500" viewBox="0 0 500 500" fill="none" xmlns="http://www.w3.org/2000/svg">
	<g clip-path="url(#clip0_2065_1420)">
		<circle cx="250" cy="250" r="235.5" fill="white" stroke="white" stroke-width="29" />
		<path d="M234.53 204.501C214.108 183.989 193.638 163.526 173.12 143.11C175.352 142.034 176.985 141.263 178.346 140.739C179.879 140.148 180.839 139.963 181.663 139.976C182.486 139.989 183.435 140.204 184.937 140.841C186.479 141.496 188.369 142.49 191.109 143.932L191.112 143.933C218.913 158.537 246.762 173.091 274.608 187.643C275.225 187.969 275.852 188.304 276.506 188.654C274.126 189.584 271.766 190.506 269.421 191.422C257.839 195.947 246.652 200.317 235.493 204.739C235.228 204.842 235.074 204.877 234.999 204.888C234.93 204.847 234.78 204.743 234.53 204.501ZM234.943 204.893C234.943 204.893 234.948 204.892 234.958 204.893C234.947 204.894 234.942 204.893 234.943 204.893ZM235.038 204.91C235.042 204.911 235.044 204.912 235.044 204.912C235.044 204.912 235.042 204.912 235.038 204.91ZM171.72 141.665C171.705 141.644 171.709 141.646 171.722 141.668C171.721 141.667 171.72 141.666 171.72 141.665Z" fill="#4045A1" stroke="black" stroke-width="5.95082" />
		<mask id="mask0_2065_1420" style="mask-type:luminance" maskUnits="userSpaceOnUse" x="31" y="158" width="439" height="165">
			<path d="M33.9754 161.194H466.222V319.79H33.9754V161.194Z" fill="white" stroke="white" stroke-width="5.95082" />
		</mask>
		<g mask="url(#mask0_2065_1420)">
			<path d="M444.76 176.672C449.008 177.464 453.317 178.132 457.567 178.79C459.717 179.123 461.853 179.454 463.957 179.798L463.964 179.799C464.037 179.811 464.107 179.822 464.174 179.833C464.578 179.897 464.893 179.947 465.202 180.014C465.55 180.089 465.767 180.162 465.906 180.226C465.986 180.262 466.022 180.288 466.034 180.298C466.044 180.314 466.064 180.354 466.087 180.432C466.093 180.457 466.097 180.474 466.098 180.485C466.091 180.504 466.074 180.547 466.033 180.618C465.956 180.751 465.826 180.934 465.598 181.201C465.429 181.398 465.266 181.576 465.065 181.794C464.972 181.895 464.872 182.004 464.76 182.127L464.753 182.135C449.434 199.089 430.926 211.595 410.55 221.92C391.392 231.624 371.989 240.393 351.673 246.751C340.913 250.079 330.095 253.208 318.973 256.426C316.416 257.165 313.843 257.91 311.251 258.662C312.687 255.83 314.028 253.201 315.385 250.554L315.391 250.542C317.219 246.936 318.017 242.415 314.846 238.325L314.834 238.31L314.823 238.296C313.325 236.414 311.453 235.133 309.256 234.571C307.101 234.02 304.874 234.221 302.713 234.873C291.099 238.266 279.49 241.613 267.875 244.963C262.064 246.638 256.251 248.314 250.436 249.997C248.406 250.582 246.388 251.173 244.375 251.763C238.666 253.437 233.005 255.096 227.272 256.547L227.259 256.55L227.246 256.553C224.661 257.233 222.321 258.332 220.465 260.147C218.586 261.984 217.413 264.349 216.832 267.191L216.83 267.199L216.828 267.208C216.356 269.59 215.786 271.956 215.2 274.39L215.112 274.754C214.5 277.295 213.876 279.909 213.375 282.562L213.37 282.588L213.366 282.613C213.24 283.352 213.062 283.506 213.056 283.512C213.029 283.538 212.851 283.707 212.12 283.866L212.092 283.872L212.063 283.879L160.493 296.19L160.483 296.193C140.919 300.938 121.354 305.634 101.786 310.331C96.3504 311.616 90.8871 312.896 85.4778 314.076L85.4471 314.083L85.4166 314.09C84.1907 314.385 83.3193 314.261 82.6805 313.971C82.0332 313.677 81.3375 313.081 80.7042 311.935L80.6997 311.927C80.135 310.912 79.9897 310.051 80.0693 309.299C80.1509 308.528 80.494 307.644 81.2691 306.653L81.2795 306.64L81.2898 306.626C81.5591 306.274 81.873 305.911 82.2533 305.48C82.305 305.422 82.3583 305.362 82.4129 305.3C82.7253 304.948 83.0809 304.546 83.4193 304.135C86.2484 300.966 88.4504 298.162 88.6972 294.784C88.9403 291.455 87.2177 288.261 85.0307 284.566L85.0306 284.565C74.0471 266.009 63.1662 247.315 52.181 228.441C50.6443 225.801 49.1056 223.157 47.5642 220.509C50.9702 219.201 54.3392 217.9 57.6491 216.518C57.6625 216.532 57.6763 216.546 57.6907 216.561C57.7469 216.618 57.8037 216.677 57.8715 216.748C57.9364 216.815 58.011 216.893 58.0882 216.971C58.2358 217.122 58.4165 217.301 58.6208 217.484C64.0966 222.535 69.5816 227.573 75.0647 232.609C87.1963 243.751 99.3185 254.885 111.311 266.143C113.749 268.461 116.329 270.13 119.346 270.751C122.377 271.375 125.451 270.86 128.724 269.565L128.725 269.565C189.274 245.598 249.913 221.754 310.551 197.911C326.841 191.505 343.132 185.1 359.42 178.692C376.417 172.04 393.948 169.589 412.052 171.561C412.533 171.616 412.756 171.646 412.909 171.685L413.047 171.721L413.188 171.742L441.935 176.192L442.004 176.203L442.073 176.21C442.661 176.273 443.227 176.381 443.985 176.525C444.222 176.571 444.478 176.619 444.76 176.672ZM444.76 176.672C444.761 176.672 444.761 176.672 444.762 176.672L445.304 173.746L444.758 176.671C444.759 176.671 444.759 176.671 444.76 176.672ZM466.028 180.29C466.028 180.29 466.03 180.292 466.033 180.296C466.03 180.293 466.028 180.29 466.028 180.29Z" fill="#FEF4E8" stroke="black" stroke-width="5.95082" />
		</g>
		<path d="M219.117 350.238L219.119 350.228C222.074 337.482 225.049 324.776 228.024 312.073C230.683 300.717 233.342 289.363 235.985 277.984C236.113 277.436 236.2 277.068 236.301 276.746C236.396 276.441 236.471 276.293 236.518 276.217C236.553 276.162 236.582 276.129 236.641 276.087C236.712 276.037 236.888 275.932 237.26 275.821C250.149 272.247 262.998 268.522 276.159 264.706C279.429 263.758 282.718 262.805 286.032 261.846C284.965 263.967 283.908 266.067 282.859 268.153C279.24 275.347 275.711 282.364 272.139 289.404L272.138 289.407C266.844 299.866 261.535 310.32 256.225 320.775C244.283 344.288 232.337 367.809 220.558 391.418L220.555 391.423C219.428 393.691 218.375 395.081 217.241 395.915C216.19 396.688 214.817 397.166 212.634 397.087C211.041 397.027 209.498 397.209 208.071 397.419C208.053 397.422 208.035 397.425 208.018 397.427C210.638 386.321 213.203 375.401 215.752 364.554C216.876 359.771 217.997 355.002 219.117 350.238Z" fill="#FEF4E8" stroke="black" stroke-width="5.95082" />
	</g>
	<defs>
		<clipPath id="clip0_2065_1420">
			<rect width="500" height="500" rx="250" fill="white" />
		</clipPath>
	</defs>
</svg>
