<svg width="500" height="500" viewBox="0 0 500 500" fill="none" xmlns="http://www.w3.org/2000/svg">
	<g clip-path="url(#clip0_1580_831)">
		<circle cx="250" cy="250" r="235.5" fill="white" stroke="white" stroke-width="29" />
		<path d="M168.32 163.356L201.433 152.318V110.927H252.206H299.667V152.318L333.331 159.492V358.72L305.186 376.38L295.804 387.969L241.168 392.384L202.537 387.969L181.565 367.55L168.32 358.72V163.356Z" fill="#FEF4E8" />
		<path d="M236.342 137.372V132.372H231.342H225.124C224.673 132.372 224.335 132.204 224.134 132.016C223.939 131.835 223.906 131.68 223.906 131.584C223.906 131.489 223.939 131.334 224.134 131.152C224.335 130.965 224.673 130.797 225.124 130.797H225.215H225.306H225.397H225.488H225.58H225.671H225.763H225.854H225.946H226.038H226.13H226.222H226.314H226.406H226.498H226.591H226.683H226.775H226.868H226.961H227.054H227.146H227.239H227.332H227.425H227.519H227.612H227.705H227.799H227.892H227.986H228.08H228.173H228.267H228.361H228.455H228.549H228.643H228.738H228.832H228.926H229.021H229.115H229.21H229.305H229.399H229.494H229.589H229.684H229.779H229.875H229.97H230.065H230.16H230.256H230.351H230.447H230.543H230.638H230.734H230.83H230.926H231.022H231.118H231.214H231.311H231.407H231.503H231.6H231.696H231.793H231.889H231.986H232.083H232.18H232.276H232.373H232.47H232.567H232.665H232.762H232.859H232.956H233.054H233.151H233.249H233.346H233.444H233.541H233.639H233.737H233.835H233.933H234.031H234.129H234.227H234.325H234.423H234.521H234.619H234.718H234.816H234.915H235.013H235.112H235.21H235.309H235.408H235.506H235.605H235.704H235.803H235.902H236.001H236.1H236.199H236.298H236.397H236.496H236.596H236.695H236.794H236.894H236.993H237.093H237.192H237.292H237.391H237.491H237.591H237.691H237.79H237.89H237.99H238.09H238.19H238.29H238.39H238.49H238.59H238.69H238.79H238.89H238.991H239.091H239.191H239.292H239.392H239.492H239.593H239.693H239.794H239.894H239.995H240.096H240.196H240.297H240.398H240.498H240.599H240.7H240.801H240.902H241.002H241.103H241.204H241.305H241.406H241.507H241.608H241.709H241.81H241.911H242.012H242.114H242.215H242.316H242.417H242.518H242.62H242.721H242.822H242.924H243.025H243.126H243.228H243.329H243.43H243.532H243.633H243.735H243.836H243.938H244.039H244.141H244.242H244.344H244.445H244.547H244.648H244.75H244.852H244.953H245.055H245.157H245.258H245.36H245.462H245.563H245.665H245.767H245.868H245.97H246.072H246.173H246.275H246.377H246.479H246.58H246.682H246.784H246.886H246.987H247.089H247.191H247.293H247.395H247.496H247.598H247.7H247.802H247.903H248.005H248.107H248.209H248.31H248.412H248.514H248.616H248.718H248.819H248.921H249.023H249.125H249.226H249.328H249.43H249.531H249.633H249.735H249.836H249.938H250.04H250.142H250.243H250.345H250.446H250.548H250.65H250.751H250.853H250.954H251.056H251.158H251.259H251.361H251.462H251.564H251.665H251.766H251.868H251.969H252.071H252.172H252.274H252.375H252.476H252.577H252.679H252.78H252.881H252.983H253.084H253.185H253.286H253.387H253.488H253.589H253.691H253.792H253.893H253.994H254.095H254.196H254.296H254.397H254.498H254.599H254.7H254.801H254.901H255.002H255.103H255.204H255.304H255.405H255.505H255.606H255.706H255.807H255.907H256.008H256.108H256.208H256.309H256.409H256.509H256.609H256.71H256.81H256.91H257.01H257.11H257.21H257.31H257.41H257.51H257.609H257.709H257.809H257.909H258.008H258.108H258.208H258.307H258.407H258.506H258.605H258.705H258.804H258.903H259.003H259.102H259.201H259.3H259.399H259.498H259.597H259.696H259.795H259.893H259.992H260.091H260.19H260.288H260.387H260.485H260.584H260.682H260.78H260.879H260.977H261.075H261.173H261.271H261.369H261.467H261.565H261.663H261.761H261.858H261.956H262.054H262.151H262.249H262.346H262.444H262.541H262.638H262.735H262.832H262.929H263.027H263.123H263.22H263.317H263.414H263.511H263.607H263.704H263.8H263.897H263.993H264.089H264.186H264.282H264.378H264.474H264.57H264.666H264.761H264.857H264.953H265.048H265.144H265.239H265.335H265.43H265.525H265.621H265.716H265.811H265.906H266H266.095H266.19H266.285H266.379H266.474H266.568H266.662H266.757H266.851H266.945H267.039H267.133H267.227H267.32H267.414H267.508H267.601H267.695H267.788H267.881H267.975H268.068H268.161H268.254H268.346H268.439H268.532H268.624H268.717H268.809H268.902H268.994H269.086H269.178H269.27H269.362H269.454H269.546H269.637H269.729H269.82H269.912H270.003H270.094H270.185H270.276H270.367H270.458H270.548H270.639H270.729H270.82H270.91H271H271.09H271.18H271.27H271.36H271.45H271.539H271.629H271.718H271.808H271.897H271.986H272.075H272.164H272.253H272.341H272.43H272.518H272.607H272.695H272.783H272.871H272.959H273.047H273.135H273.222H273.31H273.397H273.485H273.572H273.659H273.746H273.833H273.92H274.006H274.093H274.179H274.266H274.352H274.438H274.524H274.61H274.695H274.781H274.867C275.317 130.797 275.655 130.965 275.856 131.153C276.052 131.335 276.084 131.489 276.084 131.584C276.084 131.68 276.052 131.834 275.856 132.016C275.655 132.204 275.317 132.372 274.867 132.372H268.649H263.649V137.372V154.733C263.649 154.828 263.616 154.983 263.421 155.165C263.219 155.352 262.881 155.52 262.431 155.52C261.981 155.52 261.643 155.352 261.441 155.165C261.245 154.983 261.213 154.828 261.213 154.733V137.372V132.372H256.213H243.777H238.777V137.372V154.733C238.777 154.829 238.745 154.983 238.55 155.165C238.348 155.352 238.011 155.52 237.56 155.52C237.109 155.52 236.771 155.352 236.57 155.165C236.374 154.983 236.342 154.829 236.342 154.733V137.372Z" fill="#4045A1" stroke="#4045A1" stroke-width="10" />
		<path d="M251.043 218.02L251.044 218.021C252.803 219.981 261.496 229.808 269.721 241.437C273.837 247.257 277.759 253.422 280.633 259.204C283.572 265.119 285.126 270.072 285.126 273.631C285.126 285.289 278.298 295.707 267.988 301.406L275.169 293.254C279.83 287.962 282.691 281.124 282.691 273.631C282.691 270.08 281.36 266.09 279.646 262.286C277.872 258.351 275.424 254.05 272.655 249.708C267.113 241.017 260.046 231.79 253.821 224.387L249.993 219.835L246.167 224.388C239.941 231.794 232.874 241.024 227.331 249.715C224.563 254.056 222.114 258.357 220.341 262.291C218.627 266.093 217.295 270.082 217.295 273.631C217.295 281.124 220.156 287.962 224.817 293.254L231.997 301.406C221.689 295.708 214.859 285.293 214.859 273.631C214.859 270.072 216.413 265.119 219.353 259.204C222.227 253.422 226.149 247.257 230.265 241.438C238.49 229.808 247.183 219.981 248.942 218.021C249.145 217.795 249.505 217.605 249.993 217.605C250.482 217.605 250.842 217.796 251.043 218.02ZM266.439 290.421L267.504 301.669C262.367 304.407 256.396 305.984 249.993 305.984C243.59 305.984 237.619 304.407 232.481 301.669L233.547 290.421C233.685 288.955 234.318 286.958 235.506 284.516C236.667 282.13 238.22 279.598 239.925 277.125C243.334 272.179 247.12 267.795 248.942 265.764C249.144 265.538 249.505 265.348 249.993 265.348C250.482 265.348 250.842 265.539 251.043 265.763L251.044 265.764C252.866 267.795 256.652 272.179 260.061 277.125C261.765 279.598 263.319 282.13 264.48 284.516C265.668 286.958 266.3 288.955 266.439 290.421ZM253.935 272.491L249.993 267.44L246.051 272.491C243.531 275.719 241.143 279.108 239.357 282.088C238.467 283.573 237.675 285.041 237.09 286.391C236.574 287.582 235.948 289.27 235.948 290.992C235.948 298.728 242.589 304.41 249.993 304.41C257.397 304.41 264.037 298.727 264.037 290.992C264.037 289.27 263.412 287.582 262.896 286.391C262.31 285.041 261.518 283.573 260.629 282.089C258.842 279.108 256.454 275.719 253.935 272.491Z" fill="#4045A1" stroke="#4045A1" stroke-width="10" />
		<path d="M300.962 148.946V153.946H305.962H318.397C329.694 153.946 338.269 162.423 338.269 172.094V351.494C338.269 361.165 329.694 369.642 318.397 369.642H317.034H313.2L312.205 373.345L311.426 376.244L311.426 376.245C308.866 385.776 299.553 392.791 288.39 392.791H211.612C200.449 392.791 191.137 385.777 188.577 376.244L188.577 376.243L187.798 373.345L186.803 369.642H182.969H181.606C170.309 369.642 161.734 361.165 161.734 351.494V172.094C161.734 162.423 170.309 153.946 181.606 153.946H194.041H199.041V148.946V114.223V109.223H194.041H184.715C184.263 109.223 183.926 109.055 183.724 108.868C183.529 108.687 183.497 108.532 183.497 108.436C183.497 108.34 183.529 108.186 183.724 108.004C183.926 107.817 184.263 107.649 184.715 107.649H184.74H184.768H184.798H184.831H184.867H184.905H184.945H184.988H185.034H185.082H185.132H185.185H185.24H185.298H185.358H185.421H185.486H185.553H185.623H185.695H185.77H185.847H185.926H186.008H186.091H186.178H186.266H186.357H186.45H186.545H186.643H186.743H186.845H186.949H187.056H187.165H187.276H187.389H187.505H187.622H187.742H187.864H187.988H188.114H188.242H188.373H188.506H188.64H188.777H188.916H189.057H189.2H189.345H189.492H189.641H189.792H189.946H190.101H190.258H190.417H190.578H190.741H190.906H191.073H191.242H191.413H191.586H191.761H191.937H192.116H192.296H192.479H192.663H192.849H193.036H193.226H193.417H193.611H193.806H194.003H194.201H194.402H194.604H194.808H195.014H195.221H195.43H195.641H195.853H196.068H196.284H196.501H196.72H196.941H197.164H197.388H197.614H197.841H198.071H198.301H198.533H198.767H199.003H199.24H199.478H199.718H199.96H200.203H200.447H200.693H200.941H201.19H201.441H201.693H201.946H202.201H202.457H202.715H202.974H203.235H203.497H203.76H204.025H204.291H204.558H204.827H205.097H205.369H205.642H205.916H206.191H206.468H206.746H207.025H207.305H207.587H207.87H208.154H208.44H208.726H209.014H209.303H209.593H209.885H210.177H210.471H210.766H211.061H211.359H211.657H211.956H212.256H212.558H212.86H213.164H213.469H213.774H214.081H214.389H214.697H215.007H215.318H215.63H215.942H216.256H216.571H216.886H217.203H217.52H217.839H218.158H218.478H218.799H219.121H219.444H219.768H220.092H220.418H220.744H221.071H221.399H221.727H222.057H222.387H222.718H223.05H223.382H223.716H224.049H224.384H224.72H225.056H225.393H225.73H226.068H226.407H226.747H227.087H227.428H227.769H228.111H228.454H228.797H229.141H229.485H229.83H230.176H230.522H230.868H231.215H231.563H231.911H232.26H232.609H232.959H233.309H233.659H234.01H234.362H234.714H235.066H235.419H235.772H236.126H236.48H236.834H237.189H237.544H237.899H238.255H238.611H238.967H239.324H239.681H240.038H240.395H240.753H241.111H241.47H241.828H242.187H242.546H242.905H243.264H243.624H243.984H244.344H244.704H245.064H245.424H245.785H246.146H246.506H246.867H247.228H247.589H247.95H248.311H248.673H249.034H249.395H249.757H250.118H250.479H250.841H251.202H251.563H251.924H252.286H252.647H253.008H253.369H253.73H254.091H254.452H254.812H255.173H255.533H255.893H256.254H256.614H256.973H257.333H257.692H258.052H258.411H258.769H259.128H259.486H259.844H260.202H260.56H260.917H261.274H261.631H261.987H262.343H262.699H263.054H263.41H263.764H264.119H264.473H264.826H265.179H265.532H265.885H266.237H266.588H266.939H267.29H267.64H267.99H268.339H268.688H269.036H269.384H269.731H270.078H270.424H270.77H271.115H271.459H271.803H272.146H272.489H272.831H273.173H273.514H273.854H274.194H274.533H274.871H275.209H275.545H275.882H276.217H276.552H276.886H277.22H277.552H277.884H278.215H278.545H278.875H279.204H279.532H279.859H280.185H280.511H280.835H281.159H281.482H281.804H282.126H282.446H282.765H283.084H283.402H283.718H284.034H284.349H284.663H284.976H285.287H285.598H285.908H286.217H286.525H286.832H287.138H287.443H287.746H288.049H288.351H288.651H288.951H289.249H289.546H289.842H290.137H290.431H290.724H291.016H291.306H291.595H291.883H292.17H292.456H292.74H293.023H293.305H293.586H293.865H294.143H294.42H294.696H294.97H295.243H295.515H295.785H296.054H296.322H296.588H296.853H297.117H297.379H297.64H297.899H298.157H298.414H298.669H298.922H299.175H299.425H299.675H299.923H300.169H300.414H300.657H300.899H301.139H301.378H301.615H301.851H302.085H302.317H302.548H302.778H303.005H303.232H303.456H303.679H303.9H304.12H304.337H304.554H304.768H304.981H305.192H305.402H305.609H305.815H306.019H306.222H306.423H306.622H306.819H307.014H307.208H307.399H307.589H307.777H307.964H308.148H308.331H308.511H308.69H308.867H309.042H309.215H309.386H309.556H309.723H309.888H310.052H310.213H310.373H310.53H310.686H310.839H310.991H311.14H311.288H311.433H311.577H311.718H311.857H311.994H312.129H312.262H312.393H312.522H312.648H312.773H312.895H313.015H313.133H313.249H313.363H313.474H313.583H313.69H313.795H313.897H313.998H314.096H314.191H314.285H314.376H314.465H314.552H314.636H314.718H314.797H314.875H314.95H315.022H315.092H315.16H315.225H315.288C315.739 107.649 316.077 107.816 316.278 108.004C316.474 108.186 316.506 108.341 316.506 108.436C316.506 108.531 316.474 108.686 316.278 108.868C316.077 109.056 315.739 109.223 315.288 109.223H305.962H300.962V114.223V148.946ZM169.17 184.455H164.17V189.455V334.133V339.133H169.17H330.833H335.833V334.133V189.455V184.455H330.833H169.17ZM206.477 109.223H201.477V114.223V148.946V153.946H206.477H250.001H293.526H298.526V148.946V114.223V109.223H293.526H206.477ZM330.833 182.881H335.833V177.881V172.094C335.833 162.619 327.672 155.52 318.397 155.52H318.356H318.311H318.264H318.215H318.162H318.107H318.05H317.99H317.927H317.861H317.793H317.723H317.65H317.574H317.496H317.415H317.332H317.246H317.158H317.067H316.974H316.878H316.78H316.679H316.576H316.471H316.363H316.253H316.14H316.025H315.908H315.788H315.666H315.541H315.415H315.285H315.154H315.02H314.884H314.746H314.605H314.463H314.318H314.17H314.021H313.869H313.715H313.559H313.401H313.24H313.078H312.913H312.746H312.577H312.406H312.232H312.057H311.88H311.7H311.519H311.335H311.149H310.962H310.772H310.58H310.386H310.19H309.993H309.793H309.591H309.388H309.182H308.975H308.765H308.554H308.341H308.126H307.909H307.69H307.469H307.247H307.022H306.796H306.568H306.339H306.107H305.874H305.638H305.402H305.163H304.923H304.68H304.437H304.191H303.944H303.695H303.444H303.192H302.938H302.683H302.426H302.167H301.906H301.644H301.381H301.116H300.849H300.581H300.311H300.039H299.766H299.492H299.216H298.939H298.66H298.379H298.097H297.814H297.529H297.243H296.956H296.667H296.376H296.084H295.791H295.497H295.201H294.904H294.605H294.305H294.004H293.701H293.397H293.092H292.786H292.478H292.169H291.859H291.548H291.235H290.922H290.607H290.29H289.973H289.654H289.335H289.014H288.692H288.369H288.045H287.719H287.393H287.065H286.737H286.407H286.076H285.745H285.412H285.078H284.743H284.408H284.071H283.733H283.394H283.055H282.714H282.373H282.03H281.687H281.342H280.997H280.651H280.304H279.956H279.608H279.258H278.908H278.557H278.205H277.852H277.499H277.144H276.789H276.433H276.077H275.719H275.361H275.003H274.643H274.283H273.922H273.561H273.199H272.836H272.472H272.108H271.743H271.378H271.012H270.646H270.279H269.911H269.543H269.174H268.805H268.435H268.065H267.694H267.323H266.951H266.579H266.206H265.833H265.459H265.085H264.711H264.336H263.961H263.585H263.209H262.832H262.456H262.079H261.701H261.324H260.945H260.567H260.188H259.81H259.43H259.051H258.671H258.291H257.911H257.531H257.15H256.769H256.388H256.007H255.626H255.244H254.863H254.481H254.099H253.717H253.335H252.953H252.571H252.188H251.806H251.424H251.041H250.659H250.276H249.894H249.511H249.129H248.746H248.364H247.981H247.599H247.217H246.835H246.452H246.07H245.689H245.307H244.925H244.544H244.162H243.781H243.4H243.019H242.639H242.258H241.878H241.498H241.118H240.739H240.36H239.981H239.602H239.224H238.846H238.468H238.09H237.713H237.336H236.96H236.584H236.208H235.833H235.458H235.083H234.709H234.336H233.962H233.59H233.217H232.845H232.474H232.103H231.733H231.363H230.993H230.625H230.256H229.889H229.521H229.155H228.789H228.423H228.059H227.694H227.331H226.968H226.606H226.244H225.883H225.523H225.163H224.804H224.446H224.089H223.732H223.376H223.021H222.667H222.313H221.96H221.608H221.257H220.906H220.557H220.208H219.86H219.513H219.166H218.821H218.477H218.133H217.791H217.449H217.108H216.768H216.429H216.091H215.754H215.419H215.084H214.75H214.417H214.085H213.754H213.424H213.095H212.768H212.441H212.116H211.791H211.468H211.146H210.825H210.505H210.186H209.869H209.552H209.237H208.923H208.61H208.299H207.988H207.679H207.371H207.065H206.759H206.455H206.153H205.851H205.551H205.252H204.955H204.659H204.364H204.07H203.778H203.488H203.199H202.911H202.624H202.339H202.056H201.774H201.493H201.214H200.936H200.66H200.385H200.112H199.841H199.57H199.302H199.035H198.769H198.506H198.243H197.983H197.724H197.466H197.21H196.956H196.704H196.453H196.204H195.956H195.71H195.466H195.224H194.983H194.744H194.507H194.272H194.038H193.806H193.576H193.348H193.121H192.897H192.674H192.453H192.234H192.016H191.801H191.588H191.376H191.166H190.958H190.753H190.549H190.347H190.147H189.949H189.752H189.558H189.366H189.176H188.988H188.802H188.618H188.436H188.256H188.079H187.903H187.729H187.558H187.388H187.221H187.056H186.893H186.732H186.573H186.417H186.263H186.111H185.961H185.813H185.668H185.525H185.384H185.245H185.109H184.974H184.843H184.713H184.586H184.461H184.339H184.218H184.101H183.985H183.872H183.762H183.653H183.547H183.444H183.343H183.244H183.148H183.055H182.964H182.875H182.789H182.705H182.624H182.545H182.469H182.396H182.325H182.256H182.19H182.127H182.067H182.008H181.953H181.9H181.85H181.803H181.758H181.716H181.676H181.64H181.606C172.331 155.52 164.17 162.619 164.17 172.094V177.881V182.881H169.17H330.833ZM288.39 391.216C297.919 391.216 306.562 385.182 309.02 376.031L309.043 375.947L310.746 369.642H304.216H195.788H189.289L190.955 375.924L190.979 376.015L190.981 376.023L190.983 376.03C193.441 385.182 202.083 391.216 211.612 391.216H288.39ZM169.17 340.707H164.17V345.707V351.494C164.17 360.969 172.331 368.068 181.606 368.068H181.642H181.682H181.724H181.768H181.815H181.865H181.917H181.972H182.03H182.09H182.152H182.217H182.285H182.355H182.427H182.502H182.58H182.66H182.742H182.827H182.914H183.004H183.096H183.191H183.288H183.387H183.488H183.592H183.699H183.808H183.919H184.032H184.148H184.265H184.386H184.508H184.633H184.76H184.889H185.021H185.155H185.291H185.429H185.569H185.712H185.857H186.004H186.153H186.304H186.457H186.613H186.77H186.93H187.092H187.256H187.422H187.59H187.76H187.932H188.106H188.283H188.461H188.641H188.823H189.008H189.194H189.382H189.572H189.764H189.958H190.154H190.352H190.552H190.753H190.957H191.162H191.369H191.579H191.789H192.002H192.217H192.433H192.652H192.872H193.093H193.317H193.542H193.769H193.998H194.229H194.461H194.695H194.931H195.168H195.407H195.648H195.89H196.135H196.38H196.628H196.877H197.127H197.379H197.633H197.888H198.145H198.404H198.664H198.925H199.188H199.453H199.719H199.987H200.256H200.526H200.799H201.072H201.347H201.623H201.901H202.181H202.461H202.743H203.027H203.312H203.598H203.885H204.174H204.464H204.756H205.049H205.343H205.639H205.935H206.233H206.533H206.833H207.135H207.438H207.742H208.048H208.355H208.662H208.972H209.282H209.593H209.906H210.22H210.534H210.85H211.167H211.486H211.805H212.125H212.447H212.769H213.093H213.418H213.743H214.07H214.398H214.726H215.056H215.387H215.718H216.051H216.384H216.719H217.054H217.391H217.728H218.066H218.405H218.745H219.086H219.428H219.77H220.113H220.458H220.803H221.148H221.495H221.843H222.191H222.54H222.889H223.24H223.591H223.943H224.296H224.649H225.003H225.358H225.713H226.069H226.426H226.784H227.142H227.5H227.86H228.22H228.58H228.941H229.303H229.665H230.028H230.391H230.755H231.12H231.485H231.85H232.216H232.582H232.949H233.317H233.685H234.053H234.421H234.791H235.16H235.53H235.9H236.271H236.642H237.014H237.386H237.758H238.13H238.503H238.876H239.25H239.623H239.998H240.372H240.746H241.121H241.496H241.872H242.247H242.623H242.999H243.375H243.751H244.128H244.504H244.881H245.258H245.635H246.012H246.39H246.767H247.145H247.522H247.9H248.278H248.655H249.033H249.411H249.789H250.167H250.545H250.923H251.3H251.678H252.056H252.434H252.811H253.189H253.566H253.944H254.321H254.698H255.076H255.453H255.829H256.206H256.583H256.959H257.335H257.711H258.087H258.462H258.838H259.213H259.588H259.962H260.336H260.711H261.084H261.458H261.831H262.204H262.576H262.949H263.321H263.692H264.063H264.434H264.804H265.174H265.544H265.913H266.282H266.65H267.018H267.385H267.752H268.119H268.485H268.85H269.215H269.58H269.944H270.307H270.67H271.032H271.394H271.755H272.116H272.476H272.835H273.194H273.552H273.91H274.267H274.623H274.978H275.333H275.687H276.041H276.393H276.745H277.097H277.447H277.797H278.146H278.494H278.842H279.189H279.535H279.88H280.224H280.567H280.91H281.252H281.593H281.933H282.272H282.61H282.948H283.284H283.62H283.954H284.288H284.621H284.952H285.283H285.613H285.942H286.269H286.596H286.922H287.247H287.57H287.893H288.215H288.535H288.855H289.173H289.49H289.806H290.121H290.435H290.748H291.059H291.37H291.679H291.987H292.294H292.599H292.904H293.207H293.509H293.81H294.109H294.407H294.704H295H295.294H295.587H295.879H296.169H296.458H296.746H297.032H297.317H297.601H297.883H298.164H298.443H298.721H298.998H299.273H299.547H299.819H300.09H300.359H300.627H300.893H301.158H301.421H301.683H301.943H302.202H302.459H302.714H302.968H303.221H303.471H303.721H303.968H304.214H304.458H304.701H304.942H305.181H305.419H305.655H305.889H306.121H306.352H306.581H306.808H307.034H307.258H307.48H307.7H307.918H308.135H308.35H308.563H308.774H308.983H309.191H309.396H309.6H309.802H310.002H310.2H310.396H310.59H310.783H310.973H311.161H311.348H311.532H311.715H311.895H312.073H312.25H312.424H312.597H312.767H312.935H313.102H313.266H313.428H313.588H313.746H313.901H314.055H314.206H314.356H314.503H314.648H314.791H314.931H315.07H315.206H315.34H315.472H315.601H315.729H315.854H315.977H316.097H316.215H316.331H316.445H316.556H316.665H316.772H316.876H316.978H317.077H317.175H317.269H317.362H317.452H317.539H317.624H317.707H317.787H317.865H317.94H318.013H318.083H318.151H318.217H318.279H318.34H318.397C327.672 368.068 335.833 360.969 335.833 351.494V345.707V340.707H330.833H169.17Z" fill="#283954" stroke="black" stroke-width="10" />
	</g>
	<defs>
		<clipPath id="clip0_1580_831">
			<rect width="500" height="500" rx="250" fill="white" />
		</clipPath>
	</defs>
</svg>
