<svg width="500" height="500" viewBox="0 0 500 500" fill="none" xmlns="http://www.w3.org/2000/svg">
	<g clip-path="url(#clip0_1580_763)">
		<circle cx="250" cy="250" r="235.5" fill="white" stroke="white" stroke-width="29" />
		<path d="M170.528 217.439L239.512 110.927L313.464 176.601L349.336 213.024L373.066 280.353L355.406 341.06L327.26 357.064C299.458 365.9 283.11 379.691 256.068 379.691C229.026 379.691 221.3 367.55 221.3 367.55L182.117 349.338L151.212 316.225L146.797 266.005L170.528 217.439Z" fill="#FEF4E8" />
		<mask id="mask0_1580_763" style="mask-type:luminance" maskUnits="userSpaceOnUse" x="135" y="91" width="248" height="289">
			<path d="M135.766 91.6113H382.114V379.691H135.766V91.6113Z" fill="white" />
		</mask>
		<g mask="url(#mask0_1580_763)">
			<path d="M231.68 97.9248C209.897 184.883 143.07 224.435 143.07 289.166C143.07 331.653 175.691 358.825 221.046 372C207.671 363.301 190.787 344.69 190.787 327.152C190.787 293.946 207.554 283.189 218.052 247.13C243.237 265.463 245.317 293.036 245.317 293.036C245.317 293.036 275.206 243.391 265.768 189.745C315.681 228.969 334.198 268.062 333.926 300.538C333.635 334.588 312.853 361.358 291.906 373.378C337.561 367.794 374.819 332.53 374.819 288.51C374.819 223.771 331.72 175.75 231.68 97.9248Z" stroke="#4045A1" stroke-width="14.6355" stroke-miterlimit="10" stroke-linecap="round" stroke-linejoin="round" />
		</g>
		<path d="M143.484 290.37C143.484 332.857 176.105 360.029 221.46 373.204C208.085 364.505 191.201 345.894 191.201 328.356C191.201 295.15 207.968 284.393 218.466 248.334C243.651 266.667 245.731 294.24 245.731 294.24C245.731 294.24 275.621 244.595 266.182 190.949C316.095 230.173 334.612 269.266 334.34 301.742C334.049 335.792 313.267 362.562 292.32 374.582C337.976 368.998 375.233 333.735 375.233 289.714" stroke="black" stroke-width="14.6355" stroke-miterlimit="10" stroke-linecap="round" stroke-linejoin="round" />
	</g>
	<defs>
		<clipPath id="clip0_1580_763">
			<rect width="500" height="500" rx="250" fill="white" />
		</clipPath>
	</defs>
</svg>
