<svg width="500" height="500" viewBox="0 0 500 500" fill="none" xmlns="http://www.w3.org/2000/svg">
	<g clip-path="url(#clip0_2067_1508)">
		<circle cx="250" cy="250" r="235.5" fill="white" stroke="white" stroke-width="29" />
		<mask id="mask0_2067_1508" style="mask-type:luminance" maskUnits="userSpaceOnUse" x="207" y="80" width="81" height="84">
			<path d="M209.798 82.6727H284.847V161.135H209.798V82.6727Z" fill="white" stroke="white" stroke-width="5.3454" />
		</mask>
		<g mask="url(#mask0_2067_1508)">
			<path d="M283.798 110.095L283.802 110.096C283.932 110.115 284.009 110.161 284.065 110.21C284.129 110.268 284.192 110.358 284.229 110.475C284.303 110.709 284.252 110.922 284.081 111.088L284.073 111.097L284.064 111.105L268.372 126.709C268.37 126.711 268.368 126.712 268.366 126.714C266.988 128.074 266.384 129.997 266.661 131.874L266.665 131.903L266.67 131.931L270.404 153.95C270.405 153.952 270.405 153.953 270.405 153.955C270.451 154.243 270.342 154.447 270.172 154.573C270.083 154.639 269.994 154.669 269.921 154.676C269.861 154.682 269.776 154.676 269.655 154.612C269.655 154.612 269.654 154.612 269.653 154.611L250.217 144.193L250.197 144.182L250.176 144.172C248.467 143.294 246.459 143.294 244.75 144.172L244.729 144.182L244.709 144.193L225.273 154.611C225.272 154.612 225.272 154.612 225.271 154.612C225.151 154.676 225.066 154.682 225.005 154.676C224.932 154.669 224.843 154.639 224.754 154.573C224.584 154.447 224.475 154.242 224.521 153.954C224.522 153.952 224.522 153.951 224.522 153.95L228.222 131.95C228.223 131.946 228.224 131.942 228.224 131.937C228.561 130.013 227.934 128.069 226.559 126.713C226.557 126.711 226.556 126.71 226.554 126.709L210.829 111.104C210.669 110.945 210.612 110.729 210.691 110.484C210.73 110.362 210.794 110.27 210.86 110.211C210.916 110.161 210.994 110.115 211.124 110.096L211.129 110.095L232.86 106.87L232.869 106.868L232.879 106.867C234.726 106.579 236.427 105.419 237.272 103.593L246.994 83.5535L246.999 83.5439C247.177 83.1737 247.709 83.1108 247.937 83.5631L257.634 103.615L257.637 103.621C258.505 105.403 260.177 106.576 262.048 106.867L262.057 106.868L262.066 106.87L283.798 110.095Z" fill="#4045A1" stroke="black" stroke-width="5.3454" />
		</g>
		<path d="M173.074 121.287L173.042 121.282C171.448 121.009 170.057 119.986 169.331 118.494L169.329 118.49L162.579 104.562L155.797 118.494M173.074 121.287L155.797 118.494M173.074 121.287L173.105 121.292L188.364 123.526L177.304 134.482C176.108 135.651 175.572 137.351 175.888 138.998L178.48 154.385L164.925 147.13L164.905 147.119L164.884 147.109C163.447 146.371 161.701 146.343 160.234 147.131C160.233 147.131 160.231 147.132 160.23 147.133L146.68 154.385L149.278 138.962L149.279 138.955L149.28 138.947C149.539 137.356 149.035 135.693 147.898 134.525L147.881 134.508L147.864 134.491L136.796 123.526L152.024 121.292L152.055 121.287L152.087 121.282C153.681 121.009 155.071 119.986 155.797 118.494M173.074 121.287L155.797 118.494" fill="#4045A1" stroke="black" stroke-width="5.3454" />
		<path d="M342.865 121.285L342.888 121.288L342.91 121.292L358.138 123.526L347.078 134.483C345.868 135.665 345.363 137.353 345.622 138.947L345.624 138.957L345.626 138.968L348.253 154.385L334.699 147.13L334.679 147.119L334.659 147.109C333.221 146.371 331.476 146.343 330.009 147.13C330.007 147.131 330.006 147.132 330.004 147.133L316.457 154.368L319.052 138.962L319.053 138.955L319.055 138.947C319.313 137.356 318.81 135.693 317.672 134.525L317.654 134.506L317.635 134.488L306.544 123.53L321.828 121.292L321.87 121.286L321.911 121.278C323.477 120.999 324.853 119.97 325.572 118.494L323.168 117.325L325.572 118.494L332.353 104.562L339.103 118.49L339.105 118.494C339.839 120.001 341.244 121.018 342.865 121.285Z" fill="#4045A1" stroke="black" stroke-width="5.3454" />
		<mask id="mask1_2067_1508" style="mask-type:luminance" maskUnits="userSpaceOnUse" x="117" y="172" width="267" height="248">
			<path d="M119.227 174.292H381.77V417.583H119.227V174.292Z" fill="white" stroke="white" stroke-width="4.4545" />
		</mask>
		<g mask="url(#mask1_2067_1508)">
			<path d="M375.654 343.248V343.248L374.315 410.616H359.616H338.356H319.281H310.217H310.217H310.217H310.216H310.216H310.215H310.214H310.213H310.212H310.21H310.209H310.207H310.205H310.203H310.201H310.199H310.197H310.194H310.192H310.189H310.186H310.183H310.18H310.177H310.173H310.17H310.166H310.162H310.158H310.154H310.15H310.146H310.141H310.137H310.132H310.127H310.122H310.117H310.112H310.106H310.101H310.095H310.089H310.083H310.077H310.071H310.065H310.058H310.052H310.045H310.038H310.031H310.024H310.017H310.01H310.002H309.995H309.987H309.979H309.971H309.963H309.955H309.946H309.938H309.929H309.921H309.912H309.903H309.894H309.885H309.875H309.866H309.856H309.847H309.837H309.827H309.817H309.807H309.797H309.786H309.776H309.765H309.754H309.744H309.733H309.722H309.71H309.699H309.688H309.676H309.665H309.653H309.641H309.629H309.617H309.605H309.592H309.58H309.567H309.555H309.542H309.529H309.516H309.503H309.49H309.476H309.463H309.449H309.436H309.422H309.408H309.394H309.38H309.366H309.351H309.337H309.323H309.308H309.293H309.278H309.263H309.248H309.233H309.218H309.203H309.187H309.172H309.156H309.14H309.124H309.109H309.092H309.076H309.06H309.044H309.027H309.011H308.994H308.977H308.96H308.943H308.926H308.909H308.892H308.875H308.857H308.84H308.822H308.804H308.787H308.769H308.751H308.732H308.714H308.696H308.678H308.659H308.641H308.622H308.603H308.584H308.565H308.546H308.527H308.508H308.489H308.469H308.45H308.43H308.411H308.391H308.371H308.351H308.331H308.311H308.291H308.271H308.25H308.23H308.209H308.189H308.168H308.147H308.126H308.105H308.084H308.063H308.042H308.021H307.999H307.978H307.956H307.935H307.913H307.891H307.869H307.847H307.825H307.803H307.781H307.759H307.737H307.714H307.692H307.669H307.646H307.624H307.601H307.578H307.555H307.532H307.509H307.486H307.463H307.439H307.416H307.392H307.369H307.345H307.322H307.298H307.274H307.25H307.226H307.202H307.178H307.154H307.13H307.105H307.081H307.056H307.032H307.007H306.983H306.958H306.933H306.908H306.883H306.858H306.833H306.808H306.783H306.757H306.732H306.707H306.681H306.656H306.63H306.605H306.579H306.553H306.527H306.501H306.475H306.449H306.423H306.397H306.371H306.345H306.318H306.292H306.265H306.239H306.212H306.186H306.159H306.132H306.105H306.079H306.052H306.025H305.998H305.971H305.944H305.916H305.889H305.862H305.834H305.807H305.78H305.752H305.725H305.697H305.669H305.642H305.614H305.586H305.558H305.53H305.502H305.474H305.446H305.418H305.39H305.362H305.333H305.305H305.277H305.248H305.22H305.191H305.163H305.134H305.105H305.077H305.048H305.019H304.99H304.962H304.933H304.904H304.875H304.846H304.817H304.788H304.758H304.729H304.7H304.671H304.641H304.612H304.583H304.553H304.524H304.494H304.465H304.435H304.405H304.376H304.346H304.316H304.286H304.257H304.227H304.197H304.167H304.137H304.107H304.077H304.047H304.017H303.987H303.956H303.926H303.896H303.866H303.835H303.805H303.775H303.744H303.714H303.683H303.653H303.622H303.592H303.561H303.531H303.5H303.47H303.439H303.408H303.377H303.347H303.316H303.285H303.254H303.223H303.192H303.162H303.131H303.1H303.069H303.038H303.007H302.976H302.945H302.913H302.882H302.851H302.82H302.789H302.758H302.726H302.695H302.664H302.633H302.601H302.57H302.539H302.507H302.476H302.445H302.413H302.382H302.35H302.319H302.287H302.256H302.224H302.193H302.161H302.13H302.098H302.067H302.035H302.004H301.972H301.94H301.909H301.877H301.845H301.814H301.782H301.75H301.719H301.687H301.655H301.624H301.592H301.56H301.528H301.497H301.465H301.433H301.401H301.369H301.338H301.306H301.274H301.242H301.21H301.179H301.147H301.115H301.083H301.051H301.02H300.988H300.956H300.924H300.892H300.86H300.829H300.797H300.765H300.733H300.701H300.669H300.638H300.606H300.574H300.542H300.51H300.478H300.447H300.415H300.383H300.351H300.319H300.288H300.256H300.224H300.192H300.16H300.129H300.097H300.065H300.033H300.002H299.97H299.938H299.906H299.875H299.843H299.811H299.78H299.748H299.716H299.685H299.653H299.621H299.59H299.558H299.527H299.495H299.463H299.432H299.4H299.369H299.337H299.306H299.274H299.243H299.212H299.18H299.149H299.117H299.086H299.055H299.023H298.992H298.961H298.929H298.898H298.867H298.835H298.804H298.773H298.742H298.711H298.68H298.649H123.037C121.011 410.616 119.298 408.912 119.298 406.778V241.872C119.298 236.812 123.325 232.777 128.219 232.777H167.819C170.804 232.777 173.187 230.333 173.187 227.356V184.872C173.187 179.844 177.183 175.841 182.045 175.841H313.754C318.647 175.841 322.675 179.876 322.675 184.936V245.872C322.675 248.775 324.923 251.293 327.948 251.293H366.764C371.634 251.293 375.654 255.305 375.654 260.324V327.551V327.566V327.582V327.597V327.613V327.629V327.645V327.662V327.678V327.695V327.712V327.73V327.748V327.765V327.784V327.802V327.82V327.839V327.858V327.877V327.897V327.917V327.937V327.957V327.977V327.998V328.018V328.039V328.061V328.082V328.104V328.125V328.147V328.17V328.192V328.215V328.238V328.261V328.284V328.308V328.331V328.355V328.379V328.404V328.428V328.453V328.478V328.503V328.528V328.553V328.579V328.605V328.631V328.657V328.683V328.71V328.737V328.764V328.791V328.818V328.846V328.873V328.901V328.929V328.957V328.986V329.014V329.043V329.072V329.101V329.13V329.16V329.189V329.219V329.249V329.279V329.309V329.339V329.37V329.401V329.432V329.463V329.494V329.525V329.557V329.588V329.62V329.652V329.684V329.716V329.749V329.781V329.814V329.847V329.88V329.913V329.946V329.98V330.013V330.047V330.081V330.115V330.149V330.183V330.217V330.252V330.286V330.321V330.356V330.391V330.426V330.461V330.497V330.532V330.568V330.604V330.639V330.675V330.712V330.748V330.784V330.821V330.857V330.894V330.931V330.968V331.005V331.042V331.079V331.116V331.154V331.191V331.229V331.267V331.305V331.343V331.381V331.419V331.457V331.495V331.534V331.572V331.611V331.65V331.689V331.727V331.766V331.806V331.845V331.884V331.923V331.963V332.002V332.042V332.082V332.121V332.161V332.201V332.241V332.281V332.321V332.361V332.402V332.442V332.482V332.523V332.563V332.604V332.645V332.685V332.726V332.767V332.808V332.849V332.89V332.931V332.972V333.014V333.055V333.096V333.138V333.179V333.22V333.262V333.304V333.345V333.387V333.429V333.47V333.512V333.554V333.596V333.638V333.68V333.722V333.764V333.806V333.848V333.89V333.932V333.975V334.017V334.059V334.101V334.144V334.186V334.228V334.271V334.313V334.356V334.398V334.441V334.483V334.526V334.568V334.611V334.653V334.696V334.738V334.781V334.824V334.866V334.909V334.952V334.994V335.037V335.079V335.122V335.165V335.207V335.25V335.293V335.335V335.378V335.421V335.463V335.506V335.549V335.591V335.634V335.676V335.719V335.762V335.804V335.847V335.889V335.932V335.974V336.017V336.059V336.101V336.144V336.186V336.229V336.271V336.313V336.355V336.398V336.44V336.482V336.524V336.566V336.608V336.65V336.692V336.734V336.776V336.818V336.86V336.902V336.944V336.985V337.027V337.069V337.11V337.152V337.193V337.235V337.276V337.317V337.359V337.4V337.441V337.482V337.523V337.564V337.605V337.646V337.687V337.728V337.768V337.809V337.849V337.89V337.93V337.971V338.011V338.051V338.091V338.131V338.171V338.211V338.251V338.291V338.331V338.37V338.41V338.449V338.488V338.528V338.567V338.606V338.645V338.684V338.723V338.761V338.8V338.839V338.877V338.915V338.954V338.992V339.03V339.068V339.106V339.143V339.181V339.219V339.256V339.294V339.331V339.368V339.405V339.442V339.479V339.515V339.552V339.588V339.625V339.661V339.697V339.733V339.769V339.805V339.84V339.876V339.911V339.947V339.982V340.017V340.052V340.086V340.121V340.155V340.19V340.224V340.258V340.292V340.326V340.36V340.393V340.427V340.46V340.493V340.526V340.559V340.592V340.624V340.656V340.689V340.721V340.753V340.785V340.816V340.848V340.879V340.91V340.941V340.972V341.003V341.033V341.064V341.094V341.124V341.154V341.184V341.213V341.243V341.272V341.301V341.33V341.359V341.387V341.416V341.444V341.472V341.5V341.527V341.555V341.582V341.609V341.636V341.663V341.69V341.716V341.742V341.768V341.794V341.82V341.845V341.871V341.896V341.921V341.945V341.97V341.994V342.018V342.042V342.066V342.089V342.113V342.136V342.159V342.181V342.204V342.226V342.248V342.27V342.291V342.313V342.334V342.355V342.376V342.396V342.417V342.437V342.457V342.477V342.496V342.515V342.534V342.553V342.572V342.59V342.608V342.626V342.644V342.661V342.678V342.695V342.712V342.729V342.745V342.761V342.777V342.792V342.808V342.823V342.837V342.852V342.866V342.88V342.894V342.908V342.921V342.934V342.947V342.96V342.972V342.984V342.996V343.008V343.019V343.03V343.041V343.051V343.062V343.072V343.081V343.091V343.1V343.109V343.118V343.126V343.134V343.142V343.15V343.157V343.164V343.171V343.177V343.184V343.19V343.195V343.201V343.206V343.211V343.215V343.219V343.223V343.227V343.23V343.234V343.236V343.239V343.241V343.243V343.245V343.246V343.247V343.248ZM350.12 313.843C351.769 313.843 352.881 312.479 352.881 311.003V279.679C352.881 278.318 351.844 276.839 350.12 276.839H319.281C317.556 276.839 316.52 278.318 316.52 279.679V311.003C316.52 312.479 317.632 313.843 319.281 313.843H350.12ZM289.29 253.745C290.89 253.745 292.083 252.433 292.083 250.937V219.582C292.083 217.919 290.721 216.806 289.29 216.806H258.483C257.782 216.806 257.128 217.071 256.636 217.49C256.122 217.927 255.659 218.649 255.659 219.582V250.937C255.659 251.844 256.097 252.551 256.57 252.987C257.028 253.408 257.697 253.745 258.483 253.745H289.29ZM289.29 313.843C289.992 313.843 290.727 313.582 291.286 313.008C291.85 312.429 292.083 311.691 292.083 311.003V279.679C292.083 278.232 290.968 276.839 289.29 276.839H258.483C257.065 276.839 255.659 278.002 255.659 279.679V311.003C255.659 312.789 257.146 313.843 258.483 313.843H289.29ZM289.29 371.069C290.721 371.069 292.083 369.924 292.083 368.326V336.938C292.083 336.187 291.777 335.527 291.369 335.059C290.952 334.581 290.238 334.098 289.29 334.098H258.483C257.543 334.098 256.855 334.587 256.483 334.969C256.104 335.358 255.659 336.039 255.659 336.938V368.326C255.659 369.34 256.232 370.035 256.636 370.378C257.064 370.742 257.707 371.069 258.483 371.069H289.29ZM232.731 253.745C234.38 253.745 235.493 252.349 235.493 250.937V219.582C235.493 218 234.215 216.806 232.731 216.806H201.893C200.409 216.806 199.132 218 199.132 219.582V250.937C199.132 252.349 200.244 253.745 201.893 253.745H232.731ZM232.731 313.843C234.38 313.843 235.493 312.479 235.493 311.003V279.679C235.493 278.318 234.456 276.839 232.731 276.839H201.893C200.168 276.839 199.132 278.318 199.132 279.679V311.003C199.132 312.479 200.244 313.843 201.893 313.843H232.731ZM232.731 371.069C233.552 371.069 234.225 370.704 234.668 370.267C235.102 369.839 235.493 369.165 235.493 368.326V336.938C235.493 336.191 235.191 335.545 234.81 335.091C234.438 334.648 233.732 334.098 232.731 334.098H201.893C200.892 334.098 200.186 334.648 199.814 335.091C199.433 335.545 199.132 336.191 199.132 336.938V368.326C199.132 369.165 199.522 369.839 199.956 370.267C200.399 370.704 201.073 371.069 201.893 371.069H232.731ZM171.87 313.843C172.533 313.843 173.277 313.618 173.865 313.038C174.459 312.45 174.694 311.692 174.694 311.003V279.679C174.694 278.151 173.502 276.839 171.87 276.839H141.094C139.463 276.839 138.27 278.151 138.27 279.679V311.003C138.27 311.692 138.506 312.45 139.1 313.038C139.687 313.618 140.432 313.843 141.094 313.843H171.87ZM171.87 371.069C173.251 371.069 174.694 370 174.694 368.326V336.938C174.694 335.629 173.647 334.098 171.87 334.098H141.094C139.318 334.098 138.27 335.629 138.27 336.938V368.326C138.27 370 139.714 371.069 141.094 371.069H171.87Z" fill="#FEF4E8" stroke="black" stroke-width="4.4545" />
		</g>
		<path d="M318.346 334.494H350.861C352.588 334.494 353.988 335.894 353.988 337.621V410.78H315.22V337.621C315.22 335.894 316.619 334.494 318.346 334.494Z" fill="white" stroke="black" stroke-width="3.75176" />
	</g>
	<defs>
		<clipPath id="clip0_2067_1508">
			<rect width="500" height="500" rx="250" fill="white" />
		</clipPath>
	</defs>
</svg>
