<svg width="500" height="500" viewBox="0 0 500 500" fill="none" xmlns="http://www.w3.org/2000/svg">
	<g clip-path="url(#clip0_1640_9160)">
		<circle cx="250" cy="250" r="235.5" fill="white" stroke="white" stroke-width="29" />
		<path d="M163.5 224L181 193L239 160.5L311 193L353 248L374.5 294L372 360H232.5H124.5V297L133 256L163.5 224Z" fill="#FEF4E8" />
		<path d="M372.213 214.498H323.362V186.59C311.149 183.241 274.511 181.008 250.085 181.008C225.659 181.008 201.234 183.241 176.808 186.59V214.498H127.957V181.008C127.957 154.217 167.038 145.286 167.038 145.286C195.128 139.704 225.659 136.355 254.97 136.355C284.281 136.355 311.149 139.704 338.017 145.286C338.017 145.286 372.213 154.217 372.213 181.008V214.498Z" fill="#4045A1" />
		<path d="M250.087 225.66C215.891 225.66 189.023 250.219 189.023 281.476C189.023 312.733 215.891 337.292 250.087 337.292C284.283 337.292 311.151 312.733 311.151 281.476C311.151 250.219 284.283 225.66 250.087 225.66ZM250.087 326.129C223.219 326.129 201.236 306.035 201.236 281.476C201.236 256.917 223.219 236.823 250.087 236.823C276.955 236.823 298.938 256.917 298.938 281.476C298.938 306.035 276.955 326.129 250.087 326.129Z" fill="#4045A1" />
		<path d="M243.981 259.15C247.354 259.15 250.088 256.652 250.088 253.569C250.088 250.486 247.354 247.987 243.981 247.987C240.609 247.987 237.875 250.486 237.875 253.569C237.875 256.652 240.609 259.15 243.981 259.15Z" fill="#4045A1" />
		<path d="M256.192 314.967C259.565 314.967 262.299 312.468 262.299 309.385C262.299 306.303 259.565 303.804 256.192 303.804C252.82 303.804 250.086 306.303 250.086 309.385C250.086 312.468 252.82 314.967 256.192 314.967Z" fill="#4045A1" />
		<path d="M280.622 281.476C283.994 281.476 286.728 278.977 286.728 275.894C286.728 272.811 283.994 270.312 280.622 270.312C277.25 270.312 274.516 272.811 274.516 275.894C274.516 278.977 277.25 281.476 280.622 281.476Z" fill="#4045A1" />
		<path d="M219.552 292.64C222.924 292.64 225.658 290.141 225.658 287.058C225.658 283.976 222.924 281.477 219.552 281.477C216.179 281.477 213.445 283.976 213.445 287.058C213.445 290.141 216.179 292.64 219.552 292.64Z" fill="#4045A1" />
		<path d="M386.17 216.715V189.954C386.17 145.301 350.23 137.047 350.23 137.047C319.698 130.349 287.945 127 254.97 127C221.996 127 186.579 130.349 154.825 137.047C154.825 137.047 117.402 148.983 114 181.008V216.715C114 223.413 129.353 227.879 136.681 227.879H149.417C127.434 247.972 114 284.826 114 314.966V361.837C114 368.535 118.885 373 126.213 373H373.957C381.285 373 386.17 368.535 386.17 361.837V314.966C386.17 284.826 372.736 247.972 350.753 227.879H363.489C370.817 227.879 386.17 223.413 386.17 216.715ZM372.213 314.966V359.619H250.085H127.957V314.966C127.957 281.477 136.681 257.38 162.851 236.824L178.553 226.879C185.881 226.879 190.766 223.413 190.766 216.715V197.738C215.191 195.505 232.987 194.389 250.085 194.389C267.183 194.389 297.191 195.505 309.404 197.738V216.715C309.404 223.413 314.289 226.879 321.617 226.879L339.413 236.377C363.489 258.722 372.213 281.477 372.213 314.966ZM372.213 214.498H323.362V186.59C311.149 183.241 274.51 181.008 250.085 181.008C225.659 181.008 201.234 183.241 176.808 186.59V214.498H127.957V181.008C127.957 154.217 167.038 145.286 167.038 145.286C195.128 139.704 225.659 136.355 254.97 136.355C284.281 136.355 311.149 139.704 338.017 145.286C338.017 145.286 372.213 154.217 372.213 181.008V214.498Z" fill="black" />
		<path d="M386.17 216.715V189.954C386.17 145.301 350.23 137.047 350.23 137.047C319.698 130.349 287.945 127 254.97 127C221.996 127 186.579 130.349 154.825 137.047C154.825 137.047 117.402 148.983 114 181.008V216.715C114 223.413 129.353 227.879 136.681 227.879H149.417C127.434 247.972 114 284.826 114 314.966V361.837C114 368.535 118.885 373 126.213 373H373.957C381.285 373 386.17 368.535 386.17 361.837V314.966C386.17 284.826 372.736 247.972 350.753 227.879H363.489C370.817 227.879 386.17 223.413 386.17 216.715ZM372.213 314.966V359.619H250.085H127.957V314.966C127.957 281.477 136.681 257.38 162.851 236.824L178.553 226.879C185.881 226.879 190.766 223.413 190.766 216.715V197.738C215.191 195.505 232.987 194.389 250.085 194.389C267.183 194.389 297.191 195.505 309.404 197.738V216.715C309.404 223.413 314.289 226.879 321.617 226.879L339.413 236.377C363.489 258.722 372.213 281.477 372.213 314.966ZM372.213 214.498H323.362V186.59C311.149 183.241 274.51 181.008 250.085 181.008C225.659 181.008 201.234 183.241 176.808 186.59V214.498H127.957V181.008C127.957 154.217 167.038 145.286 167.038 145.286C195.128 139.704 225.659 136.355 254.97 136.355C284.281 136.355 311.149 139.704 338.017 145.286C338.017 145.286 372.213 154.217 372.213 181.008V214.498Z" stroke="#4E4E4E" />
	</g>
	<defs>
		<clipPath id="clip0_1640_9160">
			<rect width="500" height="500" rx="250" fill="white" />
		</clipPath>
	</defs>
</svg>
