<svg width="500" height="500" viewBox="0 0 500 500" fill="none" xmlns="http://www.w3.org/2000/svg">
	<g clip-path="url(#clip0_1688_560)">
		<circle cx="250" cy="250" r="235.5" fill="white" stroke="white" stroke-width="29" />
		<path d="M155.103 392.953H226.721C226.721 392.953 227.142 365.493 227.195 347.896C227.216 340.858 227.34 336.91 227.195 329.873C227.088 324.685 227.444 321.732 226.721 316.593C226.139 312.455 225.6 310.146 224.349 306.159C223.156 302.351 222.243 300.288 220.555 296.673C219.048 293.444 218.159 291.641 216.286 288.61C213.989 284.891 212.667 282.759 209.646 279.598C206.828 276.649 204.801 275.465 201.583 272.958C197.082 269.451 194.577 267.425 189.726 264.421C186.132 262.195 183.767 261.535 180.24 259.204C175.631 256.157 173.26 254.079 169.332 250.192C167.188 248.072 166.109 246.763 164.115 244.501C161.244 241.246 159.531 239.489 157 235.964C155.203 233.459 154.293 231.982 152.732 229.324C151.137 226.609 150.519 224.932 148.937 222.209C147.285 219.366 146.191 217.873 144.432 215.095C142.672 212.317 142.12 210.43 139.926 207.981C137.996 205.825 136.71 204.735 134.234 203.238C128.732 199.911 124.406 201.214 118.108 199.918V182.369V174.306C118.108 171.898 118.152 170.548 118.108 168.14C118.002 162.203 118.174 158.814 117.16 152.963C116.607 149.776 116.675 147.81 115.263 144.9C114.388 143.098 113.762 142.116 112.417 140.631C111.27 139.366 110.527 138.72 109.097 137.786L109.028 137.741C107.052 136.45 105.777 135.617 103.405 135.414C101.342 135.238 100.191 135.837 98.1883 136.363C96.4886 136.809 95.3916 136.826 93.9197 137.786C90.5774 139.965 90.1253 147.271 90.1253 147.271C89.8092 149.485 89.1768 153.817 89.1768 153.437C89.1768 153.058 88.2282 158.97 87.7539 161.974C87.2796 164.978 86.1992 171.208 85.3824 177.152C84.5191 183.433 84.3029 186.989 83.4853 193.277C82.6409 199.771 81.9486 203.382 81.1138 209.878C80.2821 216.349 79.5517 219.961 79.2167 226.478C78.9409 231.842 78.915 234.869 79.2167 240.232C79.5625 246.379 79.7684 249.875 81.1138 255.884C82.7909 263.373 84.5884 267.389 87.7539 274.381C91.4494 282.543 93.9727 286.979 99.1369 294.301C104.811 302.346 109.203 305.909 115.737 313.273C120.525 318.669 123.278 321.633 128.069 327.027C133.472 333.111 136.708 336.35 141.823 342.679C146.9 348.959 154.154 359.279 154.154 359.279L155.103 392.953Z" fill="#FEF4E8" />
		<path d="M118.108 199.918C118.108 193.064 118.108 189.222 118.108 182.369C118.108 179.22 118.108 177.455 118.108 174.306C118.108 171.898 118.152 170.548 118.108 168.14C118.002 162.203 118.174 158.814 117.16 152.963C116.607 149.776 116.675 147.81 115.263 144.9C114.388 143.098 113.762 142.116 112.417 140.631C111.27 139.366 110.527 138.72 109.097 137.786C107.081 136.469 105.805 135.619 103.405 135.414C101.342 135.238 100.191 135.837 98.1883 136.363C96.4886 136.809 95.3916 136.826 93.9197 137.786C90.5774 139.965 90.1253 147.271 90.1253 147.271C89.8092 149.485 89.1768 153.817 89.1768 153.437C89.1768 153.058 88.2282 158.97 87.7539 161.974C87.2796 164.978 86.1992 171.208 85.3824 177.152C84.5191 183.433 84.3029 186.989 83.4853 193.277C82.6409 199.771 81.9486 203.382 81.1138 209.878C80.2821 216.349 79.5517 219.961 79.2167 226.478C78.9409 231.842 78.915 234.869 79.2167 240.232C79.5625 246.379 79.7684 249.875 81.1138 255.884C82.7909 263.373 84.5884 267.389 87.7539 274.381C91.4494 282.543 93.9727 286.979 99.1369 294.301C104.811 302.346 109.203 305.909 115.737 313.273C120.525 318.669 123.278 321.633 128.069 327.027C133.472 333.111 136.708 336.35 141.823 342.679C146.9 348.959 154.154 359.279 154.154 359.279L155.103 392.953H226.721C226.721 392.953 227.142 365.493 227.195 347.896C227.216 340.858 227.34 336.91 227.195 329.873C227.088 324.685 227.444 321.732 226.721 316.593C226.139 312.455 225.599 310.146 224.349 306.159C223.156 302.351 222.243 300.288 220.555 296.673C219.048 293.444 218.159 291.641 216.286 288.61C213.989 284.891 212.667 282.759 209.646 279.598C206.828 276.649 204.801 275.465 201.583 272.958C197.082 269.451 194.577 267.425 189.726 264.421C186.132 262.195 183.767 261.535 180.24 259.204C175.631 256.157 173.26 254.079 169.332 250.192C167.188 248.072 166.109 246.763 164.115 244.501C161.244 241.246 159.531 239.489 157 235.964C155.203 233.459 154.293 231.982 152.732 229.324C151.137 226.609 150.519 224.932 148.937 222.209C147.285 219.366 146.191 217.873 144.432 215.095C142.672 212.317 142.12 210.43 139.926 207.981C137.996 205.825 136.71 204.735 134.234 203.238C128.732 199.911 124.406 201.214 118.108 199.918ZM118.108 199.918C116.997 200.659 116.454 201.211 115.263 201.815L112.891 202.763C112.891 202.763 111.705 203.592 110.994 204.186C109.788 205.194 109.165 205.833 108.148 207.032C107.118 208.247 106.634 209.009 105.777 210.352C104.974 211.611 104.43 212.284 103.88 213.672C103.184 215.428 102.964 216.526 102.931 218.415C102.905 219.908 103.107 220.746 103.405 222.209C103.874 224.505 104.335 225.767 105.303 227.901C106.471 230.475 107.457 231.763 109.097 234.067C110.472 235.999 111.409 236.957 112.891 238.809C114.373 240.662 115.245 241.668 116.686 243.552C118.215 245.554 118.998 246.732 120.48 248.77C121.962 250.807 122.736 251.991 124.274 253.987C125.881 256.072 126.954 257.105 128.543 259.204C130.31 261.539 131.14 262.965 132.811 265.37C134.483 267.774 136.858 271.151 139.451 274.855C140.748 276.708 142.772 279.598 142.772 279.598C142.772 279.598 148.553 287.114 152.257 291.93C155.962 296.746 158.039 299.446 161.743 304.261" stroke="black" stroke-width="11.383" />
		<path d="M344.897 393.459H273.279C273.279 393.459 272.858 365.999 272.805 348.402C272.784 341.364 272.66 337.416 272.805 330.379C272.912 325.191 272.556 322.238 273.279 317.099C273.861 312.961 274.4 310.652 275.651 306.664C276.844 302.857 277.757 300.794 279.445 297.179C280.952 293.95 281.841 292.147 283.714 289.116C286.011 285.397 287.333 283.264 290.354 280.104C293.172 277.155 295.199 275.971 298.417 273.464C302.918 269.957 305.423 267.931 310.274 264.927C313.868 262.701 316.233 262.041 319.76 259.71C324.369 256.662 326.74 254.584 330.668 250.698C332.812 248.578 333.891 247.268 335.885 245.007C338.756 241.751 340.469 239.995 343 236.47C344.797 233.965 345.707 232.488 347.268 229.829C348.863 227.114 349.481 225.438 351.063 222.715C352.715 219.872 353.809 218.379 355.568 215.601C357.328 212.822 357.88 210.936 360.074 208.486C362.004 206.331 363.29 205.24 365.766 203.744C371.268 200.417 375.594 201.72 381.892 200.424V182.875V174.812C381.892 172.404 381.848 171.054 381.892 168.646C381.998 162.708 381.826 159.32 382.84 153.469C383.393 150.282 383.325 148.316 384.737 145.406C385.612 143.604 386.238 142.622 387.583 141.137C388.73 139.872 389.473 139.225 390.903 138.292L390.972 138.246C392.948 136.955 394.223 136.123 396.595 135.92C398.658 135.744 399.809 136.343 401.812 136.869C403.511 137.315 404.608 137.332 406.08 138.292C409.423 140.471 409.875 147.777 409.875 147.777C410.191 149.991 410.823 154.322 410.823 153.943C410.823 153.564 411.772 159.476 412.246 162.48C412.72 165.484 413.801 171.714 414.618 177.657C415.481 183.939 415.697 187.495 416.515 193.783C417.359 200.277 418.051 203.888 418.886 210.383C419.718 216.855 420.448 220.467 420.783 226.984C421.059 232.348 421.085 235.375 420.783 240.738C420.437 246.885 420.232 250.381 418.886 256.39C417.209 263.879 415.412 267.895 412.246 274.887C408.551 283.049 406.027 287.485 400.863 294.807C395.189 302.852 390.797 306.415 384.263 313.779C379.475 319.175 376.722 322.139 371.931 327.533C366.528 333.617 363.292 336.856 358.177 343.185C353.1 349.465 345.846 359.785 345.846 359.785L344.897 393.459Z" fill="#FEF4E8" />
		<path d="M381.892 200.424C381.892 193.57 381.892 189.728 381.892 182.875C381.892 179.726 381.892 177.961 381.892 174.812C381.892 172.404 381.848 171.054 381.892 168.646C381.998 162.708 381.826 159.32 382.84 153.469C383.393 150.282 383.325 148.316 384.737 145.406C385.612 143.604 386.238 142.622 387.583 141.137C388.73 139.872 389.473 139.225 390.903 138.292C392.919 136.975 394.195 136.125 396.595 135.92C398.658 135.744 399.809 136.343 401.812 136.869C403.511 137.315 404.608 137.332 406.08 138.292C409.423 140.471 409.875 147.777 409.875 147.777C410.191 149.991 410.823 154.322 410.823 153.943C410.823 153.564 411.772 159.476 412.246 162.48C412.72 165.484 413.801 171.714 414.618 177.657C415.481 183.939 415.697 187.495 416.515 193.783C417.359 200.277 418.051 203.888 418.886 210.383C419.718 216.855 420.448 220.467 420.783 226.984C421.059 232.348 421.085 235.375 420.783 240.738C420.437 246.885 420.232 250.381 418.886 256.39C417.209 263.879 415.412 267.895 412.246 274.887C408.551 283.049 406.027 287.485 400.863 294.807C395.189 302.852 390.797 306.415 384.263 313.779C379.475 319.175 376.722 322.139 371.931 327.533C366.528 333.617 363.292 336.856 358.177 343.185C353.1 349.465 345.846 359.785 345.846 359.785L344.897 393.459H273.279C273.279 393.459 272.858 365.999 272.805 348.402C272.784 341.364 272.66 337.416 272.805 330.379C272.912 325.19 272.556 322.238 273.279 317.099C273.861 312.961 274.401 310.652 275.651 306.664C276.844 302.857 277.757 300.794 279.445 297.179C280.952 293.95 281.841 292.147 283.714 289.116C286.011 285.397 287.333 283.264 290.354 280.104C293.172 277.155 295.199 275.971 298.417 273.464C302.918 269.957 305.423 267.931 310.274 264.927C313.868 262.701 316.233 262.041 319.76 259.71C324.369 256.662 326.74 254.584 330.668 250.698C332.812 248.578 333.891 247.268 335.885 245.007C338.756 241.751 340.469 239.995 343 236.47C344.797 233.965 345.707 232.488 347.268 229.829C348.863 227.114 349.481 225.438 351.063 222.715C352.715 219.872 353.809 218.379 355.568 215.601C357.328 212.822 357.88 210.936 360.074 208.486C362.004 206.331 363.29 205.24 365.766 203.744C371.268 200.417 375.594 201.72 381.892 200.424ZM381.892 200.424C383.003 201.164 383.546 201.717 384.737 202.321L387.109 203.269C387.109 203.269 388.295 204.098 389.006 204.692C390.212 205.7 390.835 206.339 391.852 207.538C392.882 208.753 393.366 209.515 394.223 210.858C395.026 212.117 395.57 212.79 396.12 214.178C396.816 215.934 397.036 217.032 397.069 218.921C397.095 220.414 396.893 221.252 396.595 222.715C396.126 225.011 395.665 226.273 394.697 228.407C393.529 230.981 392.543 232.269 390.903 234.572C389.528 236.505 388.591 237.463 387.109 239.315C385.627 241.167 384.755 242.173 383.314 244.058C381.785 246.06 381.002 247.238 379.52 249.275C378.038 251.313 377.264 252.497 375.726 254.493C374.119 256.578 373.046 257.611 371.457 259.71C369.69 262.045 368.86 263.471 367.189 265.876C365.517 268.28 363.142 271.657 360.549 275.361C359.252 277.214 357.228 280.104 357.228 280.104C357.228 280.104 351.447 287.62 347.743 292.436C344.038 297.251 341.961 299.952 338.257 304.767" stroke="black" stroke-width="11.383" />
		<path d="M316.745 137.155C312.513 132.993 307.449 129.684 301.852 127.424C296.256 125.164 290.241 124 284.164 124C278.087 124 272.073 125.164 266.476 127.424C260.88 129.684 255.815 132.993 251.584 137.155C247.352 132.993 242.288 129.684 236.691 127.424C231.095 125.164 225.08 124 219.003 124C212.927 124 206.912 125.164 201.315 127.424C195.719 129.684 190.654 132.993 186.423 137.155C177.761 145.654 172.914 157.044 172.914 168.901C172.914 180.758 177.761 192.147 186.423 200.646L251.584 264.088L316.745 200.596C325.391 192.099 330.228 180.721 330.228 168.876C330.228 157.031 325.391 145.652 316.745 137.155Z" fill="#4045A1" stroke="black" stroke-width="12.5957" stroke-linecap="round" stroke-linejoin="round" />
		<path d="M304.008 169.026C304.008 163.718 301.799 158.628 297.866 154.874C293.934 151.121 288.6 149.013 283.039 149.013" fill="#4045A1" />
		<path d="M304.008 169.026C304.008 163.718 301.799 158.628 297.866 154.874C293.934 151.121 288.6 149.013 283.039 149.013" stroke="black" stroke-width="12.5957" stroke-linecap="round" stroke-linejoin="round" />
	</g>
	<defs>
		<clipPath id="clip0_1688_560">
			<rect width="500" height="500" rx="250" fill="white" />
		</clipPath>
	</defs>
</svg>
