<svg width="500" height="500" viewBox="0 0 500 500" fill="none" xmlns="http://www.w3.org/2000/svg">
	<g clip-path="url(#clip0_1580_988)">
		<circle cx="250" cy="250" r="235.5" fill="white" stroke="white" stroke-width="29" />
		<path d="M159.44 281.509H108.164V275.786H159.44V281.509ZM149.185 302.449C149.185 294.817 145.576 291.002 138.357 291.002C136.259 291.002 134.096 291.622 131.87 292.862C129.676 294.102 127.705 295.819 125.956 298.013C124.238 300.207 122.839 302.815 121.758 305.836C120.709 308.857 120.184 311.989 120.184 315.233V329.113L112.361 325.011V289.141H120.566V294.817C121.233 294.309 122.33 293.45 123.857 292.242C125.415 291.033 127.291 289.92 129.485 288.903C131.711 287.885 134.112 287.376 136.688 287.376C139.2 287.376 141.617 287.917 143.938 288.998C146.26 290.079 148.326 291.59 150.139 293.53C151.952 295.469 153.383 297.759 154.432 300.398C155.481 303.006 156.006 305.804 156.006 308.793C156.006 312.164 155.275 315.614 153.812 319.144C152.349 322.642 150.028 326.124 146.848 329.59L137.642 323.819C138.214 323.055 139.28 321.942 140.838 320.48C142.396 319.017 143.763 317.538 144.94 316.044C146.116 314.517 147.118 312.641 147.945 310.415C148.772 308.157 149.185 305.502 149.185 302.449ZM208.952 281.509H195.93V290.906C196.789 291.097 197.504 291.335 198.077 291.622C198.649 291.876 199.015 292.067 199.174 292.194V297.823C195.39 296.519 191.446 295.867 187.344 295.867C184.546 295.867 181.509 296.439 178.234 297.584C174.958 298.729 173.273 300.51 173.178 302.926C173.178 305.47 176.787 306.742 184.005 306.742C184.61 306.742 185.643 306.71 187.106 306.647C188.569 306.551 189.523 306.488 189.968 306.456V310.844C187.678 310.908 185.039 311.035 182.05 311.226C179.061 311.385 176.374 311.957 173.989 312.943C171.635 313.929 170.459 315.535 170.459 317.761C170.459 319.605 171.54 321.116 173.702 322.292C175.897 323.437 178.361 324.009 181.096 324.009C186.597 324.009 191.431 322.753 195.596 320.241C199.794 317.697 203.324 314.374 206.185 310.272V322.34C202.815 324.47 199.555 325.87 196.407 326.537C193.259 327.205 190.047 327.539 186.772 327.539C183.56 327.539 179.935 327.062 175.897 326.108C171.89 325.122 168.44 323.723 165.546 321.911C162.684 320.066 161.253 317.936 161.253 315.519C161.253 313.07 162.175 311.131 164.019 309.7C165.896 308.269 168.042 306.981 170.459 305.836C169.187 305.105 168.122 304.5 167.263 304.023C166.436 303.546 165.768 302.974 165.26 302.306C164.751 301.638 164.496 300.764 164.496 299.683C164.496 297.584 165.339 295.835 167.025 294.436C168.742 293.005 170.872 291.924 173.416 291.192C175.96 290.461 178.552 289.952 181.191 289.666C183.831 289.38 186.311 289.237 188.632 289.237V281.509H158.057V275.786H208.952V281.509ZM262.47 281.509H207.76V275.786H262.47V281.509ZM258.654 307.887C258.654 311.353 257.605 314.629 255.506 317.713C253.408 320.766 250.8 323.183 247.684 324.963C244.599 326.744 241.705 327.634 239.002 327.634C236.554 327.634 233.915 326.633 231.084 324.629C228.286 322.626 224.836 319.685 220.734 315.805V356.254L213.102 352.247V289.141H220.543V300.78C221.115 300.176 222.069 299.158 223.405 297.727C224.772 296.296 226.33 294.802 228.079 293.243C229.828 291.653 231.752 290.254 233.851 289.046C235.95 287.806 237.921 287.186 239.766 287.186C241.515 287.186 243.47 287.79 245.633 288.998C247.827 290.175 249.91 291.749 251.881 293.72C253.885 295.692 255.506 297.934 256.747 300.446C258.018 302.926 258.654 305.407 258.654 307.887ZM253.932 302.354C253.932 301.591 253.614 300.525 252.978 299.158C252.374 297.791 251.436 296.551 250.164 295.438C248.892 294.293 247.318 293.72 245.442 293.72C243.343 293.72 240.99 294.42 238.382 295.819C235.775 297.218 233.294 298.983 230.941 301.114C228.588 303.213 226.648 305.375 225.122 307.601C223.627 309.795 222.88 311.592 222.88 312.991C222.88 313.977 223.437 314.994 224.55 316.044C225.663 317.061 227.094 317.936 228.843 318.667C230.592 319.367 232.325 319.716 234.042 319.716C236.904 319.716 239.575 319.112 242.055 317.904C244.567 316.664 246.682 315.137 248.399 313.325C250.148 311.512 251.5 309.62 252.454 307.649C253.439 305.645 253.932 303.88 253.932 302.354ZM307.975 281.509H276.208V289.141C276.367 289.141 276.494 289.205 276.589 289.332C276.685 289.459 276.796 289.523 276.923 289.523C276.86 289.523 277.512 289.332 278.879 288.951C280.278 288.569 281.868 288.235 283.649 287.949C285.43 287.631 287.147 287.472 288.8 287.472C292.616 287.472 295.621 287.997 297.815 289.046C300.01 290.095 301.584 291.574 302.538 293.482C303.523 295.39 304.112 297.536 304.302 299.921C304.525 302.274 304.636 305.518 304.636 309.652V328.493C302.887 327.793 301.313 327.11 299.914 326.442C298.515 325.742 297.545 325.234 297.005 324.916C297.005 323.866 296.814 323.214 296.432 322.96C295.383 323.564 294.206 324.232 292.902 324.963C291.599 325.663 289.897 326.283 287.799 326.824C285.7 327.364 283.204 327.634 280.31 327.634C277.543 327.634 274.84 327.126 272.201 326.108C269.562 325.091 267.415 323.644 265.762 321.767C264.14 319.86 263.329 317.713 263.329 315.328C263.329 313.102 264.362 310.781 266.429 308.364C268.496 305.915 271.263 303.896 274.729 302.306C278.195 300.684 281.979 299.874 286.081 299.874C288.307 299.874 290.422 300.207 292.425 300.875C294.429 301.511 295.955 302.227 297.005 303.022V298.633C295.764 296.98 294.524 295.835 293.284 295.199C292.044 294.563 290.136 294.245 287.56 294.245C284.221 294.372 281.582 294.658 279.642 295.104C277.734 295.517 275.667 296.185 273.441 297.107C271.247 297.997 269.403 298.697 267.908 299.206V295.676C268.131 295.485 268.449 295.215 268.862 294.865C269.275 294.515 269.546 294.261 269.673 294.102C269.832 293.943 269.927 293.848 269.959 293.816V281.509H260.181V275.786H307.975V281.509ZM297.005 311.703C297.005 310.24 295.367 309.016 292.092 308.03C288.816 307.044 286.495 306.551 285.127 306.551C281.661 306.551 278.497 307.283 275.635 308.746C272.805 310.208 270.579 311.91 268.957 313.849C267.336 315.757 266.525 317.331 266.525 318.572C266.97 319.907 267.956 320.829 269.482 321.338C271.04 321.815 272.694 322.054 274.443 322.054C277.686 322.054 280.691 321.624 283.458 320.766C286.256 319.907 288.673 318.858 290.708 317.618C292.743 316.346 294.302 315.137 295.383 313.993C296.464 312.848 297.005 312.085 297.005 311.703ZM328.534 281.509H323.478V275.786H328.534V281.509ZM312.221 281.509H306.783V275.786H312.221V281.509ZM321.903 270.014V328.732C321.776 328.732 321.347 328.541 320.616 328.159C319.916 327.809 319.105 327.396 318.183 326.919C317.261 326.442 316.307 325.965 315.321 325.488C314.335 324.979 313.795 324.725 313.699 324.725V270.109C313.54 266.325 312.888 262.78 311.744 259.472C310.599 256.165 309.311 253.415 307.88 251.221C306.481 249.026 304.97 247.007 303.349 245.163C301.695 243.318 300.677 242.19 300.296 241.776H310.456C313.159 244.479 315.385 247.58 317.134 251.077C318.883 254.544 320.107 257.93 320.806 261.237C321.538 264.513 321.903 267.438 321.903 270.014Z" fill="black" />
		<path d="M126.948 178.621V259.422H110.031V178.621H126.948ZM160.914 211.767V259.422H145.89V178.621H165.215L200.942 241.358C200.254 235.547 199.91 230.29 199.91 225.588V178.621H214.934V259.422H195.093L159.882 197.201C160.226 200.222 160.475 202.955 160.628 205.402C160.819 207.81 160.914 209.932 160.914 211.767Z" fill="#4045A1" />
		<path d="M305.96 218.419C305.96 227.06 304.278 234.438 300.913 240.555C297.587 246.672 292.961 251.355 287.036 254.605C281.148 257.816 274.343 259.422 266.62 259.422H233.933V178.621H263.18C276.79 178.621 287.322 182.062 294.777 188.943C302.232 195.787 305.96 205.612 305.96 218.419ZM288.928 218.419C288.928 209.741 286.672 203.127 282.161 198.578C277.65 193.99 271.208 191.696 262.836 191.696H250.85V246.347H265.187C270.042 246.347 274.228 245.219 277.746 242.964C281.301 240.67 284.054 237.439 286.003 233.272C287.953 229.105 288.928 224.154 288.928 218.419ZM400.541 218.649C400.541 227.06 398.839 234.419 395.437 240.727C392.073 246.997 387.313 251.871 381.158 255.35C375.041 258.829 367.853 260.569 359.595 260.569C351.146 260.569 343.883 258.887 337.804 255.522C331.725 252.12 327.061 247.284 323.811 241.014C320.562 234.744 318.937 227.289 318.937 218.649C318.937 210.009 320.543 202.611 323.754 196.456C327.004 190.301 331.668 185.598 337.747 182.349C343.864 179.061 351.185 177.417 359.71 177.417C368.274 177.417 375.595 179.08 381.674 182.406C387.752 185.694 392.417 190.415 395.666 196.57C398.916 202.726 400.541 210.085 400.541 218.649ZM383.279 218.649C383.279 209.932 381.215 203.108 377.086 198.176C372.957 193.206 367.165 190.721 359.71 190.721C352.14 190.721 346.291 193.187 342.162 198.119C338.033 203.012 335.969 209.856 335.969 218.649C335.969 224.536 336.925 229.621 338.836 233.903C340.748 238.185 343.462 241.492 346.979 243.824C350.535 246.118 354.74 247.264 359.595 247.264C367.165 247.264 372.995 244.779 377.086 239.809C381.215 234.839 383.279 227.786 383.279 218.649Z" fill="#1D810B" />
	</g>
	<defs>
		<clipPath id="clip0_1580_988">
			<rect width="500" height="500" rx="250" fill="white" />
		</clipPath>
	</defs>
</svg>
