<svg width="500" height="500" viewBox="0 0 500 500" fill="none" xmlns="http://www.w3.org/2000/svg">
	<g clip-path="url(#clip0_1580_914)">
		<circle cx="250" cy="250" r="235.5" fill="white" stroke="white" stroke-width="29" />
		<path d="M210.794 146.203L236.858 105.96L264.799 130.773L278.352 144.535L287.318 169.974L280.646 192.91L270.011 198.957C259.507 202.295 253.331 207.506 243.113 207.506C232.896 207.506 229.977 202.918 229.977 202.918L215.173 196.038L203.496 183.527L201.828 164.552L210.794 146.203Z" fill="#FEF4E8" />
		<mask id="mask0_1580_914" style="mask-type:luminance" maskUnits="userSpaceOnUse" x="197" y="100" width="93" height="108">
			<path d="M197.578 100.441H289.19V207.572H197.578V100.441Z" fill="white" />
		</mask>
		<g mask="url(#mask0_1580_914)">
			<path d="M233.241 102.789C225.14 135.127 200.289 149.835 200.289 173.907C200.289 189.707 212.42 199.812 229.286 204.712C224.313 201.477 218.034 194.555 218.034 188.034C218.034 175.685 224.269 171.685 228.173 158.275C237.539 165.093 238.312 175.347 238.312 175.347C238.312 175.347 249.428 156.885 245.918 136.935C264.479 151.522 271.365 166.059 271.264 178.136C271.156 190.799 263.427 200.754 255.638 205.224C272.616 203.148 286.471 190.034 286.471 173.664C286.471 149.588 270.444 131.73 233.241 102.789Z" stroke="#4045A1" stroke-width="5.44262" stroke-miterlimit="10" stroke-linecap="round" stroke-linejoin="round" />
		</g>
		<mask id="path-6-inside-1_1580_914" fill="white">
			<rect x="199.812" y="222.07" width="95.7596" height="89.7058" rx="6.48193" />
		</mask>
		<rect x="199.812" y="222.07" width="95.7596" height="89.7058" rx="6.48193" fill="#FEF4E8" stroke="black" stroke-width="18" mask="url(#path-6-inside-1_1580_914)" />
		<path d="M293.195 242.806H377.973C379.068 242.806 379.955 243.693 379.955 244.788V289.059C379.955 290.154 379.068 291.041 377.973 291.041H293.195V242.806Z" fill="#FEF4E8" stroke="black" stroke-width="9" />
		<rect x="113.688" y="238.306" width="95.7596" height="57.2356" rx="6.48193" fill="#FEF4E8" />
		<rect x="113.688" y="238.306" width="95.7596" height="57.2356" rx="6.48193" stroke="black" />
		<path d="M271.812 394.45V309.672H225.559C224.464 309.672 223.577 310.559 223.577 311.654V394.45C223.577 395.544 224.464 396.432 225.559 396.432H269.831C270.925 396.432 271.812 395.544 271.812 394.45Z" fill="#FEF4E8" stroke="black" stroke-width="9" />
		<path d="M113.961 238.306H203.392V295.541H113.961" stroke="black" stroke-width="9" />
	</g>
	<defs>
		<clipPath id="clip0_1580_914">
			<rect width="500" height="500" rx="250" fill="white" />
		</clipPath>
	</defs>
</svg>
