<svg width="500" height="500" viewBox="0 0 500 500" fill="none" xmlns="http://www.w3.org/2000/svg">
	<mask id="mask0_2954_4424" style="mask-type:luminance" maskUnits="userSpaceOnUse" x="181" y="83" width="157" height="164">
		<path d="M181.477 83.3359H337.032V246.264H181.477V83.3359Z" fill="white" />
	</mask>
	<g mask="url(#mask0_2954_4424)">
		<path d="M326.353 162.091C326.353 167.272 325.876 172.405 324.964 177.49C324.053 182.576 322.664 187.471 320.885 192.272C319.062 197.025 316.848 201.587 314.201 205.865C311.553 210.19 308.558 214.183 305.216 217.842C301.874 221.454 298.228 224.734 294.279 227.633C290.329 230.485 286.206 232.909 281.822 234.905C277.438 236.854 272.924 238.375 268.28 239.373C263.636 240.371 258.949 240.894 254.174 240.894C249.444 240.894 244.756 240.371 240.112 239.373C235.468 238.375 230.954 236.854 226.57 234.905C222.187 232.909 218.02 230.485 214.114 227.633C210.164 224.734 206.518 221.454 203.176 217.842C199.834 214.183 196.839 210.19 194.192 205.865C191.544 201.587 189.331 197.025 187.508 192.272C185.728 187.471 184.339 182.576 183.428 177.49C182.473 172.405 182.039 167.272 182.039 162.091C182.039 156.958 182.473 151.825 183.428 146.739C184.339 141.654 185.728 136.758 187.508 131.958C189.331 127.205 191.544 122.642 194.192 118.317C196.839 114.039 199.834 110.047 203.176 106.387C206.518 102.728 210.164 99.4957 214.114 96.5965C218.02 93.7447 222.187 91.3208 226.57 89.3245C230.954 87.3283 235.468 85.855 240.112 84.8569C244.756 83.8112 249.444 83.3359 254.174 83.3359C258.949 83.3359 263.636 83.8112 268.28 84.8569C272.924 85.855 277.438 87.3283 281.822 89.3245C286.206 91.3208 290.329 93.7447 294.279 96.5965C298.228 99.4957 301.874 102.728 305.216 106.387C308.558 110.047 311.553 114.039 314.201 118.317C316.848 122.642 319.062 127.205 320.885 131.958C322.664 136.758 324.053 141.654 324.964 146.739C325.876 151.825 326.353 156.958 326.353 162.091Z" fill="#231942" />
	</g>
	<mask id="mask1_2954_4424" style="mask-type:luminance" maskUnits="userSpaceOnUse" x="16" y="307" width="476" height="114">
		<path d="M20.4141 310.869H487.914V417.248H20.4141V310.869Z" fill="white" stroke="white" stroke-width="7.5" />
	</mask>
	<g mask="url(#mask1_2954_4424)">
		<path d="M353.036 325.182H354.094L354.996 324.629C368.525 316.333 382.996 312.207 398.522 312.207C404.342 312.207 410.101 312.799 415.807 314.067L415.818 314.069L415.83 314.071C421.519 315.299 427.077 317.116 432.467 319.568C437.856 322.038 443.011 325.001 447.817 328.54L447.823 328.544L447.83 328.549C452.709 332.11 457.209 336.126 461.334 340.644L461.34 340.651L461.347 340.658C465.508 345.169 469.183 350.104 472.453 355.429C475.71 360.733 478.471 366.364 480.733 372.279C482.959 378.262 484.675 384.363 485.803 390.633L485.805 390.645L485.808 390.657C486.977 396.924 487.523 403.299 487.523 409.741C487.523 411.947 486.84 413.692 485.51 415.149C484.138 416.652 482.693 417.255 480.987 417.255H27.3845C25.6202 417.255 24.196 416.642 22.8889 415.179L22.8755 415.164L22.862 415.149C21.5058 413.664 20.8047 411.908 20.8047 409.741C20.8047 405.469 21.0563 401.257 21.5985 397.055L21.6009 397.037L21.603 397.019C22.1047 392.807 22.8582 388.674 23.8264 384.522C24.8291 380.454 26.0833 376.424 27.549 372.477C29.0686 368.55 30.7425 364.753 32.6947 361.069L32.7012 361.056C34.6233 357.396 36.7532 353.873 39.091 350.488C41.4843 347.134 44.0387 343.926 46.7527 340.908C49.4411 337.919 52.3506 335.139 55.4073 332.524C58.5067 329.957 61.7203 327.582 65.0472 325.442C68.3589 323.311 71.8063 321.445 75.3524 319.8C78.9173 318.166 82.5771 316.799 86.2937 315.655C90.0039 314.527 93.7759 313.708 97.6194 313.114C101.439 312.523 105.24 312.207 109.069 312.207H109.091L109.113 312.207C112.97 312.161 116.786 312.388 120.65 312.889C124.437 313.385 128.209 314.199 131.973 315.253C135.698 316.295 139.354 317.613 142.941 319.165C146.552 320.757 150.005 322.579 153.387 324.636L154.285 325.182H155.336H353.036Z" fill="#FFB35A" stroke="#FFB35A" stroke-width="7.5" />
	</g>
	<path d="M372.105 185.576C374.738 183.659 377.466 182.029 380.33 180.713C383.237 179.427 386.238 178.418 389.251 177.763C392.352 177.099 395.426 176.75 398.522 176.75C401.62 176.75 404.693 177.099 407.744 177.762L407.754 177.764C410.797 178.417 413.753 179.422 416.67 180.713C419.544 182.033 422.31 183.664 424.926 185.567C427.503 187.473 429.918 189.644 432.133 192.081L432.144 192.093L432.155 192.106C434.4 194.532 436.378 197.193 438.126 200.055L438.132 200.065C439.905 202.947 441.365 205.976 442.59 209.211L445.559 208.087L442.59 209.211C443.802 212.411 444.7 215.723 445.359 219.16C445.964 222.545 446.25 225.99 446.25 229.5C446.25 233.01 445.964 236.455 445.359 239.84C444.7 243.277 443.802 246.589 442.59 249.789C441.365 253.024 439.905 256.053 438.132 258.935L438.122 258.951L438.112 258.967C436.382 261.845 434.413 264.455 432.155 266.894L432.144 266.907L432.133 266.919C429.924 269.35 427.505 271.526 424.91 273.492C422.316 275.377 419.551 276.965 416.648 278.296C413.783 279.61 410.836 280.575 407.754 281.236L407.724 281.242L407.694 281.249C404.709 281.941 401.656 282.25 398.522 282.25C395.389 282.25 392.333 281.941 389.296 281.247L389.276 281.242L389.256 281.238C386.202 280.575 383.209 279.606 380.352 278.296C377.459 276.97 374.732 275.382 372.122 273.484C369.495 271.525 367.079 269.352 364.867 266.919C362.642 264.47 360.66 261.846 358.878 258.951C357.123 256.03 355.631 253.005 354.468 249.828L354.461 249.808L354.454 249.789C353.229 246.556 352.296 243.247 351.689 239.861C351.075 236.441 350.75 232.988 350.75 229.5C350.75 226.012 351.075 222.559 351.689 219.139C352.296 215.753 353.229 212.444 354.454 209.211L354.461 209.192L354.468 209.172C355.63 205.999 357.119 202.977 358.871 200.06C360.67 197.184 362.657 194.513 364.867 192.081C367.084 189.642 369.496 187.475 372.105 185.576Z" fill="#FFB35A" stroke="#FFB35A" stroke-width="7.5" />
	<path d="M151.132 258.935L151.122 258.951L151.112 258.967C149.385 261.841 147.413 264.456 145.187 266.907C142.908 269.369 140.527 271.541 137.921 273.484C135.324 275.373 132.556 276.963 129.648 278.296C126.782 279.61 123.831 280.577 120.787 281.238L120.767 281.242L120.747 281.247C117.711 281.941 114.654 282.25 111.522 282.25C108.389 282.25 105.333 281.941 102.296 281.247L102.276 281.242L102.256 281.238C99.2023 280.575 96.2092 279.606 93.3519 278.296C90.4591 276.97 87.7316 275.382 85.1219 273.484C82.4945 271.525 80.0786 269.352 77.8674 266.919C75.6417 264.47 73.6604 261.846 71.8777 258.951C70.1377 256.054 68.6763 253.018 67.4535 249.789C66.2293 246.556 65.296 243.247 64.6886 239.861C64.075 236.441 63.75 232.988 63.75 229.5C63.75 226.012 64.075 222.559 64.6886 219.139L61.5116 218.569L64.6886 219.139C65.296 215.753 66.2293 212.444 67.4535 209.211L64.5527 208.113L67.4535 209.211C68.6747 205.986 70.134 202.953 71.871 200.06C73.67 197.184 75.6567 194.513 77.8674 192.081C80.084 189.642 82.4963 187.475 85.1054 185.576C87.7384 183.659 90.4661 182.029 93.3304 180.713C96.237 179.427 99.2384 178.418 102.251 177.763C105.352 177.099 108.426 176.75 111.522 176.75C114.617 176.75 117.691 177.099 120.792 177.763C123.796 178.416 126.754 179.423 129.67 180.714C132.548 182.035 135.318 183.669 137.938 185.576C140.526 187.46 142.902 189.624 145.187 192.093C147.401 194.53 149.381 197.197 151.126 200.055L151.132 200.065C152.905 202.947 154.365 205.976 155.59 209.211L158.559 208.087L155.59 209.211C156.802 212.411 157.7 215.723 158.359 219.16C158.964 222.545 159.25 225.99 159.25 229.5C159.25 233.01 158.964 236.455 158.359 239.84C157.7 243.277 156.802 246.589 155.59 249.789C154.365 253.024 152.905 256.053 151.132 258.935Z" fill="#FFB35A" stroke="#FFB35A" stroke-width="7.5" />
	<mask id="mask2_2954_4424" style="mask-type:luminance" maskUnits="userSpaceOnUse" x="114" y="258" width="279" height="163">
		<path d="M114.812 258.423H392.59V420.971H114.812V258.423Z" fill="white" />
	</mask>
	<g mask="url(#mask2_2954_4424)">
		<path d="M254.18 263.414C245.412 263.414 236.688 264.365 228.051 266.218C219.457 268.119 211.081 270.924 202.921 274.583C194.805 278.243 187.079 282.758 179.787 288.129C172.452 293.452 165.681 299.488 159.475 306.285C153.268 313.082 147.713 320.496 142.808 328.481C137.947 336.466 133.78 344.878 130.438 353.766C127.053 362.607 124.492 371.78 122.799 381.19C121.063 390.601 120.195 400.107 120.195 409.707C120.195 412.797 121.194 415.458 123.19 417.645C125.23 419.879 127.661 420.972 130.482 420.972H377.921C380.742 420.972 383.173 419.879 385.213 417.645C387.209 415.458 388.207 412.797 388.207 409.707C388.207 400.107 387.339 390.601 385.603 381.19C383.911 371.78 381.35 362.607 377.964 353.766C374.579 344.878 370.456 336.466 365.595 328.481C360.69 320.496 355.135 313.082 348.928 306.285C342.678 299.488 335.907 293.452 328.615 288.129C321.324 282.758 313.598 278.243 305.438 274.583C297.322 270.924 288.945 268.119 280.352 266.218C271.714 264.365 262.99 263.414 254.18 263.414Z" fill="#231942" />
	</g>
</svg>
