<svg width="500" height="500" viewBox="0 0 500 500" fill="none" xmlns="http://www.w3.org/2000/svg">
	<rect x="136" y="57" width="225" height="409" fill="white" />
	<ellipse cx="250" cy="430" rx="68" ry="36" fill="#FFB35A" />
	<mask id="mask0_2954_4463" style="mask-type:luminance" maskUnits="userSpaceOnUse" x="111" y="13" width="278" height="474">
		<path d="M111 13H388.958V486.12H111V13Z" fill="white" />
	</mask>
	<g mask="url(#mask0_2954_4463)">
		<path d="M336.881 13H164.851C135.158 13 111.07 37.0872 111.07 66.7497V432.371C111.07 462.033 135.158 486.12 164.851 486.12H336.881C366.574 486.12 390.661 462.033 390.661 432.371V66.7497C390.661 37.0872 366.574 13 336.881 13ZM250.85 464.62C233.016 464.62 218.6 450.205 218.6 432.371C218.6 414.505 233.016 400.09 250.85 400.09C268.715 400.09 283.131 414.505 283.131 432.371C283.131 450.205 268.715 464.62 250.85 464.62ZM347.63 378.59H154.101V77.5304H347.63V378.59Z" fill="#231942" />
	</g>
</svg>
