<svg width="23" height="20" viewBox="0 0 23 20" fill="none" xmlns="http://www.w3.org/2000/svg">
	<rect width="22.109" height="19.142" fill="white" />
	<mask id="mask0_556_14" style="mask-type:luminance" maskUnits="userSpaceOnUse" x="3" y="6" width="16" height="11">
		<path d="M3.40479 6.61719H18.66V16.1484H3.40479V6.61719Z" fill="white" />
	</mask>
	<g mask="url(#mask0_556_14)">
		<path fill-rule="evenodd" clip-rule="evenodd" d="M18.6497 8.17143C18.6497 7.76077 18.4609 7.36694 18.1247 7.07649C17.7887 6.78621 17.3328 6.62305 16.8576 6.62305C14.0296 6.62305 8.03466 6.62305 5.2067 6.62305C4.73129 6.62305 4.27546 6.78621 3.93938 7.07649C3.60321 7.36694 3.41455 7.76077 3.41455 8.17143C3.41455 9.89379 3.41455 12.8801 3.41455 14.6024C3.41455 15.013 3.60321 15.407 3.93938 15.6972C4.27546 15.9877 4.73129 16.1508 5.2067 16.1508C8.03466 16.1508 14.0296 16.1508 16.8576 16.1508C17.3328 16.1508 17.7887 15.9877 18.1247 15.6972C18.4609 15.407 18.6497 15.013 18.6497 14.6024C18.6497 12.8801 18.6497 9.89379 18.6497 8.17143ZM18.1407 8.17143C18.1407 9.89379 18.1407 12.8801 18.1407 14.6024C18.1407 14.8964 18.0055 15.1785 17.765 15.3865C17.5243 15.5943 17.1978 15.7111 16.8576 15.7111C14.0296 15.7111 8.03466 15.7111 5.2067 15.7111C4.86619 15.7111 4.53981 15.5943 4.29918 15.3865C4.05847 15.1785 3.92328 14.8964 3.92328 14.6024C3.92328 12.8801 3.92328 9.89379 3.92328 8.17143C3.92328 7.8774 4.05847 7.59541 4.29918 7.38744C4.53981 7.17946 4.86619 7.06267 5.2067 7.06267C8.03466 7.06267 14.0296 7.06267 16.8576 7.06267C17.1978 7.06267 17.5243 7.17946 17.765 7.38744C18.0055 7.59541 18.1407 7.8774 18.1407 8.17143Z" fill="#0077b6" />
	</g>
	<path fill-rule="evenodd" clip-rule="evenodd" d="M15.4939 8.66605C15.4939 8.28955 15.1407 7.98438 14.705 7.98438C12.9711 7.98438 7.51476 7.98438 5.78099 7.98438C5.3454 7.98438 4.99219 8.28955 4.99219 8.66605C4.99219 9.84021 4.99219 12.9299 4.99219 14.1041C4.99219 14.4805 5.3454 14.7857 5.78099 14.7857C7.51476 14.7857 12.9711 14.7857 14.705 14.7857C15.1407 14.7857 15.4939 14.4805 15.4939 14.1041V8.66605ZM14.985 8.66605V14.1041C14.985 14.2377 14.8596 14.346 14.705 14.346C12.9711 14.346 7.51476 14.346 5.78099 14.346C5.62632 14.346 5.50101 14.2377 5.50101 14.1041C5.50101 12.9299 5.50101 9.84021 5.50101 8.66605C5.50101 8.53241 5.62632 8.42399 5.78099 8.42399C7.51476 8.42399 12.9711 8.42399 14.705 8.42399C14.8596 8.42399 14.985 8.53241 14.985 8.66605Z" fill="#0077b6" />
	<path fill-rule="evenodd" clip-rule="evenodd" d="M13.3902 6.84085C13.3902 5.96657 12.5699 5.25781 11.558 5.25781C11.2138 5.25781 10.8494 5.25781 10.5051 5.25781C10.0195 5.25781 9.55366 5.42447 9.21024 5.72118C8.86691 6.01789 8.67383 6.42034 8.67383 6.83987C8.67383 6.84052 8.67383 6.84085 8.67383 6.84085C8.67383 6.96228 8.78783 7.06061 8.92838 7.06061H13.1358V6.84085H13.3902ZM12.8568 6.621C12.7383 6.09467 12.2019 5.69743 11.558 5.69743C11.2138 5.69743 10.8494 5.69743 10.5051 5.69743C10.1544 5.69743 9.8181 5.81781 9.57004 6.03213C9.38261 6.1939 9.25731 6.39952 9.20732 6.621H12.8568Z" fill="#0077b6" />
	<path fill-rule="evenodd" clip-rule="evenodd" d="M11.0317 5.10884L14.57 3.02454C14.6859 2.95614 14.8444 2.98208 14.9235 3.08229C15.0025 3.18257 14.9726 3.31938 14.8566 3.38778L11.175 5.55651C11.0886 5.60743 10.9748 5.60743 10.8883 5.55651L7.20671 3.38778C7.09072 3.31938 7.06079 3.18257 7.13996 3.08229C7.21894 2.98208 7.37738 2.95614 7.49346 3.02454L11.0317 5.10884Z" fill="#FF6800" />
	<path fill-rule="evenodd" clip-rule="evenodd" d="M17.5973 10.0225C17.5973 9.90107 17.4835 9.80273 17.3429 9.80273H16.291C16.1505 9.80273 16.0366 9.90107 16.0366 10.0225V10.9313C16.0366 11.0528 16.1505 11.1511 16.291 11.1511H17.3429C17.4835 11.1511 17.5973 11.0528 17.5973 10.9313V10.0225ZM16.5454 10.2424V10.7115H17.0884V10.2424H16.5454Z" fill="#FF6800" />
	<path fill-rule="evenodd" clip-rule="evenodd" d="M17.5973 11.839C17.5973 11.7176 17.4835 11.6191 17.3429 11.6191H16.291C16.1505 11.6191 16.0366 11.7176 16.0366 11.839V12.7478C16.0366 12.8693 16.1505 12.9677 16.291 12.9677H17.3429C17.4835 12.9677 17.5973 12.8693 17.5973 12.7478V11.839ZM16.5454 12.0588V12.5281H17.0884V12.0588H16.5454Z" fill="#0077b6" />
</svg>
