<svg width="550" height="550" viewBox="0 0 550 550" fill="none" xmlns="http://www.w3.org/2000/svg">
<path d="M484.53 87.6201H65.47V464.71H484.53V87.6201Z" stroke="#902ECE" stroke-width="0.5" stroke-linejoin="round"/>
<path d="M65.47 401.86H484.53" stroke="#902ECE" stroke-width="0.5" stroke-linejoin="round"/>
<path d="M65.47 339.01H484.53" stroke="#902ECE" stroke-width="0.5" stroke-linejoin="round"/>
<path d="M65.47 276.17H484.53" stroke="#902ECE" stroke-width="0.5" stroke-linejoin="round"/>
<path d="M65.47 213.32H484.53" stroke="#902ECE" stroke-width="0.5" stroke-linejoin="round"/>
<path d="M65.47 150.47H484.53" stroke="#902ECE" stroke-width="0.5" stroke-linejoin="round"/>
<path d="M414.69 87.6201V464.71" stroke="#902ECE" stroke-width="0.5" stroke-linejoin="round"/>
<path d="M344.84 87.6201V464.71" stroke="#902ECE" stroke-width="0.5" stroke-linejoin="round"/>
<path d="M275 87.6201V464.71" stroke="#902ECE" stroke-width="0.5" stroke-linejoin="round"/>
<path d="M205.16 87.6201V464.71" stroke="#902ECE" stroke-width="0.5" stroke-linejoin="round"/>
<path d="M135.31 87.6201V464.71" stroke="#902ECE" stroke-width="0.5" stroke-linejoin="round"/>
<path d="M185.131 510.299C272.304 510.299 342.971 505.034 342.971 498.539C342.971 492.044 272.304 486.779 185.131 486.779C97.9586 486.779 27.2913 492.044 27.2913 498.539C27.2913 505.034 97.9586 510.299 185.131 510.299Z" fill="#1F002A"/>
<path d="M27.2913 462.85V493.32C27.2913 499.14 90.6512 503.86 168.811 503.86C246.971 503.86 310.341 499.14 310.341 493.32V462.85H27.2913Z" fill="#3C0050" stroke="#1F002A" stroke-width="0.64" stroke-linecap="round" stroke-linejoin="round"/>
<path d="M168.811 473.39C246.976 473.39 310.341 468.671 310.341 462.85C310.341 457.028 246.976 452.31 168.811 452.31C90.6464 452.31 27.2812 457.028 27.2812 462.85C27.2812 468.671 90.6464 473.39 168.811 473.39Z" fill="#E4C5FF" stroke="#1F002A" stroke-width="0.64" stroke-linecap="round" stroke-linejoin="round"/>
<path d="M168.811 466.84C218.335 466.84 258.481 464.498 258.481 461.61C258.481 458.721 218.335 456.38 168.811 456.38C119.288 456.38 79.1414 458.721 79.1414 461.61C79.1414 464.498 119.288 466.84 168.811 466.84Z" fill="#1F002A"/>
<path d="M50.9512 434.88V460.26C50.9512 465.11 103.721 469.04 168.821 469.04C233.921 469.04 286.691 465.11 286.691 460.26V434.88H50.9512Z" fill="#3C0050" stroke="#1F002A" stroke-width="0.53" stroke-linecap="round" stroke-linejoin="round"/>
<path d="M168.811 443.66C233.909 443.66 286.681 439.729 286.681 434.88C286.681 430.031 233.909 426.1 168.811 426.1C103.713 426.1 50.9412 430.031 50.9412 434.88C50.9412 439.729 103.713 443.66 168.811 443.66Z" fill="#E4C5FF" stroke="#1F002A" stroke-width="0.53" stroke-linecap="round" stroke-linejoin="round"/>
<path d="M69.6711 423.959L132.811 423.729L107.291 433.849L77.6611 431.039L69.6711 423.959Z" fill="white" stroke="black" stroke-width="0.25" stroke-linecap="round" stroke-linejoin="round"/>
<path d="M226.311 235.22C226.121 235.17 225.101 235.03 224.781 235.05L87.3211 240.87L87.2811 238.58L80.9511 241.47C79.1411 242.26 77.9311 244.12 78.0811 246.24L89.1611 405.26C89.7611 413.84 92.9811 428.61 81.1111 426.65L69.6711 423.97L70.2211 431.94C70.3211 433.32 71.2211 434.53 72.5111 435.04L100.321 440.22L229.811 236.24L232.221 236.5L226.291 235.25L226.311 235.22Z" fill="#21002A" stroke="#220E29" stroke-width="0.25" stroke-linecap="round" stroke-linejoin="round"/>
<path d="M244.841 434.69L102.741 440.7C100.011 440.82 97.6412 438.69 97.4512 435.95L84.0412 243.49C83.8512 240.75 85.9112 238.43 88.6412 238.32L230.741 232.31C233.471 232.19 235.841 234.32 236.031 237.06L249.441 429.52C249.631 432.26 247.571 434.58 244.841 434.69Z" fill="#E9C5FF" stroke="#220E29" stroke-width="0.25" stroke-linecap="round" stroke-linejoin="round"/>
<path d="M236.031 237.06L249.441 429.52C249.631 432.26 247.571 434.58 244.841 434.69L102.741 440.7C100.011 440.82 97.6412 438.69 97.4512 435.95L96.2712 419.02L236.041 237.06H236.031Z" fill="#D692FF"/>
<path d="M106.921 379.469L98.7413 262.119C98.5813 259.839 100.301 257.909 102.571 257.809L219.571 252.859C221.851 252.759 223.821 254.539 223.981 256.819L232.161 374.169C232.321 376.449 230.601 378.379 228.331 378.479L111.331 383.429C109.051 383.529 107.081 381.749 106.921 379.469Z" fill="white" stroke="#21002A" stroke-width="0.25" stroke-linecap="round" stroke-linejoin="round"/>
<path d="M136.011 291.119L112.741 292.109L111.111 268.769L134.381 267.779L136.011 291.119Z" fill="#21002A"/>
<path d="M123.681 309.579L113.981 309.989L113.301 300.269L123.001 299.859L123.681 309.579Z" fill="#21002A"/>
<path d="M134.071 318.889L124.371 319.299L123.691 309.579L133.391 309.159L134.071 318.889Z" fill="#21002A"/>
<path d="M157.541 349.369L146.911 349.819L146.161 339.149L156.801 338.699L157.541 349.369Z" fill="#21002A"/>
<path d="M125.801 340.019L116.101 340.429L114.661 319.689L124.351 319.279L125.801 340.019Z" fill="#21002A"/>
<path d="M132.001 287.519L116.221 288.189L115.121 272.369L130.901 271.699L132.001 287.519Z" fill="white"/>
<path d="M128.791 284.649L119.011 285.059L118.321 275.239L128.111 274.829L128.791 284.649Z" fill="#21002A"/>
<path d="M214.251 287.81L190.981 288.8L189.361 265.45L212.631 264.47L214.251 287.81Z" fill="#21002A"/>
<path d="M210.251 284.21L194.471 284.88L193.361 269.05L209.141 268.39L210.251 284.21Z" fill="white"/>
<path d="M207.041 281.33L197.251 281.75L196.571 271.93L206.361 271.52L207.041 281.33Z" fill="#21002A"/>
<path d="M141.561 370.84L118.291 371.83L116.661 348.49L139.941 347.5L141.561 370.84Z" fill="#21002A"/>
<path d="M137.551 367.24L121.771 367.91L120.671 352.09L136.451 351.42L137.551 367.24Z" fill="white"/>
<path d="M134.351 364.37L124.561 364.78L123.881 354.96L133.661 354.55L134.351 364.37Z" fill="#21002A"/>
<path d="M125.451 340.03L124.781 330.3L145.451 329.43L146.131 339.15L125.451 340.03Z" fill="#21002A"/>
<path d="M168.681 369.689L158.991 370.099L157.541 349.359L167.241 348.949L168.681 369.689Z" fill="#21002A"/>
<path d="M168.311 369.699L167.631 359.979L147.671 360.819L148.351 370.549L168.311 369.699Z" fill="#21002A"/>
<path d="M156.781 338.73L156.101 329L176.421 328.14L177.101 337.87L156.781 338.73Z" fill="#21002A"/>
<path d="M156.751 338.35L166.451 337.94L165.051 317.93L155.361 318.34L156.751 338.35Z" fill="#21002A"/>
<path d="M178.271 358.5L177.591 348.78L197.921 347.92L198.601 357.64L178.271 358.5Z" fill="#21002A"/>
<path d="M178.241 358.119L187.941 357.709L186.551 337.699L176.851 338.109L178.241 358.119Z" fill="#21002A"/>
<path d="M201.971 326.799L201.291 317.069L175.841 318.149L176.521 327.879L201.971 326.799Z" fill="#21002A"/>
<path d="M197.071 327.009L206.771 326.599L205.381 306.579L195.681 306.989L197.071 327.009Z" fill="#21002A"/>
<path d="M153.451 297.88L154.121 307.43L134.171 308.27L133.511 298.73L153.451 297.88Z" fill="#21002A"/>
<path d="M153.481 298.26L143.961 298.66L145.331 318.3L154.841 317.89L153.481 298.26Z" fill="#21002A"/>
<path d="M173.061 286.499L182.751 286.089L182.081 276.359L172.381 276.769L173.061 286.499Z" fill="#21002A"/>
<path d="M162.481 277.239L172.181 276.829L171.501 267.109L161.801 267.519L162.481 277.239Z" fill="#21002A"/>
<path d="M163.851 296.869L173.551 296.459L172.871 286.729L163.171 287.139L163.851 296.869Z" fill="#21002A"/>
<path d="M165.321 318.029L175.021 317.619L174.341 307.899L164.651 308.309L165.321 318.029Z" fill="#21002A"/>
<path d="M185.111 306.629L194.801 306.209L194.131 296.489L184.431 296.899L185.111 306.629Z" fill="#21002A"/>
<path d="M205.751 305.749L215.451 305.339L214.771 295.619L205.081 296.029L205.751 305.749Z" fill="#21002A"/>
<path d="M207.881 336.3L217.581 335.89L216.901 326.17L207.201 326.58L207.881 336.3Z" fill="#21002A"/>
<path d="M198.011 347.94L207.701 347.53L207.021 337.81L197.331 338.22L198.011 347.94Z" fill="#21002A"/>
<path d="M199.361 367.43L209.061 367.02L208.381 357.3L198.691 357.71L199.361 367.43Z" fill="#21002A"/>
<path d="M143.061 287.68L152.581 287.27L151.181 267.27L141.671 267.67L143.061 287.68Z" fill="#21002A"/>
<path d="M143.431 287.66L142.771 278.12L162.351 277.29L163.011 286.83L143.431 287.66Z" fill="#21002A"/>
<path opacity="0.5" d="M87.0012 286.04L88.0412 300.97L82.4912 309.63L81.4512 294.7L87.0012 286.04Z" fill="#BB79D5"/>
<path opacity="0.5" d="M88.5512 308.229L89.1912 317.539L83.6512 326.189L83.0012 316.889L88.5512 308.229Z" fill="#BB79D5"/>
<path d="M244.841 434.69L102.741 440.7C100.011 440.82 97.6412 438.69 97.4512 435.95L84.0412 243.49C83.8512 240.75 85.9112 238.43 88.6412 238.32L230.741 232.31C233.471 232.19 235.841 234.32 236.031 237.06L249.441 429.52C249.631 432.26 247.571 434.58 244.841 434.69Z" stroke="#220E29" stroke-width="0.25" stroke-linecap="round" stroke-linejoin="round"/>
<path d="M231.171 377.139L378.621 216.819L322.531 140.779L101.281 258.109C100.981 258.229 100.691 258.379 100.431 258.559L100.381 258.579C99.3112 259.369 98.6512 260.669 98.7512 262.119L106.931 379.469C107.091 381.749 109.061 383.529 111.341 383.429L228.341 378.479C229.471 378.429 230.461 377.929 231.161 377.159L231.171 377.139Z" fill="url(#paint0_linear_3783_16969)" stroke="white" stroke-width="0.4"/>
<path d="M281.131 186.319C281.131 186.319 264.051 174.909 257.591 183.129C257.591 183.129 253.381 189.439 259.261 197.809C259.261 197.809 266.301 208.469 292.281 226.089L281.131 186.319Z" fill="#FFA180"/>
<path d="M292.281 226.1C285.571 221.55 280.131 217.46 275.741 213.91L271.241 181.46C276.551 183.27 281.131 186.33 281.131 186.33L292.281 226.1Z" fill="#97554A"/>
<path d="M281.131 186.319C281.131 186.319 264.051 174.909 257.591 183.129C257.591 183.129 253.381 189.439 259.261 197.809C259.261 197.809 266.301 208.469 292.281 226.089L281.131 186.319Z" stroke="#21002A" stroke-width="0.25" stroke-miterlimit="10"/>
<path d="M540.091 414.85C531.571 448.94 480.981 480.19 480.981 480.19C463.111 489.74 453.471 488.17 448.351 484.53C444.101 466.5 439.201 445.81 435.171 428.99C435.001 428.3 434.841 427.62 434.681 426.95C434.591 426.56 434.501 426.17 434.401 425.78C434.241 425.11 434.081 424.44 433.921 423.78C433.791 423.24 433.661 422.7 433.531 422.17C433.401 421.63 433.281 421.11 433.151 420.59C432.901 419.55 432.661 418.54 432.421 417.55C430.591 410.02 429.101 403.96 428.141 400.25C428.141 400.25 420.151 398.41 418.591 392.3C418.591 392.3 418.511 392.3 418.361 392.27C418.261 392.25 418.131 392.23 417.971 392.21C414.001 391.56 391.221 386.97 362.211 363.18C358.711 360.31 355.121 357.16 351.471 353.7C349.561 351.9 347.621 350.01 345.681 348.03C345.421 347.77 345.161 347.51 344.911 347.24C344.491 346.82 344.091 346.4 343.681 345.98L343.511 344.92L338.511 313.82L418.771 301.18L430.281 299.37L433.441 298.87L443.081 297.35L445.931 296.9L458.031 295L465.721 302.88L494.851 332.73C494.851 332.73 494.821 343.56 498.791 350.22L509.041 365.84L539.681 412.51C540.131 413.2 540.301 414.05 540.101 414.85H540.091Z" fill="#FFA180"/>
<path d="M435.471 351.8C429.801 348.1 427.491 342.69 427.491 342.69L362.021 363.24C356.281 358.29 348.521 351.6 343.801 345.95L342.981 340.83L420.291 328.56L432.701 333.86C433.871 339.35 435.481 351.8 435.481 351.8H435.471Z" fill="#97554A"/>
<path d="M539.891 415.61C530.821 449.41 480.971 480.19 480.971 480.19C463.101 489.74 453.461 488.17 448.341 484.53C444.091 466.5 439.191 445.81 435.161 428.99C434.991 428.3 434.831 427.62 434.671 426.95C434.581 426.56 434.491 426.17 434.391 425.78C434.231 425.11 434.071 424.44 433.911 423.78C433.781 423.24 433.651 422.7 433.521 422.17C433.391 421.63 433.271 421.11 433.141 420.59C432.891 419.55 432.651 418.54 432.411 417.55C430.581 410.02 429.091 403.96 428.131 400.25C428.131 400.25 420.141 398.41 418.581 392.3C418.581 392.3 418.501 392.3 418.351 392.27C418.251 392.25 418.121 392.23 417.961 392.21C413.941 391.6 390.891 387.16 362.011 363.24C362.011 363.24 361.991 363.22 361.981 363.22C359.281 360.98 356.521 358.57 353.731 355.97C353.471 355.73 353.221 355.49 352.961 355.26C352.431 354.76 351.891 354.25 351.361 353.73C349.471 351.92 347.561 350.02 345.641 348.04C345.531 347.92 345.421 347.81 345.311 347.7C344.761 347.13 344.221 346.56 343.671 345.98L343.501 344.92L338.501 313.82L418.761 301.18L430.271 299.37L433.431 298.87L443.071 297.35L445.921 296.9L458.021 295L465.711 302.88L494.841 332.73C494.841 332.73 494.811 343.56 498.781 350.22L509.031 365.84L539.311 411.97C540.021 413.05 540.221 414.37 539.881 415.61H539.891Z" stroke="#21002A" stroke-width="0.25" stroke-miterlimit="10"/>
<path d="M413.741 236.109C413.741 236.109 431.201 248.129 440.101 254.369C449.561 260.989 472.061 270.289 472.061 270.289L461.321 325.449L396.201 288.319L413.741 236.109Z" fill="#E57461" stroke="#21002A" stroke-width="0.25" stroke-miterlimit="10"/>
<path d="M449.391 319.48L273.811 134.71L269.151 142.01C267.191 144.57 266.381 148.02 267.331 151.35L323.551 349.86C325.141 355.41 330.571 358.66 336.111 357.38L436.901 333.26C439.951 332.56 442.421 330.58 443.911 328.02L449.401 319.48H449.391Z" fill="#21002A" stroke="#21002A" stroke-width="0.25" stroke-linecap="round" stroke-linejoin="round"/>
<path d="M341.481 349.03L442.271 324.91C448.401 323.5 452.181 316.95 450.411 310.82L388.211 117.28C386.741 112.21 381.841 109.18 376.741 110.19L280.591 129.83C274.741 130.99 271.041 137.18 272.711 143L328.931 341.51C330.521 347.06 335.951 350.31 341.491 349.03H341.481Z" fill="#CA8DE0" stroke="#21002A" stroke-width="0.25" stroke-linecap="round" stroke-linejoin="round"/>
<path d="M276.631 142.74L332.001 339.9C333.161 343.98 337.161 346.38 341.251 345.45L441.881 321.41C446.191 320.41 448.861 315.81 447.621 311.48L386.041 119.48C384.871 115.42 380.941 112.99 376.861 113.8L353.461 118.45C351.431 118.85 349.861 120.59 349.601 122.71C349.431 124.14 348.361 125.32 346.991 125.6L316.681 131.63C315.491 131.87 314.281 131.51 313.421 130.66L311.711 128.96C310.511 127.78 308.831 127.27 307.171 127.6L282.811 132.45C278.251 133.36 275.351 138.18 276.641 142.73L276.631 142.74Z" fill="white" stroke="#21002A" stroke-width="0.25" stroke-linecap="round" stroke-linejoin="round"/>
<path d="M294.671 247.919C297.571 243.619 302.931 235.879 306.061 232.589C306.061 232.589 311.061 226.669 309.351 219.029C309.351 219.029 308.321 212.179 299.801 215.559C299.801 215.559 287.501 221.179 282.581 225.399C282.581 225.399 279.891 226.919 279.301 232.899C279.301 232.899 278.601 247.189 279.301 251.869C279.301 251.869 279.531 258.779 287.381 259.129C287.381 259.129 294.311 253.269 295.711 251.629L294.661 247.919H294.671Z" fill="#FFA180" stroke="#21002A" stroke-width="0.25" stroke-miterlimit="10"/>
<path d="M302.301 274.86C308.591 267.23 312.791 259.13 312.791 259.13C316.521 251.79 312.791 247.49 312.791 247.49C308.861 243.18 303.071 246.89 303.071 246.89L287.641 256.85C287.641 256.85 285.351 258.01 285.051 261.66C285.051 261.66 284.011 273.14 286.711 278.9C286.711 278.9 290.331 286.57 296.131 281.36C297.841 279.83 301.991 280.99 303.511 279.23L302.291 274.85L302.301 274.86Z" fill="#FFA180" stroke="#21002A" stroke-width="0.25" stroke-miterlimit="10"/>
<path d="M314.971 278.22C314.971 278.22 303.781 278.52 298.521 278.3C298.521 278.3 291.801 277.23 290.981 284.93C290.981 284.93 290.621 294.47 289.851 297.35C289.851 297.35 287.951 302.99 293.651 308.23C293.651 308.23 306.791 322.59 317.861 330.14L308.861 298.02L315.001 291.84C315.001 291.84 319.431 287.48 318.661 283.19C318.661 283.19 318.241 278.23 314.981 278.23L314.971 278.22Z" fill="#FFA180" stroke="#21002A" stroke-width="0.25" stroke-miterlimit="10"/>
<path d="M308.791 298.06C308.791 298.06 306.611 300.05 304.761 301.35" stroke="#21002A" stroke-width="0.25" stroke-miterlimit="10"/>
<path d="M494.851 332.729C493.761 263.859 490.191 253.119 490.191 253.119C488.891 245.039 484.911 242.849 484.911 242.849C465.361 229.829 453.121 214.639 453.121 214.639C450.851 211.709 442.821 211.119 442.821 211.119C418.951 209.439 409.671 206.999 405.901 206.009C404.871 205.739 403.801 206.189 403.271 207.119C402.451 208.549 401.691 211.109 402.661 215.239C402.661 215.239 402.981 216.249 405.111 218.179C405.111 218.179 420.031 229.849 427.631 233.299C427.631 233.299 435.461 236.999 444.181 237.019C444.181 237.019 443.171 243.159 450.251 255.029C450.251 255.029 449.091 258.649 449.461 261.589C449.461 261.589 435.211 277.599 432.771 304.159C432.771 304.159 429.651 326.399 435.791 353.189" fill="#FFA180"/>
<path d="M494.851 332.729C493.761 263.859 490.191 253.119 490.191 253.119C488.891 245.039 484.911 242.849 484.911 242.849C465.361 229.829 453.121 214.639 453.121 214.639C450.851 211.709 442.821 211.119 442.821 211.119C418.951 209.439 409.671 206.999 405.901 206.009C404.871 205.739 403.801 206.189 403.271 207.119C402.451 208.549 401.691 211.109 402.661 215.239C402.661 215.239 402.981 216.249 405.111 218.179C405.111 218.179 420.031 229.849 427.631 233.299C427.631 233.299 435.461 236.999 444.181 237.019C444.181 237.019 443.171 243.159 450.251 255.029C450.251 255.029 449.091 258.649 449.461 261.589C449.461 261.589 435.211 277.599 432.771 304.159C432.771 304.159 429.651 326.399 435.791 353.189" stroke="#21002A" stroke-width="0.25" stroke-miterlimit="10"/>
<path d="M444.181 237.039C444.181 237.039 446.251 236.749 446.981 236.109L444.181 237.039Z" fill="#FFA180"/>
<path d="M444.181 237.039C444.181 237.039 446.251 236.749 446.981 236.109" stroke="#21002A" stroke-width="0.25" stroke-miterlimit="10"/>
<path d="M450.251 255.05C450.251 255.05 450.671 256.12 451.801 257.19L450.251 255.05Z" fill="#FFA180"/>
<path d="M450.251 255.05C450.251 255.05 450.671 256.12 451.801 257.19" stroke="#21002A" stroke-width="0.25" stroke-miterlimit="10"/>
<path d="M418.591 392.3C418.591 392.3 422.591 392.63 424.891 392.3" stroke="#21002A" stroke-width="0.25" stroke-miterlimit="10"/>
<path d="M428.141 400.25C428.141 400.25 429.981 400.9 431.031 401.2" stroke="#21002A" stroke-width="0.25" stroke-miterlimit="10"/>
<path d="M348.861 216.809C364.518 216.809 377.211 204.117 377.211 188.459C377.211 172.802 364.518 160.109 348.861 160.109C333.204 160.109 320.511 172.802 320.511 188.459C320.511 204.117 333.204 216.809 348.861 216.809Z" fill="#22D081" stroke="#21002A" stroke-width="0.25" stroke-linecap="round" stroke-linejoin="round"/>
<path d="M346.461 200.62L334.011 192.62L336.681 188.46L344.951 193.78L358.911 174.72L363.071 177.37L346.461 200.62Z" fill="white"/>
<path d="M330.721 238.47L335.201 237.36C337.551 236.78 339.481 237.94 339.971 239.84C340.461 241.74 339.331 243.67 336.961 244.25L334.531 244.84L335.281 247.81L333.201 248.32L330.721 238.48V238.47ZM336.391 242.29C337.571 242 338.031 241.21 337.821 240.37C337.611 239.53 336.821 239.05 335.641 239.34L333.291 239.92L334.041 242.87L336.401 242.29H336.391Z" fill="black"/>
<path d="M341.331 242.5C340.731 240.17 341.811 238.34 343.621 237.89C345.161 237.51 346.151 238.47 346.151 238.47L346.221 238.45L345.981 237.53L347.941 237.05L349.841 244.27L347.871 244.75L347.631 243.83L347.561 243.85C347.561 243.85 347.151 245.16 345.611 245.53C343.791 245.97 341.931 244.84 341.331 242.51V242.5ZM346.921 241.13C346.571 239.79 345.591 239.2 344.551 239.46C343.571 239.7 343.011 240.66 343.351 242.01C343.701 243.35 344.671 243.94 345.651 243.71C346.701 243.45 347.271 242.49 346.921 241.14V241.13Z" fill="black"/>
<path d="M354.221 243.21L352.661 243.59L348.851 236.83L350.891 236.33L353.771 241.5L354.341 241.36L354.421 235.46L356.471 234.96L356.231 245.61L354.171 246.11L354.231 243.21H354.221Z" fill="black"/>
<path d="M357.231 234.759L359.211 234.269L359.481 235.259L359.551 235.239C359.551 235.239 359.791 233.899 361.351 233.509C363.201 233.049 364.131 234.259 364.131 234.259L364.201 234.239C364.201 234.239 364.401 232.749 366.181 232.309C367.961 231.869 369.261 232.689 369.811 234.679L371.041 239.099L369.031 239.589L367.871 235.379C367.581 234.309 366.941 233.939 366.081 234.149C365.221 234.359 364.711 235.249 365.021 236.379L366.101 240.299L364.101 240.789L362.951 236.589C362.661 235.529 362.031 235.149 361.171 235.359C360.311 235.569 359.801 236.449 360.111 237.589L361.171 241.499L359.181 241.979L357.231 234.739V234.759Z" fill="black"/>
<path d="M371.111 235.21C370.521 233.08 371.761 230.95 373.981 230.4C376.281 229.83 378.351 231.16 378.961 233.29L379.081 233.72L373.311 235.13C373.711 236.02 374.731 236.62 375.661 236.39C376.961 236.07 377.081 235.13 377.081 235.13L379.251 234.6C379.251 234.6 379.331 237.34 376.151 238.11C373.911 238.65 371.711 237.36 371.111 235.22V235.21ZM376.581 233.04C376.231 232.36 375.411 231.88 374.471 232.11C373.531 232.34 373.071 233.14 373.051 233.9L376.581 233.04Z" fill="black"/>
<path d="M379.161 229.359L381.181 228.859L381.471 229.859L381.541 229.839C381.541 229.839 381.841 228.469 383.511 228.059C385.321 227.609 386.721 228.409 387.301 230.409L388.591 234.859L386.551 235.359L385.351 231.199C385.041 230.129 384.301 229.699 383.351 229.929C382.401 230.159 381.841 231.139 382.161 232.289L383.271 236.159L381.241 236.649L379.161 229.359Z" fill="black"/>
<path d="M388.861 228.8L387.911 229.03L387.411 227.32L388.361 227.09L387.901 225.52L389.941 225.02L390.401 226.59L392.521 226.07L393.021 227.79L390.901 228.31L392.031 232.18L394.231 231.64L394.741 233.37L390.491 234.4L388.861 228.8Z" fill="black"/>
<path d="M330.031 263.88L332.051 263.4C332.051 263.4 332.581 264.27 333.821 263.97C334.731 263.76 334.941 263.4 334.831 262.97C334.541 261.82 330.361 263.72 329.651 260.85C329.371 259.71 330.141 258.39 332.091 257.92C335.091 257.21 336.031 259.48 336.031 259.48L334.071 259.94C334.071 259.94 333.681 259.27 332.501 259.56C331.801 259.73 331.601 260.08 331.671 260.36C331.961 261.51 336.141 259.6 336.861 262.48C337.171 263.7 336.341 265.12 334.241 265.62C331.161 266.34 330.031 263.87 330.031 263.87V263.88Z" fill="black"/>
<path d="M337.801 261.509L336.671 257.059L338.631 256.589L339.691 260.749C339.961 261.829 340.671 262.269 341.591 262.059C342.511 261.849 343.081 260.869 342.781 259.709L341.781 255.829L343.751 255.359L345.641 262.709L343.661 263.169L343.401 262.159L343.331 262.179C343.331 262.179 343.011 263.559 341.391 263.939C339.631 264.349 338.301 263.519 337.791 261.499L337.801 261.509Z" fill="black"/>
<path d="M345.831 258.78C345.271 256.62 346.521 254.49 348.711 253.97C351.831 253.23 353.151 255.97 353.151 255.97L351.091 256.46C351.091 256.46 350.431 255.39 349.161 255.69C348.171 255.93 347.551 256.99 347.881 258.29C348.221 259.59 349.291 260.26 350.291 260.02C351.571 259.72 351.621 258.48 351.621 258.48L353.681 257.99C353.681 257.99 353.941 261.01 350.741 261.76C348.541 262.28 346.391 260.94 345.831 258.77V258.78Z" fill="black"/>
<path d="M354.131 256.81C353.561 254.65 354.811 252.51 357.011 251.99C360.151 251.24 361.501 253.99 361.501 253.99L359.421 254.48C359.421 254.48 358.751 253.41 357.471 253.71C356.471 253.95 355.851 255.02 356.191 256.32C356.531 257.62 357.621 258.29 358.631 258.05C359.921 257.75 359.971 256.5 359.971 256.5L362.051 256.01C362.051 256.01 362.331 259.03 359.101 259.79C356.881 260.31 354.711 258.97 354.131 256.8V256.81Z" fill="black"/>
<path d="M362.491 254.84C361.901 252.67 363.161 250.53 365.381 250C367.601 249.47 369.751 250.82 370.341 252.99L370.461 253.43L364.691 254.79C365.091 255.7 366.101 256.31 367.041 256.09C368.341 255.78 368.461 254.83 368.461 254.83L370.631 254.32C370.631 254.32 370.701 257.1 367.511 257.84C365.271 258.36 363.071 257.02 362.491 254.85V254.84ZM367.961 252.69C367.621 252 366.791 251.5 365.861 251.72C364.931 251.94 364.461 252.75 364.441 253.52L367.971 252.68L367.961 252.69Z" fill="black"/>
<path d="M371.431 254.12L373.531 253.62C373.531 253.62 374.101 254.5 375.391 254.19C376.341 253.97 376.551 253.61 376.421 253.17C376.101 252 371.771 253.96 370.961 251.05C370.641 249.89 371.421 248.55 373.451 248.06C376.571 247.32 377.601 249.62 377.601 249.62L375.571 250.1C375.571 250.1 375.151 249.43 373.921 249.72C373.201 249.89 372.991 250.25 373.071 250.54C373.391 251.7 377.721 249.75 378.541 252.66C378.891 253.9 378.051 255.35 375.861 255.86C372.661 256.61 371.431 254.11 371.431 254.11V254.12Z" fill="black"/>
<path d="M379.131 252.3L381.251 251.8C381.251 251.8 381.831 252.68 383.131 252.37C384.081 252.15 384.291 251.78 384.171 251.35C383.841 250.18 379.481 252.14 378.661 249.23C378.331 248.07 379.121 246.72 381.161 246.23C384.301 245.48 385.351 247.79 385.351 247.79L383.301 248.28C383.301 248.28 382.871 247.6 381.631 247.9C380.901 248.07 380.691 248.43 380.771 248.72C381.101 249.88 385.461 247.92 386.291 250.84C386.651 252.08 385.801 253.53 383.601 254.05C380.381 254.81 379.131 252.3 379.131 252.3Z" fill="black"/>
<path d="M386.881 247.12L385.931 247.35L385.431 245.6L386.381 245.37L385.551 242.47L389.721 241.47L390.221 243.21L388.091 243.72L388.421 244.88L390.111 244.48L390.621 246.23L388.931 246.63L390.531 252.19L388.471 252.67L386.881 247.11V247.12Z" fill="black"/>
<path d="M392.571 248.579L391.261 244.049L393.321 243.559L394.551 247.799C394.871 248.899 395.631 249.349 396.601 249.119C397.571 248.889 398.141 247.889 397.801 246.719L396.641 242.769L398.711 242.279L400.911 249.759L398.831 250.249L398.531 249.219L398.461 249.239C398.461 249.239 398.161 250.649 396.451 251.049C394.601 251.479 393.171 250.639 392.571 248.589V248.579Z" fill="black"/>
<path d="M399.521 239.119L401.602 238.619L404.121 247.109L405.841 246.709L406.371 248.479L402.561 249.369L399.531 239.119H399.521Z" fill="black"/>
<path d="M509.031 365.84C509.031 365.84 509.031 381.72 433.521 422.17L438.882 444.29L513.582 373.57L509.031 365.85V365.84Z" fill="#97554A"/>
<path d="M540.051 414.989C531.431 449.029 480.971 480.189 480.971 480.189C463.101 489.739 453.461 488.169 448.341 484.529C443.731 481.269 442.771 476.349 442.771 476.349C435.841 453.029 425.101 431.509 424.771 430.849C424.771 430.849 424.768 430.842 424.761 430.829L432.981 424.499L434.191 424.939C434.351 425.649 434.501 426.279 434.671 426.959C434.831 427.629 434.991 428.309 435.161 428.999C444.231 424.879 458.041 416.119 472.661 404.839C490.991 390.699 505.171 376.789 509.171 369.539C509.811 368.379 509.751 366.959 509.031 365.849L509.981 365.119C510.041 365.189 539.611 412.379 539.611 412.379C540.101 413.159 540.271 414.109 540.051 414.999V414.989Z" fill="#22D081" stroke="#21002A" stroke-width="0.25" stroke-linecap="round" stroke-linejoin="round"/>
<path d="M433.921 423.78C434.321 425.47 434.741 427.21 435.171 428.99C429.671 431.48 425.921 432.26 424.781 430.85C424.781 430.85 424.781 430.843 424.781 430.83C423.401 429.04 426.401 424.14 432.431 417.54C432.901 419.52 433.401 421.61 433.931 423.78H433.921Z" fill="black" stroke="#220E29" stroke-width="0.25" stroke-linecap="round" stroke-linejoin="round"/>
<path d="M415.99 117.97C395.17 106.82 393.5 103.18 398.17 79.7402C386.96 100.89 383.34 102.6 360.19 98.0902C381.01 109.24 382.68 112.88 378.01 136.32C389.22 115.17 392.84 113.46 415.99 117.97Z" fill="white" stroke="#110604" stroke-width="0.25" stroke-miterlimit="10"/>
<path d="M93.2449 192.63C81.339 185.995 80.4081 183.871 83.2657 170.274C76.6635 182.491 74.5603 183.462 61.2773 180.669C73.1832 187.304 74.1141 189.428 71.2565 203.025C77.8587 190.808 79.9619 189.837 93.2449 192.63Z" fill="white" stroke="#110604" stroke-width="0.24" stroke-miterlimit="10"/>
<defs>
<linearGradient id="paint0_linear_3783_16969" x1="335.261" y1="187.429" x2="159.499" y2="340" gradientUnits="userSpaceOnUse">
<stop stop-color="#22D081" stop-opacity="0.57"/>
<stop offset="0.515881" stop-color="#33DA8E" stop-opacity="0.547776"/>
<stop offset="1" stop-color="#71FFBB" stop-opacity="0"/>
</linearGradient>
</defs>
</svg>
